%TF.GenerationSoftware,KiCad,Pcbnew,(6.0.5-0)*%
%TF.CreationDate,2024-08-15T15:02:19-04:00*%
%TF.ProjectId,SDTV2CSI,53445456-3243-4534-992e-6b696361645f,rev?*%
%TF.SameCoordinates,Original*%
%TF.FileFunction,Copper,L3,Inr*%
%TF.FilePolarity,Positive*%
%FSLAX46Y46*%
G04 Gerber Fmt 4.6, Leading zero omitted, Abs format (unit mm)*
G04 Created by KiCad (PCBNEW (6.0.5-0)) date 2024-08-15 15:02:19*
%MOMM*%
%LPD*%
G01*
G04 APERTURE LIST*
%TA.AperFunction,ComponentPad*%
%ADD10C,1.250000*%
%TD*%
%TA.AperFunction,ComponentPad*%
%ADD11C,2.050000*%
%TD*%
%TA.AperFunction,ComponentPad*%
%ADD12C,2.250000*%
%TD*%
%TA.AperFunction,ViaPad*%
%ADD13C,0.600000*%
%TD*%
%TA.AperFunction,ViaPad*%
%ADD14C,0.800000*%
%TD*%
%TA.AperFunction,Conductor*%
%ADD15C,0.500000*%
%TD*%
%TA.AperFunction,Conductor*%
%ADD16C,1.000000*%
%TD*%
G04 APERTURE END LIST*
D10*
%TO.N,GND*%
%TO.C,J3*%
X150500000Y-68000000D03*
%TO.N,CD0-*%
X152500000Y-67000000D03*
%TO.N,CD0+*%
X150500000Y-66000000D03*
%TO.N,GND*%
X152500000Y-65000000D03*
%TO.N,CD1-*%
X150500000Y-64000000D03*
%TO.N,CD1+*%
X152500000Y-63000000D03*
%TO.N,GND*%
X150500000Y-62000000D03*
%TO.N,CLK-*%
X152500000Y-61000000D03*
%TO.N,CLK+*%
X150500000Y-60000000D03*
%TO.N,GND*%
X152500000Y-59000000D03*
%TO.N,PWR_EN*%
X150500000Y-57999998D03*
%TO.N,LED_EN*%
X152500000Y-57000000D03*
%TO.N,SCL*%
X150500000Y-56000000D03*
%TO.N,SDA*%
X152500000Y-55000000D03*
%TO.N,+3V3*%
X150500000Y-54000000D03*
%TD*%
D11*
%TO.N,video_in2*%
%TO.C,J2*%
X122960000Y-67960000D03*
D12*
%TO.N,GND*%
X120420000Y-65420000D03*
X125500000Y-70500000D03*
X125500000Y-65420000D03*
X120420000Y-70500000D03*
%TD*%
D11*
%TO.N,video_in1*%
%TO.C,J1*%
X112500000Y-67000000D03*
D12*
%TO.N,GND*%
X109960000Y-64460000D03*
X109960000Y-69540000D03*
X115040000Y-64460000D03*
X115040000Y-69540000D03*
%TD*%
D13*
%TO.N,GND*%
X147930000Y-56800000D03*
X157250000Y-50500000D03*
X130820000Y-68940000D03*
D14*
X99800000Y-67930000D03*
X159650000Y-54750000D03*
D13*
X145420000Y-60440000D03*
X148940000Y-50740000D03*
D14*
X136000000Y-51250000D03*
X161200000Y-53670000D03*
D13*
X139190000Y-68320000D03*
D14*
X135190000Y-66750000D03*
D13*
X141600000Y-58530000D03*
D14*
X134750000Y-55750000D03*
D13*
X133670000Y-68930000D03*
D14*
X132410000Y-56340000D03*
X158320000Y-70240000D03*
D13*
X145860000Y-66480000D03*
D14*
X134600000Y-58990000D03*
X142230000Y-63990000D03*
X156500000Y-55600000D03*
D13*
X128595000Y-63440000D03*
X141845000Y-68060000D03*
D14*
X147600000Y-58650000D03*
D13*
X144695000Y-68070000D03*
D14*
X160860000Y-67480000D03*
X161200000Y-50480000D03*
X105360000Y-62460000D03*
D13*
X144500000Y-62890000D03*
D14*
X162380000Y-71690000D03*
X137200000Y-50650000D03*
D13*
X130820000Y-68060000D03*
X139180000Y-71170000D03*
X153930000Y-53170000D03*
X128595000Y-62560000D03*
X144000000Y-50720000D03*
X143750000Y-52702300D03*
X149150000Y-54340000D03*
X132750000Y-64170000D03*
X131445000Y-63430000D03*
X133670000Y-68070000D03*
X138170000Y-55560000D03*
X144670000Y-56120000D03*
D14*
X100460000Y-71770000D03*
X152975000Y-69100000D03*
X156590000Y-65490000D03*
X131280000Y-65180000D03*
D13*
X141845000Y-68940000D03*
X153060000Y-50320000D03*
X148750000Y-58175000D03*
D14*
X162500000Y-58500000D03*
D13*
X131445000Y-62570000D03*
D14*
X136450000Y-67820000D03*
D13*
X153530000Y-62000000D03*
X153070000Y-53170000D03*
X139410000Y-56080000D03*
D14*
X131620000Y-72350000D03*
D13*
X142390000Y-55630000D03*
X141710000Y-54550000D03*
X144695000Y-68930000D03*
D14*
X124230000Y-61810000D03*
X145120000Y-58660000D03*
X135800000Y-64100000D03*
D13*
X153940000Y-50320000D03*
X138310000Y-68320000D03*
D14*
X161450000Y-57240000D03*
X142050000Y-53170000D03*
X161450000Y-59760000D03*
X145860000Y-64110000D03*
D13*
X144790000Y-59760000D03*
D14*
X128990000Y-66150000D03*
X162230000Y-51750000D03*
X148880000Y-64110000D03*
D13*
X138320000Y-71170000D03*
X122850000Y-64090000D03*
X147660000Y-67330000D03*
X147890000Y-52702300D03*
X149280000Y-55610000D03*
D14*
%TO.N,+1V8*%
X159600000Y-57200000D03*
X158650000Y-57500000D03*
X157975000Y-58225000D03*
X141250000Y-70650000D03*
X142440000Y-70650000D03*
X133200000Y-70650000D03*
X130000000Y-65500000D03*
D13*
%TO.N,PWR_EN*%
X134630000Y-60000000D03*
%TO.N,SCL*%
X135080000Y-62752300D03*
%TO.N,SDA*%
X135080000Y-62000000D03*
%TO.N,DVDDIO*%
X140240000Y-66820000D03*
X133490000Y-63680000D03*
D14*
X150750000Y-51750000D03*
X136980000Y-66890000D03*
X149850000Y-51750000D03*
D13*
%TO.N,MVDD*%
X143250000Y-66110000D03*
X144610000Y-60590000D03*
%TO.N,PVDD*%
X131220000Y-61400000D03*
X141156787Y-55106787D03*
%TD*%
D15*
%TO.N,GND*%
X130820000Y-68060000D02*
X130820000Y-68940000D01*
X138320000Y-71170000D02*
X139180000Y-71170000D01*
D16*
%TO.N,DVDDIO*%
X137000000Y-51750000D02*
X149850000Y-51750000D01*
D15*
X140240000Y-66820000D02*
X137090000Y-66820000D01*
D16*
X133500000Y-55250000D02*
X137000000Y-51750000D01*
X136980000Y-66890000D02*
X133500000Y-63410000D01*
X133500000Y-63410000D02*
X133500000Y-55250000D01*
D15*
X136980000Y-66890000D02*
X140170000Y-66890000D01*
X140170000Y-66890000D02*
X140240000Y-66820000D01*
%TD*%
%TA.AperFunction,Conductor*%
%TO.N,GND*%
G36*
X160730612Y-49205750D02*
G01*
X160735806Y-49205759D01*
X160749635Y-49208939D01*
X160763474Y-49205807D01*
X160777665Y-49205832D01*
X160777664Y-49206402D01*
X160785899Y-49205716D01*
X160914933Y-49212963D01*
X161056025Y-49220886D01*
X161070057Y-49222467D01*
X161217661Y-49247546D01*
X161365259Y-49272624D01*
X161379034Y-49275768D01*
X161469034Y-49301696D01*
X161666770Y-49358663D01*
X161680089Y-49363324D01*
X161956736Y-49477915D01*
X161969459Y-49484042D01*
X162054834Y-49531227D01*
X162231525Y-49628881D01*
X162243489Y-49636398D01*
X162487696Y-49809672D01*
X162498742Y-49818482D01*
X162722006Y-50018002D01*
X162731998Y-50027994D01*
X162931518Y-50251258D01*
X162940328Y-50262304D01*
X163113602Y-50506511D01*
X163121119Y-50518475D01*
X163265956Y-50780537D01*
X163272085Y-50793264D01*
X163386676Y-51069911D01*
X163391337Y-51083230D01*
X163436082Y-51238543D01*
X163474232Y-51370966D01*
X163477376Y-51384741D01*
X163524937Y-51664663D01*
X163527532Y-51679938D01*
X163529114Y-51693975D01*
X163541539Y-51915227D01*
X163544252Y-51963534D01*
X163543563Y-51971618D01*
X163544266Y-51971619D01*
X163544241Y-51985805D01*
X163541061Y-51999635D01*
X163544193Y-52013476D01*
X163544185Y-52017936D01*
X163546300Y-52036865D01*
X163546300Y-69962553D01*
X163544250Y-69980612D01*
X163544241Y-69985806D01*
X163541061Y-69999635D01*
X163544193Y-70013474D01*
X163544168Y-70027665D01*
X163543598Y-70027664D01*
X163544284Y-70035899D01*
X163530915Y-70273958D01*
X163529114Y-70306021D01*
X163527533Y-70320057D01*
X163518505Y-70373190D01*
X163477376Y-70615259D01*
X163474232Y-70629034D01*
X163391337Y-70916770D01*
X163386676Y-70930089D01*
X163294115Y-71153552D01*
X163272087Y-71206732D01*
X163265956Y-71219463D01*
X163121119Y-71481525D01*
X163113602Y-71493489D01*
X162940328Y-71737696D01*
X162931518Y-71748742D01*
X162731998Y-71972006D01*
X162722006Y-71981998D01*
X162498742Y-72181518D01*
X162487696Y-72190328D01*
X162243489Y-72363602D01*
X162231525Y-72371119D01*
X162080752Y-72454449D01*
X161969459Y-72515958D01*
X161956736Y-72522085D01*
X161680089Y-72636676D01*
X161666770Y-72641337D01*
X161469034Y-72698304D01*
X161379034Y-72724232D01*
X161365259Y-72727376D01*
X161217660Y-72752454D01*
X161070057Y-72777533D01*
X161056025Y-72779114D01*
X160786465Y-72794252D01*
X160778382Y-72793563D01*
X160778381Y-72794266D01*
X160764195Y-72794241D01*
X160750365Y-72791061D01*
X160736524Y-72794193D01*
X160732064Y-72794185D01*
X160713135Y-72796300D01*
X101787447Y-72796300D01*
X101769388Y-72794250D01*
X101764194Y-72794241D01*
X101750365Y-72791061D01*
X101736526Y-72794193D01*
X101722335Y-72794168D01*
X101722336Y-72793598D01*
X101714101Y-72794284D01*
X101585067Y-72787037D01*
X101443975Y-72779114D01*
X101429943Y-72777533D01*
X101282339Y-72752454D01*
X101134741Y-72727376D01*
X101120966Y-72724232D01*
X101030966Y-72698304D01*
X100833230Y-72641337D01*
X100819911Y-72636676D01*
X100543264Y-72522085D01*
X100530541Y-72515958D01*
X100419248Y-72454449D01*
X100268475Y-72371119D01*
X100256511Y-72363602D01*
X100012304Y-72190328D01*
X100001258Y-72181518D01*
X99777994Y-71981998D01*
X99768002Y-71972006D01*
X99568482Y-71748742D01*
X99559672Y-71737696D01*
X99409890Y-71526598D01*
X119578351Y-71526598D01*
X119587648Y-71538614D01*
X119748858Y-71651494D01*
X119758344Y-71656972D01*
X119959011Y-71750545D01*
X119969303Y-71754291D01*
X120183166Y-71811595D01*
X120193958Y-71813498D01*
X120414525Y-71832795D01*
X120425475Y-71832795D01*
X120646042Y-71813498D01*
X120656834Y-71811595D01*
X120870697Y-71754291D01*
X120880989Y-71750545D01*
X121081656Y-71656972D01*
X121091142Y-71651494D01*
X121253190Y-71538028D01*
X121261565Y-71527550D01*
X121261065Y-71526598D01*
X124658351Y-71526598D01*
X124667648Y-71538614D01*
X124828858Y-71651494D01*
X124838344Y-71656972D01*
X125039011Y-71750545D01*
X125049303Y-71754291D01*
X125263166Y-71811595D01*
X125273958Y-71813498D01*
X125494525Y-71832795D01*
X125505475Y-71832795D01*
X125726042Y-71813498D01*
X125736834Y-71811595D01*
X125950697Y-71754291D01*
X125960989Y-71750545D01*
X126161656Y-71656972D01*
X126171142Y-71651494D01*
X126333190Y-71538028D01*
X126341565Y-71527550D01*
X126334497Y-71514102D01*
X125512812Y-70692417D01*
X125498868Y-70684803D01*
X125497035Y-70684934D01*
X125490420Y-70689185D01*
X124664781Y-71514824D01*
X124658351Y-71526598D01*
X121261065Y-71526598D01*
X121254497Y-71514102D01*
X120432812Y-70692417D01*
X120418868Y-70684803D01*
X120417035Y-70684934D01*
X120410420Y-70689185D01*
X119584781Y-71514824D01*
X119578351Y-71526598D01*
X99409890Y-71526598D01*
X99386398Y-71493489D01*
X99378881Y-71481525D01*
X99234044Y-71219463D01*
X99227913Y-71206732D01*
X99205885Y-71153552D01*
X99113324Y-70930089D01*
X99108663Y-70916770D01*
X99025768Y-70629034D01*
X99022624Y-70615259D01*
X98981495Y-70373190D01*
X98972467Y-70320057D01*
X98970886Y-70306021D01*
X98955764Y-70036750D01*
X98957655Y-70014908D01*
X98956511Y-70014776D01*
X98957327Y-70007678D01*
X98958938Y-70000729D01*
X98958939Y-70000000D01*
X98956854Y-69990861D01*
X98953700Y-69962846D01*
X98953700Y-69500000D01*
X100619474Y-69500000D01*
X100639548Y-69755070D01*
X100640702Y-69759875D01*
X100640703Y-69759883D01*
X100663550Y-69855043D01*
X100699278Y-70003860D01*
X100701171Y-70008431D01*
X100701172Y-70008433D01*
X100790645Y-70224439D01*
X100797191Y-70240243D01*
X100930877Y-70458399D01*
X101097044Y-70652956D01*
X101291601Y-70819123D01*
X101509757Y-70952809D01*
X101514327Y-70954702D01*
X101514331Y-70954704D01*
X101741567Y-71048828D01*
X101746140Y-71050722D01*
X101834157Y-71071853D01*
X101990117Y-71109297D01*
X101990123Y-71109298D01*
X101994930Y-71110452D01*
X102083569Y-71117428D01*
X102183680Y-71125307D01*
X102183689Y-71125307D01*
X102186137Y-71125500D01*
X102313863Y-71125500D01*
X102316311Y-71125307D01*
X102316320Y-71125307D01*
X102416431Y-71117428D01*
X102505070Y-71110452D01*
X102509877Y-71109298D01*
X102509883Y-71109297D01*
X102665843Y-71071853D01*
X102753860Y-71050722D01*
X102758433Y-71048828D01*
X102985669Y-70954704D01*
X102985673Y-70954702D01*
X102990243Y-70952809D01*
X103208399Y-70819123D01*
X103402956Y-70652956D01*
X103476713Y-70566598D01*
X109118351Y-70566598D01*
X109127648Y-70578614D01*
X109288858Y-70691494D01*
X109298344Y-70696972D01*
X109499011Y-70790545D01*
X109509303Y-70794291D01*
X109723166Y-70851595D01*
X109733958Y-70853498D01*
X109954525Y-70872795D01*
X109965475Y-70872795D01*
X110186042Y-70853498D01*
X110196834Y-70851595D01*
X110410697Y-70794291D01*
X110420989Y-70790545D01*
X110621656Y-70696972D01*
X110631142Y-70691494D01*
X110793190Y-70578028D01*
X110801565Y-70567550D01*
X110801065Y-70566598D01*
X114198351Y-70566598D01*
X114207648Y-70578614D01*
X114368858Y-70691494D01*
X114378344Y-70696972D01*
X114579011Y-70790545D01*
X114589303Y-70794291D01*
X114803166Y-70851595D01*
X114813958Y-70853498D01*
X115034525Y-70872795D01*
X115045475Y-70872795D01*
X115266042Y-70853498D01*
X115276834Y-70851595D01*
X115490697Y-70794291D01*
X115500989Y-70790545D01*
X115701656Y-70696972D01*
X115711142Y-70691494D01*
X115873190Y-70578028D01*
X115881565Y-70567550D01*
X115874497Y-70554102D01*
X115825870Y-70505475D01*
X119087205Y-70505475D01*
X119106502Y-70726042D01*
X119108405Y-70736834D01*
X119165709Y-70950697D01*
X119169455Y-70960989D01*
X119263028Y-71161656D01*
X119268506Y-71171142D01*
X119381972Y-71333190D01*
X119392450Y-71341565D01*
X119405898Y-71334497D01*
X120227583Y-70512812D01*
X120233961Y-70501132D01*
X120604803Y-70501132D01*
X120604934Y-70502965D01*
X120609185Y-70509580D01*
X121434824Y-71335219D01*
X121446598Y-71341649D01*
X121458614Y-71332352D01*
X121571494Y-71171142D01*
X121576972Y-71161656D01*
X121670545Y-70960989D01*
X121674291Y-70950697D01*
X121731595Y-70736834D01*
X121733498Y-70726042D01*
X121752795Y-70505475D01*
X124167205Y-70505475D01*
X124186502Y-70726042D01*
X124188405Y-70736834D01*
X124245709Y-70950697D01*
X124249455Y-70960989D01*
X124343028Y-71161656D01*
X124348506Y-71171142D01*
X124461972Y-71333190D01*
X124472450Y-71341565D01*
X124485898Y-71334497D01*
X125307583Y-70512812D01*
X125313961Y-70501132D01*
X125684803Y-70501132D01*
X125684934Y-70502965D01*
X125689185Y-70509580D01*
X126514824Y-71335219D01*
X126526598Y-71341649D01*
X126538614Y-71332352D01*
X126651494Y-71171142D01*
X126656972Y-71161656D01*
X126750545Y-70960989D01*
X126754291Y-70950697D01*
X126811595Y-70736834D01*
X126813498Y-70726042D01*
X126832795Y-70505475D01*
X126832795Y-70494525D01*
X126813498Y-70273958D01*
X126811595Y-70263166D01*
X126754291Y-70049303D01*
X126750545Y-70039011D01*
X126656972Y-69838344D01*
X126651494Y-69828858D01*
X126538028Y-69666810D01*
X126527550Y-69658435D01*
X126514102Y-69665503D01*
X125692417Y-70487188D01*
X125684803Y-70501132D01*
X125313961Y-70501132D01*
X125315197Y-70498868D01*
X125315066Y-70497035D01*
X125310815Y-70490420D01*
X124485176Y-69664781D01*
X124473402Y-69658351D01*
X124461386Y-69667648D01*
X124348506Y-69828858D01*
X124343028Y-69838344D01*
X124249455Y-70039011D01*
X124245709Y-70049303D01*
X124188405Y-70263166D01*
X124186502Y-70273958D01*
X124167205Y-70494525D01*
X124167205Y-70505475D01*
X121752795Y-70505475D01*
X121752795Y-70494525D01*
X121733498Y-70273958D01*
X121731595Y-70263166D01*
X121674291Y-70049303D01*
X121670545Y-70039011D01*
X121576972Y-69838344D01*
X121571494Y-69828858D01*
X121458028Y-69666810D01*
X121447550Y-69658435D01*
X121434102Y-69665503D01*
X120612417Y-70487188D01*
X120604803Y-70501132D01*
X120233961Y-70501132D01*
X120235197Y-70498868D01*
X120235066Y-70497035D01*
X120230815Y-70490420D01*
X119405176Y-69664781D01*
X119393402Y-69658351D01*
X119381386Y-69667648D01*
X119268506Y-69828858D01*
X119263028Y-69838344D01*
X119169455Y-70039011D01*
X119165709Y-70049303D01*
X119108405Y-70263166D01*
X119106502Y-70273958D01*
X119087205Y-70494525D01*
X119087205Y-70505475D01*
X115825870Y-70505475D01*
X115052812Y-69732417D01*
X115038868Y-69724803D01*
X115037035Y-69724934D01*
X115030420Y-69729185D01*
X114204781Y-70554824D01*
X114198351Y-70566598D01*
X110801065Y-70566598D01*
X110794497Y-70554102D01*
X109972812Y-69732417D01*
X109958868Y-69724803D01*
X109957035Y-69724934D01*
X109950420Y-69729185D01*
X109124781Y-70554824D01*
X109118351Y-70566598D01*
X103476713Y-70566598D01*
X103569123Y-70458399D01*
X103702809Y-70240243D01*
X103709356Y-70224439D01*
X103798828Y-70008433D01*
X103798829Y-70008431D01*
X103800722Y-70003860D01*
X103836450Y-69855043D01*
X103859297Y-69759883D01*
X103859298Y-69759875D01*
X103860452Y-69755070D01*
X103876947Y-69545475D01*
X108627205Y-69545475D01*
X108646502Y-69766042D01*
X108648405Y-69776834D01*
X108705709Y-69990697D01*
X108709455Y-70000989D01*
X108803028Y-70201656D01*
X108808506Y-70211142D01*
X108921972Y-70373190D01*
X108932450Y-70381565D01*
X108945898Y-70374497D01*
X109767583Y-69552812D01*
X109773961Y-69541132D01*
X110144803Y-69541132D01*
X110144934Y-69542965D01*
X110149185Y-69549580D01*
X110974824Y-70375219D01*
X110986598Y-70381649D01*
X110998614Y-70372352D01*
X111111494Y-70211142D01*
X111116972Y-70201656D01*
X111210545Y-70000989D01*
X111214291Y-69990697D01*
X111271595Y-69776834D01*
X111273498Y-69766042D01*
X111292795Y-69545475D01*
X113707205Y-69545475D01*
X113726502Y-69766042D01*
X113728405Y-69776834D01*
X113785709Y-69990697D01*
X113789455Y-70000989D01*
X113883028Y-70201656D01*
X113888506Y-70211142D01*
X114001972Y-70373190D01*
X114012450Y-70381565D01*
X114025898Y-70374497D01*
X114847583Y-69552812D01*
X114853961Y-69541132D01*
X115224803Y-69541132D01*
X115224934Y-69542965D01*
X115229185Y-69549580D01*
X116054824Y-70375219D01*
X116066598Y-70381649D01*
X116078614Y-70372352D01*
X116191494Y-70211142D01*
X116196972Y-70201656D01*
X116290545Y-70000989D01*
X116294291Y-69990697D01*
X116351595Y-69776834D01*
X116353498Y-69766042D01*
X116372795Y-69545475D01*
X116372795Y-69534525D01*
X116367364Y-69472450D01*
X119578435Y-69472450D01*
X119585503Y-69485898D01*
X120407188Y-70307583D01*
X120421132Y-70315197D01*
X120422965Y-70315066D01*
X120429580Y-70310815D01*
X121255219Y-69485176D01*
X121261649Y-69473402D01*
X121260912Y-69472450D01*
X124658435Y-69472450D01*
X124665503Y-69485898D01*
X125487188Y-70307583D01*
X125501132Y-70315197D01*
X125502965Y-70315066D01*
X125509580Y-70310815D01*
X126335219Y-69485176D01*
X126341649Y-69473402D01*
X126332352Y-69461386D01*
X126171142Y-69348506D01*
X126161656Y-69343028D01*
X125960989Y-69249455D01*
X125950697Y-69245709D01*
X125736834Y-69188405D01*
X125726042Y-69186502D01*
X125505475Y-69167205D01*
X125494525Y-69167205D01*
X125273958Y-69186502D01*
X125263166Y-69188405D01*
X125049303Y-69245709D01*
X125039011Y-69249455D01*
X124838344Y-69343028D01*
X124828858Y-69348506D01*
X124666810Y-69461972D01*
X124658435Y-69472450D01*
X121260912Y-69472450D01*
X121252352Y-69461386D01*
X121091142Y-69348506D01*
X121081656Y-69343028D01*
X120880989Y-69249455D01*
X120870697Y-69245709D01*
X120656834Y-69188405D01*
X120646042Y-69186502D01*
X120425475Y-69167205D01*
X120414525Y-69167205D01*
X120193958Y-69186502D01*
X120183166Y-69188405D01*
X119969303Y-69245709D01*
X119959011Y-69249455D01*
X119758344Y-69343028D01*
X119748858Y-69348506D01*
X119586810Y-69461972D01*
X119578435Y-69472450D01*
X116367364Y-69472450D01*
X116353498Y-69313958D01*
X116351595Y-69303166D01*
X116294291Y-69089303D01*
X116290545Y-69079011D01*
X116196972Y-68878344D01*
X116191494Y-68868858D01*
X116078028Y-68706810D01*
X116067550Y-68698435D01*
X116054102Y-68705503D01*
X115232417Y-69527188D01*
X115224803Y-69541132D01*
X114853961Y-69541132D01*
X114855197Y-69538868D01*
X114855066Y-69537035D01*
X114850815Y-69530420D01*
X114025176Y-68704781D01*
X114013402Y-68698351D01*
X114001386Y-68707648D01*
X113888506Y-68868858D01*
X113883028Y-68878344D01*
X113789455Y-69079011D01*
X113785709Y-69089303D01*
X113728405Y-69303166D01*
X113726502Y-69313958D01*
X113707205Y-69534525D01*
X113707205Y-69545475D01*
X111292795Y-69545475D01*
X111292795Y-69534525D01*
X111273498Y-69313958D01*
X111271595Y-69303166D01*
X111214291Y-69089303D01*
X111210545Y-69079011D01*
X111116972Y-68878344D01*
X111111494Y-68868858D01*
X110998028Y-68706810D01*
X110987550Y-68698435D01*
X110974102Y-68705503D01*
X110152417Y-69527188D01*
X110144803Y-69541132D01*
X109773961Y-69541132D01*
X109775197Y-69538868D01*
X109775066Y-69537035D01*
X109770815Y-69530420D01*
X108945176Y-68704781D01*
X108933402Y-68698351D01*
X108921386Y-68707648D01*
X108808506Y-68868858D01*
X108803028Y-68878344D01*
X108709455Y-69079011D01*
X108705709Y-69089303D01*
X108648405Y-69303166D01*
X108646502Y-69313958D01*
X108627205Y-69534525D01*
X108627205Y-69545475D01*
X103876947Y-69545475D01*
X103880526Y-69500000D01*
X103860452Y-69244930D01*
X103859298Y-69240123D01*
X103859297Y-69240117D01*
X103807650Y-69024996D01*
X103800722Y-68996140D01*
X103766513Y-68913552D01*
X103704704Y-68764331D01*
X103704702Y-68764327D01*
X103702809Y-68759757D01*
X103569123Y-68541601D01*
X103544226Y-68512450D01*
X109118435Y-68512450D01*
X109125503Y-68525898D01*
X109947188Y-69347583D01*
X109961132Y-69355197D01*
X109962965Y-69355066D01*
X109969580Y-69350815D01*
X110795219Y-68525176D01*
X110801649Y-68513402D01*
X110800912Y-68512450D01*
X114198435Y-68512450D01*
X114205503Y-68525898D01*
X115027188Y-69347583D01*
X115041132Y-69355197D01*
X115042965Y-69355066D01*
X115049580Y-69350815D01*
X115875219Y-68525176D01*
X115881649Y-68513402D01*
X115872352Y-68501386D01*
X115711142Y-68388506D01*
X115701656Y-68383028D01*
X115500989Y-68289455D01*
X115490697Y-68285709D01*
X115276834Y-68228405D01*
X115266042Y-68226502D01*
X115045475Y-68207205D01*
X115034525Y-68207205D01*
X114813958Y-68226502D01*
X114803166Y-68228405D01*
X114589303Y-68285709D01*
X114579011Y-68289455D01*
X114378344Y-68383028D01*
X114368858Y-68388506D01*
X114206810Y-68501972D01*
X114198435Y-68512450D01*
X110800912Y-68512450D01*
X110792352Y-68501386D01*
X110631142Y-68388506D01*
X110621656Y-68383028D01*
X110420989Y-68289455D01*
X110410697Y-68285709D01*
X110196834Y-68228405D01*
X110186042Y-68226502D01*
X109965475Y-68207205D01*
X109954525Y-68207205D01*
X109733958Y-68226502D01*
X109723166Y-68228405D01*
X109509303Y-68285709D01*
X109499011Y-68289455D01*
X109298344Y-68383028D01*
X109288858Y-68388506D01*
X109126810Y-68501972D01*
X109118435Y-68512450D01*
X103544226Y-68512450D01*
X103402956Y-68347044D01*
X103208399Y-68180877D01*
X102990243Y-68047191D01*
X102985673Y-68045298D01*
X102985669Y-68045296D01*
X102758433Y-67951172D01*
X102758431Y-67951171D01*
X102753860Y-67949278D01*
X102665843Y-67928147D01*
X102509883Y-67890703D01*
X102509877Y-67890702D01*
X102505070Y-67889548D01*
X102416431Y-67882572D01*
X102316320Y-67874693D01*
X102316311Y-67874693D01*
X102313863Y-67874500D01*
X102186137Y-67874500D01*
X102183689Y-67874693D01*
X102183680Y-67874693D01*
X102083569Y-67882572D01*
X101994930Y-67889548D01*
X101990123Y-67890702D01*
X101990117Y-67890703D01*
X101834157Y-67928147D01*
X101746140Y-67949278D01*
X101741569Y-67951171D01*
X101741567Y-67951172D01*
X101514331Y-68045296D01*
X101514327Y-68045298D01*
X101509757Y-68047191D01*
X101291601Y-68180877D01*
X101097044Y-68347044D01*
X100930877Y-68541601D01*
X100797191Y-68759757D01*
X100795298Y-68764327D01*
X100795296Y-68764331D01*
X100733487Y-68913552D01*
X100699278Y-68996140D01*
X100692350Y-69024996D01*
X100640703Y-69240117D01*
X100640702Y-69240123D01*
X100639548Y-69244930D01*
X100619474Y-69500000D01*
X98953700Y-69500000D01*
X98953700Y-68787739D01*
X98956955Y-68759286D01*
X98957326Y-68757686D01*
X98957327Y-68757681D01*
X98958938Y-68750729D01*
X98958939Y-68750000D01*
X98957357Y-68743064D01*
X98956565Y-68735990D01*
X98957418Y-68735895D01*
X98955479Y-68713792D01*
X98964745Y-68525176D01*
X98966861Y-68482093D01*
X98968073Y-68469792D01*
X98973145Y-68435604D01*
X99006522Y-68210593D01*
X99008933Y-68198468D01*
X99013340Y-68180877D01*
X99031223Y-68109483D01*
X99072604Y-67944283D01*
X99076193Y-67932451D01*
X99164471Y-67685730D01*
X99169203Y-67674306D01*
X99281238Y-67437428D01*
X99287067Y-67426523D01*
X99421782Y-67201765D01*
X99428652Y-67191484D01*
X99570666Y-67000000D01*
X111266607Y-67000000D01*
X111285345Y-67214176D01*
X111286769Y-67219489D01*
X111286769Y-67219491D01*
X111324888Y-67361750D01*
X111340990Y-67421845D01*
X111343313Y-67426826D01*
X111343313Y-67426827D01*
X111422681Y-67597032D01*
X111431850Y-67616696D01*
X111555166Y-67792810D01*
X111707190Y-67944834D01*
X111711698Y-67947991D01*
X111711701Y-67947993D01*
X111781972Y-67997197D01*
X111883303Y-68068150D01*
X111888287Y-68070474D01*
X112073166Y-68156684D01*
X112073170Y-68156685D01*
X112078155Y-68159010D01*
X112171766Y-68184093D01*
X112280509Y-68213231D01*
X112280511Y-68213231D01*
X112285824Y-68214655D01*
X112500000Y-68233393D01*
X112714176Y-68214655D01*
X112719489Y-68213231D01*
X112719491Y-68213231D01*
X112828234Y-68184093D01*
X112921845Y-68159010D01*
X112926830Y-68156685D01*
X112926834Y-68156684D01*
X113111713Y-68070474D01*
X113116697Y-68068150D01*
X113218028Y-67997197D01*
X113271151Y-67960000D01*
X121726607Y-67960000D01*
X121745345Y-68174176D01*
X121746769Y-68179489D01*
X121746769Y-68179491D01*
X121798414Y-68372230D01*
X121800990Y-68381845D01*
X121803313Y-68386826D01*
X121803313Y-68386827D01*
X121868163Y-68525898D01*
X121891850Y-68576696D01*
X122015166Y-68752810D01*
X122167190Y-68904834D01*
X122171698Y-68907991D01*
X122171701Y-68907993D01*
X122226621Y-68946448D01*
X122343303Y-69028150D01*
X122348287Y-69030474D01*
X122533166Y-69116684D01*
X122533170Y-69116685D01*
X122538155Y-69119010D01*
X122617972Y-69140397D01*
X122740509Y-69173231D01*
X122740511Y-69173231D01*
X122745824Y-69174655D01*
X122960000Y-69193393D01*
X123174176Y-69174655D01*
X123179489Y-69173231D01*
X123179491Y-69173231D01*
X123302028Y-69140397D01*
X123381845Y-69119010D01*
X123386830Y-69116685D01*
X123386834Y-69116684D01*
X123571713Y-69030474D01*
X123576697Y-69028150D01*
X123693379Y-68946448D01*
X123748299Y-68907993D01*
X123748302Y-68907991D01*
X123752810Y-68904834D01*
X123904834Y-68752810D01*
X124028150Y-68576696D01*
X124051838Y-68525898D01*
X124116687Y-68386827D01*
X124116687Y-68386826D01*
X124119010Y-68381845D01*
X124121587Y-68372230D01*
X124173231Y-68179491D01*
X124173231Y-68179489D01*
X124174655Y-68174176D01*
X124193393Y-67960000D01*
X124174655Y-67745824D01*
X124140055Y-67616696D01*
X124120433Y-67543465D01*
X124120432Y-67543463D01*
X124119010Y-67538155D01*
X124114073Y-67527567D01*
X124030473Y-67348285D01*
X124030471Y-67348282D01*
X124028150Y-67343304D01*
X123904834Y-67167190D01*
X123752810Y-67015166D01*
X123748302Y-67012009D01*
X123748299Y-67012007D01*
X123586047Y-66898397D01*
X123576697Y-66891850D01*
X123549540Y-66879186D01*
X123386834Y-66803316D01*
X123386830Y-66803315D01*
X123381845Y-66800990D01*
X123234590Y-66761533D01*
X123179491Y-66746769D01*
X123179489Y-66746769D01*
X123174176Y-66745345D01*
X122960000Y-66726607D01*
X122745824Y-66745345D01*
X122740511Y-66746769D01*
X122740509Y-66746769D01*
X122543465Y-66799567D01*
X122543463Y-66799568D01*
X122538155Y-66800990D01*
X122533174Y-66803313D01*
X122533173Y-66803313D01*
X122348285Y-66889527D01*
X122348282Y-66889529D01*
X122343304Y-66891850D01*
X122167190Y-67015166D01*
X122015166Y-67167190D01*
X121891850Y-67343304D01*
X121889529Y-67348282D01*
X121889527Y-67348285D01*
X121805927Y-67527567D01*
X121800990Y-67538155D01*
X121799568Y-67543463D01*
X121799567Y-67543465D01*
X121779945Y-67616696D01*
X121745345Y-67745824D01*
X121726607Y-67960000D01*
X113271151Y-67960000D01*
X113288299Y-67947993D01*
X113288302Y-67947991D01*
X113292810Y-67944834D01*
X113444834Y-67792810D01*
X113568150Y-67616696D01*
X113577320Y-67597032D01*
X113656687Y-67426827D01*
X113656687Y-67426826D01*
X113659010Y-67421845D01*
X113675113Y-67361750D01*
X113713231Y-67219491D01*
X113713231Y-67219489D01*
X113714655Y-67214176D01*
X113733393Y-67000000D01*
X113714655Y-66785824D01*
X113684770Y-66674291D01*
X113660433Y-66583465D01*
X113660432Y-66583463D01*
X113659010Y-66578155D01*
X113652378Y-66563933D01*
X113597664Y-66446598D01*
X119578351Y-66446598D01*
X119587648Y-66458614D01*
X119748858Y-66571494D01*
X119758344Y-66576972D01*
X119959011Y-66670545D01*
X119969303Y-66674291D01*
X120183166Y-66731595D01*
X120193958Y-66733498D01*
X120414525Y-66752795D01*
X120425475Y-66752795D01*
X120646042Y-66733498D01*
X120656834Y-66731595D01*
X120870697Y-66674291D01*
X120880989Y-66670545D01*
X121081656Y-66576972D01*
X121091142Y-66571494D01*
X121253190Y-66458028D01*
X121261565Y-66447550D01*
X121261065Y-66446598D01*
X124658351Y-66446598D01*
X124667648Y-66458614D01*
X124828858Y-66571494D01*
X124838344Y-66576972D01*
X125039011Y-66670545D01*
X125049303Y-66674291D01*
X125263166Y-66731595D01*
X125273958Y-66733498D01*
X125494525Y-66752795D01*
X125505475Y-66752795D01*
X125726042Y-66733498D01*
X125736834Y-66731595D01*
X125950697Y-66674291D01*
X125960989Y-66670545D01*
X126161656Y-66576972D01*
X126171142Y-66571494D01*
X126333190Y-66458028D01*
X126341565Y-66447550D01*
X126334497Y-66434102D01*
X125512812Y-65612417D01*
X125498868Y-65604803D01*
X125497035Y-65604934D01*
X125490420Y-65609185D01*
X124664781Y-66434824D01*
X124658351Y-66446598D01*
X121261065Y-66446598D01*
X121254497Y-66434102D01*
X120432812Y-65612417D01*
X120418868Y-65604803D01*
X120417035Y-65604934D01*
X120410420Y-65609185D01*
X119584781Y-66434824D01*
X119578351Y-66446598D01*
X113597664Y-66446598D01*
X113570473Y-66388285D01*
X113570471Y-66388282D01*
X113568150Y-66383304D01*
X113444834Y-66207190D01*
X113292810Y-66055166D01*
X113288302Y-66052009D01*
X113288299Y-66052007D01*
X113155474Y-65959002D01*
X113116697Y-65931850D01*
X113070519Y-65910317D01*
X112926834Y-65843316D01*
X112926830Y-65843315D01*
X112921845Y-65840990D01*
X112805797Y-65809895D01*
X112719491Y-65786769D01*
X112719489Y-65786769D01*
X112714176Y-65785345D01*
X112500000Y-65766607D01*
X112285824Y-65785345D01*
X112280511Y-65786769D01*
X112280509Y-65786769D01*
X112083465Y-65839567D01*
X112083463Y-65839568D01*
X112078155Y-65840990D01*
X112073174Y-65843313D01*
X112073173Y-65843313D01*
X111888285Y-65929527D01*
X111888282Y-65929529D01*
X111883304Y-65931850D01*
X111707190Y-66055166D01*
X111555166Y-66207190D01*
X111431850Y-66383304D01*
X111429529Y-66388282D01*
X111429527Y-66388285D01*
X111347622Y-66563933D01*
X111340990Y-66578155D01*
X111339568Y-66583463D01*
X111339567Y-66583465D01*
X111315230Y-66674291D01*
X111285345Y-66785824D01*
X111266607Y-67000000D01*
X99570666Y-67000000D01*
X99584744Y-66981018D01*
X99592588Y-66971460D01*
X99674900Y-66880642D01*
X99748178Y-66799792D01*
X99754423Y-66794565D01*
X99754086Y-66794227D01*
X99764140Y-66784208D01*
X99776164Y-66776680D01*
X99783734Y-66764682D01*
X99786894Y-66761533D01*
X99798786Y-66746650D01*
X101058838Y-65486598D01*
X109118351Y-65486598D01*
X109127648Y-65498614D01*
X109288858Y-65611494D01*
X109298344Y-65616972D01*
X109499011Y-65710545D01*
X109509303Y-65714291D01*
X109723166Y-65771595D01*
X109733958Y-65773498D01*
X109954525Y-65792795D01*
X109965475Y-65792795D01*
X110186042Y-65773498D01*
X110196834Y-65771595D01*
X110410697Y-65714291D01*
X110420989Y-65710545D01*
X110621656Y-65616972D01*
X110631142Y-65611494D01*
X110793190Y-65498028D01*
X110801565Y-65487550D01*
X110801065Y-65486598D01*
X114198351Y-65486598D01*
X114207648Y-65498614D01*
X114368858Y-65611494D01*
X114378344Y-65616972D01*
X114579011Y-65710545D01*
X114589303Y-65714291D01*
X114803166Y-65771595D01*
X114813958Y-65773498D01*
X115034525Y-65792795D01*
X115045475Y-65792795D01*
X115266042Y-65773498D01*
X115276834Y-65771595D01*
X115490697Y-65714291D01*
X115500989Y-65710545D01*
X115701656Y-65616972D01*
X115711142Y-65611494D01*
X115873190Y-65498028D01*
X115881565Y-65487550D01*
X115874497Y-65474102D01*
X115825870Y-65425475D01*
X119087205Y-65425475D01*
X119106502Y-65646042D01*
X119108405Y-65656834D01*
X119165709Y-65870697D01*
X119169455Y-65880989D01*
X119263028Y-66081656D01*
X119268506Y-66091142D01*
X119381972Y-66253190D01*
X119392450Y-66261565D01*
X119405898Y-66254497D01*
X120227583Y-65432812D01*
X120233961Y-65421132D01*
X120604803Y-65421132D01*
X120604934Y-65422965D01*
X120609185Y-65429580D01*
X121434824Y-66255219D01*
X121446598Y-66261649D01*
X121458614Y-66252352D01*
X121571494Y-66091142D01*
X121576972Y-66081656D01*
X121670545Y-65880989D01*
X121674291Y-65870697D01*
X121731595Y-65656834D01*
X121733498Y-65646042D01*
X121752795Y-65425475D01*
X124167205Y-65425475D01*
X124186502Y-65646042D01*
X124188405Y-65656834D01*
X124245709Y-65870697D01*
X124249455Y-65880989D01*
X124343028Y-66081656D01*
X124348506Y-66091142D01*
X124461972Y-66253190D01*
X124472450Y-66261565D01*
X124485898Y-66254497D01*
X125307583Y-65432812D01*
X125313961Y-65421132D01*
X125684803Y-65421132D01*
X125684934Y-65422965D01*
X125689185Y-65429580D01*
X126514824Y-66255219D01*
X126526598Y-66261649D01*
X126538614Y-66252352D01*
X126651494Y-66091142D01*
X126656972Y-66081656D01*
X126750545Y-65880989D01*
X126754291Y-65870697D01*
X126811595Y-65656834D01*
X126813498Y-65646042D01*
X126826275Y-65500000D01*
X129391091Y-65500000D01*
X129411839Y-65657597D01*
X129414998Y-65665224D01*
X129414999Y-65665227D01*
X129469509Y-65796826D01*
X129472669Y-65804454D01*
X129474339Y-65806630D01*
X129490500Y-65866944D01*
X129490500Y-69447810D01*
X129491986Y-69475545D01*
X129492166Y-69477222D01*
X129492167Y-69477231D01*
X129493604Y-69490601D01*
X129494865Y-69502328D01*
X129525123Y-69598961D01*
X129528085Y-69604385D01*
X129528087Y-69604390D01*
X129556212Y-69655894D01*
X129559149Y-69661273D01*
X129561844Y-69664873D01*
X129600714Y-69716797D01*
X129600718Y-69716801D01*
X129603411Y-69720399D01*
X132029601Y-72146589D01*
X132050260Y-72165147D01*
X132071234Y-72182050D01*
X132160960Y-72228987D01*
X132166901Y-72230731D01*
X132166900Y-72230731D01*
X132224758Y-72247720D01*
X132224762Y-72247721D01*
X132229081Y-72248989D01*
X132233529Y-72249629D01*
X132233536Y-72249630D01*
X132297742Y-72258861D01*
X132297749Y-72258861D01*
X132302190Y-72259500D01*
X155697810Y-72259500D01*
X155699465Y-72259411D01*
X155699477Y-72259411D01*
X155723865Y-72258104D01*
X155725545Y-72258014D01*
X155727222Y-72257834D01*
X155727231Y-72257833D01*
X155746170Y-72255797D01*
X155746171Y-72255797D01*
X155752328Y-72255135D01*
X155807355Y-72237905D01*
X155843057Y-72226726D01*
X155843060Y-72226725D01*
X155848961Y-72224877D01*
X155854385Y-72221915D01*
X155854390Y-72221913D01*
X155907325Y-72193007D01*
X155907327Y-72193006D01*
X155911273Y-72190851D01*
X155947121Y-72164015D01*
X155966797Y-72149286D01*
X155966801Y-72149282D01*
X155970399Y-72146589D01*
X157850961Y-70266027D01*
X157853009Y-70263505D01*
X157853016Y-70263497D01*
X157882677Y-70226966D01*
X157884729Y-70224439D01*
X157913027Y-70181114D01*
X157937539Y-70133472D01*
X157938720Y-70130443D01*
X157938729Y-70130423D01*
X157963781Y-70066170D01*
X157978086Y-70039491D01*
X158015528Y-69986216D01*
X158035782Y-69963721D01*
X158084853Y-69920913D01*
X158109883Y-69903903D01*
X158156683Y-69879747D01*
X158194152Y-69860407D01*
X158206013Y-69855043D01*
X158228104Y-69846396D01*
X158228116Y-69846390D01*
X158232138Y-69844816D01*
X158291818Y-69811393D01*
X158348513Y-69768475D01*
X158427068Y-69689920D01*
X158489380Y-69655894D01*
X158560195Y-69660959D01*
X158617031Y-69703506D01*
X158638888Y-69755229D01*
X158639548Y-69755070D01*
X158699278Y-70003860D01*
X158701171Y-70008431D01*
X158701172Y-70008433D01*
X158790645Y-70224439D01*
X158797191Y-70240243D01*
X158930877Y-70458399D01*
X159097044Y-70652956D01*
X159291601Y-70819123D01*
X159509757Y-70952809D01*
X159514327Y-70954702D01*
X159514331Y-70954704D01*
X159741567Y-71048828D01*
X159746140Y-71050722D01*
X159834157Y-71071853D01*
X159990117Y-71109297D01*
X159990123Y-71109298D01*
X159994930Y-71110452D01*
X160083569Y-71117428D01*
X160183680Y-71125307D01*
X160183689Y-71125307D01*
X160186137Y-71125500D01*
X160313863Y-71125500D01*
X160316311Y-71125307D01*
X160316320Y-71125307D01*
X160416431Y-71117428D01*
X160505070Y-71110452D01*
X160509877Y-71109298D01*
X160509883Y-71109297D01*
X160665843Y-71071853D01*
X160753860Y-71050722D01*
X160758433Y-71048828D01*
X160985669Y-70954704D01*
X160985673Y-70954702D01*
X160990243Y-70952809D01*
X161208399Y-70819123D01*
X161402956Y-70652956D01*
X161569123Y-70458399D01*
X161702809Y-70240243D01*
X161709356Y-70224439D01*
X161798828Y-70008433D01*
X161798829Y-70008431D01*
X161800722Y-70003860D01*
X161836450Y-69855043D01*
X161859297Y-69759883D01*
X161859298Y-69759875D01*
X161860452Y-69755070D01*
X161880526Y-69500000D01*
X161860452Y-69244930D01*
X161859298Y-69240123D01*
X161859297Y-69240117D01*
X161807650Y-69024996D01*
X161800722Y-68996140D01*
X161766513Y-68913552D01*
X161704704Y-68764331D01*
X161704702Y-68764327D01*
X161702809Y-68759757D01*
X161569123Y-68541601D01*
X161402956Y-68347044D01*
X161208399Y-68180877D01*
X160990243Y-68047191D01*
X160985673Y-68045298D01*
X160985669Y-68045296D01*
X160758433Y-67951172D01*
X160758431Y-67951171D01*
X160753860Y-67949278D01*
X160665843Y-67928147D01*
X160509883Y-67890703D01*
X160509877Y-67890702D01*
X160505070Y-67889548D01*
X160500138Y-67889160D01*
X160495245Y-67888385D01*
X160495454Y-67887066D01*
X160434815Y-67863954D01*
X160392676Y-67806815D01*
X160388117Y-67735965D01*
X160401997Y-67703917D01*
X160400709Y-67703240D01*
X160403996Y-67696987D01*
X160407955Y-67691148D01*
X160412344Y-67679902D01*
X160442512Y-67602587D01*
X160442512Y-67602586D01*
X160444761Y-67596823D01*
X160455986Y-67533587D01*
X160456147Y-67533616D01*
X160456785Y-67527519D01*
X160457055Y-67527567D01*
X160457173Y-67526902D01*
X160457438Y-67518844D01*
X160457507Y-67516726D01*
X160459137Y-67503186D01*
X160459026Y-67503174D01*
X160459697Y-67497022D01*
X160460969Y-67490961D01*
X160461032Y-67484948D01*
X160461014Y-67484948D01*
X160461378Y-67481614D01*
X160461713Y-67478832D01*
X160472597Y-67396160D01*
X160480124Y-67366842D01*
X160483167Y-67359037D01*
X160486156Y-67348598D01*
X160492272Y-67327230D01*
X160496423Y-67312731D01*
X160503249Y-67276432D01*
X160504489Y-67269840D01*
X160504490Y-67269832D01*
X160505030Y-67266961D01*
X160508194Y-67233020D01*
X160509228Y-67221926D01*
X160509228Y-67221917D01*
X160509500Y-67219003D01*
X160509500Y-57552190D01*
X160508014Y-57524455D01*
X160505135Y-57497672D01*
X160474877Y-57401039D01*
X160471915Y-57395615D01*
X160471913Y-57395610D01*
X160443007Y-57342675D01*
X160443006Y-57342673D01*
X160440851Y-57338727D01*
X160436296Y-57332642D01*
X160399286Y-57283203D01*
X160399282Y-57283199D01*
X160396589Y-57279601D01*
X160221041Y-57104053D01*
X160188963Y-57048494D01*
X160188161Y-57042403D01*
X160127331Y-56895546D01*
X160030564Y-56769436D01*
X159904455Y-56672669D01*
X159831026Y-56642254D01*
X159765227Y-56614999D01*
X159765224Y-56614998D01*
X159757597Y-56611839D01*
X159749408Y-56610761D01*
X159748673Y-56610564D01*
X159699793Y-56584900D01*
X159699740Y-56584853D01*
X159678766Y-56567950D01*
X159589040Y-56521013D01*
X159552279Y-56510219D01*
X159525242Y-56502280D01*
X159525238Y-56502279D01*
X159520919Y-56501011D01*
X159516471Y-56500371D01*
X159516464Y-56500370D01*
X159452258Y-56491139D01*
X159452251Y-56491139D01*
X159447810Y-56490500D01*
X158302190Y-56490500D01*
X158300535Y-56490589D01*
X158300523Y-56490589D01*
X158277022Y-56491848D01*
X158274455Y-56491986D01*
X158272778Y-56492166D01*
X158272769Y-56492167D01*
X158253830Y-56494203D01*
X158253829Y-56494203D01*
X158247672Y-56494865D01*
X158198637Y-56510219D01*
X158156943Y-56523274D01*
X158156940Y-56523275D01*
X158151039Y-56525123D01*
X158145615Y-56528085D01*
X158145610Y-56528087D01*
X158092675Y-56556993D01*
X158088727Y-56559149D01*
X158085127Y-56561844D01*
X158033203Y-56600714D01*
X158033199Y-56600718D01*
X158029601Y-56603411D01*
X157103411Y-57529601D01*
X157084853Y-57550260D01*
X157067950Y-57571234D01*
X157021013Y-57660960D01*
X157019269Y-57666900D01*
X157004339Y-57717748D01*
X157001011Y-57729081D01*
X157000371Y-57733529D01*
X157000370Y-57733536D01*
X156991698Y-57793855D01*
X156990500Y-57802190D01*
X156990500Y-65590322D01*
X156970498Y-65658443D01*
X156953595Y-65679417D01*
X156928646Y-65704366D01*
X156927762Y-65705324D01*
X156927756Y-65705331D01*
X156916710Y-65717312D01*
X156914375Y-65719844D01*
X156913550Y-65720816D01*
X156913543Y-65720823D01*
X156901956Y-65734461D01*
X156901937Y-65734484D01*
X156901148Y-65735413D01*
X156900378Y-65736398D01*
X156889307Y-65750556D01*
X156871880Y-65768753D01*
X156831668Y-65803097D01*
X156831637Y-65803124D01*
X156831157Y-65803534D01*
X156823523Y-65810318D01*
X156816259Y-65817034D01*
X156808931Y-65824081D01*
X153300879Y-69332133D01*
X153286613Y-69347605D01*
X153285806Y-69348555D01*
X153275319Y-69360898D01*
X153261136Y-69375118D01*
X153250423Y-69384268D01*
X153242789Y-69391052D01*
X153235525Y-69397768D01*
X153228197Y-69404815D01*
X153179417Y-69453595D01*
X153117105Y-69487621D01*
X153090322Y-69490500D01*
X153083026Y-69490500D01*
X153053874Y-69492143D01*
X153052117Y-69492342D01*
X153052101Y-69492343D01*
X153029479Y-69494901D01*
X153013345Y-69495683D01*
X152990431Y-69495323D01*
X152918379Y-69494191D01*
X152907502Y-69493549D01*
X152901700Y-69492954D01*
X152894983Y-69492265D01*
X152880638Y-69491288D01*
X152879002Y-69491176D01*
X152878999Y-69491176D01*
X152877886Y-69491100D01*
X152876793Y-69491063D01*
X152876777Y-69491062D01*
X152861340Y-69490537D01*
X152861324Y-69490537D01*
X152860244Y-69490500D01*
X134159678Y-69490500D01*
X134091557Y-69470498D01*
X134070583Y-69453595D01*
X133958606Y-69341618D01*
X133937947Y-69323060D01*
X133916973Y-69306157D01*
X133827247Y-69259220D01*
X133795383Y-69249864D01*
X133763449Y-69240487D01*
X133763445Y-69240486D01*
X133759126Y-69239218D01*
X133754678Y-69238578D01*
X133754671Y-69238577D01*
X133690464Y-69229346D01*
X133690459Y-69229346D01*
X133686017Y-69228707D01*
X133681521Y-69228707D01*
X133679352Y-69228552D01*
X133671900Y-69227796D01*
X133609437Y-69219573D01*
X133577665Y-69211059D01*
X133536552Y-69194029D01*
X133508070Y-69177585D01*
X133472765Y-69150495D01*
X133449504Y-69127234D01*
X133422413Y-69091927D01*
X133405969Y-69063444D01*
X133388942Y-69022338D01*
X133380428Y-68990567D01*
X133374619Y-68946448D01*
X133374619Y-68913552D01*
X133380428Y-68869432D01*
X133388941Y-68837663D01*
X133405968Y-68796555D01*
X133422417Y-68768065D01*
X133429417Y-68758944D01*
X133429472Y-68758870D01*
X133429847Y-68758382D01*
X133430247Y-68757838D01*
X133435877Y-68750177D01*
X133435895Y-68750152D01*
X133436244Y-68749677D01*
X133442271Y-68741106D01*
X133444783Y-68735895D01*
X133476749Y-68669591D01*
X133476751Y-68669587D01*
X133477610Y-68667804D01*
X150017299Y-68667804D01*
X150026126Y-68679422D01*
X150078277Y-68717312D01*
X150089649Y-68723878D01*
X150236631Y-68789319D01*
X150249119Y-68793376D01*
X150406496Y-68826828D01*
X150419556Y-68828200D01*
X150580444Y-68828200D01*
X150593504Y-68826828D01*
X150750881Y-68793376D01*
X150763369Y-68789319D01*
X150910351Y-68723878D01*
X150921723Y-68717312D01*
X150974245Y-68679153D01*
X150982668Y-68668230D01*
X150975764Y-68655369D01*
X150512812Y-68192417D01*
X150498868Y-68184803D01*
X150497035Y-68184934D01*
X150490420Y-68189185D01*
X150023912Y-68655693D01*
X150017299Y-68667804D01*
X133477610Y-68667804D01*
X133478987Y-68664948D01*
X133480440Y-68660000D01*
X133497720Y-68601150D01*
X133497721Y-68601146D01*
X133498989Y-68596827D01*
X133501884Y-68576696D01*
X133508861Y-68528166D01*
X133508861Y-68528159D01*
X133509500Y-68523718D01*
X133509500Y-68476282D01*
X133509275Y-68465474D01*
X133508838Y-68454991D01*
X133491606Y-68372230D01*
X133466007Y-68306011D01*
X133429839Y-68241606D01*
X133423537Y-68233393D01*
X133422411Y-68231925D01*
X133405969Y-68203444D01*
X133388942Y-68162338D01*
X133380429Y-68130571D01*
X133379838Y-68126085D01*
X133379837Y-68126080D01*
X133379750Y-68125417D01*
X133378118Y-68114739D01*
X133376318Y-68104409D01*
X133348426Y-68024588D01*
X133338585Y-68006565D01*
X149667928Y-68006565D01*
X149684746Y-68166577D01*
X149687476Y-68179420D01*
X149737192Y-68332430D01*
X149742538Y-68344438D01*
X149821880Y-68481862D01*
X149829877Y-68486790D01*
X149829948Y-68486789D01*
X149839239Y-68481156D01*
X150307583Y-68012812D01*
X150313961Y-68001132D01*
X150684803Y-68001132D01*
X150684934Y-68002965D01*
X150689185Y-68009580D01*
X151158714Y-68479109D01*
X151172658Y-68486723D01*
X151172730Y-68486718D01*
X151176975Y-68483831D01*
X151177018Y-68483771D01*
X151257462Y-68344438D01*
X151262808Y-68332430D01*
X151312524Y-68179420D01*
X151315254Y-68166577D01*
X151332072Y-68006565D01*
X151332072Y-67993435D01*
X151315254Y-67833423D01*
X151312524Y-67820580D01*
X151262808Y-67667570D01*
X151257462Y-67655562D01*
X151178120Y-67518138D01*
X151170123Y-67513210D01*
X151170052Y-67513211D01*
X151160761Y-67518844D01*
X150692417Y-67987188D01*
X150684803Y-68001132D01*
X150313961Y-68001132D01*
X150315197Y-67998868D01*
X150315066Y-67997035D01*
X150310815Y-67990420D01*
X149841286Y-67520891D01*
X149827342Y-67513277D01*
X149827270Y-67513282D01*
X149823025Y-67516169D01*
X149822982Y-67516229D01*
X149742538Y-67655562D01*
X149737192Y-67667570D01*
X149687476Y-67820580D01*
X149684746Y-67833423D01*
X149667928Y-67993435D01*
X149667928Y-68006565D01*
X133338585Y-68006565D01*
X133316556Y-67966224D01*
X133316555Y-67966222D01*
X133314400Y-67962276D01*
X133308598Y-67954525D01*
X133272835Y-67906752D01*
X133272831Y-67906748D01*
X133270138Y-67903150D01*
X130470399Y-65103411D01*
X130467492Y-65100799D01*
X130451000Y-65085985D01*
X130449740Y-65084853D01*
X130428766Y-65067950D01*
X130429979Y-65066445D01*
X130429628Y-65066032D01*
X130428331Y-65067722D01*
X130366598Y-65020353D01*
X130304455Y-64972669D01*
X130221116Y-64938149D01*
X130165227Y-64914999D01*
X130165224Y-64914998D01*
X130157597Y-64911839D01*
X130000000Y-64891091D01*
X129842403Y-64911839D01*
X129834776Y-64914998D01*
X129834773Y-64914999D01*
X129778885Y-64938149D01*
X129695546Y-64972669D01*
X129569436Y-65069436D01*
X129472669Y-65195546D01*
X129453048Y-65242915D01*
X129428755Y-65301565D01*
X129411839Y-65342403D01*
X129391091Y-65500000D01*
X126826275Y-65500000D01*
X126832795Y-65425475D01*
X126832795Y-65414525D01*
X126813498Y-65193958D01*
X126811595Y-65183166D01*
X126754291Y-64969303D01*
X126750545Y-64959011D01*
X126656972Y-64758344D01*
X126651494Y-64748858D01*
X126538028Y-64586810D01*
X126527550Y-64578435D01*
X126514102Y-64585503D01*
X125692417Y-65407188D01*
X125684803Y-65421132D01*
X125313961Y-65421132D01*
X125315197Y-65418868D01*
X125315066Y-65417035D01*
X125310815Y-65410420D01*
X124485176Y-64584781D01*
X124473402Y-64578351D01*
X124461386Y-64587648D01*
X124348506Y-64748858D01*
X124343028Y-64758344D01*
X124249455Y-64959011D01*
X124245709Y-64969303D01*
X124188405Y-65183166D01*
X124186502Y-65193958D01*
X124167205Y-65414525D01*
X124167205Y-65425475D01*
X121752795Y-65425475D01*
X121752795Y-65414525D01*
X121733498Y-65193958D01*
X121731595Y-65183166D01*
X121674291Y-64969303D01*
X121670545Y-64959011D01*
X121576972Y-64758344D01*
X121571494Y-64748858D01*
X121458028Y-64586810D01*
X121447550Y-64578435D01*
X121434102Y-64585503D01*
X120612417Y-65407188D01*
X120604803Y-65421132D01*
X120233961Y-65421132D01*
X120235197Y-65418868D01*
X120235066Y-65417035D01*
X120230815Y-65410420D01*
X119405176Y-64584781D01*
X119393402Y-64578351D01*
X119381386Y-64587648D01*
X119268506Y-64748858D01*
X119263028Y-64758344D01*
X119169455Y-64959011D01*
X119165709Y-64969303D01*
X119108405Y-65183166D01*
X119106502Y-65193958D01*
X119087205Y-65414525D01*
X119087205Y-65425475D01*
X115825870Y-65425475D01*
X115052812Y-64652417D01*
X115038868Y-64644803D01*
X115037035Y-64644934D01*
X115030420Y-64649185D01*
X114204781Y-65474824D01*
X114198351Y-65486598D01*
X110801065Y-65486598D01*
X110794497Y-65474102D01*
X109972812Y-64652417D01*
X109958868Y-64644803D01*
X109957035Y-64644934D01*
X109950420Y-64649185D01*
X109124781Y-65474824D01*
X109118351Y-65486598D01*
X101058838Y-65486598D01*
X102079961Y-64465475D01*
X108627205Y-64465475D01*
X108646502Y-64686042D01*
X108648405Y-64696834D01*
X108705709Y-64910697D01*
X108709455Y-64920989D01*
X108803028Y-65121656D01*
X108808506Y-65131142D01*
X108921972Y-65293190D01*
X108932450Y-65301565D01*
X108945898Y-65294497D01*
X109767583Y-64472812D01*
X109773961Y-64461132D01*
X110144803Y-64461132D01*
X110144934Y-64462965D01*
X110149185Y-64469580D01*
X110974824Y-65295219D01*
X110986598Y-65301649D01*
X110998614Y-65292352D01*
X111111494Y-65131142D01*
X111116972Y-65121656D01*
X111210545Y-64920989D01*
X111214291Y-64910697D01*
X111271595Y-64696834D01*
X111273498Y-64686042D01*
X111292795Y-64465475D01*
X113707205Y-64465475D01*
X113726502Y-64686042D01*
X113728405Y-64696834D01*
X113785709Y-64910697D01*
X113789455Y-64920989D01*
X113883028Y-65121656D01*
X113888506Y-65131142D01*
X114001972Y-65293190D01*
X114012450Y-65301565D01*
X114025898Y-65294497D01*
X114847583Y-64472812D01*
X114853961Y-64461132D01*
X115224803Y-64461132D01*
X115224934Y-64462965D01*
X115229185Y-64469580D01*
X116054824Y-65295219D01*
X116066598Y-65301649D01*
X116078614Y-65292352D01*
X116191494Y-65131142D01*
X116196972Y-65121656D01*
X116290545Y-64920989D01*
X116294291Y-64910697D01*
X116351595Y-64696834D01*
X116353498Y-64686042D01*
X116372795Y-64465475D01*
X116372795Y-64454525D01*
X116367364Y-64392450D01*
X119578435Y-64392450D01*
X119585503Y-64405898D01*
X120407188Y-65227583D01*
X120421132Y-65235197D01*
X120422965Y-65235066D01*
X120429580Y-65230815D01*
X121255219Y-64405176D01*
X121261649Y-64393402D01*
X121260912Y-64392450D01*
X124658435Y-64392450D01*
X124665503Y-64405898D01*
X125487188Y-65227583D01*
X125501132Y-65235197D01*
X125502965Y-65235066D01*
X125509580Y-65230815D01*
X126335219Y-64405176D01*
X126341649Y-64393402D01*
X126332352Y-64381386D01*
X126171142Y-64268506D01*
X126161656Y-64263028D01*
X125960989Y-64169455D01*
X125950697Y-64165709D01*
X125736834Y-64108405D01*
X125726042Y-64106502D01*
X125505475Y-64087205D01*
X125494525Y-64087205D01*
X125273958Y-64106502D01*
X125263166Y-64108405D01*
X125049303Y-64165709D01*
X125039011Y-64169455D01*
X124838344Y-64263028D01*
X124828858Y-64268506D01*
X124666810Y-64381972D01*
X124658435Y-64392450D01*
X121260912Y-64392450D01*
X121252352Y-64381386D01*
X121091142Y-64268506D01*
X121081656Y-64263028D01*
X120880989Y-64169455D01*
X120870697Y-64165709D01*
X120656834Y-64108405D01*
X120646042Y-64106502D01*
X120425475Y-64087205D01*
X120414525Y-64087205D01*
X120193958Y-64106502D01*
X120183166Y-64108405D01*
X119969303Y-64165709D01*
X119959011Y-64169455D01*
X119758344Y-64263028D01*
X119748858Y-64268506D01*
X119586810Y-64381972D01*
X119578435Y-64392450D01*
X116367364Y-64392450D01*
X116353498Y-64233958D01*
X116351595Y-64223166D01*
X116294291Y-64009303D01*
X116290545Y-63999011D01*
X116196972Y-63798344D01*
X116191494Y-63788858D01*
X116078028Y-63626810D01*
X116067550Y-63618435D01*
X116054102Y-63625503D01*
X115232417Y-64447188D01*
X115224803Y-64461132D01*
X114853961Y-64461132D01*
X114855197Y-64458868D01*
X114855066Y-64457035D01*
X114850815Y-64450420D01*
X114025176Y-63624781D01*
X114013402Y-63618351D01*
X114001386Y-63627648D01*
X113888506Y-63788858D01*
X113883028Y-63798344D01*
X113789455Y-63999011D01*
X113785709Y-64009303D01*
X113728405Y-64223166D01*
X113726502Y-64233958D01*
X113707205Y-64454525D01*
X113707205Y-64465475D01*
X111292795Y-64465475D01*
X111292795Y-64454525D01*
X111273498Y-64233958D01*
X111271595Y-64223166D01*
X111214291Y-64009303D01*
X111210545Y-63999011D01*
X111116972Y-63798344D01*
X111111494Y-63788858D01*
X110998028Y-63626810D01*
X110987550Y-63618435D01*
X110974102Y-63625503D01*
X110152417Y-64447188D01*
X110144803Y-64461132D01*
X109773961Y-64461132D01*
X109775197Y-64458868D01*
X109775066Y-64457035D01*
X109770815Y-64450420D01*
X108945176Y-63624781D01*
X108933402Y-63618351D01*
X108921386Y-63627648D01*
X108808506Y-63788858D01*
X108803028Y-63798344D01*
X108709455Y-63999011D01*
X108705709Y-64009303D01*
X108648405Y-64223166D01*
X108646502Y-64233958D01*
X108627205Y-64454525D01*
X108627205Y-64465475D01*
X102079961Y-64465475D01*
X103112986Y-63432450D01*
X109118435Y-63432450D01*
X109125503Y-63445898D01*
X109947188Y-64267583D01*
X109961132Y-64275197D01*
X109962965Y-64275066D01*
X109969580Y-64270815D01*
X110795219Y-63445176D01*
X110801649Y-63433402D01*
X110800912Y-63432450D01*
X114198435Y-63432450D01*
X114205503Y-63445898D01*
X115027188Y-64267583D01*
X115041132Y-64275197D01*
X115042965Y-64275066D01*
X115049580Y-64270815D01*
X115873295Y-63447100D01*
X132792103Y-63447100D01*
X132793408Y-63454576D01*
X132793408Y-63454578D01*
X132803010Y-63509593D01*
X132803973Y-63516120D01*
X132810679Y-63571538D01*
X132810682Y-63571548D01*
X132811594Y-63579089D01*
X132814281Y-63586200D01*
X132815027Y-63589237D01*
X132819187Y-63604441D01*
X132820080Y-63607400D01*
X132821387Y-63614886D01*
X132844881Y-63668405D01*
X132846888Y-63672978D01*
X132849379Y-63679082D01*
X132871799Y-63738416D01*
X132876100Y-63744674D01*
X132877552Y-63747452D01*
X132885213Y-63761216D01*
X132886794Y-63763889D01*
X132889847Y-63770844D01*
X132894469Y-63776867D01*
X132894470Y-63776869D01*
X132928475Y-63821184D01*
X132932346Y-63826512D01*
X132968270Y-63878783D01*
X132973940Y-63883834D01*
X132973941Y-63883836D01*
X133014466Y-63919942D01*
X133019742Y-63924924D01*
X133129232Y-64034414D01*
X133136588Y-64042433D01*
X133145043Y-64052492D01*
X133145045Y-64052494D01*
X133150815Y-64059358D01*
X133158283Y-64064330D01*
X133163815Y-64069275D01*
X133168929Y-64074111D01*
X136512607Y-67417789D01*
X136612787Y-67496340D01*
X136768020Y-67566430D01*
X136775489Y-67567814D01*
X136775491Y-67567815D01*
X136899157Y-67590735D01*
X136935490Y-67597469D01*
X136943070Y-67597032D01*
X136943071Y-67597032D01*
X136974873Y-67595198D01*
X137105529Y-67587665D01*
X137268322Y-67537583D01*
X137309046Y-67513210D01*
X137407949Y-67454018D01*
X137407950Y-67454017D01*
X137414470Y-67450115D01*
X137485185Y-67380138D01*
X137547672Y-67346441D01*
X137573810Y-67343700D01*
X140135594Y-67343700D01*
X140150404Y-67344573D01*
X140184412Y-67348598D01*
X140193677Y-67346906D01*
X140193678Y-67346906D01*
X140242543Y-67337982D01*
X140246446Y-67337332D01*
X140295602Y-67329942D01*
X140295603Y-67329942D01*
X140304913Y-67328542D01*
X140311467Y-67325395D01*
X140318622Y-67324088D01*
X140326983Y-67319745D01*
X140335886Y-67316696D01*
X140336010Y-67317058D01*
X140345376Y-67313397D01*
X140433441Y-67289388D01*
X140442101Y-67287027D01*
X140565056Y-67211532D01*
X140578700Y-67196459D01*
X140655858Y-67111216D01*
X140661881Y-67104562D01*
X140672502Y-67082641D01*
X140706723Y-67012007D01*
X140724790Y-66974716D01*
X140748728Y-66832433D01*
X140748880Y-66820000D01*
X140728426Y-66677174D01*
X140683965Y-66579388D01*
X140672422Y-66554000D01*
X140672421Y-66553998D01*
X140668707Y-66545830D01*
X140612349Y-66480423D01*
X140580386Y-66443329D01*
X140574525Y-66436527D01*
X140453451Y-66358050D01*
X140315217Y-66316710D01*
X140306241Y-66316655D01*
X140306240Y-66316655D01*
X140246076Y-66316287D01*
X140170937Y-66315828D01*
X140032209Y-66355477D01*
X140030815Y-66356357D01*
X139984233Y-66366300D01*
X137503672Y-66366300D01*
X137435551Y-66346298D01*
X137414577Y-66329395D01*
X137188965Y-66103783D01*
X142741158Y-66103783D01*
X142742322Y-66112685D01*
X142742322Y-66112688D01*
X142758701Y-66237943D01*
X142758702Y-66237947D01*
X142759866Y-66246848D01*
X142817975Y-66378912D01*
X142910815Y-66489358D01*
X142918286Y-66494331D01*
X142918287Y-66494332D01*
X143007925Y-66554000D01*
X143030922Y-66569308D01*
X143168640Y-66612334D01*
X143312898Y-66614978D01*
X143376589Y-66597614D01*
X143443442Y-66579388D01*
X143443444Y-66579387D01*
X143452101Y-66577027D01*
X143575056Y-66501532D01*
X143671881Y-66394562D01*
X143676135Y-66385783D01*
X143730878Y-66272790D01*
X143734790Y-66264716D01*
X143758728Y-66122433D01*
X143758880Y-66110000D01*
X143738859Y-65970201D01*
X149362034Y-65970201D01*
X149375659Y-66178078D01*
X149426938Y-66379991D01*
X149514155Y-66569178D01*
X149634387Y-66739303D01*
X149783609Y-66884669D01*
X149788405Y-66887874D01*
X149788408Y-66887876D01*
X149913501Y-66971460D01*
X149956823Y-67000407D01*
X150075851Y-67051545D01*
X150130544Y-67096813D01*
X150152081Y-67164464D01*
X150133624Y-67233020D01*
X150089113Y-67276432D01*
X150078277Y-67282688D01*
X150025755Y-67320847D01*
X150017332Y-67331770D01*
X150024236Y-67344631D01*
X150487188Y-67807583D01*
X150501132Y-67815197D01*
X150502965Y-67815066D01*
X150509580Y-67810815D01*
X150976088Y-67344307D01*
X150982701Y-67332196D01*
X150973874Y-67320578D01*
X150921723Y-67282688D01*
X150913063Y-67277688D01*
X150864070Y-67226304D01*
X150850636Y-67156590D01*
X150877024Y-67090680D01*
X150935564Y-67049257D01*
X150957543Y-67041796D01*
X150963011Y-67039940D01*
X151144772Y-66938149D01*
X151158686Y-66926577D01*
X151223851Y-66898397D01*
X151293906Y-66909921D01*
X151346609Y-66957491D01*
X151364984Y-67015211D01*
X151367649Y-67055868D01*
X151375659Y-67178078D01*
X151426938Y-67379991D01*
X151514155Y-67569178D01*
X151634387Y-67739303D01*
X151638521Y-67743330D01*
X151762345Y-67863954D01*
X151783609Y-67884669D01*
X151788405Y-67887874D01*
X151788408Y-67887876D01*
X151928961Y-67981790D01*
X151956823Y-68000407D01*
X151962131Y-68002688D01*
X151962132Y-68002688D01*
X152142926Y-68080363D01*
X152142929Y-68080364D01*
X152148229Y-68082641D01*
X152153858Y-68083915D01*
X152153859Y-68083915D01*
X152345778Y-68127342D01*
X152345783Y-68127343D01*
X152351415Y-68128617D01*
X152357186Y-68128844D01*
X152357188Y-68128844D01*
X152419508Y-68131292D01*
X152559577Y-68136796D01*
X152662661Y-68121849D01*
X152760030Y-68107732D01*
X152760035Y-68107731D01*
X152765744Y-68106903D01*
X152771208Y-68105048D01*
X152771213Y-68105047D01*
X152941650Y-68047191D01*
X152963011Y-68039940D01*
X153144772Y-67938149D01*
X153190686Y-67899963D01*
X153300501Y-67808630D01*
X153304939Y-67804939D01*
X153388958Y-67703917D01*
X153434458Y-67649210D01*
X153438149Y-67644772D01*
X153539940Y-67463011D01*
X153568071Y-67380139D01*
X153605047Y-67271213D01*
X153605048Y-67271208D01*
X153606903Y-67265744D01*
X153607731Y-67260035D01*
X153607732Y-67260030D01*
X153636263Y-67063251D01*
X153636796Y-67059577D01*
X153638356Y-67000000D01*
X153619294Y-66792551D01*
X153605846Y-66744866D01*
X153568514Y-66612498D01*
X153562747Y-66592050D01*
X153470608Y-66405211D01*
X153456101Y-66385783D01*
X153349416Y-66242915D01*
X153349415Y-66242914D01*
X153345963Y-66238291D01*
X153192987Y-66096881D01*
X153016803Y-65985717D01*
X152992608Y-65976064D01*
X152926941Y-65949866D01*
X152871081Y-65906046D01*
X152847780Y-65838982D01*
X152864435Y-65769967D01*
X152910627Y-65723718D01*
X152921726Y-65717309D01*
X152974245Y-65679153D01*
X152982668Y-65668230D01*
X152975764Y-65655369D01*
X152512812Y-65192417D01*
X152498868Y-65184803D01*
X152497035Y-65184934D01*
X152490420Y-65189185D01*
X152023912Y-65655693D01*
X152017299Y-65667804D01*
X152026126Y-65679422D01*
X152078277Y-65717312D01*
X152088666Y-65723310D01*
X152137659Y-65774693D01*
X152151095Y-65844406D01*
X152124709Y-65910317D01*
X152069277Y-65950641D01*
X152009925Y-65972537D01*
X151830891Y-66079051D01*
X151830189Y-66077871D01*
X151769662Y-66099467D01*
X151700511Y-66083388D01*
X151651029Y-66032475D01*
X151636996Y-65985202D01*
X151636157Y-65976064D01*
X151619294Y-65792551D01*
X151617664Y-65786769D01*
X151579917Y-65652931D01*
X151562747Y-65592050D01*
X151470608Y-65405211D01*
X151418010Y-65334773D01*
X151349416Y-65242915D01*
X151349415Y-65242914D01*
X151345963Y-65238291D01*
X151192987Y-65096881D01*
X151192368Y-65096491D01*
X151151466Y-65040476D01*
X151149446Y-65006565D01*
X151667928Y-65006565D01*
X151684746Y-65166577D01*
X151687476Y-65179420D01*
X151737192Y-65332430D01*
X151742538Y-65344438D01*
X151821880Y-65481862D01*
X151829877Y-65486790D01*
X151829948Y-65486789D01*
X151839239Y-65481156D01*
X152307583Y-65012812D01*
X152313961Y-65001132D01*
X152684803Y-65001132D01*
X152684934Y-65002965D01*
X152689185Y-65009580D01*
X153158714Y-65479109D01*
X153172658Y-65486723D01*
X153172730Y-65486718D01*
X153176975Y-65483831D01*
X153177018Y-65483771D01*
X153257462Y-65344438D01*
X153262808Y-65332430D01*
X153312524Y-65179420D01*
X153315254Y-65166577D01*
X153332072Y-65006565D01*
X153332072Y-64993435D01*
X153315254Y-64833423D01*
X153312524Y-64820580D01*
X153262808Y-64667570D01*
X153257462Y-64655562D01*
X153178120Y-64518138D01*
X153170123Y-64513210D01*
X153170052Y-64513211D01*
X153160761Y-64518844D01*
X152692417Y-64987188D01*
X152684803Y-65001132D01*
X152313961Y-65001132D01*
X152315197Y-64998868D01*
X152315066Y-64997035D01*
X152310815Y-64990420D01*
X151841286Y-64520891D01*
X151827342Y-64513277D01*
X151827270Y-64513282D01*
X151823025Y-64516169D01*
X151822982Y-64516229D01*
X151742538Y-64655562D01*
X151737192Y-64667570D01*
X151687476Y-64820580D01*
X151684746Y-64833423D01*
X151667928Y-64993435D01*
X151667928Y-65006565D01*
X151149446Y-65006565D01*
X151147244Y-64969605D01*
X151182007Y-64907702D01*
X151189461Y-64900981D01*
X151304939Y-64804939D01*
X151438149Y-64644772D01*
X151539940Y-64463011D01*
X151567648Y-64381386D01*
X151605047Y-64271213D01*
X151605048Y-64271208D01*
X151606903Y-64265744D01*
X151607731Y-64260035D01*
X151607732Y-64260030D01*
X151633452Y-64082641D01*
X151636796Y-64059577D01*
X151637841Y-64019672D01*
X151659620Y-63952099D01*
X151714474Y-63907026D01*
X151784988Y-63898766D01*
X151833800Y-63918206D01*
X151920246Y-63975967D01*
X151956823Y-64000407D01*
X152075851Y-64051545D01*
X152130544Y-64096813D01*
X152152081Y-64164464D01*
X152133624Y-64233020D01*
X152089113Y-64276432D01*
X152078277Y-64282688D01*
X152025755Y-64320847D01*
X152017332Y-64331770D01*
X152024236Y-64344631D01*
X152487188Y-64807583D01*
X152501132Y-64815197D01*
X152502965Y-64815066D01*
X152509580Y-64810815D01*
X152976088Y-64344307D01*
X152982701Y-64332196D01*
X152973874Y-64320578D01*
X152921723Y-64282688D01*
X152913063Y-64277688D01*
X152864070Y-64226304D01*
X152850636Y-64156590D01*
X152877024Y-64090680D01*
X152935564Y-64049257D01*
X152937947Y-64048448D01*
X152963011Y-64039940D01*
X153144772Y-63938149D01*
X153166664Y-63919942D01*
X153300501Y-63808630D01*
X153304939Y-63804939D01*
X153438149Y-63644772D01*
X153539940Y-63463011D01*
X153564785Y-63389821D01*
X153605047Y-63271213D01*
X153605048Y-63271208D01*
X153606903Y-63265744D01*
X153607731Y-63260035D01*
X153607732Y-63260030D01*
X153628250Y-63118518D01*
X153636796Y-63059577D01*
X153638356Y-63000000D01*
X153619294Y-62792551D01*
X153609313Y-62757159D01*
X153570168Y-62618364D01*
X153562747Y-62592050D01*
X153470608Y-62405211D01*
X153391445Y-62299198D01*
X153349416Y-62242915D01*
X153349415Y-62242914D01*
X153345963Y-62238291D01*
X153192987Y-62096881D01*
X153192368Y-62096491D01*
X153151466Y-62040476D01*
X153147244Y-61969605D01*
X153182007Y-61907702D01*
X153189461Y-61900981D01*
X153304939Y-61804939D01*
X153438149Y-61644772D01*
X153539940Y-61463011D01*
X153566451Y-61384911D01*
X153605047Y-61271213D01*
X153605048Y-61271208D01*
X153606903Y-61265744D01*
X153607731Y-61260035D01*
X153607732Y-61260030D01*
X153628176Y-61119030D01*
X153636796Y-61059577D01*
X153638356Y-61000000D01*
X153619294Y-60792551D01*
X153562747Y-60592050D01*
X153470608Y-60405211D01*
X153460394Y-60391532D01*
X153349416Y-60242915D01*
X153349415Y-60242914D01*
X153345963Y-60238291D01*
X153192987Y-60096881D01*
X153016803Y-59985717D01*
X152992365Y-59975967D01*
X152926941Y-59949866D01*
X152871081Y-59906046D01*
X152847780Y-59838982D01*
X152864435Y-59769967D01*
X152910627Y-59723718D01*
X152921726Y-59717309D01*
X152974245Y-59679153D01*
X152982668Y-59668230D01*
X152975764Y-59655369D01*
X152512812Y-59192417D01*
X152498868Y-59184803D01*
X152497035Y-59184934D01*
X152490420Y-59189185D01*
X152023912Y-59655693D01*
X152017299Y-59667804D01*
X152026126Y-59679422D01*
X152078277Y-59717312D01*
X152088666Y-59723310D01*
X152137659Y-59774693D01*
X152151095Y-59844406D01*
X152124709Y-59910317D01*
X152069277Y-59950641D01*
X152009925Y-59972537D01*
X152004964Y-59975489D01*
X152004963Y-59975489D01*
X151951036Y-60007572D01*
X151830891Y-60079051D01*
X151830189Y-60077871D01*
X151769662Y-60099467D01*
X151700511Y-60083388D01*
X151651029Y-60032475D01*
X151636996Y-59985202D01*
X151636148Y-59975967D01*
X151619294Y-59792551D01*
X151598075Y-59717312D01*
X151580605Y-59655369D01*
X151562747Y-59592050D01*
X151470608Y-59405211D01*
X151345963Y-59238291D01*
X151192987Y-59096881D01*
X151049845Y-59006565D01*
X151667928Y-59006565D01*
X151684746Y-59166577D01*
X151687476Y-59179420D01*
X151737192Y-59332430D01*
X151742538Y-59344438D01*
X151821880Y-59481862D01*
X151829877Y-59486790D01*
X151829948Y-59486789D01*
X151839239Y-59481156D01*
X152307583Y-59012812D01*
X152313961Y-59001132D01*
X152684803Y-59001132D01*
X152684934Y-59002965D01*
X152689185Y-59009580D01*
X153158714Y-59479109D01*
X153172658Y-59486723D01*
X153172730Y-59486718D01*
X153176975Y-59483831D01*
X153177018Y-59483771D01*
X153257462Y-59344438D01*
X153262808Y-59332430D01*
X153312524Y-59179420D01*
X153315254Y-59166577D01*
X153332072Y-59006565D01*
X153332072Y-58993435D01*
X153315254Y-58833423D01*
X153312524Y-58820580D01*
X153262808Y-58667570D01*
X153257462Y-58655562D01*
X153178120Y-58518138D01*
X153170123Y-58513210D01*
X153170052Y-58513211D01*
X153160761Y-58518844D01*
X152692417Y-58987188D01*
X152684803Y-59001132D01*
X152313961Y-59001132D01*
X152315197Y-58998868D01*
X152315066Y-58997035D01*
X152310815Y-58990420D01*
X151841286Y-58520891D01*
X151827342Y-58513277D01*
X151827270Y-58513282D01*
X151823025Y-58516169D01*
X151822982Y-58516229D01*
X151742538Y-58655562D01*
X151737192Y-58667570D01*
X151687476Y-58820580D01*
X151684746Y-58833423D01*
X151667928Y-58993435D01*
X151667928Y-59006565D01*
X151049845Y-59006565D01*
X151016803Y-58985717D01*
X150927533Y-58950102D01*
X150871674Y-58906281D01*
X150848373Y-58839217D01*
X150865029Y-58770202D01*
X150911076Y-58724101D01*
X150916633Y-58721627D01*
X150921975Y-58717745D01*
X150921978Y-58717744D01*
X151052224Y-58623114D01*
X151057563Y-58619235D01*
X151147956Y-58518844D01*
X151169709Y-58494685D01*
X151169711Y-58494683D01*
X151174126Y-58489779D01*
X151261225Y-58338917D01*
X151263548Y-58331770D01*
X152017332Y-58331770D01*
X152024236Y-58344631D01*
X152487188Y-58807583D01*
X152501132Y-58815197D01*
X152502965Y-58815066D01*
X152509580Y-58810815D01*
X152976088Y-58344307D01*
X152982701Y-58332196D01*
X152973874Y-58320578D01*
X152921723Y-58282688D01*
X152910351Y-58276122D01*
X152763369Y-58210681D01*
X152750881Y-58206624D01*
X152593504Y-58173172D01*
X152580444Y-58171800D01*
X152419556Y-58171800D01*
X152406496Y-58173172D01*
X152249119Y-58206624D01*
X152236631Y-58210681D01*
X152089649Y-58276122D01*
X152078277Y-58282688D01*
X152025755Y-58320847D01*
X152017332Y-58331770D01*
X151263548Y-58331770D01*
X151313017Y-58179520D01*
X151313017Y-58179518D01*
X151315056Y-58173244D01*
X151333265Y-57999998D01*
X151315056Y-57826752D01*
X151284768Y-57733536D01*
X151263265Y-57667356D01*
X151263263Y-57667352D01*
X151261225Y-57661079D01*
X151257925Y-57655363D01*
X151177427Y-57515934D01*
X151177425Y-57515932D01*
X151174126Y-57510217D01*
X151162831Y-57497672D01*
X151061978Y-57385664D01*
X151061976Y-57385663D01*
X151057563Y-57380761D01*
X150999708Y-57338727D01*
X150921975Y-57282250D01*
X150921974Y-57282249D01*
X150916633Y-57278369D01*
X150910604Y-57275685D01*
X150910601Y-57275683D01*
X150763529Y-57210203D01*
X150763526Y-57210202D01*
X150757493Y-57207516D01*
X150721338Y-57199831D01*
X150593557Y-57172670D01*
X150593553Y-57172670D01*
X150587100Y-57171298D01*
X150412900Y-57171298D01*
X150406447Y-57172670D01*
X150406443Y-57172670D01*
X150327704Y-57189407D01*
X150242507Y-57207516D01*
X150236477Y-57210201D01*
X150236476Y-57210201D01*
X150089398Y-57275684D01*
X150089396Y-57275685D01*
X150083368Y-57278369D01*
X150078027Y-57282249D01*
X150078026Y-57282250D01*
X150008667Y-57332642D01*
X149942437Y-57380761D01*
X149938024Y-57385663D01*
X149938022Y-57385664D01*
X149837170Y-57497672D01*
X149825874Y-57510217D01*
X149822575Y-57515932D01*
X149822573Y-57515934D01*
X149742075Y-57655363D01*
X149738775Y-57661079D01*
X149736737Y-57667352D01*
X149736735Y-57667356D01*
X149715232Y-57733536D01*
X149684944Y-57826752D01*
X149666735Y-57999998D01*
X149684944Y-58173244D01*
X149686983Y-58179518D01*
X149686983Y-58179520D01*
X149736453Y-58331770D01*
X149738775Y-58338917D01*
X149825874Y-58489779D01*
X149830289Y-58494683D01*
X149830291Y-58494685D01*
X149852044Y-58518844D01*
X149942437Y-58619235D01*
X149947776Y-58623114D01*
X150078022Y-58717744D01*
X150078025Y-58717745D01*
X150083367Y-58721627D01*
X150088348Y-58723845D01*
X150137047Y-58774918D01*
X150150484Y-58844631D01*
X150124097Y-58910543D01*
X150068664Y-58950867D01*
X150009925Y-58972537D01*
X150004964Y-58975489D01*
X150004963Y-58975489D01*
X149965667Y-58998868D01*
X149830891Y-59079051D01*
X149674266Y-59216407D01*
X149670699Y-59220932D01*
X149670694Y-59220937D01*
X149573334Y-59344438D01*
X149545294Y-59380007D01*
X149542603Y-59385123D01*
X149542601Y-59385125D01*
X149455704Y-59550289D01*
X149448296Y-59564370D01*
X149446583Y-59569887D01*
X149398162Y-59725830D01*
X149386520Y-59763322D01*
X149362034Y-59970201D01*
X149375659Y-60178078D01*
X149426938Y-60379991D01*
X149514155Y-60569178D01*
X149634387Y-60739303D01*
X149694957Y-60798308D01*
X149764942Y-60866484D01*
X149783609Y-60884669D01*
X149788405Y-60887874D01*
X149788408Y-60887876D01*
X149917799Y-60974332D01*
X149956823Y-61000407D01*
X150070644Y-61049308D01*
X150075851Y-61051545D01*
X150130544Y-61096813D01*
X150152081Y-61164464D01*
X150133624Y-61233020D01*
X150089113Y-61276432D01*
X150078277Y-61282688D01*
X150025755Y-61320847D01*
X150017332Y-61331770D01*
X150024236Y-61344631D01*
X150487188Y-61807583D01*
X150501132Y-61815197D01*
X150502965Y-61815066D01*
X150509580Y-61810815D01*
X150976088Y-61344307D01*
X150982701Y-61332196D01*
X150973874Y-61320578D01*
X150921723Y-61282688D01*
X150913063Y-61277688D01*
X150864070Y-61226304D01*
X150850636Y-61156590D01*
X150877024Y-61090680D01*
X150935564Y-61049257D01*
X150947038Y-61045362D01*
X150963011Y-61039940D01*
X151144772Y-60938149D01*
X151158686Y-60926577D01*
X151223851Y-60898397D01*
X151293906Y-60909921D01*
X151346609Y-60957491D01*
X151364984Y-61015211D01*
X151370212Y-61094978D01*
X151375659Y-61178078D01*
X151426938Y-61379991D01*
X151514155Y-61569178D01*
X151634387Y-61739303D01*
X151783609Y-61884669D01*
X151788409Y-61887877D01*
X151788410Y-61887877D01*
X151799716Y-61895432D01*
X151845242Y-61949910D01*
X151854088Y-62020353D01*
X151823445Y-62084397D01*
X151812789Y-62094926D01*
X151674266Y-62216407D01*
X151670699Y-62220932D01*
X151670694Y-62220937D01*
X151549162Y-62375100D01*
X151545294Y-62380007D01*
X151542603Y-62385123D01*
X151542601Y-62385125D01*
X151489148Y-62486723D01*
X151448296Y-62564370D01*
X151386520Y-62763322D01*
X151362034Y-62970201D01*
X151362412Y-62975969D01*
X151362344Y-62978572D01*
X151340568Y-63046147D01*
X151285716Y-63091222D01*
X151215202Y-63099485D01*
X151169152Y-63081841D01*
X151021688Y-62988799D01*
X151021686Y-62988798D01*
X151016803Y-62985717D01*
X150926941Y-62949866D01*
X150871081Y-62906046D01*
X150847780Y-62838982D01*
X150864435Y-62769967D01*
X150910627Y-62723718D01*
X150921726Y-62717309D01*
X150974245Y-62679153D01*
X150982668Y-62668230D01*
X150975764Y-62655369D01*
X150512812Y-62192417D01*
X150498868Y-62184803D01*
X150497035Y-62184934D01*
X150490420Y-62189185D01*
X150023912Y-62655693D01*
X150017299Y-62667804D01*
X150026126Y-62679422D01*
X150078277Y-62717312D01*
X150088666Y-62723310D01*
X150137659Y-62774693D01*
X150151095Y-62844406D01*
X150124709Y-62910317D01*
X150069277Y-62950641D01*
X150009925Y-62972537D01*
X150004964Y-62975489D01*
X150004963Y-62975489D01*
X149886198Y-63046147D01*
X149830891Y-63079051D01*
X149674266Y-63216407D01*
X149670699Y-63220932D01*
X149670694Y-63220937D01*
X149585042Y-63329587D01*
X149545294Y-63380007D01*
X149542603Y-63385123D01*
X149542601Y-63385125D01*
X149450988Y-63559253D01*
X149448296Y-63564370D01*
X149386520Y-63763322D01*
X149362034Y-63970201D01*
X149375659Y-64178078D01*
X149426938Y-64379991D01*
X149514155Y-64569178D01*
X149634387Y-64739303D01*
X149783609Y-64884669D01*
X149788409Y-64887877D01*
X149788410Y-64887877D01*
X149799716Y-64895432D01*
X149845242Y-64949910D01*
X149854088Y-65020353D01*
X149823445Y-65084397D01*
X149812789Y-65094926D01*
X149674266Y-65216407D01*
X149670699Y-65220932D01*
X149670694Y-65220937D01*
X149548872Y-65375468D01*
X149545294Y-65380007D01*
X149542603Y-65385123D01*
X149542601Y-65385125D01*
X149477855Y-65508188D01*
X149448296Y-65564370D01*
X149446583Y-65569887D01*
X149395482Y-65734461D01*
X149386520Y-65763322D01*
X149362034Y-65970201D01*
X143738859Y-65970201D01*
X143738426Y-65967174D01*
X143694560Y-65870697D01*
X143682422Y-65844000D01*
X143682421Y-65843998D01*
X143678707Y-65835830D01*
X143668584Y-65824081D01*
X143590386Y-65733329D01*
X143584525Y-65726527D01*
X143463451Y-65648050D01*
X143325217Y-65606710D01*
X143316241Y-65606655D01*
X143316240Y-65606655D01*
X143256076Y-65606287D01*
X143180937Y-65605828D01*
X143042209Y-65645477D01*
X142920185Y-65722468D01*
X142824674Y-65830613D01*
X142820860Y-65838736D01*
X142820859Y-65838738D01*
X142778235Y-65929526D01*
X142763356Y-65961218D01*
X142761975Y-65970087D01*
X142744334Y-66083388D01*
X142741158Y-66103783D01*
X137188965Y-66103783D01*
X134240605Y-63155423D01*
X134206579Y-63093111D01*
X134203700Y-63066328D01*
X134203700Y-62746083D01*
X134571158Y-62746083D01*
X134572322Y-62754985D01*
X134572322Y-62754988D01*
X134588701Y-62880243D01*
X134588702Y-62880247D01*
X134589866Y-62889148D01*
X134647975Y-63021212D01*
X134740815Y-63131658D01*
X134748286Y-63136631D01*
X134748287Y-63136632D01*
X134852060Y-63205709D01*
X134860922Y-63211608D01*
X134998640Y-63254634D01*
X135142898Y-63257278D01*
X135212542Y-63238291D01*
X135273442Y-63221688D01*
X135273444Y-63221687D01*
X135282101Y-63219327D01*
X135405056Y-63143832D01*
X135501881Y-63036862D01*
X135506135Y-63028083D01*
X135560878Y-62915090D01*
X135564790Y-62907016D01*
X135588728Y-62764733D01*
X135588880Y-62752300D01*
X135568426Y-62609474D01*
X135535083Y-62536140D01*
X135512422Y-62486300D01*
X135512421Y-62486298D01*
X135508707Y-62478130D01*
X135492569Y-62459401D01*
X135463255Y-62394739D01*
X135473554Y-62324493D01*
X135494608Y-62292597D01*
X135495857Y-62291217D01*
X135501881Y-62284562D01*
X135564790Y-62154716D01*
X135588728Y-62012433D01*
X135588800Y-62006565D01*
X149667928Y-62006565D01*
X149684746Y-62166577D01*
X149687476Y-62179420D01*
X149737192Y-62332430D01*
X149742538Y-62344438D01*
X149821880Y-62481862D01*
X149829877Y-62486790D01*
X149829948Y-62486789D01*
X149839239Y-62481156D01*
X150307583Y-62012812D01*
X150313961Y-62001132D01*
X150684803Y-62001132D01*
X150684934Y-62002965D01*
X150689185Y-62009580D01*
X151158714Y-62479109D01*
X151172658Y-62486723D01*
X151172730Y-62486718D01*
X151176975Y-62483831D01*
X151177018Y-62483771D01*
X151257462Y-62344438D01*
X151262808Y-62332430D01*
X151312524Y-62179420D01*
X151315254Y-62166577D01*
X151332072Y-62006565D01*
X151332072Y-61993435D01*
X151315254Y-61833423D01*
X151312524Y-61820580D01*
X151262808Y-61667570D01*
X151257462Y-61655562D01*
X151178120Y-61518138D01*
X151170123Y-61513210D01*
X151170052Y-61513211D01*
X151160761Y-61518844D01*
X150692417Y-61987188D01*
X150684803Y-62001132D01*
X150313961Y-62001132D01*
X150315197Y-61998868D01*
X150315066Y-61997035D01*
X150310815Y-61990420D01*
X149841286Y-61520891D01*
X149827342Y-61513277D01*
X149827270Y-61513282D01*
X149823025Y-61516169D01*
X149822982Y-61516229D01*
X149742538Y-61655562D01*
X149737192Y-61667570D01*
X149687476Y-61820580D01*
X149684746Y-61833423D01*
X149667928Y-61993435D01*
X149667928Y-62006565D01*
X135588800Y-62006565D01*
X135588880Y-62000000D01*
X135568426Y-61857174D01*
X135529921Y-61772488D01*
X135512422Y-61734000D01*
X135512421Y-61733998D01*
X135508707Y-61725830D01*
X135498416Y-61713886D01*
X135420386Y-61623329D01*
X135414525Y-61616527D01*
X135293451Y-61538050D01*
X135155217Y-61496710D01*
X135146241Y-61496655D01*
X135146240Y-61496655D01*
X135086076Y-61496287D01*
X135010937Y-61495828D01*
X134872209Y-61535477D01*
X134750185Y-61612468D01*
X134654674Y-61720613D01*
X134650860Y-61728736D01*
X134650859Y-61728738D01*
X134597171Y-61843092D01*
X134593356Y-61851218D01*
X134591975Y-61860087D01*
X134574923Y-61969605D01*
X134571158Y-61993783D01*
X134572322Y-62002685D01*
X134572322Y-62002688D01*
X134588701Y-62127943D01*
X134588702Y-62127947D01*
X134589866Y-62136848D01*
X134647975Y-62268912D01*
X134653750Y-62275782D01*
X134653753Y-62275787D01*
X134669241Y-62294212D01*
X134697762Y-62359227D01*
X134686606Y-62429342D01*
X134667231Y-62458695D01*
X134654674Y-62472913D01*
X134650860Y-62481036D01*
X134650859Y-62481038D01*
X134598740Y-62592050D01*
X134593356Y-62603518D01*
X134591975Y-62612387D01*
X134574704Y-62723310D01*
X134571158Y-62746083D01*
X134203700Y-62746083D01*
X134203700Y-60583783D01*
X144101158Y-60583783D01*
X144102322Y-60592685D01*
X144102322Y-60592688D01*
X144118701Y-60717943D01*
X144118702Y-60717947D01*
X144119866Y-60726848D01*
X144177975Y-60858912D01*
X144209748Y-60896710D01*
X144246361Y-60940266D01*
X144270815Y-60969358D01*
X144278286Y-60974331D01*
X144278287Y-60974332D01*
X144378533Y-61041061D01*
X144390922Y-61049308D01*
X144480311Y-61077235D01*
X144497615Y-61082641D01*
X144528640Y-61092334D01*
X144672898Y-61094978D01*
X144789272Y-61063251D01*
X144803442Y-61059388D01*
X144803444Y-61059387D01*
X144812101Y-61057027D01*
X144935056Y-60981532D01*
X145031881Y-60874562D01*
X145036135Y-60865783D01*
X145074310Y-60786987D01*
X145094790Y-60744716D01*
X145118728Y-60602433D01*
X145118880Y-60590000D01*
X145098426Y-60447174D01*
X145038707Y-60315830D01*
X145028416Y-60303886D01*
X144950386Y-60213329D01*
X144944525Y-60206527D01*
X144823451Y-60128050D01*
X144685217Y-60086710D01*
X144676241Y-60086655D01*
X144676240Y-60086655D01*
X144616076Y-60086287D01*
X144540937Y-60085828D01*
X144402209Y-60125477D01*
X144280185Y-60202468D01*
X144184674Y-60310613D01*
X144180860Y-60318736D01*
X144180859Y-60318738D01*
X144137276Y-60411568D01*
X144123356Y-60441218D01*
X144121975Y-60450087D01*
X144102698Y-60573894D01*
X144101158Y-60583783D01*
X134203700Y-60583783D01*
X134203700Y-60556605D01*
X134223702Y-60488484D01*
X134277358Y-60441991D01*
X134347632Y-60431887D01*
X134399516Y-60451716D01*
X134402215Y-60453512D01*
X134410922Y-60459308D01*
X134548640Y-60502334D01*
X134692898Y-60504978D01*
X134753397Y-60488484D01*
X134823442Y-60469388D01*
X134823444Y-60469387D01*
X134832101Y-60467027D01*
X134955056Y-60391532D01*
X134965503Y-60379991D01*
X135028301Y-60310613D01*
X135051881Y-60284562D01*
X135056164Y-60275723D01*
X135110878Y-60162790D01*
X135114790Y-60154716D01*
X135138728Y-60012433D01*
X135138880Y-60000000D01*
X135118426Y-59857174D01*
X135058707Y-59725830D01*
X135051368Y-59717312D01*
X134970386Y-59623329D01*
X134964525Y-59616527D01*
X134843451Y-59538050D01*
X134705217Y-59496710D01*
X134696241Y-59496655D01*
X134696240Y-59496655D01*
X134636076Y-59496287D01*
X134560937Y-59495828D01*
X134422209Y-59535477D01*
X134414621Y-59540265D01*
X134414618Y-59540266D01*
X134396936Y-59551423D01*
X134328651Y-59570858D01*
X134260700Y-59550289D01*
X134214655Y-59496249D01*
X134203700Y-59444862D01*
X134203700Y-57000000D01*
X151666735Y-57000000D01*
X151684944Y-57173246D01*
X151686983Y-57179520D01*
X151686983Y-57179522D01*
X151720672Y-57283203D01*
X151738775Y-57338919D01*
X151742075Y-57344634D01*
X151742075Y-57344635D01*
X151760693Y-57376882D01*
X151825874Y-57489781D01*
X151830289Y-57494685D01*
X151830291Y-57494687D01*
X151938022Y-57614334D01*
X151942437Y-57619237D01*
X151947776Y-57623116D01*
X151999864Y-57660960D01*
X152083367Y-57721629D01*
X152089396Y-57724313D01*
X152089399Y-57724315D01*
X152236471Y-57789795D01*
X152236474Y-57789796D01*
X152242507Y-57792482D01*
X152278662Y-57800167D01*
X152406443Y-57827328D01*
X152406447Y-57827328D01*
X152412900Y-57828700D01*
X152587100Y-57828700D01*
X152593553Y-57827328D01*
X152593557Y-57827328D01*
X152721338Y-57800167D01*
X152757493Y-57792482D01*
X152763526Y-57789796D01*
X152763529Y-57789795D01*
X152910601Y-57724315D01*
X152910604Y-57724313D01*
X152916633Y-57721629D01*
X153000137Y-57660960D01*
X153052224Y-57623116D01*
X153057563Y-57619237D01*
X153061978Y-57614334D01*
X153169709Y-57494687D01*
X153169711Y-57494685D01*
X153174126Y-57489781D01*
X153239308Y-57376882D01*
X153257925Y-57344635D01*
X153257925Y-57344634D01*
X153261225Y-57338919D01*
X153279329Y-57283203D01*
X153313017Y-57179522D01*
X153313017Y-57179520D01*
X153315056Y-57173246D01*
X153333265Y-57000000D01*
X153332575Y-56993435D01*
X153315746Y-56833315D01*
X153315745Y-56833311D01*
X153315056Y-56826754D01*
X153313017Y-56820478D01*
X153263265Y-56667358D01*
X153263263Y-56667354D01*
X153261225Y-56661081D01*
X153232796Y-56611839D01*
X153177427Y-56515936D01*
X153177425Y-56515934D01*
X153174126Y-56510219D01*
X153160302Y-56494865D01*
X153061978Y-56385666D01*
X153061976Y-56385665D01*
X153057563Y-56380763D01*
X152916633Y-56278371D01*
X152910604Y-56275687D01*
X152910601Y-56275685D01*
X152763529Y-56210205D01*
X152763526Y-56210204D01*
X152757493Y-56207518D01*
X152721338Y-56199833D01*
X152593557Y-56172672D01*
X152593553Y-56172672D01*
X152587100Y-56171300D01*
X152412900Y-56171300D01*
X152406447Y-56172672D01*
X152406443Y-56172672D01*
X152327704Y-56189409D01*
X152242507Y-56207518D01*
X152236477Y-56210203D01*
X152236476Y-56210203D01*
X152089398Y-56275686D01*
X152089396Y-56275687D01*
X152083368Y-56278371D01*
X152078027Y-56282251D01*
X152078026Y-56282252D01*
X151992163Y-56344635D01*
X151942437Y-56380763D01*
X151938024Y-56385665D01*
X151938022Y-56385666D01*
X151839699Y-56494865D01*
X151825874Y-56510219D01*
X151822575Y-56515934D01*
X151822573Y-56515936D01*
X151767204Y-56611839D01*
X151738775Y-56661081D01*
X151736737Y-56667354D01*
X151736735Y-56667358D01*
X151686983Y-56820478D01*
X151684944Y-56826754D01*
X151684255Y-56833311D01*
X151684254Y-56833315D01*
X151667425Y-56993435D01*
X151666735Y-57000000D01*
X134203700Y-57000000D01*
X134203700Y-56000000D01*
X149666735Y-56000000D01*
X149684944Y-56173246D01*
X149686983Y-56179520D01*
X149686983Y-56179522D01*
X149720363Y-56282252D01*
X149738775Y-56338919D01*
X149825874Y-56489781D01*
X149830289Y-56494685D01*
X149830291Y-56494687D01*
X149938022Y-56614334D01*
X149942437Y-56619237D01*
X149947776Y-56623116D01*
X150015980Y-56672669D01*
X150083367Y-56721629D01*
X150089396Y-56724313D01*
X150089399Y-56724315D01*
X150236471Y-56789795D01*
X150236474Y-56789796D01*
X150242507Y-56792482D01*
X150278662Y-56800167D01*
X150406443Y-56827328D01*
X150406447Y-56827328D01*
X150412900Y-56828700D01*
X150587100Y-56828700D01*
X150593553Y-56827328D01*
X150593557Y-56827328D01*
X150721338Y-56800167D01*
X150757493Y-56792482D01*
X150763526Y-56789796D01*
X150763529Y-56789795D01*
X150910601Y-56724315D01*
X150910604Y-56724313D01*
X150916633Y-56721629D01*
X150984021Y-56672669D01*
X151052224Y-56623116D01*
X151057563Y-56619237D01*
X151061978Y-56614334D01*
X151169709Y-56494687D01*
X151169711Y-56494685D01*
X151174126Y-56489781D01*
X151261225Y-56338919D01*
X151279638Y-56282252D01*
X151313017Y-56179522D01*
X151313017Y-56179520D01*
X151315056Y-56173246D01*
X151333265Y-56000000D01*
X151315056Y-55826754D01*
X151313017Y-55820478D01*
X151263265Y-55667358D01*
X151263263Y-55667354D01*
X151261225Y-55661081D01*
X151206386Y-55566095D01*
X151177427Y-55515936D01*
X151177425Y-55515934D01*
X151174126Y-55510219D01*
X151167640Y-55503015D01*
X151061978Y-55385666D01*
X151061976Y-55385665D01*
X151057563Y-55380763D01*
X150916633Y-55278371D01*
X150910604Y-55275687D01*
X150910601Y-55275685D01*
X150763529Y-55210205D01*
X150763526Y-55210204D01*
X150757493Y-55207518D01*
X150712832Y-55198025D01*
X150593557Y-55172672D01*
X150593553Y-55172672D01*
X150587100Y-55171300D01*
X150412900Y-55171300D01*
X150406447Y-55172672D01*
X150406443Y-55172672D01*
X150327703Y-55189409D01*
X150242507Y-55207518D01*
X150236477Y-55210203D01*
X150236476Y-55210203D01*
X150089398Y-55275686D01*
X150089396Y-55275687D01*
X150083368Y-55278371D01*
X150078027Y-55282251D01*
X150078026Y-55282252D01*
X149992163Y-55344635D01*
X149942437Y-55380763D01*
X149938024Y-55385665D01*
X149938022Y-55385666D01*
X149832361Y-55503015D01*
X149825874Y-55510219D01*
X149822575Y-55515934D01*
X149822573Y-55515936D01*
X149793614Y-55566095D01*
X149738775Y-55661081D01*
X149736737Y-55667354D01*
X149736735Y-55667358D01*
X149686983Y-55820478D01*
X149684944Y-55826754D01*
X149666735Y-56000000D01*
X134203700Y-56000000D01*
X134203700Y-55593672D01*
X134223702Y-55525551D01*
X134240605Y-55504577D01*
X134644612Y-55100570D01*
X140647945Y-55100570D01*
X140649109Y-55109472D01*
X140649109Y-55109475D01*
X140665488Y-55234730D01*
X140665489Y-55234734D01*
X140666653Y-55243635D01*
X140724762Y-55375699D01*
X140817602Y-55486145D01*
X140825073Y-55491118D01*
X140825074Y-55491119D01*
X140900733Y-55541482D01*
X140937709Y-55566095D01*
X141075427Y-55609121D01*
X141219685Y-55611765D01*
X141286050Y-55593672D01*
X141350229Y-55576175D01*
X141350231Y-55576174D01*
X141358888Y-55573814D01*
X141481843Y-55498319D01*
X141578668Y-55391349D01*
X141582922Y-55382570D01*
X141631524Y-55282252D01*
X141641577Y-55261503D01*
X141665515Y-55119220D01*
X141665667Y-55106787D01*
X141650374Y-55000000D01*
X151666735Y-55000000D01*
X151667425Y-55006565D01*
X151679770Y-55124015D01*
X151684944Y-55173246D01*
X151686983Y-55179520D01*
X151686983Y-55179522D01*
X151720363Y-55282252D01*
X151738775Y-55338919D01*
X151742075Y-55344634D01*
X151742075Y-55344635D01*
X151763977Y-55382570D01*
X151825874Y-55489781D01*
X151830289Y-55494685D01*
X151830291Y-55494687D01*
X151935709Y-55611765D01*
X151942437Y-55619237D01*
X152083367Y-55721629D01*
X152089396Y-55724313D01*
X152089399Y-55724315D01*
X152236471Y-55789795D01*
X152236474Y-55789796D01*
X152242507Y-55792482D01*
X152278662Y-55800167D01*
X152406443Y-55827328D01*
X152406447Y-55827328D01*
X152412900Y-55828700D01*
X152587100Y-55828700D01*
X152593553Y-55827328D01*
X152593557Y-55827328D01*
X152721338Y-55800167D01*
X152757493Y-55792482D01*
X152763526Y-55789796D01*
X152763529Y-55789795D01*
X152910601Y-55724315D01*
X152910604Y-55724313D01*
X152916633Y-55721629D01*
X153057563Y-55619237D01*
X153064291Y-55611765D01*
X153169709Y-55494687D01*
X153169711Y-55494685D01*
X153174126Y-55489781D01*
X153236024Y-55382570D01*
X153257925Y-55344635D01*
X153257925Y-55344634D01*
X153261225Y-55338919D01*
X153279638Y-55282252D01*
X153313017Y-55179522D01*
X153313017Y-55179520D01*
X153315056Y-55173246D01*
X153320231Y-55124015D01*
X153332575Y-55006565D01*
X153333265Y-55000000D01*
X153324334Y-54915024D01*
X153315746Y-54833315D01*
X153315745Y-54833311D01*
X153315056Y-54826754D01*
X153313017Y-54820478D01*
X153263265Y-54667358D01*
X153263263Y-54667354D01*
X153261225Y-54661081D01*
X153250361Y-54642264D01*
X153177427Y-54515936D01*
X153177425Y-54515934D01*
X153174126Y-54510219D01*
X153155724Y-54489781D01*
X153061978Y-54385666D01*
X153061976Y-54385665D01*
X153057563Y-54380763D01*
X152916633Y-54278371D01*
X152910604Y-54275687D01*
X152910601Y-54275685D01*
X152763529Y-54210205D01*
X152763526Y-54210204D01*
X152757493Y-54207518D01*
X152721338Y-54199833D01*
X152593557Y-54172672D01*
X152593553Y-54172672D01*
X152587100Y-54171300D01*
X152412900Y-54171300D01*
X152406447Y-54172672D01*
X152406443Y-54172672D01*
X152327704Y-54189409D01*
X152242507Y-54207518D01*
X152236477Y-54210203D01*
X152236476Y-54210203D01*
X152089398Y-54275686D01*
X152089396Y-54275687D01*
X152083368Y-54278371D01*
X152078027Y-54282251D01*
X152078026Y-54282252D01*
X151992163Y-54344635D01*
X151942437Y-54380763D01*
X151938024Y-54385665D01*
X151938022Y-54385666D01*
X151844277Y-54489781D01*
X151825874Y-54510219D01*
X151822575Y-54515934D01*
X151822573Y-54515936D01*
X151749639Y-54642264D01*
X151738775Y-54661081D01*
X151736737Y-54667354D01*
X151736735Y-54667358D01*
X151686983Y-54820478D01*
X151684944Y-54826754D01*
X151684255Y-54833311D01*
X151684254Y-54833315D01*
X151675666Y-54915024D01*
X151666735Y-55000000D01*
X141650374Y-55000000D01*
X141645213Y-54963961D01*
X141585494Y-54832617D01*
X141575203Y-54820673D01*
X141497173Y-54730116D01*
X141491312Y-54723314D01*
X141370238Y-54644837D01*
X141232004Y-54603497D01*
X141223028Y-54603442D01*
X141223027Y-54603442D01*
X141162863Y-54603074D01*
X141087724Y-54602615D01*
X140948996Y-54642264D01*
X140826972Y-54719255D01*
X140731461Y-54827400D01*
X140727647Y-54835523D01*
X140727646Y-54835525D01*
X140694535Y-54906050D01*
X140670143Y-54958005D01*
X140668762Y-54966874D01*
X140650954Y-55081246D01*
X140647945Y-55100570D01*
X134644612Y-55100570D01*
X135745182Y-54000000D01*
X149666735Y-54000000D01*
X149684944Y-54173246D01*
X149686983Y-54179520D01*
X149686983Y-54179522D01*
X149720363Y-54282252D01*
X149738775Y-54338919D01*
X149825874Y-54489781D01*
X149830289Y-54494685D01*
X149830291Y-54494687D01*
X149930581Y-54606070D01*
X149942437Y-54619237D01*
X149947776Y-54623116D01*
X150073507Y-54714465D01*
X150083367Y-54721629D01*
X150089396Y-54724313D01*
X150089399Y-54724315D01*
X150236471Y-54789795D01*
X150236474Y-54789796D01*
X150242507Y-54792482D01*
X150278662Y-54800167D01*
X150406443Y-54827328D01*
X150406447Y-54827328D01*
X150412900Y-54828700D01*
X150587100Y-54828700D01*
X150593553Y-54827328D01*
X150593557Y-54827328D01*
X150721338Y-54800167D01*
X150757493Y-54792482D01*
X150763526Y-54789796D01*
X150763529Y-54789795D01*
X150910601Y-54724315D01*
X150910604Y-54724313D01*
X150916633Y-54721629D01*
X150926494Y-54714465D01*
X151052224Y-54623116D01*
X151057563Y-54619237D01*
X151069419Y-54606070D01*
X151169709Y-54494687D01*
X151169711Y-54494685D01*
X151174126Y-54489781D01*
X151261225Y-54338919D01*
X151279638Y-54282252D01*
X151313017Y-54179522D01*
X151313017Y-54179520D01*
X151315056Y-54173246D01*
X151333265Y-54000000D01*
X151315056Y-53826754D01*
X151261225Y-53661081D01*
X151174126Y-53510219D01*
X151057563Y-53380763D01*
X150916633Y-53278371D01*
X150910604Y-53275687D01*
X150910601Y-53275685D01*
X150763529Y-53210205D01*
X150763526Y-53210204D01*
X150757493Y-53207518D01*
X150721338Y-53199833D01*
X150593557Y-53172672D01*
X150593553Y-53172672D01*
X150587100Y-53171300D01*
X150412900Y-53171300D01*
X150406447Y-53172672D01*
X150406443Y-53172672D01*
X150327703Y-53189409D01*
X150242507Y-53207518D01*
X150236477Y-53210203D01*
X150236476Y-53210203D01*
X150089398Y-53275686D01*
X150089396Y-53275687D01*
X150083368Y-53278371D01*
X149942437Y-53380763D01*
X149825874Y-53510219D01*
X149738775Y-53661081D01*
X149684944Y-53826754D01*
X149666735Y-54000000D01*
X135745182Y-54000000D01*
X137254577Y-52490605D01*
X137316889Y-52456579D01*
X137343672Y-52453700D01*
X149892706Y-52453700D01*
X150019089Y-52438406D01*
X150178416Y-52378201D01*
X150315600Y-52283918D01*
X150383068Y-52261818D01*
X150445471Y-52277509D01*
X150445545Y-52277331D01*
X150461448Y-52283918D01*
X150584773Y-52335001D01*
X150584776Y-52335002D01*
X150592403Y-52338161D01*
X150750000Y-52358909D01*
X150758188Y-52357831D01*
X150899409Y-52339239D01*
X150907597Y-52338161D01*
X150915224Y-52335002D01*
X150915227Y-52335001D01*
X151038552Y-52283918D01*
X151054455Y-52277331D01*
X151180564Y-52180564D01*
X151277331Y-52054454D01*
X151338161Y-51907597D01*
X151358909Y-51750000D01*
X151338161Y-51592403D01*
X151277331Y-51445546D01*
X151180564Y-51319436D01*
X151054455Y-51222669D01*
X150947739Y-51178466D01*
X150915227Y-51164999D01*
X150915224Y-51164998D01*
X150907597Y-51161839D01*
X150750000Y-51141091D01*
X150592403Y-51161839D01*
X150584776Y-51164998D01*
X150584773Y-51164999D01*
X150542899Y-51182344D01*
X150445546Y-51222669D01*
X150445503Y-51222702D01*
X150380198Y-51238543D01*
X150313746Y-51215773D01*
X150191193Y-51129641D01*
X150191191Y-51129640D01*
X150184976Y-51125272D01*
X150105632Y-51094337D01*
X150033368Y-51066162D01*
X150033365Y-51066161D01*
X150026288Y-51063402D01*
X150018755Y-51062410D01*
X150018754Y-51062410D01*
X149900469Y-51046838D01*
X149900468Y-51046838D01*
X149896382Y-51046300D01*
X137028739Y-51046300D01*
X137020170Y-51046008D01*
X136970477Y-51042620D01*
X136970473Y-51042620D01*
X136962900Y-51042104D01*
X136955423Y-51043409D01*
X136955420Y-51043409D01*
X136900408Y-51053010D01*
X136893884Y-51053973D01*
X136838455Y-51060681D01*
X136830911Y-51061594D01*
X136823806Y-51064279D01*
X136820785Y-51065021D01*
X136805610Y-51069172D01*
X136802601Y-51070081D01*
X136795114Y-51071387D01*
X136788153Y-51074443D01*
X136788152Y-51074443D01*
X136737025Y-51096886D01*
X136730929Y-51099374D01*
X136671584Y-51121799D01*
X136665325Y-51126101D01*
X136662555Y-51127549D01*
X136648811Y-51135199D01*
X136646115Y-51136793D01*
X136639156Y-51139848D01*
X136633129Y-51144473D01*
X136633125Y-51144475D01*
X136588827Y-51178466D01*
X136583502Y-51182335D01*
X136531217Y-51218270D01*
X136526167Y-51223938D01*
X136526166Y-51223939D01*
X136490058Y-51264466D01*
X136485076Y-51269742D01*
X133022742Y-54732076D01*
X133016477Y-54737929D01*
X132973208Y-54775675D01*
X132968841Y-54781888D01*
X132968837Y-54781893D01*
X132936728Y-54827580D01*
X132932797Y-54832873D01*
X132893659Y-54882787D01*
X132890533Y-54889711D01*
X132888923Y-54892369D01*
X132881119Y-54906050D01*
X132879638Y-54908812D01*
X132875272Y-54915024D01*
X132872513Y-54922100D01*
X132872512Y-54922102D01*
X132852223Y-54974141D01*
X132849676Y-54980201D01*
X132823570Y-55038020D01*
X132822185Y-55045495D01*
X132821242Y-55048503D01*
X132816941Y-55063599D01*
X132816162Y-55066633D01*
X132813402Y-55073712D01*
X132812410Y-55081245D01*
X132812410Y-55081246D01*
X132805123Y-55136600D01*
X132804094Y-55143100D01*
X132792530Y-55205490D01*
X132792967Y-55213070D01*
X132792967Y-55213071D01*
X132796091Y-55267244D01*
X132796300Y-55274498D01*
X132796300Y-63381251D01*
X132796008Y-63389821D01*
X132793037Y-63433402D01*
X132792103Y-63447100D01*
X115873295Y-63447100D01*
X115875219Y-63445176D01*
X115881649Y-63433402D01*
X115872352Y-63421386D01*
X115711142Y-63308506D01*
X115701656Y-63303028D01*
X115500989Y-63209455D01*
X115490697Y-63205709D01*
X115276834Y-63148405D01*
X115266042Y-63146502D01*
X115045475Y-63127205D01*
X115034525Y-63127205D01*
X114813958Y-63146502D01*
X114803166Y-63148405D01*
X114589303Y-63205709D01*
X114579011Y-63209455D01*
X114378344Y-63303028D01*
X114368858Y-63308506D01*
X114206810Y-63421972D01*
X114198435Y-63432450D01*
X110800912Y-63432450D01*
X110792352Y-63421386D01*
X110631142Y-63308506D01*
X110621656Y-63303028D01*
X110420989Y-63209455D01*
X110410697Y-63205709D01*
X110196834Y-63148405D01*
X110186042Y-63146502D01*
X109965475Y-63127205D01*
X109954525Y-63127205D01*
X109733958Y-63146502D01*
X109723166Y-63148405D01*
X109509303Y-63205709D01*
X109499011Y-63209455D01*
X109298344Y-63303028D01*
X109288858Y-63308506D01*
X109126810Y-63421972D01*
X109118435Y-63432450D01*
X103112986Y-63432450D01*
X104246238Y-62299198D01*
X104260460Y-62287875D01*
X104264139Y-62284209D01*
X104276164Y-62276680D01*
X104283734Y-62264681D01*
X104293787Y-62254663D01*
X104294035Y-62254912D01*
X104299365Y-62248566D01*
X104471461Y-62092589D01*
X104481019Y-62084745D01*
X104691485Y-61928652D01*
X104701766Y-61921782D01*
X104849183Y-61833423D01*
X104926528Y-61787065D01*
X104937429Y-61781238D01*
X105174308Y-61669204D01*
X105185731Y-61664472D01*
X105432451Y-61576194D01*
X105444283Y-61572605D01*
X105658906Y-61518844D01*
X105698472Y-61508933D01*
X105710593Y-61506523D01*
X105969797Y-61468073D01*
X105982093Y-61466863D01*
X106159014Y-61458171D01*
X106213508Y-61455494D01*
X106221617Y-61456213D01*
X106221618Y-61455735D01*
X106235807Y-61455760D01*
X106249635Y-61458939D01*
X106263475Y-61455807D01*
X106267934Y-61455815D01*
X106286865Y-61453700D01*
X122962261Y-61453700D01*
X122990714Y-61456955D01*
X122992314Y-61457326D01*
X122992319Y-61457327D01*
X122999271Y-61458938D01*
X123000000Y-61458939D01*
X123006564Y-61457441D01*
X123013001Y-61456924D01*
X123311307Y-61442270D01*
X123311312Y-61442269D01*
X123314396Y-61442118D01*
X123483270Y-61417068D01*
X123622698Y-61396386D01*
X123622702Y-61396385D01*
X123625764Y-61395931D01*
X123628763Y-61395180D01*
X123628767Y-61395179D01*
X123634340Y-61393783D01*
X130711158Y-61393783D01*
X130712322Y-61402685D01*
X130712322Y-61402688D01*
X130728701Y-61527943D01*
X130728702Y-61527947D01*
X130729866Y-61536848D01*
X130787975Y-61668912D01*
X130880815Y-61779358D01*
X130888286Y-61784331D01*
X130888287Y-61784332D01*
X130993448Y-61854333D01*
X131000922Y-61859308D01*
X131138640Y-61902334D01*
X131282898Y-61904978D01*
X131372162Y-61880642D01*
X131413442Y-61869388D01*
X131413444Y-61869387D01*
X131422101Y-61867027D01*
X131545056Y-61791532D01*
X131641881Y-61684562D01*
X131646135Y-61675783D01*
X131700878Y-61562790D01*
X131704790Y-61554716D01*
X131728728Y-61412433D01*
X131728880Y-61400000D01*
X131708426Y-61257174D01*
X131648707Y-61125830D01*
X131638416Y-61113886D01*
X131560386Y-61023329D01*
X131554525Y-61016527D01*
X131433451Y-60938050D01*
X131295217Y-60896710D01*
X131286241Y-60896655D01*
X131286240Y-60896655D01*
X131226076Y-60896287D01*
X131150937Y-60895828D01*
X131012209Y-60935477D01*
X130890185Y-61012468D01*
X130794674Y-61120613D01*
X130790860Y-61128736D01*
X130790859Y-61128738D01*
X130751730Y-61212082D01*
X130733356Y-61251218D01*
X130731975Y-61260087D01*
X130718862Y-61344307D01*
X130711158Y-61393783D01*
X123634340Y-61393783D01*
X123831856Y-61344307D01*
X123931106Y-61319446D01*
X123934003Y-61318409D01*
X123934011Y-61318407D01*
X124097004Y-61260087D01*
X124227481Y-61213402D01*
X124230264Y-61212086D01*
X124230273Y-61212082D01*
X124509253Y-61080134D01*
X124509256Y-61080132D01*
X124512035Y-61078818D01*
X124557537Y-61051545D01*
X124779377Y-60918580D01*
X124779386Y-60918574D01*
X124782027Y-60916991D01*
X124894678Y-60833443D01*
X125032366Y-60731327D01*
X125032370Y-60731324D01*
X125034856Y-60729480D01*
X125257792Y-60527423D01*
X125262856Y-60523125D01*
X125268546Y-60519577D01*
X125269062Y-60519062D01*
X125273364Y-60512218D01*
X125291633Y-60489493D01*
X135893890Y-50049194D01*
X135909623Y-50036767D01*
X135912191Y-50034208D01*
X135924216Y-50026679D01*
X135931786Y-50014680D01*
X135941839Y-50004662D01*
X135942087Y-50004911D01*
X135947414Y-49998568D01*
X136032486Y-49921461D01*
X136119509Y-49842587D01*
X136129066Y-49834743D01*
X136339541Y-49678639D01*
X136349823Y-49671769D01*
X136462197Y-49604412D01*
X136574580Y-49537051D01*
X136585466Y-49531232D01*
X136822359Y-49419185D01*
X136833783Y-49414453D01*
X136908204Y-49387823D01*
X137080509Y-49326169D01*
X137092315Y-49322587D01*
X137346520Y-49258908D01*
X137358637Y-49256498D01*
X137617846Y-49218044D01*
X137630149Y-49216832D01*
X137861438Y-49205465D01*
X137869670Y-49206196D01*
X137869671Y-49205734D01*
X137883858Y-49205759D01*
X137897688Y-49208939D01*
X137911527Y-49205807D01*
X137915994Y-49205815D01*
X137934919Y-49203700D01*
X160712553Y-49203700D01*
X160730612Y-49205750D01*
G37*
%TD.AperFunction*%
%TA.AperFunction,Conductor*%
G36*
X138380569Y-70880428D02*
G01*
X138412335Y-70888940D01*
X138428271Y-70895541D01*
X138428354Y-70895575D01*
X138431191Y-70896437D01*
X138431197Y-70896439D01*
X138474259Y-70909521D01*
X138474264Y-70909522D01*
X138477229Y-70910423D01*
X138525447Y-70920014D01*
X138543794Y-70921821D01*
X138572991Y-70924697D01*
X138573000Y-70924697D01*
X138576072Y-70925000D01*
X138923927Y-70925000D01*
X138926999Y-70924697D01*
X138927008Y-70924697D01*
X138956205Y-70921821D01*
X138974552Y-70920014D01*
X138990906Y-70916761D01*
X139019735Y-70911027D01*
X139019741Y-70911025D01*
X139022770Y-70910423D01*
X139071450Y-70895656D01*
X139074305Y-70894473D01*
X139074309Y-70894472D01*
X139087663Y-70888941D01*
X139119432Y-70880428D01*
X139122768Y-70879989D01*
X139163555Y-70874619D01*
X139196446Y-70874619D01*
X139240563Y-70880427D01*
X139272335Y-70888941D01*
X139290438Y-70896439D01*
X139313447Y-70905970D01*
X139341930Y-70922415D01*
X139377235Y-70949505D01*
X139400496Y-70972766D01*
X139427587Y-71008073D01*
X139444031Y-71036556D01*
X139461058Y-71077662D01*
X139469572Y-71109433D01*
X139475381Y-71153552D01*
X139475381Y-71186445D01*
X139471034Y-71219463D01*
X139469572Y-71230567D01*
X139461058Y-71262338D01*
X139444031Y-71303444D01*
X139427587Y-71331927D01*
X139400496Y-71367234D01*
X139377235Y-71390495D01*
X139341930Y-71417585D01*
X139313448Y-71434029D01*
X139272335Y-71451059D01*
X139240563Y-71459573D01*
X139196446Y-71465381D01*
X139163555Y-71465381D01*
X139122768Y-71460011D01*
X139119432Y-71459572D01*
X139087663Y-71451059D01*
X139074309Y-71445528D01*
X139074305Y-71445527D01*
X139071450Y-71444344D01*
X139037450Y-71434030D01*
X139025742Y-71430478D01*
X139025737Y-71430477D01*
X139022771Y-71429577D01*
X138974554Y-71419986D01*
X138956333Y-71418191D01*
X138927009Y-71415303D01*
X138927000Y-71415303D01*
X138923928Y-71415000D01*
X138576072Y-71415000D01*
X138573000Y-71415303D01*
X138572991Y-71415303D01*
X138543667Y-71418191D01*
X138525446Y-71419986D01*
X138477229Y-71429577D01*
X138474263Y-71430477D01*
X138474258Y-71430478D01*
X138462550Y-71434030D01*
X138428550Y-71444344D01*
X138425695Y-71445527D01*
X138425691Y-71445528D01*
X138412337Y-71451059D01*
X138380568Y-71459572D01*
X138377232Y-71460011D01*
X138336445Y-71465381D01*
X138303554Y-71465381D01*
X138259437Y-71459573D01*
X138227665Y-71451059D01*
X138186552Y-71434029D01*
X138158070Y-71417585D01*
X138122765Y-71390495D01*
X138099504Y-71367234D01*
X138072413Y-71331927D01*
X138055969Y-71303444D01*
X138038942Y-71262338D01*
X138030428Y-71230567D01*
X138028966Y-71219463D01*
X138024619Y-71186445D01*
X138024619Y-71153552D01*
X138028313Y-71125500D01*
X138030428Y-71109431D01*
X138038940Y-71077666D01*
X138055969Y-71036554D01*
X138072413Y-71008071D01*
X138085239Y-70991356D01*
X138099509Y-70972760D01*
X138122760Y-70949509D01*
X138158071Y-70922413D01*
X138186556Y-70905968D01*
X138227663Y-70888941D01*
X138259433Y-70880428D01*
X138264788Y-70879723D01*
X138303555Y-70874619D01*
X138336444Y-70874619D01*
X138380569Y-70880428D01*
G37*
%TD.AperFunction*%
%TD*%
%TA.AperFunction,Conductor*%
%TO.N,+1V8*%
G36*
X159515931Y-56770002D02*
G01*
X159536905Y-56786905D01*
X160213095Y-57463095D01*
X160247121Y-57525407D01*
X160250000Y-57552190D01*
X160250000Y-67219003D01*
X160241393Y-67264773D01*
X160225961Y-67304355D01*
X160221406Y-67316037D01*
X160220414Y-67323570D01*
X160220414Y-67323571D01*
X160202057Y-67463011D01*
X160200729Y-67473096D01*
X160201664Y-67481564D01*
X160201546Y-67482229D01*
X160201483Y-67488242D01*
X160200480Y-67488232D01*
X160189255Y-67551468D01*
X160165519Y-67584481D01*
X159848509Y-67901491D01*
X159788828Y-67934915D01*
X159744900Y-67945461D01*
X159740329Y-67947354D01*
X159740327Y-67947355D01*
X159512509Y-68041720D01*
X159512505Y-68041722D01*
X159507935Y-68043615D01*
X159289242Y-68177630D01*
X159094206Y-68344206D01*
X158927630Y-68539242D01*
X158793615Y-68757935D01*
X158791722Y-68762505D01*
X158791720Y-68762509D01*
X158697355Y-68990327D01*
X158695461Y-68994900D01*
X158694306Y-68999712D01*
X158684915Y-69038828D01*
X158651491Y-69098509D01*
X158165019Y-69584981D01*
X158105339Y-69618404D01*
X158097575Y-69620268D01*
X158097571Y-69620270D01*
X158090184Y-69622043D01*
X158083438Y-69625525D01*
X158083435Y-69625526D01*
X158037663Y-69649151D01*
X157949414Y-69694700D01*
X157830039Y-69798838D01*
X157738950Y-69928444D01*
X157736190Y-69935524D01*
X157695765Y-70039208D01*
X157667467Y-70082533D01*
X155786905Y-71963095D01*
X155724593Y-71997121D01*
X155697810Y-72000000D01*
X132302190Y-72000000D01*
X132234069Y-71979998D01*
X132213095Y-71963095D01*
X131420000Y-71170000D01*
X137760715Y-71170000D01*
X137779772Y-71314754D01*
X137835645Y-71449642D01*
X137924526Y-71565474D01*
X137931076Y-71570500D01*
X137931079Y-71570503D01*
X138007943Y-71629483D01*
X138040357Y-71654355D01*
X138175246Y-71710228D01*
X138320000Y-71729285D01*
X138328188Y-71728207D01*
X138456566Y-71711306D01*
X138464754Y-71710228D01*
X138527855Y-71684091D01*
X138576072Y-71674500D01*
X138923928Y-71674500D01*
X138972145Y-71684091D01*
X139035246Y-71710228D01*
X139180000Y-71729285D01*
X139188188Y-71728207D01*
X139316566Y-71711306D01*
X139324754Y-71710228D01*
X139459643Y-71654355D01*
X139492057Y-71629483D01*
X139568921Y-71570503D01*
X139568924Y-71570500D01*
X139575474Y-71565474D01*
X139664355Y-71449642D01*
X139720228Y-71314754D01*
X139739285Y-71170000D01*
X139731967Y-71114415D01*
X139721306Y-71033432D01*
X139721305Y-71033430D01*
X139720228Y-71025246D01*
X139664355Y-70890358D01*
X139575474Y-70774526D01*
X139568924Y-70769500D01*
X139568921Y-70769497D01*
X139466196Y-70690673D01*
X139466194Y-70690672D01*
X139459643Y-70685645D01*
X139324754Y-70629772D01*
X139180000Y-70610715D01*
X139171812Y-70611793D01*
X139043432Y-70628694D01*
X139043430Y-70628695D01*
X139035246Y-70629772D01*
X139027617Y-70632932D01*
X138972145Y-70655909D01*
X138923927Y-70665500D01*
X138576072Y-70665500D01*
X138527854Y-70655909D01*
X138527577Y-70655794D01*
X138464754Y-70629772D01*
X138320000Y-70610715D01*
X138311812Y-70611793D01*
X138183432Y-70628694D01*
X138183430Y-70628695D01*
X138175246Y-70629772D01*
X138127430Y-70649578D01*
X138047986Y-70682485D01*
X138047984Y-70682486D01*
X138040358Y-70685645D01*
X137924526Y-70774526D01*
X137835645Y-70890358D01*
X137779772Y-71025246D01*
X137778695Y-71033430D01*
X137778694Y-71033432D01*
X137768033Y-71114415D01*
X137760715Y-71170000D01*
X131420000Y-71170000D01*
X129786905Y-69536905D01*
X129752879Y-69474593D01*
X129750000Y-69447810D01*
X129750000Y-68940000D01*
X130260715Y-68940000D01*
X130279772Y-69084754D01*
X130285470Y-69098509D01*
X130331503Y-69209642D01*
X130335645Y-69219642D01*
X130424526Y-69335474D01*
X130431076Y-69340500D01*
X130431079Y-69340503D01*
X130531443Y-69417515D01*
X130540357Y-69424355D01*
X130675246Y-69480228D01*
X130820000Y-69499285D01*
X130828188Y-69498207D01*
X130956566Y-69481306D01*
X130964754Y-69480228D01*
X131099643Y-69424355D01*
X131108557Y-69417515D01*
X131208921Y-69340503D01*
X131208924Y-69340500D01*
X131215474Y-69335474D01*
X131304355Y-69219642D01*
X131308498Y-69209642D01*
X131354530Y-69098509D01*
X131360228Y-69084754D01*
X131379285Y-68940000D01*
X131366260Y-68841062D01*
X131361306Y-68803432D01*
X131361305Y-68803430D01*
X131360228Y-68795246D01*
X131343025Y-68753715D01*
X131334091Y-68732145D01*
X131324500Y-68683927D01*
X131324500Y-68316073D01*
X131334091Y-68267855D01*
X131357068Y-68212383D01*
X131360228Y-68204754D01*
X131379285Y-68060000D01*
X131363243Y-67938149D01*
X131361306Y-67923432D01*
X131361305Y-67923430D01*
X131360228Y-67915246D01*
X131326495Y-67833807D01*
X131307515Y-67787986D01*
X131307514Y-67787984D01*
X131304355Y-67780358D01*
X131215474Y-67664526D01*
X131208924Y-67659500D01*
X131208921Y-67659497D01*
X131106196Y-67580673D01*
X131106194Y-67580672D01*
X131099643Y-67575645D01*
X130964754Y-67519772D01*
X130820000Y-67500715D01*
X130811812Y-67501793D01*
X130683432Y-67518694D01*
X130683430Y-67518695D01*
X130675246Y-67519772D01*
X130651104Y-67529772D01*
X130547986Y-67572485D01*
X130547984Y-67572486D01*
X130540358Y-67575645D01*
X130424526Y-67664526D01*
X130335645Y-67780358D01*
X130332486Y-67787984D01*
X130332485Y-67787986D01*
X130313505Y-67833807D01*
X130279772Y-67915246D01*
X130278695Y-67923430D01*
X130278694Y-67923432D01*
X130276757Y-67938149D01*
X130260715Y-68060000D01*
X130279772Y-68204754D01*
X130282932Y-68212383D01*
X130305909Y-68267855D01*
X130315500Y-68316073D01*
X130315500Y-68683927D01*
X130305909Y-68732145D01*
X130296975Y-68753715D01*
X130279772Y-68795246D01*
X130278695Y-68803430D01*
X130278694Y-68803432D01*
X130273740Y-68841062D01*
X130260715Y-68940000D01*
X129750000Y-68940000D01*
X129750000Y-65376000D01*
X129770002Y-65307879D01*
X129823658Y-65261386D01*
X129876000Y-65250000D01*
X130197810Y-65250000D01*
X130265931Y-65270002D01*
X130286905Y-65286905D01*
X133086644Y-68086644D01*
X133120670Y-68148956D01*
X133122470Y-68159286D01*
X133129772Y-68214754D01*
X133185645Y-68349642D01*
X133223964Y-68399580D01*
X133249563Y-68465799D01*
X133250000Y-68476282D01*
X133250000Y-68523718D01*
X133229998Y-68591839D01*
X133223971Y-68600410D01*
X133185645Y-68650358D01*
X133129772Y-68785246D01*
X133128695Y-68793430D01*
X133128694Y-68793432D01*
X133117392Y-68879285D01*
X133110715Y-68930000D01*
X133129772Y-69074754D01*
X133185645Y-69209642D01*
X133274526Y-69325474D01*
X133281076Y-69330500D01*
X133281079Y-69330503D01*
X133383804Y-69409327D01*
X133390357Y-69414355D01*
X133525246Y-69470228D01*
X133533434Y-69471306D01*
X133597623Y-69479757D01*
X133670000Y-69489285D01*
X133678188Y-69488207D01*
X133686017Y-69488207D01*
X133754138Y-69508209D01*
X133775112Y-69525112D01*
X134000000Y-69750000D01*
X152860244Y-69750000D01*
X152877341Y-69751165D01*
X152878172Y-69751279D01*
X152885522Y-69753207D01*
X152966238Y-69754475D01*
X153036317Y-69755576D01*
X153036320Y-69755576D01*
X153043916Y-69755695D01*
X153054898Y-69753180D01*
X153083026Y-69750000D01*
X153250000Y-69750000D01*
X153411691Y-69588309D01*
X153418955Y-69581593D01*
X153454538Y-69551203D01*
X153454541Y-69551199D01*
X153460314Y-69546269D01*
X153471146Y-69531195D01*
X153484373Y-69515627D01*
X156992425Y-66007575D01*
X156999689Y-66000859D01*
X157069542Y-65941199D01*
X157069543Y-65941198D01*
X157075314Y-65936269D01*
X157079743Y-65930106D01*
X157079748Y-65930100D01*
X157098913Y-65903429D01*
X157112140Y-65887860D01*
X157250000Y-65750000D01*
X157250000Y-57802190D01*
X157270002Y-57734069D01*
X157286905Y-57713095D01*
X158213095Y-56786905D01*
X158275407Y-56752879D01*
X158302190Y-56750000D01*
X159447810Y-56750000D01*
X159515931Y-56770002D01*
G37*
%TD.AperFunction*%
%TD*%
M02*
