%TF.GenerationSoftware,KiCad,Pcbnew,(6.0.5-0)*%
%TF.CreationDate,2025-05-14T10:57:02-04:00*%
%TF.ProjectId,SDTV2CSI,53445456-3243-4534-992e-6b696361645f,rev?*%
%TF.SameCoordinates,Original*%
%TF.FileFunction,Copper,L3,Inr*%
%TF.FilePolarity,Positive*%
%FSLAX46Y46*%
G04 Gerber Fmt 4.6, Leading zero omitted, Abs format (unit mm)*
G04 Created by KiCad (PCBNEW (6.0.5-0)) date 2025-05-14 10:57:02*
%MOMM*%
%LPD*%
G01*
G04 APERTURE LIST*
%TA.AperFunction,ComponentPad*%
%ADD10C,1.250000*%
%TD*%
%TA.AperFunction,ViaPad*%
%ADD11C,0.600000*%
%TD*%
%TA.AperFunction,ViaPad*%
%ADD12C,0.800000*%
%TD*%
%TA.AperFunction,Conductor*%
%ADD13C,0.600000*%
%TD*%
G04 APERTURE END LIST*
D10*
%TO.N,+3V3*%
%TO.C,J1*%
X60000000Y-68500000D03*
%TO.N,CSDA*%
X62000000Y-67500000D03*
%TO.N,CSCL*%
X60000000Y-66500000D03*
%TO.N,LED_EN*%
X62000000Y-65500000D03*
%TO.N,PWR_EN*%
X60000000Y-64500000D03*
%TO.N,GND*%
X62000000Y-63500000D03*
%TO.N,CLK+*%
X60000000Y-62500000D03*
%TO.N,CLK-*%
X62000000Y-61500000D03*
%TO.N,GND*%
X60000000Y-60500000D03*
%TO.N,CD1+*%
X62000000Y-59500000D03*
%TO.N,CD1-*%
X60000000Y-58499998D03*
%TO.N,GND*%
X62000000Y-57500000D03*
%TO.N,CD0+*%
X60000000Y-56500000D03*
%TO.N,CD0-*%
X62000000Y-55500000D03*
%TO.N,GND*%
X60000000Y-54500000D03*
%TD*%
D11*
%TO.N,GND*%
X75800000Y-65450000D03*
X72200000Y-55150000D03*
X66950000Y-53650000D03*
X67400000Y-57110000D03*
X77970000Y-56220000D03*
X72830000Y-70400000D03*
X67840000Y-60120000D03*
X72870000Y-66000000D03*
X50230000Y-71180000D03*
X61680000Y-50700000D03*
X76440000Y-50700000D03*
X69100000Y-54000000D03*
X69350000Y-63650000D03*
X72250000Y-53900000D03*
X52640000Y-65350000D03*
X61120000Y-52930000D03*
X51820000Y-70260000D03*
X64200000Y-70350000D03*
X72250000Y-52100000D03*
X77420000Y-64430000D03*
X54480000Y-64050000D03*
X76830000Y-57370000D03*
X71650000Y-66710000D03*
X70900000Y-54000000D03*
X69350000Y-64750000D03*
D12*
X64550000Y-66350000D03*
D11*
X75250000Y-52100000D03*
X78120000Y-51980000D03*
X66000000Y-56050000D03*
X58330000Y-69530000D03*
X75250000Y-53900000D03*
X75130000Y-61130000D03*
X51500000Y-66950000D03*
X74600000Y-63250000D03*
X71150000Y-64750000D03*
X73840000Y-69900000D03*
X77330000Y-59650000D03*
X73660000Y-68180000D03*
X60520000Y-71510000D03*
X78710000Y-64890000D03*
X70650000Y-69090000D03*
X65650000Y-59390000D03*
X69390000Y-55800000D03*
X65620000Y-60700000D03*
X56630000Y-56850000D03*
X58290000Y-55880000D03*
X76400000Y-63250000D03*
X56500000Y-65020000D03*
X64500000Y-69000000D03*
%TO.N,+3V3*%
X76580000Y-53000000D03*
D12*
X57450000Y-64970000D03*
%TO.N,+1V8*%
X57450000Y-69540000D03*
D11*
X69660000Y-66150000D03*
X58400000Y-70750000D03*
X75500000Y-61830000D03*
D12*
X70820000Y-53000000D03*
D11*
%TO.N,PWR_EN*%
X51830000Y-65830000D03*
X76920000Y-60420000D03*
%TO.N,LED_EN*%
X53630000Y-65790000D03*
%TO.N,DVDDIO*%
X77510000Y-58870000D03*
X76000000Y-54410000D03*
X74150000Y-53920000D03*
%TO.N,MVDD*%
X67690000Y-59250000D03*
X70000000Y-55320000D03*
%TO.N,CSCL*%
X55510000Y-57100000D03*
%TD*%
D13*
%TO.N,+3V3*%
X60828762Y-52147689D02*
X71233759Y-52147689D01*
X71233759Y-52147689D02*
X72086070Y-53000000D01*
X72086070Y-53000000D02*
X76580000Y-53000000D01*
X57450000Y-55526451D02*
X60828762Y-52147689D01*
X57450000Y-64970000D02*
X57450000Y-55526451D01*
%TD*%
%TA.AperFunction,Conductor*%
%TO.N,GND*%
G36*
X77480612Y-50205750D02*
G01*
X77485806Y-50205759D01*
X77499635Y-50208939D01*
X77513474Y-50205807D01*
X77527665Y-50205832D01*
X77527664Y-50206402D01*
X77535899Y-50205716D01*
X77664933Y-50212963D01*
X77806025Y-50220886D01*
X77820057Y-50222467D01*
X77967660Y-50247546D01*
X78115259Y-50272624D01*
X78129034Y-50275768D01*
X78219034Y-50301696D01*
X78416770Y-50358663D01*
X78430089Y-50363324D01*
X78706736Y-50477915D01*
X78719459Y-50484042D01*
X78785461Y-50520520D01*
X78981525Y-50628881D01*
X78993489Y-50636398D01*
X79237696Y-50809672D01*
X79248742Y-50818482D01*
X79472006Y-51018002D01*
X79481998Y-51027994D01*
X79681518Y-51251258D01*
X79690328Y-51262304D01*
X79863602Y-51506511D01*
X79871119Y-51518475D01*
X80008598Y-51767223D01*
X80015956Y-51780537D01*
X80022085Y-51793264D01*
X80136676Y-52069911D01*
X80141337Y-52083230D01*
X80198304Y-52280966D01*
X80224232Y-52370966D01*
X80227376Y-52384741D01*
X80246255Y-52495852D01*
X80274937Y-52664663D01*
X80277532Y-52679938D01*
X80279114Y-52693975D01*
X80294252Y-52963534D01*
X80293563Y-52971618D01*
X80294266Y-52971619D01*
X80294241Y-52985805D01*
X80291061Y-52999635D01*
X80294193Y-53013476D01*
X80294185Y-53017936D01*
X80296300Y-53036865D01*
X80296300Y-69962553D01*
X80294250Y-69980612D01*
X80294241Y-69985806D01*
X80291061Y-69999635D01*
X80294193Y-70013474D01*
X80294168Y-70027665D01*
X80293598Y-70027664D01*
X80294284Y-70035899D01*
X80279114Y-70306021D01*
X80277533Y-70320057D01*
X80254744Y-70454182D01*
X80227376Y-70615259D01*
X80224232Y-70629034D01*
X80141337Y-70916770D01*
X80136676Y-70930089D01*
X80022087Y-71206732D01*
X80015958Y-71219459D01*
X79968764Y-71304851D01*
X79871119Y-71481525D01*
X79863602Y-71493489D01*
X79690328Y-71737696D01*
X79681518Y-71748742D01*
X79481998Y-71972006D01*
X79472006Y-71981998D01*
X79248742Y-72181518D01*
X79237696Y-72190328D01*
X78993489Y-72363602D01*
X78981525Y-72371119D01*
X78830752Y-72454449D01*
X78719459Y-72515958D01*
X78706736Y-72522085D01*
X78430089Y-72636676D01*
X78416770Y-72641337D01*
X78219034Y-72698304D01*
X78129034Y-72724232D01*
X78115259Y-72727376D01*
X77967661Y-72752454D01*
X77820057Y-72777533D01*
X77806025Y-72779114D01*
X77536465Y-72794252D01*
X77528382Y-72793563D01*
X77528381Y-72794266D01*
X77514195Y-72794241D01*
X77500365Y-72791061D01*
X77486524Y-72794193D01*
X77482064Y-72794185D01*
X77463135Y-72796300D01*
X18537447Y-72796300D01*
X18519388Y-72794250D01*
X18514194Y-72794241D01*
X18500365Y-72791061D01*
X18486526Y-72794193D01*
X18472335Y-72794168D01*
X18472336Y-72793598D01*
X18464101Y-72794284D01*
X18335067Y-72787037D01*
X18193975Y-72779114D01*
X18179943Y-72777533D01*
X18032339Y-72752454D01*
X17884741Y-72727376D01*
X17870966Y-72724232D01*
X17780966Y-72698304D01*
X17583230Y-72641337D01*
X17569911Y-72636676D01*
X17293264Y-72522085D01*
X17280541Y-72515958D01*
X17169248Y-72454449D01*
X17018475Y-72371119D01*
X17006511Y-72363602D01*
X16762304Y-72190328D01*
X16751258Y-72181518D01*
X16527994Y-71981998D01*
X16518002Y-71972006D01*
X16318482Y-71748742D01*
X16309672Y-71737696D01*
X16136398Y-71493489D01*
X16128881Y-71481525D01*
X16031236Y-71304851D01*
X15984042Y-71219459D01*
X15977913Y-71206732D01*
X15863324Y-70930089D01*
X15858663Y-70916770D01*
X15775768Y-70629034D01*
X15772624Y-70615259D01*
X15745256Y-70454182D01*
X15722467Y-70320057D01*
X15720886Y-70306021D01*
X15710958Y-70129239D01*
X15705764Y-70036750D01*
X15707655Y-70014908D01*
X15706511Y-70014776D01*
X15707327Y-70007678D01*
X15708938Y-70000729D01*
X15708939Y-70000000D01*
X15706854Y-69990861D01*
X15703700Y-69962846D01*
X15703700Y-69500000D01*
X17369474Y-69500000D01*
X17389548Y-69755070D01*
X17390702Y-69759877D01*
X17390703Y-69759883D01*
X17411007Y-69844454D01*
X17449278Y-70003860D01*
X17451171Y-70008431D01*
X17451172Y-70008433D01*
X17508913Y-70147831D01*
X17547191Y-70240243D01*
X17680877Y-70458399D01*
X17847044Y-70652956D01*
X18041601Y-70819123D01*
X18259757Y-70952809D01*
X18264327Y-70954702D01*
X18264331Y-70954704D01*
X18491567Y-71048828D01*
X18496140Y-71050722D01*
X18584157Y-71071853D01*
X18740117Y-71109297D01*
X18740123Y-71109298D01*
X18744930Y-71110452D01*
X18833569Y-71117428D01*
X18933680Y-71125307D01*
X18933689Y-71125307D01*
X18936137Y-71125500D01*
X19063863Y-71125500D01*
X19066311Y-71125307D01*
X19066320Y-71125307D01*
X19166431Y-71117428D01*
X19255070Y-71110452D01*
X19259877Y-71109298D01*
X19259883Y-71109297D01*
X19415843Y-71071853D01*
X19503860Y-71050722D01*
X19508433Y-71048828D01*
X19735669Y-70954704D01*
X19735673Y-70954702D01*
X19740243Y-70952809D01*
X19958399Y-70819123D01*
X20152956Y-70652956D01*
X20319123Y-70458399D01*
X20452809Y-70240243D01*
X20491088Y-70147831D01*
X20548828Y-70008433D01*
X20548829Y-70008431D01*
X20550722Y-70003860D01*
X20588993Y-69844454D01*
X20609297Y-69759883D01*
X20609298Y-69759877D01*
X20610452Y-69755070D01*
X20627378Y-69540000D01*
X56841091Y-69540000D01*
X56861839Y-69697597D01*
X56922669Y-69844454D01*
X57019436Y-69970564D01*
X57145545Y-70067331D01*
X57218974Y-70097746D01*
X57284773Y-70125001D01*
X57284776Y-70125002D01*
X57292403Y-70128161D01*
X57450000Y-70148909D01*
X57458188Y-70147831D01*
X57599409Y-70129239D01*
X57607597Y-70128161D01*
X57615224Y-70125002D01*
X57615227Y-70125001D01*
X57681026Y-70097746D01*
X57754455Y-70067331D01*
X57880564Y-69970564D01*
X57977331Y-69844454D01*
X58038161Y-69697597D01*
X58058909Y-69540000D01*
X58038161Y-69382403D01*
X58026287Y-69353735D01*
X58002879Y-69297225D01*
X57977331Y-69235546D01*
X57880564Y-69109436D01*
X57754455Y-69012669D01*
X57679377Y-68981571D01*
X57615227Y-68954999D01*
X57615224Y-68954998D01*
X57607597Y-68951839D01*
X57450000Y-68931091D01*
X57292403Y-68951839D01*
X57284776Y-68954998D01*
X57284773Y-68954999D01*
X57263478Y-68963820D01*
X57145546Y-69012669D01*
X57019436Y-69109436D01*
X56922669Y-69235546D01*
X56897121Y-69297225D01*
X56873714Y-69353735D01*
X56861839Y-69382403D01*
X56841091Y-69540000D01*
X20627378Y-69540000D01*
X20630526Y-69500000D01*
X20610452Y-69244930D01*
X20609298Y-69240123D01*
X20609297Y-69240117D01*
X20557120Y-69022788D01*
X20550722Y-68996140D01*
X20546519Y-68985993D01*
X20454704Y-68764331D01*
X20454702Y-68764327D01*
X20452809Y-68759757D01*
X20319123Y-68541601D01*
X20152956Y-68347044D01*
X19958399Y-68180877D01*
X19740243Y-68047191D01*
X19735673Y-68045298D01*
X19735669Y-68045296D01*
X19508433Y-67951172D01*
X19508431Y-67951171D01*
X19503860Y-67949278D01*
X19415843Y-67928147D01*
X19259883Y-67890703D01*
X19259877Y-67890702D01*
X19255070Y-67889548D01*
X19166431Y-67882572D01*
X19066320Y-67874693D01*
X19066311Y-67874693D01*
X19063863Y-67874500D01*
X18936137Y-67874500D01*
X18933689Y-67874693D01*
X18933680Y-67874693D01*
X18833569Y-67882572D01*
X18744930Y-67889548D01*
X18740123Y-67890702D01*
X18740117Y-67890703D01*
X18584157Y-67928147D01*
X18496140Y-67949278D01*
X18491569Y-67951171D01*
X18491567Y-67951172D01*
X18264331Y-68045296D01*
X18264327Y-68045298D01*
X18259757Y-68047191D01*
X18041601Y-68180877D01*
X17847044Y-68347044D01*
X17680877Y-68541601D01*
X17547191Y-68759757D01*
X17545298Y-68764327D01*
X17545296Y-68764331D01*
X17453481Y-68985993D01*
X17449278Y-68996140D01*
X17442880Y-69022788D01*
X17390703Y-69240117D01*
X17390702Y-69240123D01*
X17389548Y-69244930D01*
X17369474Y-69500000D01*
X15703700Y-69500000D01*
X15703700Y-69037739D01*
X15706955Y-69009286D01*
X15707326Y-69007686D01*
X15707327Y-69007681D01*
X15708938Y-69000729D01*
X15708939Y-69000000D01*
X15707356Y-68993061D01*
X15706565Y-68985993D01*
X15707590Y-68985878D01*
X15705732Y-68963820D01*
X15720886Y-68693979D01*
X15722468Y-68679938D01*
X15725064Y-68664663D01*
X15772624Y-68384741D01*
X15775768Y-68370966D01*
X15834426Y-68167358D01*
X15858663Y-68083230D01*
X15863324Y-68069911D01*
X15977915Y-67793264D01*
X15984044Y-67780537D01*
X16128881Y-67518475D01*
X16136398Y-67506511D01*
X16141018Y-67500000D01*
X61166735Y-67500000D01*
X61184944Y-67673246D01*
X61186983Y-67679520D01*
X61186983Y-67679522D01*
X61220363Y-67782252D01*
X61238775Y-67838919D01*
X61325874Y-67989781D01*
X61330289Y-67994685D01*
X61330291Y-67994687D01*
X61398015Y-68069902D01*
X61442437Y-68119237D01*
X61583367Y-68221629D01*
X61589396Y-68224313D01*
X61589399Y-68224315D01*
X61736471Y-68289795D01*
X61736474Y-68289796D01*
X61742507Y-68292482D01*
X61778662Y-68300167D01*
X61906443Y-68327328D01*
X61906447Y-68327328D01*
X61912900Y-68328700D01*
X62087100Y-68328700D01*
X62093553Y-68327328D01*
X62093557Y-68327328D01*
X62221338Y-68300167D01*
X62257493Y-68292482D01*
X62263526Y-68289796D01*
X62263529Y-68289795D01*
X62410601Y-68224315D01*
X62410604Y-68224313D01*
X62416633Y-68221629D01*
X62557563Y-68119237D01*
X62601985Y-68069902D01*
X62669709Y-67994687D01*
X62669711Y-67994685D01*
X62674126Y-67989781D01*
X62761225Y-67838919D01*
X62779638Y-67782252D01*
X62813017Y-67679522D01*
X62813017Y-67679520D01*
X62815056Y-67673246D01*
X62833265Y-67500000D01*
X62815056Y-67326754D01*
X62813017Y-67320478D01*
X62763265Y-67167358D01*
X62763263Y-67167354D01*
X62761225Y-67161081D01*
X62734233Y-67114328D01*
X62677427Y-67015936D01*
X62677425Y-67015934D01*
X62674126Y-67010219D01*
X62655724Y-66989781D01*
X62561978Y-66885666D01*
X62561976Y-66885665D01*
X62557563Y-66880763D01*
X62471841Y-66818482D01*
X62421975Y-66782252D01*
X62421974Y-66782251D01*
X62416633Y-66778371D01*
X62410604Y-66775687D01*
X62410601Y-66775685D01*
X62263529Y-66710205D01*
X62263526Y-66710204D01*
X62257493Y-66707518D01*
X62221338Y-66699833D01*
X62093557Y-66672672D01*
X62093553Y-66672672D01*
X62087100Y-66671300D01*
X61912900Y-66671300D01*
X61906447Y-66672672D01*
X61906443Y-66672672D01*
X61827703Y-66689409D01*
X61742507Y-66707518D01*
X61736477Y-66710203D01*
X61736476Y-66710203D01*
X61589398Y-66775686D01*
X61589396Y-66775687D01*
X61583368Y-66778371D01*
X61578027Y-66782251D01*
X61578026Y-66782252D01*
X61492163Y-66844635D01*
X61442437Y-66880763D01*
X61438024Y-66885665D01*
X61438022Y-66885666D01*
X61344277Y-66989781D01*
X61325874Y-67010219D01*
X61322575Y-67015934D01*
X61322573Y-67015936D01*
X61265767Y-67114328D01*
X61238775Y-67161081D01*
X61236737Y-67167354D01*
X61236735Y-67167358D01*
X61186983Y-67320478D01*
X61184944Y-67326754D01*
X61166735Y-67500000D01*
X16141018Y-67500000D01*
X16309672Y-67262304D01*
X16318482Y-67251258D01*
X16518002Y-67027994D01*
X16527994Y-67018002D01*
X16751258Y-66818482D01*
X16762304Y-66809672D01*
X17006511Y-66636398D01*
X17018475Y-66628881D01*
X17169248Y-66545551D01*
X17251667Y-66500000D01*
X59166735Y-66500000D01*
X59167425Y-66506565D01*
X59178919Y-66615919D01*
X59184944Y-66673246D01*
X59186983Y-66679520D01*
X59186983Y-66679522D01*
X59232135Y-66818482D01*
X59238775Y-66838919D01*
X59325874Y-66989781D01*
X59330289Y-66994685D01*
X59330291Y-66994687D01*
X59360281Y-67027994D01*
X59442437Y-67119237D01*
X59583367Y-67221629D01*
X59589396Y-67224313D01*
X59589399Y-67224315D01*
X59736471Y-67289795D01*
X59736474Y-67289796D01*
X59742507Y-67292482D01*
X59778662Y-67300167D01*
X59906443Y-67327328D01*
X59906447Y-67327328D01*
X59912900Y-67328700D01*
X60087100Y-67328700D01*
X60093553Y-67327328D01*
X60093557Y-67327328D01*
X60221338Y-67300167D01*
X60257493Y-67292482D01*
X60263526Y-67289796D01*
X60263529Y-67289795D01*
X60410601Y-67224315D01*
X60410604Y-67224313D01*
X60416633Y-67221629D01*
X60557563Y-67119237D01*
X60639719Y-67027994D01*
X60669709Y-66994687D01*
X60669711Y-66994685D01*
X60674126Y-66989781D01*
X60761225Y-66838919D01*
X60767866Y-66818482D01*
X60813017Y-66679522D01*
X60813017Y-66679520D01*
X60815056Y-66673246D01*
X60821082Y-66615919D01*
X60832575Y-66506565D01*
X60833265Y-66500000D01*
X60830944Y-66477913D01*
X60815746Y-66333315D01*
X60815745Y-66333311D01*
X60815056Y-66326754D01*
X60804678Y-66294813D01*
X60763265Y-66167358D01*
X60763263Y-66167354D01*
X60761225Y-66161081D01*
X60708212Y-66069258D01*
X60677427Y-66015936D01*
X60677425Y-66015934D01*
X60674126Y-66010219D01*
X60655724Y-65989781D01*
X60561978Y-65885666D01*
X60561976Y-65885665D01*
X60557563Y-65880763D01*
X60507837Y-65844635D01*
X60421975Y-65782252D01*
X60421974Y-65782251D01*
X60416633Y-65778371D01*
X60410604Y-65775687D01*
X60410601Y-65775685D01*
X60263529Y-65710205D01*
X60263526Y-65710204D01*
X60257493Y-65707518D01*
X60203606Y-65696064D01*
X60093557Y-65672672D01*
X60093553Y-65672672D01*
X60087100Y-65671300D01*
X59912900Y-65671300D01*
X59906447Y-65672672D01*
X59906443Y-65672672D01*
X59838218Y-65687174D01*
X59742507Y-65707518D01*
X59736477Y-65710203D01*
X59736476Y-65710203D01*
X59589398Y-65775686D01*
X59589396Y-65775687D01*
X59583368Y-65778371D01*
X59578027Y-65782251D01*
X59578026Y-65782252D01*
X59495194Y-65842433D01*
X59442437Y-65880763D01*
X59438024Y-65885665D01*
X59438022Y-65885666D01*
X59344277Y-65989781D01*
X59325874Y-66010219D01*
X59322575Y-66015934D01*
X59322573Y-66015936D01*
X59291788Y-66069258D01*
X59238775Y-66161081D01*
X59236737Y-66167354D01*
X59236735Y-66167358D01*
X59195322Y-66294813D01*
X59184944Y-66326754D01*
X59184255Y-66333311D01*
X59184254Y-66333315D01*
X59169056Y-66477913D01*
X59166735Y-66500000D01*
X17251667Y-66500000D01*
X17280541Y-66484042D01*
X17293264Y-66477915D01*
X17569911Y-66363324D01*
X17583230Y-66358663D01*
X17808184Y-66293855D01*
X17870966Y-66275768D01*
X17884741Y-66272624D01*
X18051250Y-66244333D01*
X18179943Y-66222467D01*
X18193975Y-66220886D01*
X18463535Y-66205748D01*
X18471618Y-66206437D01*
X18471619Y-66205734D01*
X18485805Y-66205759D01*
X18499635Y-66208939D01*
X18513476Y-66205807D01*
X18517936Y-66205815D01*
X18536865Y-66203700D01*
X43962261Y-66203700D01*
X43990714Y-66206955D01*
X43992314Y-66207326D01*
X43992319Y-66207327D01*
X43999271Y-66208938D01*
X44000000Y-66208939D01*
X44006564Y-66207441D01*
X44013001Y-66206924D01*
X44311307Y-66192270D01*
X44311312Y-66192269D01*
X44314396Y-66192118D01*
X44523631Y-66161081D01*
X44622698Y-66146386D01*
X44622702Y-66146385D01*
X44625764Y-66145931D01*
X44628763Y-66145180D01*
X44628767Y-66145179D01*
X44846280Y-66090694D01*
X44931106Y-66069446D01*
X44934003Y-66068409D01*
X44934011Y-66068407D01*
X45096635Y-66010219D01*
X45227481Y-65963402D01*
X45230264Y-65962086D01*
X45230273Y-65962082D01*
X45509253Y-65830134D01*
X45509256Y-65830132D01*
X45512035Y-65828818D01*
X45520435Y-65823783D01*
X51321158Y-65823783D01*
X51322322Y-65832685D01*
X51322322Y-65832688D01*
X51338701Y-65957943D01*
X51338702Y-65957947D01*
X51339866Y-65966848D01*
X51397975Y-66098912D01*
X51455510Y-66167358D01*
X51475942Y-66191664D01*
X51490815Y-66209358D01*
X51498286Y-66214331D01*
X51498287Y-66214332D01*
X51555372Y-66252331D01*
X51610922Y-66289308D01*
X51710691Y-66320478D01*
X51732617Y-66327328D01*
X51748640Y-66332334D01*
X51892898Y-66334978D01*
X51951299Y-66319056D01*
X52023442Y-66299388D01*
X52023444Y-66299387D01*
X52032101Y-66297027D01*
X52155056Y-66221532D01*
X52251881Y-66114562D01*
X52256135Y-66105783D01*
X52310878Y-65992790D01*
X52314790Y-65984716D01*
X52338728Y-65842433D01*
X52338880Y-65830000D01*
X52332261Y-65783783D01*
X53121158Y-65783783D01*
X53122322Y-65792685D01*
X53122322Y-65792688D01*
X53138701Y-65917943D01*
X53138702Y-65917947D01*
X53139866Y-65926848D01*
X53197975Y-66058912D01*
X53216724Y-66081216D01*
X53279053Y-66155365D01*
X53290815Y-66169358D01*
X53298286Y-66174331D01*
X53298287Y-66174332D01*
X53376249Y-66226228D01*
X53410922Y-66249308D01*
X53548640Y-66292334D01*
X53692898Y-66294978D01*
X53774892Y-66272624D01*
X53823442Y-66259388D01*
X53823444Y-66259387D01*
X53832101Y-66257027D01*
X53955056Y-66181532D01*
X54051881Y-66074562D01*
X54056135Y-66065783D01*
X54106376Y-65962082D01*
X54114790Y-65944716D01*
X54138728Y-65802433D01*
X54138804Y-65796176D01*
X54138821Y-65794859D01*
X54138821Y-65794854D01*
X54138880Y-65790000D01*
X54118426Y-65647174D01*
X54071802Y-65544631D01*
X54062422Y-65524000D01*
X54062421Y-65523998D01*
X54058707Y-65515830D01*
X54048416Y-65503886D01*
X53970386Y-65413329D01*
X53964525Y-65406527D01*
X53843451Y-65328050D01*
X53705217Y-65286710D01*
X53696241Y-65286655D01*
X53696240Y-65286655D01*
X53636076Y-65286287D01*
X53560937Y-65285828D01*
X53422209Y-65325477D01*
X53300185Y-65402468D01*
X53204674Y-65510613D01*
X53200860Y-65518736D01*
X53200859Y-65518738D01*
X53170481Y-65583443D01*
X53143356Y-65641218D01*
X53141975Y-65650087D01*
X53123639Y-65767850D01*
X53121158Y-65783783D01*
X52332261Y-65783783D01*
X52318426Y-65687174D01*
X52282647Y-65608482D01*
X52262422Y-65564000D01*
X52262421Y-65563998D01*
X52258707Y-65555830D01*
X52249058Y-65544631D01*
X52170386Y-65453329D01*
X52164525Y-65446527D01*
X52043451Y-65368050D01*
X51905217Y-65326710D01*
X51896241Y-65326655D01*
X51896240Y-65326655D01*
X51836076Y-65326287D01*
X51760937Y-65325828D01*
X51622209Y-65365477D01*
X51500185Y-65442468D01*
X51404674Y-65550613D01*
X51400860Y-65558736D01*
X51400859Y-65558738D01*
X51350901Y-65665148D01*
X51343356Y-65681218D01*
X51341975Y-65690087D01*
X51323386Y-65809477D01*
X51321158Y-65823783D01*
X45520435Y-65823783D01*
X45584834Y-65785184D01*
X45779377Y-65668580D01*
X45779386Y-65668574D01*
X45782027Y-65666991D01*
X45819766Y-65639002D01*
X46032366Y-65481327D01*
X46032370Y-65481324D01*
X46034856Y-65479480D01*
X46201312Y-65328614D01*
X46219054Y-65315186D01*
X46248990Y-65296445D01*
X46575435Y-64970000D01*
X56841091Y-64970000D01*
X56861839Y-65127597D01*
X56864998Y-65135224D01*
X56864999Y-65135227D01*
X56880645Y-65173000D01*
X56922669Y-65274454D01*
X56957984Y-65320478D01*
X56998233Y-65372931D01*
X57019436Y-65400564D01*
X57145545Y-65497331D01*
X57190206Y-65515830D01*
X57284773Y-65555001D01*
X57284776Y-65555002D01*
X57292403Y-65558161D01*
X57450000Y-65578909D01*
X57458188Y-65577831D01*
X57599409Y-65559239D01*
X57607597Y-65558161D01*
X57615224Y-65555002D01*
X57615227Y-65555001D01*
X57709794Y-65515830D01*
X57748011Y-65500000D01*
X61166735Y-65500000D01*
X61167425Y-65506565D01*
X61184093Y-65665148D01*
X61184944Y-65673246D01*
X61186983Y-65679520D01*
X61186983Y-65679522D01*
X61235921Y-65830134D01*
X61238775Y-65838919D01*
X61242075Y-65844634D01*
X61242075Y-65844635D01*
X61317380Y-65975068D01*
X61325874Y-65989781D01*
X61330289Y-65994685D01*
X61330291Y-65994687D01*
X61424136Y-66098912D01*
X61442437Y-66119237D01*
X61447776Y-66123116D01*
X61573324Y-66214332D01*
X61583367Y-66221629D01*
X61589396Y-66224313D01*
X61589399Y-66224315D01*
X61736471Y-66289795D01*
X61736474Y-66289796D01*
X61742507Y-66292482D01*
X61753474Y-66294813D01*
X61906443Y-66327328D01*
X61906447Y-66327328D01*
X61912900Y-66328700D01*
X62087100Y-66328700D01*
X62093553Y-66327328D01*
X62093557Y-66327328D01*
X62246526Y-66294813D01*
X62257493Y-66292482D01*
X62263526Y-66289796D01*
X62263529Y-66289795D01*
X62410601Y-66224315D01*
X62410604Y-66224313D01*
X62416633Y-66221629D01*
X62426677Y-66214332D01*
X62552224Y-66123116D01*
X62557563Y-66119237D01*
X62575864Y-66098912D01*
X62669709Y-65994687D01*
X62669711Y-65994685D01*
X62674126Y-65989781D01*
X62682621Y-65975068D01*
X62757925Y-65844635D01*
X62757925Y-65844634D01*
X62761225Y-65838919D01*
X62764080Y-65830134D01*
X62813017Y-65679522D01*
X62813017Y-65679520D01*
X62815056Y-65673246D01*
X62815908Y-65665148D01*
X62832575Y-65506565D01*
X62833265Y-65500000D01*
X62827925Y-65449197D01*
X62815746Y-65333315D01*
X62815745Y-65333311D01*
X62815056Y-65326754D01*
X62805208Y-65296445D01*
X62763265Y-65167358D01*
X62763263Y-65167354D01*
X62761225Y-65161081D01*
X62757925Y-65155365D01*
X62677427Y-65015936D01*
X62677425Y-65015934D01*
X62674126Y-65010219D01*
X62665335Y-65000455D01*
X62561978Y-64885666D01*
X62561976Y-64885665D01*
X62557563Y-64880763D01*
X62416633Y-64778371D01*
X62410604Y-64775687D01*
X62410601Y-64775685D01*
X62263529Y-64710205D01*
X62263526Y-64710204D01*
X62257493Y-64707518D01*
X62215076Y-64698502D01*
X62093557Y-64672672D01*
X62093553Y-64672672D01*
X62087100Y-64671300D01*
X61912900Y-64671300D01*
X61906447Y-64672672D01*
X61906443Y-64672672D01*
X61827704Y-64689409D01*
X61742507Y-64707518D01*
X61736477Y-64710203D01*
X61736476Y-64710203D01*
X61589398Y-64775686D01*
X61589396Y-64775687D01*
X61583368Y-64778371D01*
X61578027Y-64782251D01*
X61578026Y-64782252D01*
X61496647Y-64841377D01*
X61442437Y-64880763D01*
X61438024Y-64885665D01*
X61438022Y-64885666D01*
X61334666Y-65000455D01*
X61325874Y-65010219D01*
X61322575Y-65015934D01*
X61322573Y-65015936D01*
X61242075Y-65155365D01*
X61238775Y-65161081D01*
X61236737Y-65167354D01*
X61236735Y-65167358D01*
X61194792Y-65296445D01*
X61184944Y-65326754D01*
X61184255Y-65333311D01*
X61184254Y-65333315D01*
X61172075Y-65449197D01*
X61166735Y-65500000D01*
X57748011Y-65500000D01*
X57754455Y-65497331D01*
X57880564Y-65400564D01*
X57901768Y-65372931D01*
X57942016Y-65320478D01*
X57977331Y-65274454D01*
X58019355Y-65173000D01*
X58035001Y-65135227D01*
X58035002Y-65135224D01*
X58038161Y-65127597D01*
X58058909Y-64970000D01*
X58042404Y-64844635D01*
X58039239Y-64820591D01*
X58038161Y-64812403D01*
X58025673Y-64782252D01*
X57980491Y-64673174D01*
X57980490Y-64673172D01*
X57977331Y-64665546D01*
X57972305Y-64658996D01*
X57970581Y-64656010D01*
X57953700Y-64593010D01*
X57953700Y-62470201D01*
X58862034Y-62470201D01*
X58875659Y-62678078D01*
X58926938Y-62879991D01*
X59014155Y-63069178D01*
X59134387Y-63239303D01*
X59283609Y-63384669D01*
X59288405Y-63387874D01*
X59288408Y-63387876D01*
X59383425Y-63451364D01*
X59456823Y-63500407D01*
X59575275Y-63551298D01*
X59629967Y-63596565D01*
X59651504Y-63664216D01*
X59633047Y-63732772D01*
X59588753Y-63775974D01*
X59583368Y-63778371D01*
X59442437Y-63880763D01*
X59438024Y-63885665D01*
X59438022Y-63885666D01*
X59346970Y-63986790D01*
X59325874Y-64010219D01*
X59238775Y-64161081D01*
X59236737Y-64167354D01*
X59236735Y-64167358D01*
X59197107Y-64289319D01*
X59184944Y-64326754D01*
X59166735Y-64500000D01*
X59167425Y-64506565D01*
X59184135Y-64665546D01*
X59184944Y-64673246D01*
X59186983Y-64679520D01*
X59186983Y-64679522D01*
X59234297Y-64825137D01*
X59238775Y-64838919D01*
X59242075Y-64844634D01*
X59242075Y-64844635D01*
X59314454Y-64970000D01*
X59325874Y-64989781D01*
X59330289Y-64994685D01*
X59330291Y-64994687D01*
X59430291Y-65105748D01*
X59442437Y-65119237D01*
X59447776Y-65123116D01*
X59573862Y-65214723D01*
X59583367Y-65221629D01*
X59589396Y-65224313D01*
X59589399Y-65224315D01*
X59736471Y-65289795D01*
X59736474Y-65289796D01*
X59742507Y-65292482D01*
X59761152Y-65296445D01*
X59906443Y-65327328D01*
X59906447Y-65327328D01*
X59912900Y-65328700D01*
X60087100Y-65328700D01*
X60093553Y-65327328D01*
X60093557Y-65327328D01*
X60238848Y-65296445D01*
X60257493Y-65292482D01*
X60263526Y-65289796D01*
X60263529Y-65289795D01*
X60410601Y-65224315D01*
X60410604Y-65224313D01*
X60416633Y-65221629D01*
X60426139Y-65214723D01*
X60552224Y-65123116D01*
X60557563Y-65119237D01*
X60569709Y-65105748D01*
X60669709Y-64994687D01*
X60669711Y-64994685D01*
X60674126Y-64989781D01*
X60685547Y-64970000D01*
X60757925Y-64844635D01*
X60757925Y-64844634D01*
X60761225Y-64838919D01*
X60765704Y-64825137D01*
X60813017Y-64679522D01*
X60813017Y-64679520D01*
X60815056Y-64673246D01*
X60815866Y-64665546D01*
X60832575Y-64506565D01*
X60833265Y-64500000D01*
X60815056Y-64326754D01*
X60802893Y-64289319D01*
X60763410Y-64167804D01*
X61517299Y-64167804D01*
X61526126Y-64179422D01*
X61578277Y-64217312D01*
X61589649Y-64223878D01*
X61736631Y-64289319D01*
X61749119Y-64293376D01*
X61906496Y-64326828D01*
X61919556Y-64328200D01*
X62080444Y-64328200D01*
X62093504Y-64326828D01*
X62250881Y-64293376D01*
X62263369Y-64289319D01*
X62410351Y-64223878D01*
X62421723Y-64217312D01*
X62474245Y-64179153D01*
X62482668Y-64168230D01*
X62475764Y-64155369D01*
X62012812Y-63692417D01*
X61998868Y-63684803D01*
X61997035Y-63684934D01*
X61990420Y-63689185D01*
X61523912Y-64155693D01*
X61517299Y-64167804D01*
X60763410Y-64167804D01*
X60763265Y-64167358D01*
X60763263Y-64167354D01*
X60761225Y-64161081D01*
X60674126Y-64010219D01*
X60653031Y-63986790D01*
X60561978Y-63885666D01*
X60561976Y-63885665D01*
X60557563Y-63880763D01*
X60429962Y-63788055D01*
X60421975Y-63782252D01*
X60421974Y-63782251D01*
X60416633Y-63778371D01*
X60413021Y-63776763D01*
X60364706Y-63726092D01*
X60351270Y-63656378D01*
X60377656Y-63590467D01*
X60436197Y-63549042D01*
X60437022Y-63548762D01*
X60463011Y-63539940D01*
X60522606Y-63506565D01*
X61167928Y-63506565D01*
X61184746Y-63666577D01*
X61187476Y-63679420D01*
X61237192Y-63832430D01*
X61242538Y-63844438D01*
X61321880Y-63981862D01*
X61329877Y-63986790D01*
X61329948Y-63986789D01*
X61339239Y-63981156D01*
X61807583Y-63512812D01*
X61813961Y-63501132D01*
X62184803Y-63501132D01*
X62184934Y-63502965D01*
X62189185Y-63509580D01*
X62658714Y-63979109D01*
X62672658Y-63986723D01*
X62672730Y-63986718D01*
X62676975Y-63983831D01*
X62677018Y-63983771D01*
X62757462Y-63844438D01*
X62762808Y-63832430D01*
X62812524Y-63679420D01*
X62815254Y-63666577D01*
X62832072Y-63506565D01*
X62832072Y-63493435D01*
X62815254Y-63333423D01*
X62812524Y-63320580D01*
X62762808Y-63167570D01*
X62757462Y-63155562D01*
X62678120Y-63018138D01*
X62670123Y-63013210D01*
X62670052Y-63013211D01*
X62660761Y-63018844D01*
X62192417Y-63487188D01*
X62184803Y-63501132D01*
X61813961Y-63501132D01*
X61815197Y-63498868D01*
X61815066Y-63497035D01*
X61810815Y-63490420D01*
X61341286Y-63020891D01*
X61327342Y-63013277D01*
X61327270Y-63013282D01*
X61323025Y-63016169D01*
X61322982Y-63016229D01*
X61242538Y-63155562D01*
X61237192Y-63167570D01*
X61187476Y-63320580D01*
X61184746Y-63333423D01*
X61167928Y-63493435D01*
X61167928Y-63506565D01*
X60522606Y-63506565D01*
X60644772Y-63438149D01*
X60804939Y-63304939D01*
X60938149Y-63144772D01*
X61039940Y-62963011D01*
X61066341Y-62885237D01*
X61105047Y-62771213D01*
X61105048Y-62771208D01*
X61106903Y-62765744D01*
X61107731Y-62760035D01*
X61107732Y-62760030D01*
X61136263Y-62563251D01*
X61136796Y-62559577D01*
X61137841Y-62519672D01*
X61159620Y-62452099D01*
X61214474Y-62407026D01*
X61284988Y-62398766D01*
X61333800Y-62418206D01*
X61420246Y-62475967D01*
X61456823Y-62500407D01*
X61575851Y-62551545D01*
X61630544Y-62596813D01*
X61652081Y-62664464D01*
X61633624Y-62733020D01*
X61589113Y-62776432D01*
X61578277Y-62782688D01*
X61525755Y-62820847D01*
X61517332Y-62831770D01*
X61524236Y-62844631D01*
X61987188Y-63307583D01*
X62001132Y-63315197D01*
X62002965Y-63315066D01*
X62009580Y-63310815D01*
X62476088Y-62844307D01*
X62482701Y-62832196D01*
X62473874Y-62820578D01*
X62421723Y-62782688D01*
X62413063Y-62777688D01*
X62364070Y-62726304D01*
X62350636Y-62656590D01*
X62377024Y-62590680D01*
X62435564Y-62549257D01*
X62457543Y-62541796D01*
X62463011Y-62539940D01*
X62644772Y-62438149D01*
X62804939Y-62304939D01*
X62938149Y-62144772D01*
X63039940Y-61963011D01*
X63085091Y-61830000D01*
X63105047Y-61771213D01*
X63105048Y-61771208D01*
X63106903Y-61765744D01*
X63107731Y-61760035D01*
X63107732Y-61760030D01*
X63127775Y-61621796D01*
X63136796Y-61559577D01*
X63138356Y-61500000D01*
X63119294Y-61292551D01*
X63098075Y-61217312D01*
X63064316Y-61097614D01*
X63062747Y-61092050D01*
X62970608Y-60905211D01*
X62958793Y-60889388D01*
X62849416Y-60742915D01*
X62849415Y-60742914D01*
X62845963Y-60738291D01*
X62692987Y-60596881D01*
X62692368Y-60596491D01*
X62651466Y-60540476D01*
X62647244Y-60469605D01*
X62682007Y-60407702D01*
X62689461Y-60400981D01*
X62804939Y-60304939D01*
X62938149Y-60144772D01*
X63039940Y-59963011D01*
X63066341Y-59885237D01*
X63105047Y-59771213D01*
X63105048Y-59771208D01*
X63106903Y-59765744D01*
X63107731Y-59760035D01*
X63107732Y-59760030D01*
X63136263Y-59563251D01*
X63136796Y-59559577D01*
X63138356Y-59500000D01*
X63119294Y-59292551D01*
X63108052Y-59252688D01*
X63105541Y-59243783D01*
X67181158Y-59243783D01*
X67182322Y-59252685D01*
X67182322Y-59252688D01*
X67198701Y-59377943D01*
X67198702Y-59377947D01*
X67199866Y-59386848D01*
X67257975Y-59518912D01*
X67350815Y-59629358D01*
X67358286Y-59634331D01*
X67358287Y-59634332D01*
X67463448Y-59704333D01*
X67470922Y-59709308D01*
X67608640Y-59752334D01*
X67752898Y-59754978D01*
X67833443Y-59733019D01*
X67883442Y-59719388D01*
X67883444Y-59719387D01*
X67892101Y-59717027D01*
X68015056Y-59641532D01*
X68111881Y-59534562D01*
X68116135Y-59525783D01*
X68160381Y-59434456D01*
X68174790Y-59404716D01*
X68198728Y-59262433D01*
X68198804Y-59256176D01*
X68198821Y-59254859D01*
X68198821Y-59254854D01*
X68198880Y-59250000D01*
X68178426Y-59107174D01*
X68118707Y-58975830D01*
X68108416Y-58963886D01*
X68030386Y-58873329D01*
X68024525Y-58866527D01*
X67903451Y-58788050D01*
X67765217Y-58746710D01*
X67756241Y-58746655D01*
X67756240Y-58746655D01*
X67696076Y-58746287D01*
X67620937Y-58745828D01*
X67482209Y-58785477D01*
X67360185Y-58862468D01*
X67354242Y-58869197D01*
X67344722Y-58879976D01*
X67264674Y-58970613D01*
X67260860Y-58978736D01*
X67260859Y-58978738D01*
X67239273Y-59024716D01*
X67203356Y-59101218D01*
X67181158Y-59243783D01*
X63105541Y-59243783D01*
X63073646Y-59130694D01*
X63062747Y-59092050D01*
X62970608Y-58905211D01*
X62957180Y-58887228D01*
X62849416Y-58742915D01*
X62849415Y-58742914D01*
X62845963Y-58738291D01*
X62692987Y-58596881D01*
X62528867Y-58493329D01*
X62521683Y-58488796D01*
X62516803Y-58485717D01*
X62508660Y-58482468D01*
X62426941Y-58449866D01*
X62371081Y-58406046D01*
X62347780Y-58338982D01*
X62364435Y-58269967D01*
X62410627Y-58223718D01*
X62421726Y-58217309D01*
X62474245Y-58179153D01*
X62482668Y-58168230D01*
X62475764Y-58155369D01*
X62012812Y-57692417D01*
X61998868Y-57684803D01*
X61997035Y-57684934D01*
X61990420Y-57689185D01*
X61523912Y-58155693D01*
X61517299Y-58167804D01*
X61526126Y-58179422D01*
X61578277Y-58217312D01*
X61588666Y-58223310D01*
X61637659Y-58274693D01*
X61651095Y-58344406D01*
X61624709Y-58410317D01*
X61569277Y-58450641D01*
X61509925Y-58472537D01*
X61330891Y-58579051D01*
X61330189Y-58577871D01*
X61269662Y-58599467D01*
X61200511Y-58583388D01*
X61151029Y-58532475D01*
X61136996Y-58485202D01*
X61136148Y-58475965D01*
X61119294Y-58292549D01*
X61062747Y-58092048D01*
X60970608Y-57905209D01*
X60845963Y-57738289D01*
X60740153Y-57640479D01*
X60697229Y-57600800D01*
X60697227Y-57600799D01*
X60692987Y-57596879D01*
X60692370Y-57596490D01*
X60651468Y-57540477D01*
X60649447Y-57506565D01*
X61167928Y-57506565D01*
X61184746Y-57666577D01*
X61187476Y-57679420D01*
X61237192Y-57832430D01*
X61242538Y-57844438D01*
X61321880Y-57981862D01*
X61329877Y-57986790D01*
X61329948Y-57986789D01*
X61339239Y-57981156D01*
X61807583Y-57512812D01*
X61813961Y-57501132D01*
X62184803Y-57501132D01*
X62184934Y-57502965D01*
X62189185Y-57509580D01*
X62658714Y-57979109D01*
X62672658Y-57986723D01*
X62672730Y-57986718D01*
X62676975Y-57983831D01*
X62677018Y-57983771D01*
X62757462Y-57844438D01*
X62762808Y-57832430D01*
X62812524Y-57679420D01*
X62815254Y-57666577D01*
X62832072Y-57506565D01*
X62832072Y-57493435D01*
X62815254Y-57333423D01*
X62812524Y-57320580D01*
X62762808Y-57167570D01*
X62757462Y-57155562D01*
X62678120Y-57018138D01*
X62670123Y-57013210D01*
X62670052Y-57013211D01*
X62660761Y-57018844D01*
X62192417Y-57487188D01*
X62184803Y-57501132D01*
X61813961Y-57501132D01*
X61815197Y-57498868D01*
X61815066Y-57497035D01*
X61810815Y-57490420D01*
X61341286Y-57020891D01*
X61327342Y-57013277D01*
X61327270Y-57013282D01*
X61323025Y-57016169D01*
X61322982Y-57016229D01*
X61242538Y-57155562D01*
X61237192Y-57167570D01*
X61187476Y-57320580D01*
X61184746Y-57333423D01*
X61167928Y-57493435D01*
X61167928Y-57506565D01*
X60649447Y-57506565D01*
X60647244Y-57469606D01*
X60682006Y-57407702D01*
X60689460Y-57400983D01*
X60804939Y-57304939D01*
X60938149Y-57144772D01*
X61039940Y-56963011D01*
X61066341Y-56885237D01*
X61105047Y-56771213D01*
X61105048Y-56771208D01*
X61106903Y-56765744D01*
X61107731Y-56760035D01*
X61107732Y-56760030D01*
X61125800Y-56635411D01*
X61136796Y-56559577D01*
X61137399Y-56536531D01*
X61137841Y-56519672D01*
X61159620Y-56452099D01*
X61214474Y-56407026D01*
X61284988Y-56398766D01*
X61333800Y-56418206D01*
X61420246Y-56475967D01*
X61456823Y-56500407D01*
X61573472Y-56550523D01*
X61575851Y-56551545D01*
X61630544Y-56596813D01*
X61652081Y-56664464D01*
X61633624Y-56733020D01*
X61589113Y-56776432D01*
X61578277Y-56782688D01*
X61525755Y-56820847D01*
X61517332Y-56831770D01*
X61524236Y-56844631D01*
X61987188Y-57307583D01*
X62001132Y-57315197D01*
X62002965Y-57315066D01*
X62009580Y-57310815D01*
X62476088Y-56844307D01*
X62482701Y-56832196D01*
X62473874Y-56820578D01*
X62421723Y-56782688D01*
X62413063Y-56777688D01*
X62364070Y-56726304D01*
X62350636Y-56656590D01*
X62377024Y-56590680D01*
X62435564Y-56549257D01*
X62457543Y-56541796D01*
X62463011Y-56539940D01*
X62644772Y-56438149D01*
X62804939Y-56304939D01*
X62938149Y-56144772D01*
X63039940Y-55963011D01*
X63055659Y-55916703D01*
X63105047Y-55771213D01*
X63105048Y-55771208D01*
X63106903Y-55765744D01*
X63107731Y-55760035D01*
X63107732Y-55760030D01*
X63125800Y-55635411D01*
X63136796Y-55559577D01*
X63138356Y-55500000D01*
X63119294Y-55292551D01*
X63116340Y-55282075D01*
X63073551Y-55130357D01*
X63062747Y-55092050D01*
X62970608Y-54905211D01*
X62937107Y-54860347D01*
X62849416Y-54742915D01*
X62849415Y-54742914D01*
X62845963Y-54738291D01*
X62692987Y-54596881D01*
X62516803Y-54485717D01*
X62323311Y-54408522D01*
X62118991Y-54367880D01*
X62113216Y-54367804D01*
X62113212Y-54367804D01*
X62008307Y-54366431D01*
X61910686Y-54365153D01*
X61904989Y-54366132D01*
X61904988Y-54366132D01*
X61711069Y-54399454D01*
X61705372Y-54400433D01*
X61509925Y-54472537D01*
X61504964Y-54475489D01*
X61504963Y-54475489D01*
X61474799Y-54493435D01*
X61330891Y-54579051D01*
X61174266Y-54716407D01*
X61170699Y-54720932D01*
X61170694Y-54720937D01*
X61057650Y-54864333D01*
X61045294Y-54880007D01*
X61042603Y-54885123D01*
X61042601Y-54885125D01*
X60989148Y-54986723D01*
X60948296Y-55064370D01*
X60886520Y-55263322D01*
X60862034Y-55470201D01*
X60862412Y-55475969D01*
X60862344Y-55478572D01*
X60840568Y-55546147D01*
X60785716Y-55591222D01*
X60715202Y-55599485D01*
X60669152Y-55581841D01*
X60521688Y-55488799D01*
X60521686Y-55488798D01*
X60516803Y-55485717D01*
X60426941Y-55449866D01*
X60371081Y-55406046D01*
X60347780Y-55338982D01*
X60364435Y-55269967D01*
X60410627Y-55223718D01*
X60421726Y-55217309D01*
X60474245Y-55179153D01*
X60482668Y-55168230D01*
X60475764Y-55155369D01*
X60012812Y-54692417D01*
X59998868Y-54684803D01*
X59997035Y-54684934D01*
X59990420Y-54689185D01*
X59523912Y-55155693D01*
X59517299Y-55167804D01*
X59526126Y-55179422D01*
X59578277Y-55217312D01*
X59588666Y-55223310D01*
X59637659Y-55274693D01*
X59651095Y-55344406D01*
X59624709Y-55410317D01*
X59569277Y-55450641D01*
X59509925Y-55472537D01*
X59504964Y-55475489D01*
X59504963Y-55475489D01*
X59386198Y-55546147D01*
X59330891Y-55579051D01*
X59174266Y-55716407D01*
X59170699Y-55720932D01*
X59170694Y-55720937D01*
X59049134Y-55875136D01*
X59045294Y-55880007D01*
X59042603Y-55885123D01*
X59042601Y-55885125D01*
X58984555Y-55995453D01*
X58948296Y-56064370D01*
X58886520Y-56263322D01*
X58862034Y-56470201D01*
X58875659Y-56678078D01*
X58926938Y-56879991D01*
X59014155Y-57069178D01*
X59134387Y-57239303D01*
X59283609Y-57384669D01*
X59288408Y-57387876D01*
X59288411Y-57387878D01*
X59299713Y-57395430D01*
X59345240Y-57449907D01*
X59354087Y-57520351D01*
X59323445Y-57584394D01*
X59312789Y-57594924D01*
X59174266Y-57716405D01*
X59170699Y-57720930D01*
X59170694Y-57720935D01*
X59048872Y-57875466D01*
X59045294Y-57880005D01*
X59042603Y-57885121D01*
X59042601Y-57885123D01*
X58989147Y-57986723D01*
X58948296Y-58064368D01*
X58886520Y-58263320D01*
X58862034Y-58470199D01*
X58875659Y-58678076D01*
X58926938Y-58879989D01*
X59014155Y-59069176D01*
X59134387Y-59239301D01*
X59138521Y-59243328D01*
X59276707Y-59377943D01*
X59283609Y-59384667D01*
X59288405Y-59387872D01*
X59288408Y-59387874D01*
X59428961Y-59481788D01*
X59456823Y-59500405D01*
X59575853Y-59551544D01*
X59630546Y-59596812D01*
X59652083Y-59664463D01*
X59633626Y-59733019D01*
X59589114Y-59776432D01*
X59578274Y-59782690D01*
X59525755Y-59820847D01*
X59517332Y-59831770D01*
X59524236Y-59844631D01*
X59987188Y-60307583D01*
X60001132Y-60315197D01*
X60002965Y-60315066D01*
X60009580Y-60310815D01*
X60476088Y-59844307D01*
X60482701Y-59832196D01*
X60473874Y-59820578D01*
X60421723Y-59782688D01*
X60413061Y-59777687D01*
X60364069Y-59726304D01*
X60350634Y-59656590D01*
X60377021Y-59590680D01*
X60435559Y-59549257D01*
X60463011Y-59539938D01*
X60644772Y-59438147D01*
X60658686Y-59426575D01*
X60723851Y-59398395D01*
X60793906Y-59409919D01*
X60846609Y-59457489D01*
X60864984Y-59515209D01*
X60875659Y-59678078D01*
X60926938Y-59879991D01*
X61014155Y-60069178D01*
X61134387Y-60239303D01*
X61283609Y-60384669D01*
X61288409Y-60387877D01*
X61288410Y-60387877D01*
X61299716Y-60395432D01*
X61345242Y-60449910D01*
X61354088Y-60520353D01*
X61323445Y-60584397D01*
X61312789Y-60594926D01*
X61174266Y-60716407D01*
X61170699Y-60720932D01*
X61170694Y-60720937D01*
X61048872Y-60875468D01*
X61045294Y-60880007D01*
X61042603Y-60885123D01*
X61042601Y-60885125D01*
X60955540Y-61050602D01*
X60948296Y-61064370D01*
X60886520Y-61263322D01*
X60862034Y-61470201D01*
X60862412Y-61475969D01*
X60862344Y-61478572D01*
X60840568Y-61546147D01*
X60785716Y-61591222D01*
X60715202Y-61599485D01*
X60669152Y-61581841D01*
X60521688Y-61488799D01*
X60521686Y-61488798D01*
X60516803Y-61485717D01*
X60426941Y-61449866D01*
X60371081Y-61406046D01*
X60347780Y-61338982D01*
X60364435Y-61269967D01*
X60410627Y-61223718D01*
X60421726Y-61217309D01*
X60474245Y-61179153D01*
X60482668Y-61168230D01*
X60475764Y-61155369D01*
X60012812Y-60692417D01*
X59998868Y-60684803D01*
X59997035Y-60684934D01*
X59990420Y-60689185D01*
X59523912Y-61155693D01*
X59517299Y-61167804D01*
X59526126Y-61179422D01*
X59578277Y-61217312D01*
X59588666Y-61223310D01*
X59637659Y-61274693D01*
X59651095Y-61344406D01*
X59624709Y-61410317D01*
X59569277Y-61450641D01*
X59509925Y-61472537D01*
X59504964Y-61475489D01*
X59504963Y-61475489D01*
X59386198Y-61546147D01*
X59330891Y-61579051D01*
X59174266Y-61716407D01*
X59170699Y-61720932D01*
X59170694Y-61720937D01*
X59078747Y-61837572D01*
X59045294Y-61880007D01*
X59042603Y-61885123D01*
X59042601Y-61885125D01*
X58950988Y-62059253D01*
X58948296Y-62064370D01*
X58886520Y-62263322D01*
X58862034Y-62470201D01*
X57953700Y-62470201D01*
X57953700Y-60506565D01*
X59167928Y-60506565D01*
X59184746Y-60666577D01*
X59187476Y-60679420D01*
X59237192Y-60832430D01*
X59242538Y-60844438D01*
X59321880Y-60981862D01*
X59329877Y-60986790D01*
X59329948Y-60986789D01*
X59339239Y-60981156D01*
X59807583Y-60512812D01*
X59813961Y-60501132D01*
X60184803Y-60501132D01*
X60184934Y-60502965D01*
X60189185Y-60509580D01*
X60658714Y-60979109D01*
X60672658Y-60986723D01*
X60672730Y-60986718D01*
X60676975Y-60983831D01*
X60677018Y-60983771D01*
X60757462Y-60844438D01*
X60762808Y-60832430D01*
X60812524Y-60679420D01*
X60815254Y-60666577D01*
X60832072Y-60506565D01*
X60832072Y-60493435D01*
X60815254Y-60333423D01*
X60812524Y-60320580D01*
X60762808Y-60167570D01*
X60757462Y-60155562D01*
X60678120Y-60018138D01*
X60670123Y-60013210D01*
X60670052Y-60013211D01*
X60660761Y-60018844D01*
X60192417Y-60487188D01*
X60184803Y-60501132D01*
X59813961Y-60501132D01*
X59815197Y-60498868D01*
X59815066Y-60497035D01*
X59810815Y-60490420D01*
X59341286Y-60020891D01*
X59327342Y-60013277D01*
X59327270Y-60013282D01*
X59323025Y-60016169D01*
X59322982Y-60016229D01*
X59242538Y-60155562D01*
X59237192Y-60167570D01*
X59187476Y-60320580D01*
X59184746Y-60333423D01*
X59167928Y-60493435D01*
X59167928Y-60506565D01*
X57953700Y-60506565D01*
X57953700Y-55787280D01*
X57973702Y-55719159D01*
X57990605Y-55698185D01*
X58998408Y-54690382D01*
X59060720Y-54656356D01*
X59131535Y-54661421D01*
X59188371Y-54703968D01*
X59207336Y-54740542D01*
X59237191Y-54832428D01*
X59242538Y-54844438D01*
X59321880Y-54981862D01*
X59329877Y-54986790D01*
X59329948Y-54986789D01*
X59339239Y-54981156D01*
X59819263Y-54501132D01*
X60184803Y-54501132D01*
X60184934Y-54502965D01*
X60189185Y-54509580D01*
X60658714Y-54979109D01*
X60672658Y-54986723D01*
X60672730Y-54986718D01*
X60676975Y-54983831D01*
X60677018Y-54983771D01*
X60757462Y-54844438D01*
X60762808Y-54832430D01*
X60812524Y-54679420D01*
X60815254Y-54666577D01*
X60832072Y-54506565D01*
X60832072Y-54493435D01*
X60815254Y-54333423D01*
X60812524Y-54320580D01*
X60762808Y-54167570D01*
X60757462Y-54155562D01*
X60678120Y-54018138D01*
X60670123Y-54013210D01*
X60670052Y-54013211D01*
X60660761Y-54018844D01*
X60192417Y-54487188D01*
X60184803Y-54501132D01*
X59819263Y-54501132D01*
X60476088Y-53844307D01*
X60482701Y-53832196D01*
X60473874Y-53820578D01*
X60421723Y-53782688D01*
X60410351Y-53776122D01*
X60263369Y-53710681D01*
X60244598Y-53704582D01*
X60245455Y-53701944D01*
X60193750Y-53673999D01*
X60159456Y-53611834D01*
X60164215Y-53540997D01*
X60193365Y-53495425D01*
X61000496Y-52688294D01*
X61062808Y-52654268D01*
X61089591Y-52651389D01*
X69999275Y-52651389D01*
X70067396Y-52671391D01*
X70113889Y-52725047D01*
X70123993Y-52795321D01*
X70094499Y-52859901D01*
X70088370Y-52866484D01*
X69639332Y-53315522D01*
X69624407Y-53332137D01*
X69623356Y-53333441D01*
X69623351Y-53333447D01*
X69617960Y-53340137D01*
X69607504Y-53353111D01*
X69587406Y-53391532D01*
X69581528Y-53402769D01*
X69569756Y-53425272D01*
X69549754Y-53493393D01*
X69549113Y-53497852D01*
X69549112Y-53497856D01*
X69545527Y-53522792D01*
X69541300Y-53552190D01*
X69541300Y-54752907D01*
X69541779Y-54767042D01*
X69542935Y-54784071D01*
X69560693Y-54855257D01*
X69562973Y-54860346D01*
X69562973Y-54860347D01*
X69588126Y-54916496D01*
X69597722Y-54986841D01*
X69579020Y-55035692D01*
X69574674Y-55040613D01*
X69513356Y-55171218D01*
X69511975Y-55180087D01*
X69493568Y-55298308D01*
X69491158Y-55313783D01*
X69492322Y-55322685D01*
X69492322Y-55322688D01*
X69508701Y-55447943D01*
X69508702Y-55447947D01*
X69509866Y-55456848D01*
X69567975Y-55588912D01*
X69573750Y-55595782D01*
X69573753Y-55595787D01*
X69628049Y-55660379D01*
X69656571Y-55725395D01*
X69648789Y-55786569D01*
X69648900Y-55786605D01*
X69648707Y-55787207D01*
X69648707Y-55787210D01*
X69630808Y-55843186D01*
X69628426Y-55857343D01*
X69617566Y-55891373D01*
X69582756Y-55963222D01*
X69581867Y-55965056D01*
X69571151Y-55995453D01*
X69567013Y-55993994D01*
X69566974Y-55994176D01*
X69570370Y-55995214D01*
X69550418Y-56060480D01*
X69541300Y-56121493D01*
X69541300Y-63407173D01*
X69546032Y-63451364D01*
X69557331Y-63503515D01*
X69571314Y-63545704D01*
X69579732Y-63564218D01*
X69589757Y-63598501D01*
X69594784Y-63633604D01*
X69594311Y-63672365D01*
X69590938Y-63692417D01*
X69588427Y-63707343D01*
X69577563Y-63741380D01*
X69574791Y-63747101D01*
X69559196Y-63791416D01*
X69546588Y-63846354D01*
X69546187Y-63849898D01*
X69542135Y-63885666D01*
X69541300Y-63893036D01*
X69541300Y-64507173D01*
X69546032Y-64551364D01*
X69557331Y-64603515D01*
X69571314Y-64645704D01*
X69576000Y-64656010D01*
X69579731Y-64664216D01*
X69589756Y-64698502D01*
X69594783Y-64733602D01*
X69594310Y-64772366D01*
X69588427Y-64807340D01*
X69577565Y-64841375D01*
X69562750Y-64871955D01*
X69542776Y-64901568D01*
X69519967Y-64926767D01*
X69492483Y-64949584D01*
X69463523Y-64967365D01*
X69430739Y-64981552D01*
X69397956Y-64990490D01*
X69362507Y-64994906D01*
X69359045Y-64994843D01*
X69354909Y-64994767D01*
X69353080Y-64994840D01*
X69353065Y-64994840D01*
X69333019Y-64995639D01*
X69330682Y-64995732D01*
X69301591Y-64998590D01*
X69295537Y-65000455D01*
X69295538Y-65000455D01*
X69228029Y-65021254D01*
X69228025Y-65021256D01*
X69221974Y-65023120D01*
X69159662Y-65057146D01*
X69112111Y-65092743D01*
X64950459Y-69254395D01*
X64888147Y-69288421D01*
X64861364Y-69291300D01*
X60685638Y-69291300D01*
X60617517Y-69271298D01*
X60571024Y-69217642D01*
X60560920Y-69147368D01*
X60592002Y-69080990D01*
X60669705Y-68994692D01*
X60669709Y-68994687D01*
X60674126Y-68989781D01*
X60689115Y-68963820D01*
X60757925Y-68844635D01*
X60757925Y-68844634D01*
X60761225Y-68838919D01*
X60785461Y-68764331D01*
X60813017Y-68679522D01*
X60813017Y-68679520D01*
X60815056Y-68673246D01*
X60815959Y-68664663D01*
X60832575Y-68506565D01*
X60833265Y-68500000D01*
X60815056Y-68326754D01*
X60813017Y-68320478D01*
X60763265Y-68167358D01*
X60763263Y-68167354D01*
X60761225Y-68161081D01*
X60696965Y-68049777D01*
X60677427Y-68015936D01*
X60677425Y-68015934D01*
X60674126Y-68010219D01*
X60655724Y-67989781D01*
X60561978Y-67885666D01*
X60561976Y-67885665D01*
X60557563Y-67880763D01*
X60416633Y-67778371D01*
X60410604Y-67775687D01*
X60410601Y-67775685D01*
X60263529Y-67710205D01*
X60263526Y-67710204D01*
X60257493Y-67707518D01*
X60221338Y-67699833D01*
X60093557Y-67672672D01*
X60093553Y-67672672D01*
X60087100Y-67671300D01*
X59912900Y-67671300D01*
X59906447Y-67672672D01*
X59906443Y-67672672D01*
X59827704Y-67689409D01*
X59742507Y-67707518D01*
X59736477Y-67710203D01*
X59736476Y-67710203D01*
X59589398Y-67775686D01*
X59589396Y-67775687D01*
X59583368Y-67778371D01*
X59578027Y-67782251D01*
X59578026Y-67782252D01*
X59492163Y-67844635D01*
X59442437Y-67880763D01*
X59438024Y-67885665D01*
X59438022Y-67885666D01*
X59344277Y-67989781D01*
X59325874Y-68010219D01*
X59322575Y-68015934D01*
X59322573Y-68015936D01*
X59303035Y-68049777D01*
X59238775Y-68161081D01*
X59236737Y-68167354D01*
X59236735Y-68167358D01*
X59186983Y-68320478D01*
X59184944Y-68326754D01*
X59166735Y-68500000D01*
X59167425Y-68506565D01*
X59184042Y-68664663D01*
X59184944Y-68673246D01*
X59186983Y-68679520D01*
X59186983Y-68679522D01*
X59214540Y-68764331D01*
X59238775Y-68838919D01*
X59242075Y-68844634D01*
X59242075Y-68844635D01*
X59310886Y-68963820D01*
X59325874Y-68989781D01*
X59330291Y-68994687D01*
X59330295Y-68994692D01*
X59407998Y-69080990D01*
X59438716Y-69144997D01*
X59429951Y-69215451D01*
X59384488Y-69269982D01*
X59314362Y-69291300D01*
X59302190Y-69291300D01*
X59300535Y-69291389D01*
X59300523Y-69291389D01*
X59281967Y-69292383D01*
X59279885Y-69292495D01*
X59278208Y-69292675D01*
X59278199Y-69292676D01*
X59259260Y-69294712D01*
X59259259Y-69294712D01*
X59253102Y-69295374D01*
X59208996Y-69309185D01*
X59181289Y-69317860D01*
X59181286Y-69317861D01*
X59175385Y-69319709D01*
X59169961Y-69322671D01*
X59169956Y-69322673D01*
X59119175Y-69350403D01*
X59113073Y-69353735D01*
X59065522Y-69389332D01*
X58140299Y-70314555D01*
X58118439Y-70332022D01*
X58070185Y-70362468D01*
X57974674Y-70470613D01*
X57913356Y-70601218D01*
X57911975Y-70610087D01*
X57910084Y-70622235D01*
X57891158Y-70743783D01*
X57892322Y-70752685D01*
X57892322Y-70752688D01*
X57908701Y-70877943D01*
X57908702Y-70877947D01*
X57909866Y-70886848D01*
X57967975Y-71018912D01*
X58060815Y-71129358D01*
X58180922Y-71209308D01*
X58318640Y-71252334D01*
X58408942Y-71253989D01*
X58476684Y-71275236D01*
X58495727Y-71290873D01*
X58565522Y-71360668D01*
X58566779Y-71361797D01*
X58566782Y-71361800D01*
X58580893Y-71374476D01*
X58580903Y-71374484D01*
X58582137Y-71375593D01*
X58603111Y-71392496D01*
X58644005Y-71413888D01*
X58669696Y-71427327D01*
X58675272Y-71430244D01*
X58681210Y-71431987D01*
X58681211Y-71431988D01*
X58699041Y-71437223D01*
X58743393Y-71450246D01*
X58747852Y-71450887D01*
X58747856Y-71450888D01*
X58772791Y-71454473D01*
X58802190Y-71458700D01*
X60087975Y-71458700D01*
X60097261Y-71458058D01*
X60114536Y-71456864D01*
X60114547Y-71456863D01*
X60116700Y-71456714D01*
X60151055Y-71451940D01*
X60197332Y-71435052D01*
X60227222Y-71424144D01*
X60227224Y-71424143D01*
X60233499Y-71421853D01*
X60239154Y-71418294D01*
X60289776Y-71386433D01*
X60289782Y-71386429D01*
X60293585Y-71384035D01*
X60338843Y-71345561D01*
X60347884Y-71335324D01*
X60375087Y-71312172D01*
X60403831Y-71294037D01*
X60436437Y-71279452D01*
X60469111Y-71270114D01*
X60504502Y-71265265D01*
X60523389Y-71265380D01*
X60538481Y-71265472D01*
X60573815Y-71270753D01*
X60606374Y-71280490D01*
X60638805Y-71295475D01*
X60667313Y-71313953D01*
X60694235Y-71337438D01*
X60698581Y-71342482D01*
X60709188Y-71353133D01*
X60718187Y-71362170D01*
X60718197Y-71362179D01*
X60719795Y-71363784D01*
X60747123Y-71387531D01*
X60753071Y-71390784D01*
X60753072Y-71390785D01*
X60767037Y-71398423D01*
X60825216Y-71430244D01*
X60831718Y-71432153D01*
X60831720Y-71432154D01*
X60855770Y-71439215D01*
X60893337Y-71450246D01*
X60897796Y-71450887D01*
X60897800Y-71450888D01*
X60922735Y-71454473D01*
X60952134Y-71458700D01*
X69697810Y-71458700D01*
X69699465Y-71458611D01*
X69699477Y-71458611D01*
X69718435Y-71457595D01*
X69720115Y-71457505D01*
X69721792Y-71457325D01*
X69721801Y-71457324D01*
X69740740Y-71455288D01*
X69740741Y-71455288D01*
X69746898Y-71454626D01*
X69791004Y-71440815D01*
X69818711Y-71432140D01*
X69818714Y-71432139D01*
X69824615Y-71430291D01*
X69830039Y-71427329D01*
X69830044Y-71427327D01*
X69882975Y-71398423D01*
X69886927Y-71396265D01*
X69934478Y-71360668D01*
X71795146Y-69500000D01*
X75369474Y-69500000D01*
X75389548Y-69755070D01*
X75390702Y-69759877D01*
X75390703Y-69759883D01*
X75411007Y-69844454D01*
X75449278Y-70003860D01*
X75451171Y-70008431D01*
X75451172Y-70008433D01*
X75508913Y-70147831D01*
X75547191Y-70240243D01*
X75680877Y-70458399D01*
X75847044Y-70652956D01*
X76041601Y-70819123D01*
X76259757Y-70952809D01*
X76264327Y-70954702D01*
X76264331Y-70954704D01*
X76491567Y-71048828D01*
X76496140Y-71050722D01*
X76584157Y-71071853D01*
X76740117Y-71109297D01*
X76740123Y-71109298D01*
X76744930Y-71110452D01*
X76833569Y-71117428D01*
X76933680Y-71125307D01*
X76933689Y-71125307D01*
X76936137Y-71125500D01*
X77063863Y-71125500D01*
X77066311Y-71125307D01*
X77066320Y-71125307D01*
X77166431Y-71117428D01*
X77255070Y-71110452D01*
X77259877Y-71109298D01*
X77259883Y-71109297D01*
X77415843Y-71071853D01*
X77503860Y-71050722D01*
X77508433Y-71048828D01*
X77735669Y-70954704D01*
X77735673Y-70954702D01*
X77740243Y-70952809D01*
X77958399Y-70819123D01*
X78152956Y-70652956D01*
X78319123Y-70458399D01*
X78452809Y-70240243D01*
X78491088Y-70147831D01*
X78548828Y-70008433D01*
X78548829Y-70008431D01*
X78550722Y-70003860D01*
X78588993Y-69844454D01*
X78609297Y-69759883D01*
X78609298Y-69759877D01*
X78610452Y-69755070D01*
X78630526Y-69500000D01*
X78610452Y-69244930D01*
X78609298Y-69240123D01*
X78609297Y-69240117D01*
X78557120Y-69022788D01*
X78550722Y-68996140D01*
X78546519Y-68985993D01*
X78454704Y-68764331D01*
X78454702Y-68764327D01*
X78452809Y-68759757D01*
X78319123Y-68541601D01*
X78152956Y-68347044D01*
X77958399Y-68180877D01*
X77740243Y-68047191D01*
X77735673Y-68045298D01*
X77735669Y-68045296D01*
X77508433Y-67951172D01*
X77508431Y-67951171D01*
X77503860Y-67949278D01*
X77415843Y-67928147D01*
X77259883Y-67890703D01*
X77259877Y-67890702D01*
X77255070Y-67889548D01*
X77166431Y-67882572D01*
X77066320Y-67874693D01*
X77066311Y-67874693D01*
X77063863Y-67874500D01*
X76936137Y-67874500D01*
X76933689Y-67874693D01*
X76933680Y-67874693D01*
X76833569Y-67882572D01*
X76744930Y-67889548D01*
X76740123Y-67890702D01*
X76740117Y-67890703D01*
X76584157Y-67928147D01*
X76496140Y-67949278D01*
X76491569Y-67951171D01*
X76491567Y-67951172D01*
X76264331Y-68045296D01*
X76264327Y-68045298D01*
X76259757Y-68047191D01*
X76041601Y-68180877D01*
X75847044Y-68347044D01*
X75680877Y-68541601D01*
X75547191Y-68759757D01*
X75545298Y-68764327D01*
X75545296Y-68764331D01*
X75453481Y-68985993D01*
X75449278Y-68996140D01*
X75442880Y-69022788D01*
X75390703Y-69240117D01*
X75390702Y-69240123D01*
X75389548Y-69244930D01*
X75369474Y-69500000D01*
X71795146Y-69500000D01*
X75470450Y-65824696D01*
X75485144Y-65807228D01*
X75491793Y-65799324D01*
X75491798Y-65799317D01*
X75493543Y-65797243D01*
X75518384Y-65761949D01*
X75521091Y-65755259D01*
X75551190Y-65680860D01*
X75551191Y-65680856D01*
X75553898Y-65674165D01*
X75564898Y-65604028D01*
X75565476Y-65558738D01*
X75565599Y-65549126D01*
X75565599Y-65549121D01*
X75565656Y-65544631D01*
X75562959Y-65524000D01*
X75555227Y-65464875D01*
X75555663Y-65429153D01*
X75560891Y-65395576D01*
X75571336Y-65361412D01*
X75585778Y-65330652D01*
X75605391Y-65300794D01*
X75627884Y-65275325D01*
X75655090Y-65252171D01*
X75683854Y-65234022D01*
X75714207Y-65220102D01*
X75714844Y-65219907D01*
X75715978Y-65219583D01*
X75717077Y-65219224D01*
X75717096Y-65219218D01*
X75729742Y-65215085D01*
X75729767Y-65215076D01*
X75730848Y-65214723D01*
X75748565Y-65208188D01*
X75813011Y-65170108D01*
X75823429Y-65161081D01*
X75865211Y-65124877D01*
X75865218Y-65124871D01*
X75866667Y-65123615D01*
X75870960Y-65119409D01*
X75878466Y-65112055D01*
X75878467Y-65112054D01*
X75884903Y-65105748D01*
X75930244Y-65024687D01*
X75950246Y-64956566D01*
X75958700Y-64897769D01*
X75958700Y-62067483D01*
X75971307Y-62012547D01*
X75980877Y-61992793D01*
X75980877Y-61992792D01*
X75984790Y-61984716D01*
X76008728Y-61842433D01*
X76008880Y-61830000D01*
X75998860Y-61760030D01*
X75989700Y-61696067D01*
X75989699Y-61696064D01*
X75988426Y-61687174D01*
X75970000Y-61646648D01*
X75958700Y-61594497D01*
X75958700Y-61439085D01*
X75954423Y-61397052D01*
X75949937Y-61375236D01*
X75945752Y-61354880D01*
X75945751Y-61354878D01*
X75944201Y-61347338D01*
X75940874Y-61340398D01*
X75940873Y-61340394D01*
X75909241Y-61274405D01*
X75900579Y-61256334D01*
X75881344Y-61233084D01*
X75863483Y-61211496D01*
X75835471Y-61146259D01*
X75847175Y-61076234D01*
X75872384Y-61041177D01*
X75878465Y-61035219D01*
X75878466Y-61035218D01*
X75884903Y-61028911D01*
X75930244Y-60947850D01*
X75950246Y-60879729D01*
X75958700Y-60820932D01*
X75958700Y-60413783D01*
X76411158Y-60413783D01*
X76412322Y-60422685D01*
X76412322Y-60422688D01*
X76428701Y-60547943D01*
X76428702Y-60547947D01*
X76429866Y-60556848D01*
X76487975Y-60688912D01*
X76580815Y-60799358D01*
X76588286Y-60804331D01*
X76588287Y-60804332D01*
X76693448Y-60874333D01*
X76700922Y-60879308D01*
X76781269Y-60904410D01*
X76816686Y-60915475D01*
X76838640Y-60922334D01*
X76982898Y-60924978D01*
X77058341Y-60904410D01*
X77113442Y-60889388D01*
X77113444Y-60889387D01*
X77122101Y-60887027D01*
X77245056Y-60811532D01*
X77341881Y-60704562D01*
X77346135Y-60695783D01*
X77394998Y-60594927D01*
X77404790Y-60574716D01*
X77428728Y-60432433D01*
X77428880Y-60420000D01*
X77408426Y-60277174D01*
X77348707Y-60145830D01*
X77338416Y-60133886D01*
X77260386Y-60043329D01*
X77254525Y-60036527D01*
X77133451Y-59958050D01*
X76995217Y-59916710D01*
X76986241Y-59916655D01*
X76986240Y-59916655D01*
X76926076Y-59916287D01*
X76850937Y-59915828D01*
X76712209Y-59955477D01*
X76590185Y-60032468D01*
X76494674Y-60140613D01*
X76490860Y-60148736D01*
X76490859Y-60148738D01*
X76482018Y-60167570D01*
X76433356Y-60271218D01*
X76431975Y-60280087D01*
X76415192Y-60387877D01*
X76411158Y-60413783D01*
X75958700Y-60413783D01*
X75958700Y-58863783D01*
X77001158Y-58863783D01*
X77002322Y-58872685D01*
X77002322Y-58872688D01*
X77018701Y-58997943D01*
X77018702Y-58997947D01*
X77019866Y-59006848D01*
X77077975Y-59138912D01*
X77170815Y-59249358D01*
X77178286Y-59254331D01*
X77178287Y-59254332D01*
X77227344Y-59286987D01*
X77290922Y-59329308D01*
X77428640Y-59372334D01*
X77572898Y-59374978D01*
X77631299Y-59359056D01*
X77703442Y-59339388D01*
X77703444Y-59339387D01*
X77712101Y-59337027D01*
X77835056Y-59261532D01*
X77931881Y-59154562D01*
X77936135Y-59145783D01*
X77990878Y-59032790D01*
X77994790Y-59024716D01*
X78018728Y-58882433D01*
X78018880Y-58870000D01*
X77998426Y-58727174D01*
X77938707Y-58595830D01*
X77928416Y-58583886D01*
X77850386Y-58493329D01*
X77844525Y-58486527D01*
X77723451Y-58408050D01*
X77585217Y-58366710D01*
X77576241Y-58366655D01*
X77576240Y-58366655D01*
X77516076Y-58366287D01*
X77440937Y-58365828D01*
X77302209Y-58405477D01*
X77180185Y-58482468D01*
X77084674Y-58590613D01*
X77080860Y-58598736D01*
X77080859Y-58598738D01*
X77078389Y-58604000D01*
X77023356Y-58721218D01*
X77021975Y-58730087D01*
X77013351Y-58785477D01*
X77001158Y-58863783D01*
X75958700Y-58863783D01*
X75958700Y-56552190D01*
X75957505Y-56529885D01*
X75954626Y-56503102D01*
X75938656Y-56452099D01*
X75932140Y-56431289D01*
X75932139Y-56431286D01*
X75930291Y-56425385D01*
X75927329Y-56419961D01*
X75927327Y-56419956D01*
X75898423Y-56367025D01*
X75896265Y-56363073D01*
X75860668Y-56315522D01*
X74175675Y-54630529D01*
X74141649Y-54568217D01*
X74146714Y-54497402D01*
X74189261Y-54440566D01*
X74231627Y-54419872D01*
X74290641Y-54403783D01*
X75491158Y-54403783D01*
X75492322Y-54412685D01*
X75492322Y-54412688D01*
X75508701Y-54537943D01*
X75508702Y-54537947D01*
X75509866Y-54546848D01*
X75567975Y-54678912D01*
X75619781Y-54740542D01*
X75641191Y-54766012D01*
X75660815Y-54789358D01*
X75668286Y-54794331D01*
X75668287Y-54794332D01*
X75767460Y-54860347D01*
X75780922Y-54869308D01*
X75882029Y-54900896D01*
X75895841Y-54905211D01*
X75918640Y-54912334D01*
X76062898Y-54914978D01*
X76121299Y-54899056D01*
X76193442Y-54879388D01*
X76193444Y-54879387D01*
X76202101Y-54877027D01*
X76325056Y-54801532D01*
X76421881Y-54694562D01*
X76426135Y-54685783D01*
X76480878Y-54572790D01*
X76484790Y-54564716D01*
X76508728Y-54422433D01*
X76508880Y-54410000D01*
X76488426Y-54267174D01*
X76455083Y-54193840D01*
X76432422Y-54144000D01*
X76432421Y-54143998D01*
X76428707Y-54135830D01*
X76422339Y-54128439D01*
X76340386Y-54033329D01*
X76334525Y-54026527D01*
X76213451Y-53948050D01*
X76075217Y-53906710D01*
X76066241Y-53906655D01*
X76066240Y-53906655D01*
X76006076Y-53906287D01*
X75930937Y-53905828D01*
X75792209Y-53945477D01*
X75670185Y-54022468D01*
X75574674Y-54130613D01*
X75570860Y-54138736D01*
X75570859Y-54138738D01*
X75517171Y-54253092D01*
X75513356Y-54261218D01*
X75511975Y-54270087D01*
X75496573Y-54369007D01*
X75491158Y-54403783D01*
X74290641Y-54403783D01*
X74352101Y-54387027D01*
X74475056Y-54311532D01*
X74571881Y-54204562D01*
X74634790Y-54074716D01*
X74658728Y-53932433D01*
X74658880Y-53920000D01*
X74638426Y-53777174D01*
X74634711Y-53769004D01*
X74634709Y-53768996D01*
X74595086Y-53681852D01*
X74585098Y-53611561D01*
X74614699Y-53547030D01*
X74674488Y-53508745D01*
X74709786Y-53503700D01*
X76572007Y-53503700D01*
X76574316Y-53503721D01*
X76642898Y-53504978D01*
X76674817Y-53496276D01*
X76690069Y-53493117D01*
X76722826Y-53488426D01*
X76731001Y-53484709D01*
X76731002Y-53484709D01*
X76742376Y-53479538D01*
X76761382Y-53472676D01*
X76773446Y-53469387D01*
X76773447Y-53469386D01*
X76782101Y-53467027D01*
X76810286Y-53449722D01*
X76824056Y-53442400D01*
X76854170Y-53428707D01*
X76860967Y-53422850D01*
X76860972Y-53422847D01*
X76870440Y-53414689D01*
X76886756Y-53402769D01*
X76897405Y-53396230D01*
X76897406Y-53396229D01*
X76905056Y-53391532D01*
X76911077Y-53384880D01*
X76911082Y-53384876D01*
X76927253Y-53367010D01*
X76938420Y-53356112D01*
X76947502Y-53348287D01*
X76963473Y-53334525D01*
X76968356Y-53326991D01*
X76968359Y-53326988D01*
X76975155Y-53316503D01*
X76987471Y-53300482D01*
X76995857Y-53291217D01*
X77001881Y-53284562D01*
X77005796Y-53276482D01*
X77016302Y-53254798D01*
X77023962Y-53241204D01*
X77037064Y-53220989D01*
X77041950Y-53213451D01*
X77044523Y-53204848D01*
X77048106Y-53192868D01*
X77055430Y-53174036D01*
X77060875Y-53162798D01*
X77060876Y-53162794D01*
X77064790Y-53154716D01*
X77070277Y-53122103D01*
X77073813Y-53106907D01*
X77080719Y-53083813D01*
X77083290Y-53075217D01*
X77083421Y-53053745D01*
X77085166Y-53033609D01*
X77087921Y-53017238D01*
X77087923Y-53017220D01*
X77088728Y-53012433D01*
X77088880Y-53000000D01*
X77088191Y-52995187D01*
X77088190Y-52995175D01*
X77085288Y-52974913D01*
X77084017Y-52956279D01*
X77084117Y-52939912D01*
X77084172Y-52930937D01*
X77076142Y-52902841D01*
X77072569Y-52886105D01*
X77068426Y-52857174D01*
X77057935Y-52834102D01*
X77051487Y-52816575D01*
X77046990Y-52800839D01*
X77046989Y-52800836D01*
X77044523Y-52792209D01*
X77039735Y-52784620D01*
X77039733Y-52784616D01*
X77028935Y-52767502D01*
X77020797Y-52752420D01*
X77012423Y-52734002D01*
X77012422Y-52734000D01*
X77008707Y-52725830D01*
X76992163Y-52706630D01*
X76981053Y-52691615D01*
X76978087Y-52686914D01*
X76967532Y-52670185D01*
X76949509Y-52654268D01*
X76945636Y-52650847D01*
X76933591Y-52638654D01*
X76920387Y-52623330D01*
X76920386Y-52623329D01*
X76914525Y-52616527D01*
X76893251Y-52602737D01*
X76878388Y-52591455D01*
X76866116Y-52580617D01*
X76859387Y-52574674D01*
X76851262Y-52570859D01*
X76851257Y-52570856D01*
X76832946Y-52562259D01*
X76817965Y-52553938D01*
X76800987Y-52542934D01*
X76800984Y-52542933D01*
X76793451Y-52538050D01*
X76769159Y-52530785D01*
X76751730Y-52524130D01*
X76728782Y-52513356D01*
X76719911Y-52511975D01*
X76719908Y-52511974D01*
X76699923Y-52508863D01*
X76683207Y-52505081D01*
X76655217Y-52496710D01*
X76646242Y-52496655D01*
X76646241Y-52496655D01*
X76638722Y-52496609D01*
X76621091Y-52496502D01*
X76620330Y-52496470D01*
X76619241Y-52496300D01*
X76588591Y-52496300D01*
X76587821Y-52496298D01*
X76587025Y-52496293D01*
X76510937Y-52495828D01*
X76509602Y-52496210D01*
X76508278Y-52496300D01*
X72346899Y-52496300D01*
X72278778Y-52476298D01*
X72257804Y-52459395D01*
X71639809Y-51841400D01*
X71632280Y-51831977D01*
X71631899Y-51832302D01*
X71626081Y-51825466D01*
X71621291Y-51817874D01*
X71581342Y-51782592D01*
X71575655Y-51777246D01*
X71564352Y-51765943D01*
X71560766Y-51763255D01*
X71560761Y-51763251D01*
X71556102Y-51759759D01*
X71548264Y-51753378D01*
X71519874Y-51728305D01*
X71513146Y-51722363D01*
X71505025Y-51718550D01*
X71502140Y-51716655D01*
X71488328Y-51708357D01*
X71485316Y-51706708D01*
X71478135Y-51701326D01*
X71469735Y-51698177D01*
X71469731Y-51698175D01*
X71434258Y-51684877D01*
X71424939Y-51680950D01*
X71390672Y-51664862D01*
X71390669Y-51664861D01*
X71382541Y-51661045D01*
X71373668Y-51659664D01*
X71370366Y-51658654D01*
X71354802Y-51654571D01*
X71351441Y-51653832D01*
X71343033Y-51650680D01*
X71334080Y-51650015D01*
X71334077Y-51650014D01*
X71296315Y-51647208D01*
X71286271Y-51646055D01*
X71277808Y-51644737D01*
X71277801Y-51644736D01*
X71273000Y-51643989D01*
X71257671Y-51643989D01*
X71248334Y-51643643D01*
X71212820Y-51641004D01*
X71199148Y-51639988D01*
X71190370Y-51641862D01*
X71181595Y-51642460D01*
X71167106Y-51643989D01*
X60899300Y-51643989D01*
X60887317Y-51642650D01*
X60887277Y-51643149D01*
X60878330Y-51642429D01*
X60869574Y-51640448D01*
X60818074Y-51643643D01*
X60816398Y-51643747D01*
X60808596Y-51643989D01*
X60792591Y-51643989D01*
X60788161Y-51644624D01*
X60788154Y-51644624D01*
X60782381Y-51645451D01*
X60772326Y-51646481D01*
X60734527Y-51648826D01*
X60734525Y-51648826D01*
X60725568Y-51649382D01*
X60717125Y-51652430D01*
X60713763Y-51653126D01*
X60698108Y-51657029D01*
X60694819Y-51657991D01*
X60685936Y-51659263D01*
X60677770Y-51662976D01*
X60677766Y-51662977D01*
X60643279Y-51678657D01*
X60633915Y-51682469D01*
X60598298Y-51695327D01*
X60598294Y-51695329D01*
X60589857Y-51698375D01*
X60582610Y-51703669D01*
X60579586Y-51705277D01*
X60565652Y-51713418D01*
X60562758Y-51715269D01*
X60554592Y-51718982D01*
X60547793Y-51724840D01*
X60547792Y-51724841D01*
X60519095Y-51749567D01*
X60511183Y-51755850D01*
X60500340Y-51763772D01*
X60489507Y-51774605D01*
X60482661Y-51780962D01*
X60445289Y-51813164D01*
X60440405Y-51820699D01*
X60434624Y-51827326D01*
X60425457Y-51838655D01*
X57143711Y-55120401D01*
X57134288Y-55127930D01*
X57134613Y-55128311D01*
X57127777Y-55134129D01*
X57120185Y-55138919D01*
X57114242Y-55145648D01*
X57084903Y-55178868D01*
X57079557Y-55184555D01*
X57068254Y-55195858D01*
X57065566Y-55199444D01*
X57065562Y-55199449D01*
X57062070Y-55204108D01*
X57055689Y-55211946D01*
X57024674Y-55247064D01*
X57020861Y-55255185D01*
X57018966Y-55258070D01*
X57010668Y-55271882D01*
X57009019Y-55274894D01*
X57003637Y-55282075D01*
X57000488Y-55290475D01*
X57000486Y-55290479D01*
X56987188Y-55325952D01*
X56983261Y-55335271D01*
X56967173Y-55369538D01*
X56963356Y-55377669D01*
X56961975Y-55386542D01*
X56960965Y-55389844D01*
X56956882Y-55405408D01*
X56956143Y-55408769D01*
X56952991Y-55417177D01*
X56952326Y-55426130D01*
X56952325Y-55426133D01*
X56949519Y-55463895D01*
X56948366Y-55473939D01*
X56947048Y-55482402D01*
X56947047Y-55482409D01*
X56946300Y-55487210D01*
X56946300Y-55502539D01*
X56945954Y-55511876D01*
X56942299Y-55561062D01*
X56944173Y-55569840D01*
X56944771Y-55578615D01*
X56946300Y-55593104D01*
X56946300Y-64593010D01*
X56929419Y-64656010D01*
X56927695Y-64658996D01*
X56922669Y-64665546D01*
X56919510Y-64673172D01*
X56919509Y-64673174D01*
X56874328Y-64782252D01*
X56861839Y-64812403D01*
X56860761Y-64820591D01*
X56857596Y-64844635D01*
X56841091Y-64970000D01*
X46575435Y-64970000D01*
X54451652Y-57093783D01*
X55001158Y-57093783D01*
X55002322Y-57102685D01*
X55002322Y-57102688D01*
X55018701Y-57227943D01*
X55018702Y-57227947D01*
X55019866Y-57236848D01*
X55077975Y-57368912D01*
X55091220Y-57384669D01*
X55162618Y-57469606D01*
X55170815Y-57479358D01*
X55178286Y-57484331D01*
X55178287Y-57484332D01*
X55283448Y-57554333D01*
X55290922Y-57559308D01*
X55392029Y-57590896D01*
X55411180Y-57596879D01*
X55428640Y-57602334D01*
X55572898Y-57604978D01*
X55631299Y-57589056D01*
X55703442Y-57569388D01*
X55703444Y-57569387D01*
X55712101Y-57567027D01*
X55835056Y-57491532D01*
X55931881Y-57384562D01*
X55936135Y-57375783D01*
X55968672Y-57308625D01*
X55994790Y-57254716D01*
X56018728Y-57112433D01*
X56018880Y-57100000D01*
X55998426Y-56957174D01*
X55960787Y-56874391D01*
X55942422Y-56834000D01*
X55942421Y-56833998D01*
X55938707Y-56825830D01*
X55928416Y-56813886D01*
X55850386Y-56723329D01*
X55844525Y-56716527D01*
X55723451Y-56638050D01*
X55585217Y-56596710D01*
X55576241Y-56596655D01*
X55576240Y-56596655D01*
X55516076Y-56596287D01*
X55440937Y-56595828D01*
X55302209Y-56635477D01*
X55193104Y-56704317D01*
X55139523Y-56719566D01*
X55129651Y-56764946D01*
X55113505Y-56787968D01*
X55084674Y-56820613D01*
X55080860Y-56828736D01*
X55080859Y-56828738D01*
X55027171Y-56943092D01*
X55023356Y-56951218D01*
X55021975Y-56960087D01*
X55004255Y-57073894D01*
X55001158Y-57093783D01*
X54451652Y-57093783D01*
X54929969Y-56615466D01*
X54992280Y-56581440D01*
X55001758Y-56582118D01*
X55001307Y-56578784D01*
X55031337Y-56514451D01*
X55036776Y-56508659D01*
X60496236Y-51049198D01*
X60510455Y-51037877D01*
X60514134Y-51034211D01*
X60526163Y-51026680D01*
X60533735Y-51014679D01*
X60543786Y-51004664D01*
X60544033Y-51004912D01*
X60549361Y-50998570D01*
X60721465Y-50842583D01*
X60731024Y-50834739D01*
X60941484Y-50678652D01*
X60951765Y-50671782D01*
X61176523Y-50537067D01*
X61187428Y-50531238D01*
X61424306Y-50419203D01*
X61435730Y-50414471D01*
X61682451Y-50326193D01*
X61694283Y-50322604D01*
X61893811Y-50272624D01*
X61948472Y-50258932D01*
X61960593Y-50256522D01*
X62219797Y-50218072D01*
X62232093Y-50216861D01*
X62373682Y-50209906D01*
X62463506Y-50205493D01*
X62471617Y-50206212D01*
X62471618Y-50205734D01*
X62485805Y-50205759D01*
X62499635Y-50208939D01*
X62513476Y-50205807D01*
X62517936Y-50205815D01*
X62536865Y-50203700D01*
X77462553Y-50203700D01*
X77480612Y-50205750D01*
G37*
%TD.AperFunction*%
%TA.AperFunction,Conductor*%
G36*
X74603389Y-63005380D02*
G01*
X74618481Y-63005472D01*
X74653815Y-63010753D01*
X74686374Y-63020490D01*
X74718804Y-63035475D01*
X74737648Y-63047689D01*
X74747317Y-63053956D01*
X74774236Y-63077439D01*
X74796416Y-63103180D01*
X74815663Y-63133276D01*
X74818602Y-63139738D01*
X74829730Y-63164214D01*
X74839756Y-63198501D01*
X74844783Y-63233599D01*
X74844310Y-63272368D01*
X74838425Y-63307346D01*
X74827563Y-63341379D01*
X74812750Y-63371953D01*
X74792774Y-63401570D01*
X74769968Y-63426766D01*
X74742479Y-63449587D01*
X74713524Y-63467365D01*
X74680743Y-63481551D01*
X74647952Y-63490491D01*
X74612508Y-63494906D01*
X74594703Y-63494580D01*
X74578527Y-63494283D01*
X74543263Y-63488571D01*
X74510832Y-63478439D01*
X74478587Y-63463059D01*
X74450299Y-63444229D01*
X74423666Y-63420417D01*
X74415341Y-63410513D01*
X74401801Y-63394404D01*
X74382923Y-63364075D01*
X74369238Y-63332973D01*
X74359632Y-63298567D01*
X74355226Y-63264876D01*
X74355662Y-63229150D01*
X74360890Y-63195576D01*
X74371335Y-63161413D01*
X74377065Y-63149210D01*
X74385778Y-63130650D01*
X74405391Y-63100794D01*
X74427883Y-63075326D01*
X74455089Y-63052171D01*
X74455721Y-63051772D01*
X74483832Y-63034036D01*
X74516436Y-63019452D01*
X74549114Y-63010113D01*
X74584502Y-63005265D01*
X74603389Y-63005380D01*
G37*
%TD.AperFunction*%
%TA.AperFunction,Conductor*%
G36*
X75133389Y-60885380D02*
G01*
X75148481Y-60885472D01*
X75183815Y-60890753D01*
X75216374Y-60900490D01*
X75248804Y-60915475D01*
X75277313Y-60933953D01*
X75304235Y-60957439D01*
X75347227Y-61007335D01*
X75357861Y-61021601D01*
X75358566Y-61022701D01*
X75361000Y-61026499D01*
X75363947Y-61029907D01*
X75381840Y-61050602D01*
X75411264Y-61115215D01*
X75401084Y-61185478D01*
X75379845Y-61217675D01*
X75371135Y-61227276D01*
X75366718Y-61232144D01*
X75366008Y-61231500D01*
X75358371Y-61241875D01*
X75350746Y-61249021D01*
X75350740Y-61249028D01*
X75345580Y-61253864D01*
X75341623Y-61259730D01*
X75337036Y-61265115D01*
X75337032Y-61265111D01*
X75332911Y-61270371D01*
X75299970Y-61306765D01*
X75272480Y-61329587D01*
X75243522Y-61347366D01*
X75210743Y-61361551D01*
X75177952Y-61370491D01*
X75142508Y-61374906D01*
X75124703Y-61374580D01*
X75108527Y-61374283D01*
X75073263Y-61368571D01*
X75040832Y-61358439D01*
X75008587Y-61343059D01*
X74980299Y-61324229D01*
X74953666Y-61300417D01*
X74931801Y-61274405D01*
X74912923Y-61244075D01*
X74907674Y-61232144D01*
X74899238Y-61212973D01*
X74889632Y-61178567D01*
X74888280Y-61168230D01*
X74885226Y-61144874D01*
X74885662Y-61109150D01*
X74886154Y-61105995D01*
X74890890Y-61075576D01*
X74901335Y-61041413D01*
X74910121Y-61022701D01*
X74915778Y-61010650D01*
X74935391Y-60980794D01*
X74957883Y-60955326D01*
X74985089Y-60932171D01*
X74985721Y-60931772D01*
X75013832Y-60914036D01*
X75046436Y-60899452D01*
X75079114Y-60890113D01*
X75114502Y-60885265D01*
X75133389Y-60885380D01*
G37*
%TD.AperFunction*%
%TA.AperFunction,Conductor*%
G36*
X72435558Y-53523702D02*
G01*
X72482051Y-53577358D01*
X72492155Y-53647632D01*
X72490250Y-53657859D01*
X72480122Y-53702008D01*
X72480114Y-53709081D01*
X72480114Y-53709083D01*
X72480104Y-53718795D01*
X72480048Y-53769466D01*
X72482291Y-53779849D01*
X72483778Y-53800936D01*
X72482961Y-53801053D01*
X72492667Y-53868826D01*
X72492668Y-53868830D01*
X72494784Y-53883602D01*
X72494311Y-53922363D01*
X72488426Y-53957347D01*
X72477568Y-53991370D01*
X72462748Y-54021960D01*
X72442775Y-54051568D01*
X72419966Y-54076767D01*
X72392479Y-54099587D01*
X72363526Y-54117364D01*
X72330743Y-54131551D01*
X72297953Y-54140491D01*
X72262508Y-54144906D01*
X72244703Y-54144580D01*
X72228527Y-54144283D01*
X72193263Y-54138571D01*
X72160832Y-54128439D01*
X72128587Y-54113059D01*
X72100299Y-54094229D01*
X72073666Y-54070417D01*
X72051801Y-54044405D01*
X72032923Y-54014075D01*
X72032543Y-54013210D01*
X72019238Y-53982973D01*
X72009632Y-53948567D01*
X72009228Y-53945477D01*
X72005226Y-53914874D01*
X72005662Y-53879152D01*
X72010890Y-53845576D01*
X72021333Y-53811418D01*
X72035781Y-53780645D01*
X72055392Y-53750792D01*
X72065755Y-53739058D01*
X72065781Y-53739028D01*
X72066451Y-53738269D01*
X72074779Y-53728224D01*
X72075350Y-53727490D01*
X72075369Y-53727466D01*
X72081080Y-53720121D01*
X72081083Y-53720117D01*
X72084447Y-53715790D01*
X72118267Y-53651897D01*
X72137981Y-53590932D01*
X72177972Y-53532270D01*
X72243330Y-53504542D01*
X72257869Y-53503700D01*
X72367437Y-53503700D01*
X72435558Y-53523702D01*
G37*
%TD.AperFunction*%
%TD*%
%TA.AperFunction,Conductor*%
%TO.N,+1V8*%
G36*
X71061927Y-52620991D02*
G01*
X71082901Y-52637894D01*
X71741224Y-53296217D01*
X71751079Y-53307306D01*
X71772260Y-53334174D01*
X71780004Y-53339526D01*
X71780006Y-53339528D01*
X71820842Y-53367751D01*
X71824062Y-53370053D01*
X71863980Y-53399537D01*
X71863985Y-53399540D01*
X71871562Y-53405136D01*
X71877152Y-53407099D01*
X71882286Y-53410217D01*
X71884393Y-53411674D01*
X71884395Y-53411675D01*
X71884400Y-53411678D01*
X71882650Y-53414209D01*
X71923389Y-53451493D01*
X71941535Y-53520132D01*
X71919691Y-53587684D01*
X71910023Y-53600118D01*
X71867233Y-53648569D01*
X71812050Y-53766105D01*
X71810670Y-53774970D01*
X71810669Y-53774972D01*
X71795099Y-53874972D01*
X71792073Y-53894405D01*
X71793237Y-53903307D01*
X71793237Y-53903310D01*
X71794688Y-53914405D01*
X71808909Y-54023155D01*
X71861204Y-54142004D01*
X71866981Y-54148877D01*
X71866982Y-54148878D01*
X71877659Y-54161580D01*
X71944754Y-54241399D01*
X72052843Y-54313349D01*
X72116859Y-54333349D01*
X72158556Y-54346376D01*
X72176781Y-54352070D01*
X72306605Y-54354449D01*
X72315331Y-54352070D01*
X72423216Y-54322658D01*
X72423219Y-54322657D01*
X72431878Y-54320296D01*
X72439528Y-54315599D01*
X72439530Y-54315598D01*
X72534879Y-54257054D01*
X72534882Y-54257051D01*
X72542531Y-54252355D01*
X72551901Y-54242004D01*
X72623639Y-54162749D01*
X72623640Y-54162747D01*
X72629667Y-54156089D01*
X72633919Y-54147314D01*
X72682368Y-54047314D01*
X72682368Y-54047313D01*
X72686282Y-54039235D01*
X72707824Y-53911189D01*
X72707887Y-53906089D01*
X72707901Y-53904872D01*
X72707961Y-53900000D01*
X72705148Y-53880353D01*
X72699259Y-53839239D01*
X72689553Y-53771466D01*
X72688748Y-53769695D01*
X72688822Y-53702237D01*
X72727272Y-53642553D01*
X72791885Y-53613132D01*
X72862148Y-53623313D01*
X72898774Y-53648774D01*
X75713095Y-56463095D01*
X75747121Y-56525407D01*
X75750000Y-56552190D01*
X75750000Y-60820932D01*
X75729998Y-60889053D01*
X75676342Y-60935546D01*
X75606068Y-60945650D01*
X75541488Y-60916156D01*
X75518872Y-60889999D01*
X75515810Y-60883264D01*
X75431052Y-60784897D01*
X75322093Y-60714273D01*
X75197691Y-60677069D01*
X75188715Y-60677014D01*
X75188714Y-60677014D01*
X75134665Y-60676684D01*
X75067848Y-60676276D01*
X74943001Y-60711958D01*
X74833186Y-60781245D01*
X74747233Y-60878569D01*
X74692050Y-60996105D01*
X74690670Y-61004970D01*
X74690669Y-61004972D01*
X74677111Y-61092050D01*
X74672073Y-61124405D01*
X74673237Y-61133307D01*
X74673237Y-61133310D01*
X74680491Y-61188780D01*
X74688909Y-61253155D01*
X74741204Y-61372004D01*
X74746981Y-61378877D01*
X74746982Y-61378878D01*
X74797591Y-61439085D01*
X74824754Y-61471399D01*
X74932843Y-61543349D01*
X74984786Y-61559577D01*
X75047118Y-61579051D01*
X75056781Y-61582070D01*
X75186605Y-61584449D01*
X75195331Y-61582070D01*
X75303216Y-61552658D01*
X75303219Y-61552657D01*
X75311878Y-61550296D01*
X75319528Y-61545599D01*
X75319530Y-61545598D01*
X75414879Y-61487054D01*
X75414882Y-61487051D01*
X75422531Y-61482355D01*
X75433533Y-61470201D01*
X75503639Y-61392749D01*
X75503640Y-61392747D01*
X75509667Y-61386089D01*
X75513583Y-61378006D01*
X75518600Y-61370568D01*
X75521283Y-61372378D01*
X75558315Y-61331561D01*
X75626874Y-61313118D01*
X75694521Y-61334669D01*
X75739778Y-61389371D01*
X75750000Y-61439085D01*
X75750000Y-64897769D01*
X75729998Y-64965890D01*
X75676342Y-65012383D01*
X75658625Y-65018918D01*
X75613001Y-65031958D01*
X75503186Y-65101245D01*
X75497244Y-65107973D01*
X75497243Y-65107974D01*
X75483211Y-65123862D01*
X75417233Y-65198569D01*
X75362050Y-65316105D01*
X75342073Y-65444405D01*
X75343237Y-65453306D01*
X75343237Y-65453309D01*
X75347913Y-65489064D01*
X75358718Y-65571692D01*
X75347718Y-65641829D01*
X75322877Y-65677123D01*
X69786905Y-71213095D01*
X69724593Y-71247121D01*
X69697810Y-71250000D01*
X60952134Y-71250000D01*
X60884013Y-71229998D01*
X60856685Y-71206251D01*
X60821052Y-71164897D01*
X60712093Y-71094273D01*
X60587691Y-71057069D01*
X60578715Y-71057014D01*
X60578714Y-71057014D01*
X60524665Y-71056684D01*
X60457848Y-71056276D01*
X60333001Y-71091958D01*
X60223186Y-71161245D01*
X60217244Y-71167973D01*
X60217243Y-71167974D01*
X60182416Y-71207408D01*
X60122330Y-71245226D01*
X60087975Y-71250000D01*
X58802190Y-71250000D01*
X58734069Y-71229998D01*
X58713095Y-71213095D01*
X58286905Y-70786905D01*
X58252879Y-70724593D01*
X58250000Y-70697810D01*
X58250000Y-70552190D01*
X58270002Y-70484069D01*
X58286905Y-70463095D01*
X58405595Y-70344405D01*
X63742073Y-70344405D01*
X63743237Y-70353307D01*
X63743237Y-70353310D01*
X63744895Y-70365986D01*
X63758909Y-70473155D01*
X63811204Y-70592004D01*
X63816981Y-70598877D01*
X63816982Y-70598878D01*
X63828642Y-70612749D01*
X63894754Y-70691399D01*
X64002843Y-70763349D01*
X64126781Y-70802070D01*
X64256605Y-70804449D01*
X64265331Y-70802070D01*
X64373216Y-70772658D01*
X64373219Y-70772657D01*
X64381878Y-70770296D01*
X64389528Y-70765599D01*
X64389530Y-70765598D01*
X64484879Y-70707054D01*
X64484882Y-70707051D01*
X64492531Y-70702355D01*
X64547159Y-70642004D01*
X64573639Y-70612749D01*
X64573640Y-70612747D01*
X64579667Y-70606089D01*
X64612058Y-70539235D01*
X64632368Y-70497314D01*
X64632368Y-70497313D01*
X64636282Y-70489235D01*
X64657824Y-70361189D01*
X64657961Y-70350000D01*
X64655890Y-70335533D01*
X64640826Y-70230353D01*
X64640826Y-70230351D01*
X64639553Y-70221466D01*
X64585810Y-70103264D01*
X64501052Y-70004897D01*
X64392093Y-69934273D01*
X64267691Y-69897069D01*
X64258715Y-69897014D01*
X64258714Y-69897014D01*
X64204665Y-69896684D01*
X64137848Y-69896276D01*
X64013001Y-69931958D01*
X63903186Y-70001245D01*
X63817233Y-70098569D01*
X63762050Y-70216105D01*
X63760670Y-70224970D01*
X63760669Y-70224972D01*
X63745827Y-70320296D01*
X63742073Y-70344405D01*
X58405595Y-70344405D01*
X59213095Y-69536905D01*
X59275407Y-69502879D01*
X59302190Y-69500000D01*
X65000000Y-69500000D01*
X65415595Y-69084405D01*
X70192073Y-69084405D01*
X70193237Y-69093307D01*
X70193237Y-69093310D01*
X70199243Y-69139235D01*
X70208909Y-69213155D01*
X70261204Y-69332004D01*
X70266981Y-69338877D01*
X70266982Y-69338878D01*
X70278311Y-69352355D01*
X70344754Y-69431399D01*
X70368272Y-69447054D01*
X70424186Y-69484273D01*
X70452843Y-69503349D01*
X70576781Y-69542070D01*
X70706605Y-69544449D01*
X70718563Y-69541189D01*
X70823216Y-69512658D01*
X70823219Y-69512657D01*
X70831878Y-69510296D01*
X70839528Y-69505599D01*
X70839530Y-69505598D01*
X70934879Y-69447054D01*
X70934882Y-69447051D01*
X70942531Y-69442355D01*
X71029667Y-69346089D01*
X71060106Y-69283264D01*
X71082368Y-69237314D01*
X71082368Y-69237313D01*
X71086282Y-69229235D01*
X71107824Y-69101189D01*
X71107961Y-69090000D01*
X71106110Y-69077069D01*
X71090826Y-68970353D01*
X71090826Y-68970351D01*
X71089553Y-68961466D01*
X71035810Y-68843264D01*
X70951052Y-68744897D01*
X70842093Y-68674273D01*
X70717691Y-68637069D01*
X70708715Y-68637014D01*
X70708714Y-68637014D01*
X70654665Y-68636684D01*
X70587848Y-68636276D01*
X70463001Y-68671958D01*
X70353186Y-68741245D01*
X70267233Y-68838569D01*
X70212050Y-68956105D01*
X70210670Y-68964970D01*
X70210669Y-68964972D01*
X70204679Y-69003447D01*
X70192073Y-69084405D01*
X65415595Y-69084405D01*
X67795595Y-66704405D01*
X71192073Y-66704405D01*
X71193237Y-66713307D01*
X71193237Y-66713310D01*
X71197331Y-66744618D01*
X71208909Y-66833155D01*
X71261204Y-66952004D01*
X71266981Y-66958877D01*
X71266982Y-66958878D01*
X71278642Y-66972749D01*
X71344754Y-67051399D01*
X71452843Y-67123349D01*
X71576781Y-67162070D01*
X71706605Y-67164449D01*
X71715331Y-67162070D01*
X71823216Y-67132658D01*
X71823219Y-67132657D01*
X71831878Y-67130296D01*
X71839528Y-67125599D01*
X71839530Y-67125598D01*
X71934879Y-67067054D01*
X71934882Y-67067051D01*
X71942531Y-67062355D01*
X71994466Y-67004979D01*
X72023639Y-66972749D01*
X72023640Y-66972747D01*
X72029667Y-66966089D01*
X72086282Y-66849235D01*
X72107824Y-66721189D01*
X72107961Y-66710000D01*
X72105890Y-66695533D01*
X72090826Y-66590353D01*
X72090826Y-66590351D01*
X72089553Y-66581466D01*
X72035810Y-66463264D01*
X71951052Y-66364897D01*
X71842093Y-66294273D01*
X71717691Y-66257069D01*
X71708715Y-66257014D01*
X71708714Y-66257014D01*
X71654665Y-66256684D01*
X71587848Y-66256276D01*
X71463001Y-66291958D01*
X71353186Y-66361245D01*
X71267233Y-66458569D01*
X71212050Y-66576105D01*
X71210670Y-66584970D01*
X71210669Y-66584972D01*
X71193572Y-66694780D01*
X71192073Y-66704405D01*
X67795595Y-66704405D01*
X68505595Y-65994405D01*
X72412073Y-65994405D01*
X72413237Y-66003307D01*
X72413237Y-66003310D01*
X72414570Y-66013502D01*
X72428909Y-66123155D01*
X72481204Y-66242004D01*
X72486981Y-66248877D01*
X72486982Y-66248878D01*
X72558974Y-66334523D01*
X72564754Y-66341399D01*
X72672843Y-66413349D01*
X72796781Y-66452070D01*
X72926605Y-66454449D01*
X72936175Y-66451840D01*
X73043216Y-66422658D01*
X73043219Y-66422657D01*
X73051878Y-66420296D01*
X73059528Y-66415599D01*
X73059530Y-66415598D01*
X73154879Y-66357054D01*
X73154882Y-66357051D01*
X73162531Y-66352355D01*
X73215105Y-66294273D01*
X73243639Y-66262749D01*
X73243640Y-66262747D01*
X73249667Y-66256089D01*
X73306282Y-66139235D01*
X73327824Y-66011189D01*
X73327961Y-66000000D01*
X73325890Y-65985533D01*
X73310826Y-65880353D01*
X73310826Y-65880351D01*
X73309553Y-65871466D01*
X73303436Y-65858011D01*
X73259526Y-65761437D01*
X73255810Y-65753264D01*
X73171052Y-65654897D01*
X73062093Y-65584273D01*
X72937691Y-65547069D01*
X72928715Y-65547014D01*
X72928714Y-65547014D01*
X72874665Y-65546684D01*
X72807848Y-65546276D01*
X72683001Y-65581958D01*
X72573186Y-65651245D01*
X72487233Y-65748569D01*
X72432050Y-65866105D01*
X72430670Y-65874970D01*
X72430669Y-65874972D01*
X72414646Y-65977881D01*
X72412073Y-65994405D01*
X68505595Y-65994405D01*
X69259684Y-65240316D01*
X69321996Y-65206290D01*
X69351087Y-65203432D01*
X69397628Y-65204285D01*
X69397632Y-65204285D01*
X69406605Y-65204449D01*
X69452855Y-65191840D01*
X69523216Y-65172658D01*
X69523219Y-65172657D01*
X69531878Y-65170296D01*
X69539528Y-65165599D01*
X69539530Y-65165598D01*
X69634879Y-65107054D01*
X69634882Y-65107051D01*
X69642531Y-65102355D01*
X69706252Y-65031958D01*
X69723639Y-65012749D01*
X69723640Y-65012747D01*
X69729667Y-65006089D01*
X69734422Y-64996276D01*
X69782368Y-64897314D01*
X69782368Y-64897313D01*
X69786282Y-64889235D01*
X69807824Y-64761189D01*
X69807961Y-64750000D01*
X69807160Y-64744405D01*
X70692073Y-64744405D01*
X70693237Y-64753307D01*
X70693237Y-64753310D01*
X70694895Y-64765986D01*
X70708909Y-64873155D01*
X70735057Y-64932580D01*
X70749714Y-64965890D01*
X70761204Y-64992004D01*
X70766981Y-64998877D01*
X70766982Y-64998878D01*
X70792716Y-65029492D01*
X70844754Y-65091399D01*
X70898128Y-65126928D01*
X70935420Y-65151751D01*
X70952843Y-65163349D01*
X71042320Y-65191304D01*
X71067262Y-65199096D01*
X71076781Y-65202070D01*
X71206605Y-65204449D01*
X71215331Y-65202070D01*
X71323216Y-65172658D01*
X71323219Y-65172657D01*
X71331878Y-65170296D01*
X71339528Y-65165599D01*
X71339530Y-65165598D01*
X71434879Y-65107054D01*
X71434882Y-65107051D01*
X71442531Y-65102355D01*
X71506252Y-65031958D01*
X71523639Y-65012749D01*
X71523640Y-65012747D01*
X71529667Y-65006089D01*
X71534422Y-64996276D01*
X71582368Y-64897314D01*
X71582368Y-64897313D01*
X71586282Y-64889235D01*
X71607824Y-64761189D01*
X71607961Y-64750000D01*
X71606167Y-64737469D01*
X71590826Y-64630353D01*
X71590826Y-64630351D01*
X71589553Y-64621466D01*
X71535810Y-64503264D01*
X71451052Y-64404897D01*
X71342093Y-64334273D01*
X71217691Y-64297069D01*
X71208715Y-64297014D01*
X71208714Y-64297014D01*
X71154665Y-64296684D01*
X71087848Y-64296276D01*
X70963001Y-64331958D01*
X70853186Y-64401245D01*
X70767233Y-64498569D01*
X70712050Y-64616105D01*
X70710670Y-64624970D01*
X70710669Y-64624972D01*
X70699800Y-64694780D01*
X70692073Y-64744405D01*
X69807160Y-64744405D01*
X69806167Y-64737469D01*
X69790826Y-64630353D01*
X69790826Y-64630351D01*
X69789553Y-64621466D01*
X69761299Y-64559324D01*
X69750000Y-64507173D01*
X69750000Y-63893036D01*
X69762608Y-63838098D01*
X69782368Y-63797314D01*
X69782368Y-63797313D01*
X69786282Y-63789235D01*
X69804780Y-63679282D01*
X69807017Y-63665986D01*
X69807824Y-63661189D01*
X69807961Y-63650000D01*
X69801811Y-63607054D01*
X69790826Y-63530353D01*
X69790826Y-63530351D01*
X69789553Y-63521466D01*
X69778886Y-63498005D01*
X69761299Y-63459324D01*
X69750000Y-63407173D01*
X69750000Y-63244405D01*
X74142073Y-63244405D01*
X74143237Y-63253307D01*
X74143237Y-63253310D01*
X74144895Y-63265986D01*
X74158909Y-63373155D01*
X74211204Y-63492004D01*
X74216981Y-63498877D01*
X74216982Y-63498878D01*
X74251498Y-63539940D01*
X74294754Y-63591399D01*
X74402843Y-63663349D01*
X74526781Y-63702070D01*
X74656605Y-63704449D01*
X74665331Y-63702070D01*
X74773216Y-63672658D01*
X74773219Y-63672657D01*
X74781878Y-63670296D01*
X74789528Y-63665599D01*
X74789530Y-63665598D01*
X74884879Y-63607054D01*
X74884882Y-63607051D01*
X74892531Y-63602355D01*
X74910376Y-63582641D01*
X74973639Y-63512749D01*
X74973640Y-63512747D01*
X74979667Y-63506089D01*
X75002325Y-63459324D01*
X75032368Y-63397314D01*
X75032368Y-63397313D01*
X75036282Y-63389235D01*
X75057824Y-63261189D01*
X75057961Y-63250000D01*
X75055890Y-63235533D01*
X75040826Y-63130353D01*
X75040826Y-63130351D01*
X75039553Y-63121466D01*
X74985810Y-63003264D01*
X74901052Y-62904897D01*
X74792093Y-62834273D01*
X74667691Y-62797069D01*
X74658715Y-62797014D01*
X74658714Y-62797014D01*
X74604665Y-62796684D01*
X74537848Y-62796276D01*
X74413001Y-62831958D01*
X74303186Y-62901245D01*
X74217233Y-62998569D01*
X74162050Y-63116105D01*
X74160670Y-63124970D01*
X74160669Y-63124972D01*
X74143651Y-63234273D01*
X74142073Y-63244405D01*
X69750000Y-63244405D01*
X69750000Y-56121493D01*
X69769952Y-56056227D01*
X69769667Y-56056089D01*
X69770555Y-56054257D01*
X69770556Y-56054255D01*
X69826282Y-55939235D01*
X69834365Y-55891189D01*
X69836616Y-55877811D01*
X69867643Y-55813953D01*
X69928269Y-55777007D01*
X69963179Y-55772737D01*
X69965424Y-55772778D01*
X70056605Y-55774449D01*
X70088535Y-55765744D01*
X70173216Y-55742658D01*
X70173219Y-55742657D01*
X70181878Y-55740296D01*
X70189528Y-55735599D01*
X70189530Y-55735598D01*
X70284879Y-55677054D01*
X70284882Y-55677051D01*
X70292531Y-55672355D01*
X70327002Y-55634273D01*
X70373639Y-55582749D01*
X70373640Y-55582747D01*
X70379667Y-55576089D01*
X70384543Y-55566026D01*
X70432368Y-55467314D01*
X70432368Y-55467313D01*
X70436282Y-55459235D01*
X70457824Y-55331189D01*
X70457961Y-55320000D01*
X70452430Y-55281375D01*
X70440826Y-55200353D01*
X70440826Y-55200351D01*
X70439553Y-55191466D01*
X70418505Y-55145172D01*
X70418156Y-55144405D01*
X71742073Y-55144405D01*
X71743237Y-55153307D01*
X71743237Y-55153310D01*
X71744895Y-55165986D01*
X71758909Y-55273155D01*
X71811204Y-55392004D01*
X71816981Y-55398877D01*
X71816982Y-55398878D01*
X71861001Y-55451245D01*
X71894754Y-55491399D01*
X72002843Y-55563349D01*
X72074144Y-55585625D01*
X72110774Y-55597069D01*
X72126781Y-55602070D01*
X72256605Y-55604449D01*
X72265331Y-55602070D01*
X72373216Y-55572658D01*
X72373219Y-55572657D01*
X72381878Y-55570296D01*
X72389528Y-55565599D01*
X72389530Y-55565598D01*
X72484879Y-55507054D01*
X72484882Y-55507051D01*
X72492531Y-55502355D01*
X72521636Y-55470201D01*
X72573639Y-55412749D01*
X72573640Y-55412747D01*
X72579667Y-55406089D01*
X72590869Y-55382969D01*
X72632368Y-55297314D01*
X72632368Y-55297313D01*
X72636282Y-55289235D01*
X72657824Y-55161189D01*
X72657961Y-55150000D01*
X72655890Y-55135533D01*
X72640826Y-55030353D01*
X72640826Y-55030351D01*
X72639553Y-55021466D01*
X72585810Y-54903264D01*
X72501052Y-54804897D01*
X72392093Y-54734273D01*
X72267691Y-54697069D01*
X72258715Y-54697014D01*
X72258714Y-54697014D01*
X72204665Y-54696684D01*
X72137848Y-54696276D01*
X72013001Y-54731958D01*
X71903186Y-54801245D01*
X71897244Y-54807973D01*
X71897243Y-54807974D01*
X71879093Y-54828525D01*
X71817233Y-54898569D01*
X71762050Y-55016105D01*
X71760670Y-55024970D01*
X71760669Y-55024972D01*
X71745272Y-55123862D01*
X71742073Y-55144405D01*
X70418156Y-55144405D01*
X70389526Y-55081437D01*
X70385810Y-55073264D01*
X70301052Y-54974897D01*
X70192093Y-54904273D01*
X70067691Y-54867069D01*
X70058715Y-54867014D01*
X70058714Y-54867014D01*
X70004665Y-54866684D01*
X69937848Y-54866276D01*
X69910623Y-54874057D01*
X69839628Y-54873543D01*
X69780181Y-54834729D01*
X69751156Y-54769936D01*
X69750000Y-54752907D01*
X69750000Y-53994405D01*
X70442073Y-53994405D01*
X70443237Y-54003307D01*
X70443237Y-54003310D01*
X70446907Y-54031375D01*
X70458909Y-54123155D01*
X70511204Y-54242004D01*
X70516981Y-54248877D01*
X70516982Y-54248878D01*
X70587987Y-54333349D01*
X70594754Y-54341399D01*
X70602231Y-54346376D01*
X70689407Y-54404405D01*
X70702843Y-54413349D01*
X70826781Y-54452070D01*
X70956605Y-54454449D01*
X70965331Y-54452070D01*
X71073216Y-54422658D01*
X71073219Y-54422657D01*
X71081878Y-54420296D01*
X71089528Y-54415599D01*
X71089530Y-54415598D01*
X71184879Y-54357054D01*
X71184882Y-54357051D01*
X71192531Y-54352355D01*
X71203447Y-54340296D01*
X71273639Y-54262749D01*
X71273640Y-54262747D01*
X71279667Y-54256089D01*
X71284702Y-54245698D01*
X71332368Y-54147314D01*
X71332368Y-54147313D01*
X71336282Y-54139235D01*
X71357824Y-54011189D01*
X71357961Y-54000000D01*
X71356810Y-53991958D01*
X71340826Y-53880353D01*
X71340826Y-53880351D01*
X71339553Y-53871466D01*
X71285810Y-53753264D01*
X71216878Y-53673264D01*
X71206913Y-53661699D01*
X71201052Y-53654897D01*
X71092093Y-53584273D01*
X70967691Y-53547069D01*
X70958715Y-53547014D01*
X70958714Y-53547014D01*
X70904665Y-53546684D01*
X70837848Y-53546276D01*
X70713001Y-53581958D01*
X70603186Y-53651245D01*
X70517233Y-53748569D01*
X70462050Y-53866105D01*
X70460670Y-53874970D01*
X70460669Y-53874972D01*
X70448010Y-53956276D01*
X70442073Y-53994405D01*
X69750000Y-53994405D01*
X69750000Y-53552190D01*
X69770002Y-53484069D01*
X69786905Y-53463095D01*
X70612106Y-52637894D01*
X70674418Y-52603868D01*
X70701201Y-52600989D01*
X70993806Y-52600989D01*
X71061927Y-52620991D01*
G37*
%TD.AperFunction*%
%TD*%
M02*
