%TF.GenerationSoftware,KiCad,Pcbnew,(6.0.5-0)*%
%TF.CreationDate,2025-05-14T10:57:03-04:00*%
%TF.ProjectId,SDTV2CSI,53445456-3243-4534-992e-6b696361645f,rev?*%
%TF.SameCoordinates,Original*%
%TF.FileFunction,Paste,Top*%
%TF.FilePolarity,Positive*%
%FSLAX46Y46*%
G04 Gerber Fmt 4.6, Leading zero omitted, Abs format (unit mm)*
G04 Created by KiCad (PCBNEW (6.0.5-0)) date 2025-05-14 10:57:03*
%MOMM*%
%LPD*%
G01*
G04 APERTURE LIST*
G04 Aperture macros list*
%AMRoundRect*
0 Rectangle with rounded corners*
0 $1 Rounding radius*
0 $2 $3 $4 $5 $6 $7 $8 $9 X,Y pos of 4 corners*
0 Add a 4 corners polygon primitive as box body*
4,1,4,$2,$3,$4,$5,$6,$7,$8,$9,$2,$3,0*
0 Add four circle primitives for the rounded corners*
1,1,$1+$1,$2,$3*
1,1,$1+$1,$4,$5*
1,1,$1+$1,$6,$7*
1,1,$1+$1,$8,$9*
0 Add four rect primitives between the rounded corners*
20,1,$1+$1,$2,$3,$4,$5,0*
20,1,$1+$1,$4,$5,$6,$7,0*
20,1,$1+$1,$6,$7,$8,$9,0*
20,1,$1+$1,$8,$9,$2,$3,0*%
G04 Aperture macros list end*
%ADD10C,0.010000*%
%ADD11RoundRect,0.062500X-0.075000X-0.062500X0.075000X-0.062500X0.075000X0.062500X-0.075000X0.062500X0*%
%ADD12RoundRect,0.062500X0.062500X-0.075000X0.062500X0.075000X-0.062500X0.075000X-0.062500X-0.075000X0*%
%ADD13RoundRect,0.062500X0.075000X0.062500X-0.075000X0.062500X-0.075000X-0.062500X0.075000X-0.062500X0*%
%ADD14RoundRect,0.250000X-0.250000X-0.475000X0.250000X-0.475000X0.250000X0.475000X-0.250000X0.475000X0*%
%ADD15R,0.300000X1.200000*%
%ADD16RoundRect,0.150000X-0.150000X0.512500X-0.150000X-0.512500X0.150000X-0.512500X0.150000X0.512500X0*%
%ADD17RoundRect,0.062500X-0.062500X0.075000X-0.062500X-0.075000X0.062500X-0.075000X0.062500X0.075000X0*%
%ADD18R,1.200000X0.300000*%
%ADD19R,0.660400X1.549400*%
%ADD20R,1.295400X1.905000*%
%ADD21R,0.254000X0.812800*%
%ADD22R,0.812800X0.254000*%
%ADD23RoundRect,0.150000X-0.150000X0.587500X-0.150000X-0.587500X0.150000X-0.587500X0.150000X0.587500X0*%
%ADD24R,1.200000X1.400000*%
G04 APERTURE END LIST*
%TO.C,F3*%
G36*
X73250000Y-53400000D02*
G01*
X72800000Y-53400000D01*
X72700000Y-53100000D01*
X72700000Y-52900000D01*
X72800000Y-52600000D01*
X73250000Y-52600000D01*
X73250000Y-53400000D01*
G37*
D10*
X73250000Y-53400000D02*
X72800000Y-53400000D01*
X72700000Y-53100000D01*
X72700000Y-52900000D01*
X72800000Y-52600000D01*
X73250000Y-52600000D01*
X73250000Y-53400000D01*
G36*
X71800000Y-52900000D02*
G01*
X71800000Y-53100000D01*
X71700000Y-53400000D01*
X71250000Y-53400000D01*
X71250000Y-52600000D01*
X71700000Y-52600000D01*
X71800000Y-52900000D01*
G37*
X71800000Y-52900000D02*
X71800000Y-53100000D01*
X71700000Y-53400000D01*
X71250000Y-53400000D01*
X71250000Y-52600000D01*
X71700000Y-52600000D01*
X71800000Y-52900000D01*
%TO.C,F2*%
G36*
X70400000Y-54550000D02*
G01*
X70400000Y-55000000D01*
X69600000Y-55000000D01*
X69600000Y-54550000D01*
X69900000Y-54450000D01*
X70100000Y-54450000D01*
X70400000Y-54550000D01*
G37*
X70400000Y-54550000D02*
X70400000Y-55000000D01*
X69600000Y-55000000D01*
X69600000Y-54550000D01*
X69900000Y-54450000D01*
X70100000Y-54450000D01*
X70400000Y-54550000D01*
G36*
X70400000Y-53450000D02*
G01*
X70100000Y-53550000D01*
X69900000Y-53550000D01*
X69600000Y-53450000D01*
X69600000Y-53000000D01*
X70400000Y-53000000D01*
X70400000Y-53450000D01*
G37*
X70400000Y-53450000D02*
X70100000Y-53550000D01*
X69900000Y-53550000D01*
X69600000Y-53450000D01*
X69600000Y-53000000D01*
X70400000Y-53000000D01*
X70400000Y-53450000D01*
%TO.C,F4*%
G36*
X70650000Y-65300000D02*
G01*
X70650000Y-65750000D01*
X69850000Y-65750000D01*
X69850000Y-65300000D01*
X70150000Y-65200000D01*
X70350000Y-65200000D01*
X70650000Y-65300000D01*
G37*
X70650000Y-65300000D02*
X70650000Y-65750000D01*
X69850000Y-65750000D01*
X69850000Y-65300000D01*
X70150000Y-65200000D01*
X70350000Y-65200000D01*
X70650000Y-65300000D01*
G36*
X70650000Y-64200000D02*
G01*
X70350000Y-64300000D01*
X70150000Y-64300000D01*
X69850000Y-64200000D01*
X69850000Y-63750000D01*
X70650000Y-63750000D01*
X70650000Y-64200000D01*
G37*
X70650000Y-64200000D02*
X70350000Y-64300000D01*
X70150000Y-64300000D01*
X69850000Y-64200000D01*
X69850000Y-63750000D01*
X70650000Y-63750000D01*
X70650000Y-64200000D01*
%TO.C,F1*%
G36*
X76250000Y-53400000D02*
G01*
X75800000Y-53400000D01*
X75700000Y-53100000D01*
X75700000Y-52900000D01*
X75800000Y-52600000D01*
X76250000Y-52600000D01*
X76250000Y-53400000D01*
G37*
X76250000Y-53400000D02*
X75800000Y-53400000D01*
X75700000Y-53100000D01*
X75700000Y-52900000D01*
X75800000Y-52600000D01*
X76250000Y-52600000D01*
X76250000Y-53400000D01*
G36*
X74800000Y-52900000D02*
G01*
X74800000Y-53100000D01*
X74700000Y-53400000D01*
X74250000Y-53400000D01*
X74250000Y-52600000D01*
X74700000Y-52600000D01*
X74800000Y-52900000D01*
G37*
X74800000Y-52900000D02*
X74800000Y-53100000D01*
X74700000Y-53400000D01*
X74250000Y-53400000D01*
X74250000Y-52600000D01*
X74700000Y-52600000D01*
X74800000Y-52900000D01*
%TO.C,U1*%
G36*
X72450000Y-60329600D02*
G01*
X71170400Y-60329600D01*
X71170400Y-59050000D01*
X72450000Y-59050000D01*
X72450000Y-60329600D01*
G37*
G36*
X74329600Y-60329600D02*
G01*
X73050000Y-60329600D01*
X73050000Y-59050000D01*
X74329600Y-59050000D01*
X74329600Y-60329600D01*
G37*
G36*
X72450000Y-58450000D02*
G01*
X71170400Y-58450000D01*
X71170400Y-57170400D01*
X72450000Y-57170400D01*
X72450000Y-58450000D01*
G37*
G36*
X74329600Y-58450000D02*
G01*
X73050000Y-58450000D01*
X73050000Y-57170400D01*
X74329600Y-57170400D01*
X74329600Y-58450000D01*
G37*
%TO.C,F5*%
G36*
X75900000Y-62700000D02*
G01*
X75600000Y-62800000D01*
X75400000Y-62800000D01*
X75100000Y-62700000D01*
X75100000Y-62250000D01*
X75900000Y-62250000D01*
X75900000Y-62700000D01*
G37*
X75900000Y-62700000D02*
X75600000Y-62800000D01*
X75400000Y-62800000D01*
X75100000Y-62700000D01*
X75100000Y-62250000D01*
X75900000Y-62250000D01*
X75900000Y-62700000D01*
G36*
X75900000Y-63800000D02*
G01*
X75900000Y-64250000D01*
X75100000Y-64250000D01*
X75100000Y-63800000D01*
X75400000Y-63700000D01*
X75600000Y-63700000D01*
X75900000Y-63800000D01*
G37*
X75900000Y-63800000D02*
X75900000Y-64250000D01*
X75100000Y-64250000D01*
X75100000Y-63800000D01*
X75400000Y-63700000D01*
X75600000Y-63700000D01*
X75900000Y-63800000D01*
%TD*%
D11*
%TO.C,C10*%
X73840000Y-63000000D03*
X73360000Y-63000000D03*
%TD*%
D12*
%TO.C,C17*%
X64200000Y-64990000D03*
X64200000Y-64510000D03*
%TD*%
D13*
%TO.C,C1*%
X74640000Y-55200000D03*
X74160000Y-55200000D03*
%TD*%
D11*
%TO.C,R2*%
X71760000Y-64500000D03*
X72240000Y-64500000D03*
%TD*%
%TO.C,R1*%
X71760000Y-65250000D03*
X72240000Y-65250000D03*
%TD*%
D13*
%TO.C,C6*%
X73340000Y-54500000D03*
X72860000Y-54500000D03*
%TD*%
D14*
%TO.C,C15*%
X55550000Y-70750000D03*
X57450000Y-70750000D03*
%TD*%
D15*
%TO.C,F3*%
X72250000Y-53000000D03*
%TD*%
D11*
%TO.C,C16*%
X65990000Y-66700000D03*
X65510000Y-66700000D03*
%TD*%
D16*
%TO.C,U2*%
X57450000Y-66112500D03*
X56500000Y-66112500D03*
X55550000Y-66112500D03*
X55550000Y-68387500D03*
X57450000Y-68387500D03*
%TD*%
D13*
%TO.C,R3*%
X73510000Y-65250000D03*
X73990000Y-65250000D03*
%TD*%
%TO.C,C13*%
X72010000Y-62300000D03*
X72490000Y-62300000D03*
%TD*%
D17*
%TO.C,R6*%
X76000000Y-55010000D03*
X76000000Y-55490000D03*
%TD*%
D14*
%TO.C,C14*%
X55550000Y-63750000D03*
X57450000Y-63750000D03*
%TD*%
D18*
%TO.C,F2*%
X70000000Y-54000000D03*
%TD*%
%TO.C,F4*%
X70250000Y-64750000D03*
%TD*%
D13*
%TO.C,D4*%
X73510000Y-66000000D03*
X73990000Y-66000000D03*
%TD*%
%TO.C,R7*%
X76990000Y-58500000D03*
X76510000Y-58500000D03*
%TD*%
D17*
%TO.C,C4*%
X68250000Y-59260000D03*
X68250000Y-59740000D03*
%TD*%
%TO.C,R5*%
X76500000Y-59990000D03*
X76500000Y-59510000D03*
%TD*%
D12*
%TO.C,R9*%
X53250000Y-66260000D03*
X53250000Y-66740000D03*
%TD*%
D13*
%TO.C,R4*%
X73510000Y-64500000D03*
X73990000Y-64500000D03*
%TD*%
D19*
%TO.C,J2*%
X69655750Y-67901500D03*
X70655751Y-67901500D03*
X71655749Y-67901500D03*
X72655750Y-67901500D03*
D20*
X73955749Y-71776501D03*
X68355751Y-71776501D03*
%TD*%
D15*
%TO.C,F1*%
X75250000Y-53000000D03*
%TD*%
D12*
%TO.C,C3*%
X69000000Y-59490000D03*
X69000000Y-59010000D03*
%TD*%
D17*
%TO.C,C11*%
X71000000Y-62510000D03*
X71000000Y-62990000D03*
%TD*%
D11*
%TO.C,C12*%
X72240000Y-63000000D03*
X71760000Y-63000000D03*
%TD*%
D21*
%TO.C,U1*%
X74499999Y-56298900D03*
X74000000Y-56298900D03*
X73500001Y-56298900D03*
X73000000Y-56298900D03*
X72500000Y-56298900D03*
X71999999Y-56298900D03*
X71500000Y-56298900D03*
X71000001Y-56298900D03*
D22*
X70298900Y-57000001D03*
X70298900Y-57500000D03*
X70298900Y-57999999D03*
X70298900Y-58500000D03*
X70298900Y-59000000D03*
X70298900Y-59500001D03*
X70298900Y-60000000D03*
X70298900Y-60499999D03*
D21*
X71000001Y-61201100D03*
X71500000Y-61201100D03*
X71999999Y-61201100D03*
X72500000Y-61201100D03*
X73000000Y-61201100D03*
X73500001Y-61201100D03*
X74000000Y-61201100D03*
X74499999Y-61201100D03*
D22*
X75201100Y-60499999D03*
X75201100Y-60000000D03*
X75201100Y-59500001D03*
X75201100Y-59000000D03*
X75201100Y-58500000D03*
X75201100Y-57999999D03*
X75201100Y-57500000D03*
X75201100Y-57000001D03*
%TD*%
D11*
%TO.C,D2*%
X59490000Y-70750000D03*
X59010000Y-70750000D03*
%TD*%
D18*
%TO.C,F5*%
X75500000Y-63250000D03*
%TD*%
D11*
%TO.C,C5*%
X73340000Y-55200000D03*
X72860000Y-55200000D03*
%TD*%
%TO.C,C2*%
X74160000Y-54500000D03*
X74640000Y-54500000D03*
%TD*%
D23*
%TO.C,D5*%
X53700000Y-68312500D03*
X51800000Y-68312500D03*
X52750000Y-70187500D03*
%TD*%
D11*
%TO.C,D3*%
X71760000Y-66000000D03*
X72240000Y-66000000D03*
%TD*%
D12*
%TO.C,R11*%
X52250000Y-66260000D03*
X52250000Y-66740000D03*
%TD*%
D13*
%TO.C,C9*%
X73360000Y-62300000D03*
X73840000Y-62300000D03*
%TD*%
D17*
%TO.C,D1*%
X61500000Y-70010000D03*
X61500000Y-70490000D03*
%TD*%
D12*
%TO.C,R10*%
X54000000Y-66740000D03*
X54000000Y-66260000D03*
%TD*%
D11*
%TO.C,C7*%
X69760000Y-62250000D03*
X70240000Y-62250000D03*
%TD*%
D13*
%TO.C,C8*%
X70240000Y-63000000D03*
X69760000Y-63000000D03*
%TD*%
D11*
%TO.C,R8*%
X66990000Y-61800000D03*
X66510000Y-61800000D03*
%TD*%
D24*
%TO.C,Y1*%
X67050000Y-65350000D03*
X67050000Y-63150000D03*
X65450000Y-63150000D03*
X65450000Y-65350000D03*
%TD*%
M02*
