%TF.GenerationSoftware,KiCad,Pcbnew,(6.0.5-0)*%
%TF.CreationDate,2024-08-15T15:02:20-04:00*%
%TF.ProjectId,SDTV2CSI,53445456-3243-4534-992e-6b696361645f,rev?*%
%TF.SameCoordinates,Original*%
%TF.FileFunction,Copper,L4,Bot*%
%TF.FilePolarity,Positive*%
%FSLAX46Y46*%
G04 Gerber Fmt 4.6, Leading zero omitted, Abs format (unit mm)*
G04 Created by KiCad (PCBNEW (6.0.5-0)) date 2024-08-15 15:02:20*
%MOMM*%
%LPD*%
G01*
G04 APERTURE LIST*
%TA.AperFunction,ComponentPad*%
%ADD10C,1.250000*%
%TD*%
%TA.AperFunction,ComponentPad*%
%ADD11C,2.050000*%
%TD*%
%TA.AperFunction,ComponentPad*%
%ADD12C,2.250000*%
%TD*%
%TA.AperFunction,ViaPad*%
%ADD13C,0.600000*%
%TD*%
%TA.AperFunction,ViaPad*%
%ADD14C,0.800000*%
%TD*%
%TA.AperFunction,Conductor*%
%ADD15C,1.000000*%
%TD*%
%TA.AperFunction,Conductor*%
%ADD16C,0.250000*%
%TD*%
G04 APERTURE END LIST*
D10*
%TO.P,J3,1*%
%TO.N,GND*%
X150500000Y-68000000D03*
%TO.P,J3,2*%
%TO.N,CD0-*%
X152500000Y-67000000D03*
%TO.P,J3,3*%
%TO.N,CD0+*%
X150500000Y-66000000D03*
%TO.P,J3,4*%
%TO.N,GND*%
X152500000Y-65000000D03*
%TO.P,J3,5*%
%TO.N,CD1-*%
X150500000Y-64000000D03*
%TO.P,J3,6*%
%TO.N,CD1+*%
X152500000Y-63000000D03*
%TO.P,J3,7*%
%TO.N,GND*%
X150500000Y-62000000D03*
%TO.P,J3,8*%
%TO.N,CLK-*%
X152500000Y-61000000D03*
%TO.P,J3,9*%
%TO.N,CLK+*%
X150500000Y-60000000D03*
%TO.P,J3,10*%
%TO.N,GND*%
X152500000Y-59000000D03*
%TO.P,J3,11*%
%TO.N,PWR_EN*%
X150500000Y-57999998D03*
%TO.P,J3,12*%
%TO.N,LED_EN*%
X152500000Y-57000000D03*
%TO.P,J3,13*%
%TO.N,SCL*%
X150500000Y-56000000D03*
%TO.P,J3,14*%
%TO.N,SDA*%
X152500000Y-55000000D03*
%TO.P,J3,15*%
%TO.N,+3V3*%
X150500000Y-54000000D03*
%TD*%
D11*
%TO.P,J2,1,In*%
%TO.N,video_in2*%
X122960000Y-67960000D03*
D12*
%TO.P,J2,2,Ext*%
%TO.N,GND*%
X120420000Y-65420000D03*
X125500000Y-70500000D03*
X125500000Y-65420000D03*
X120420000Y-70500000D03*
%TD*%
D11*
%TO.P,J1,1,In*%
%TO.N,video_in1*%
X112500000Y-67000000D03*
D12*
%TO.P,J1,2,Ext*%
%TO.N,GND*%
X109960000Y-64460000D03*
X109960000Y-69540000D03*
X115040000Y-64460000D03*
X115040000Y-69540000D03*
%TD*%
D13*
%TO.N,GND*%
X147930000Y-56800000D03*
X157250000Y-50500000D03*
X130820000Y-68940000D03*
D14*
X99800000Y-67930000D03*
X159650000Y-54750000D03*
D13*
X145420000Y-60440000D03*
X148940000Y-50740000D03*
D14*
X136000000Y-51250000D03*
X161200000Y-53670000D03*
D13*
X139190000Y-68320000D03*
D14*
X135190000Y-66750000D03*
D13*
X141600000Y-58530000D03*
D14*
X134750000Y-55750000D03*
D13*
X133670000Y-68930000D03*
D14*
X132410000Y-56340000D03*
X158320000Y-70240000D03*
D13*
X145860000Y-66480000D03*
D14*
X134600000Y-58990000D03*
X142230000Y-63990000D03*
X156500000Y-55600000D03*
D13*
X128595000Y-63440000D03*
X141845000Y-68060000D03*
D14*
X147600000Y-58650000D03*
D13*
X144695000Y-68070000D03*
D14*
X160860000Y-67480000D03*
X161200000Y-50480000D03*
X105360000Y-62460000D03*
D13*
X144500000Y-62890000D03*
D14*
X162380000Y-71690000D03*
X137200000Y-50650000D03*
D13*
X130820000Y-68060000D03*
X139180000Y-71170000D03*
X153930000Y-53170000D03*
X128595000Y-62560000D03*
X144000000Y-50720000D03*
X143750000Y-52702300D03*
X149150000Y-54340000D03*
X132750000Y-64170000D03*
X131445000Y-63430000D03*
X133670000Y-68070000D03*
X138170000Y-55560000D03*
X144670000Y-56120000D03*
D14*
X100460000Y-71770000D03*
X152975000Y-69100000D03*
X156590000Y-65490000D03*
X131280000Y-65180000D03*
D13*
X141845000Y-68940000D03*
X153060000Y-50320000D03*
X148750000Y-58175000D03*
D14*
X162500000Y-58500000D03*
D13*
X131445000Y-62570000D03*
D14*
X136450000Y-67820000D03*
D13*
X153530000Y-62000000D03*
X153070000Y-53170000D03*
X139410000Y-56080000D03*
D14*
X131620000Y-72350000D03*
D13*
X142390000Y-55630000D03*
X141710000Y-54550000D03*
X144695000Y-68930000D03*
D14*
X124230000Y-61810000D03*
X145120000Y-58660000D03*
X135800000Y-64100000D03*
D13*
X153940000Y-50320000D03*
X138310000Y-68320000D03*
D14*
X161450000Y-57240000D03*
X142050000Y-53170000D03*
X161450000Y-59760000D03*
X145860000Y-64110000D03*
D13*
X144790000Y-59760000D03*
D14*
X128990000Y-66150000D03*
X162230000Y-51750000D03*
X148880000Y-64110000D03*
D13*
X138320000Y-71170000D03*
X122850000Y-64090000D03*
X147660000Y-67330000D03*
X147890000Y-52702300D03*
X149280000Y-55610000D03*
D14*
%TO.N,+1V8*%
X159600000Y-57200000D03*
X158650000Y-57500000D03*
X157975000Y-58225000D03*
X141250000Y-70650000D03*
X142440000Y-70650000D03*
X133200000Y-70650000D03*
X130000000Y-65500000D03*
D13*
%TO.N,PWR_EN*%
X134630000Y-60000000D03*
%TO.N,SCL*%
X135080000Y-62752300D03*
%TO.N,SDA*%
X135080000Y-62000000D03*
%TO.N,DVDDIO*%
X140240000Y-66820000D03*
X133490000Y-63680000D03*
D14*
X150750000Y-51750000D03*
X136980000Y-66890000D03*
X149850000Y-51750000D03*
D13*
%TO.N,MVDD*%
X143250000Y-66110000D03*
X144610000Y-60590000D03*
%TO.N,PVDD*%
X131220000Y-61400000D03*
X141156787Y-55106787D03*
%TD*%
D15*
%TO.N,DVDDIO*%
X149850000Y-51750000D02*
X150750000Y-51750000D01*
D16*
%TO.N,PWR_EN*%
X152010000Y-56070000D02*
X151500000Y-56580000D01*
X150552689Y-57502689D02*
X150590000Y-57540000D01*
X152057689Y-53097689D02*
X153450000Y-54490000D01*
X140700000Y-53930000D02*
X148730000Y-53930000D01*
X149562311Y-53097689D02*
X152057689Y-53097689D01*
X152990000Y-56070000D02*
X152010000Y-56070000D01*
X151500000Y-56999998D02*
X150500000Y-57999998D01*
X153450000Y-55610000D02*
X152990000Y-56070000D01*
X151500000Y-56580000D02*
X151500000Y-56999998D01*
X134630000Y-60000000D02*
X140700000Y-53930000D01*
X153450000Y-54490000D02*
X153450000Y-55610000D01*
X148730000Y-53930000D02*
X149562311Y-53097689D01*
%TO.N,SCL*%
X135144142Y-62752300D02*
X135080000Y-62752300D01*
X140429131Y-57467311D02*
X135144142Y-62752300D01*
X149032689Y-57467311D02*
X140429131Y-57467311D01*
X150500000Y-56000000D02*
X149032689Y-57467311D01*
%TO.N,SDA*%
X142080000Y-55000000D02*
X152500000Y-55000000D01*
X135080000Y-62000000D02*
X142080000Y-55000000D01*
%TO.N,MVDD*%
X144610000Y-60590000D02*
X143250000Y-61950000D01*
X143250000Y-61950000D02*
X143250000Y-66110000D01*
%TO.N,PVDD*%
X134610000Y-61400000D02*
X135111034Y-61400000D01*
X140980000Y-55531034D02*
X140980000Y-55110000D01*
X134863574Y-61400000D02*
X134610000Y-61400000D01*
X134610000Y-61400000D02*
X131220000Y-61400000D01*
X135111034Y-61400000D02*
X140900517Y-55610517D01*
X140900517Y-55610517D02*
X141280517Y-55230517D01*
X140900517Y-55610517D02*
X140980000Y-55531034D01*
%TD*%
%TA.AperFunction,Conductor*%
%TO.N,GND*%
G36*
X160735170Y-49205613D02*
G01*
X160741380Y-49207041D01*
X160741381Y-49207041D01*
X160749635Y-49208939D01*
X160757970Y-49207053D01*
X160778784Y-49205316D01*
X161058872Y-49221046D01*
X161067245Y-49221990D01*
X161368078Y-49273103D01*
X161376293Y-49274978D01*
X161577702Y-49333003D01*
X161669498Y-49359449D01*
X161677458Y-49362234D01*
X161959367Y-49479005D01*
X161966965Y-49482664D01*
X162234029Y-49630265D01*
X162241169Y-49634752D01*
X162490022Y-49811322D01*
X162496615Y-49816580D01*
X162724134Y-50019903D01*
X162730097Y-50025866D01*
X162933420Y-50253385D01*
X162938678Y-50259978D01*
X163115248Y-50508831D01*
X163119735Y-50515971D01*
X163267336Y-50783035D01*
X163270995Y-50790633D01*
X163387766Y-51072542D01*
X163390551Y-51080501D01*
X163429502Y-51215702D01*
X163475021Y-51373703D01*
X163476897Y-51381922D01*
X163525111Y-51665691D01*
X163528010Y-51682752D01*
X163528954Y-51691132D01*
X163544656Y-51970738D01*
X163542960Y-51990649D01*
X163542959Y-51991382D01*
X163541061Y-51999635D01*
X163542930Y-52007895D01*
X163544446Y-52014595D01*
X163546300Y-52031191D01*
X163546300Y-69968318D01*
X163544387Y-69985170D01*
X163541061Y-69999635D01*
X163542930Y-70007893D01*
X163542947Y-70007968D01*
X163544684Y-70028784D01*
X163538436Y-70140034D01*
X163528954Y-70308869D01*
X163528010Y-70317245D01*
X163496459Y-70502948D01*
X163476898Y-70618075D01*
X163475022Y-70626293D01*
X163407702Y-70859966D01*
X163390551Y-70919498D01*
X163387766Y-70927458D01*
X163270995Y-71209367D01*
X163267336Y-71216965D01*
X163119735Y-71484029D01*
X163115248Y-71491169D01*
X162938678Y-71740022D01*
X162933420Y-71746615D01*
X162730097Y-71974134D01*
X162724134Y-71980097D01*
X162496615Y-72183420D01*
X162490022Y-72188678D01*
X162241169Y-72365248D01*
X162234029Y-72369735D01*
X161966965Y-72517336D01*
X161959367Y-72520995D01*
X161677458Y-72637766D01*
X161669499Y-72640551D01*
X161376293Y-72725022D01*
X161368078Y-72726897D01*
X161067245Y-72778010D01*
X161058870Y-72778954D01*
X161000583Y-72782227D01*
X160779262Y-72794656D01*
X160759351Y-72792960D01*
X160758618Y-72792959D01*
X160750365Y-72791061D01*
X160742105Y-72792930D01*
X160735405Y-72794446D01*
X160718809Y-72796300D01*
X101781682Y-72796300D01*
X101764830Y-72794387D01*
X101758620Y-72792959D01*
X101758619Y-72792959D01*
X101750365Y-72791061D01*
X101742030Y-72792947D01*
X101721216Y-72794684D01*
X101441128Y-72778954D01*
X101432755Y-72778010D01*
X101131922Y-72726897D01*
X101123707Y-72725022D01*
X100830501Y-72640551D01*
X100822542Y-72637766D01*
X100540633Y-72520995D01*
X100533035Y-72517336D01*
X100265971Y-72369735D01*
X100258831Y-72365248D01*
X100009978Y-72188678D01*
X100003385Y-72183420D01*
X99775866Y-71980097D01*
X99769903Y-71974134D01*
X99628486Y-71815888D01*
X119462895Y-71815888D01*
X119463983Y-71819950D01*
X119464406Y-71820257D01*
X119677472Y-71950823D01*
X119682707Y-71953491D01*
X119913561Y-72049114D01*
X119919176Y-72050938D01*
X120162134Y-72109267D01*
X120167954Y-72110189D01*
X120417052Y-72129793D01*
X120422948Y-72129793D01*
X120672046Y-72110189D01*
X120677866Y-72109267D01*
X120920824Y-72050938D01*
X120926439Y-72049114D01*
X121157293Y-71953491D01*
X121162528Y-71950823D01*
X121373141Y-71821760D01*
X121376463Y-71815888D01*
X124542895Y-71815888D01*
X124543983Y-71819950D01*
X124544406Y-71820257D01*
X124757472Y-71950823D01*
X124762707Y-71953491D01*
X124993561Y-72049114D01*
X124999176Y-72050938D01*
X125242134Y-72109267D01*
X125247954Y-72110189D01*
X125497052Y-72129793D01*
X125502948Y-72129793D01*
X125752046Y-72110189D01*
X125757866Y-72109267D01*
X126000824Y-72050938D01*
X126006439Y-72049114D01*
X126237293Y-71953491D01*
X126242528Y-71950823D01*
X126453141Y-71821760D01*
X126457153Y-71814669D01*
X126456252Y-71809805D01*
X125509377Y-70862930D01*
X125499578Y-70858361D01*
X125493587Y-70859966D01*
X124547464Y-71806089D01*
X124542895Y-71815888D01*
X121376463Y-71815888D01*
X121377153Y-71814669D01*
X121376252Y-71809805D01*
X120429377Y-70862930D01*
X120419578Y-70858361D01*
X120413587Y-70859966D01*
X119467464Y-71806089D01*
X119462895Y-71815888D01*
X99628486Y-71815888D01*
X99566580Y-71746615D01*
X99561322Y-71740022D01*
X99384752Y-71491169D01*
X99380265Y-71484029D01*
X99232664Y-71216965D01*
X99229005Y-71209367D01*
X99112234Y-70927458D01*
X99109449Y-70919498D01*
X99092298Y-70859966D01*
X99024978Y-70626293D01*
X99023102Y-70618075D01*
X99003542Y-70502948D01*
X98971990Y-70317245D01*
X98971046Y-70308869D01*
X98966243Y-70223343D01*
X98955357Y-70029501D01*
X98957180Y-70008313D01*
X98958938Y-70000729D01*
X98958939Y-70000000D01*
X98955583Y-69985288D01*
X98953700Y-69968564D01*
X98953700Y-69500000D01*
X100619474Y-69500000D01*
X100639548Y-69755070D01*
X100640238Y-69757944D01*
X100698436Y-70000351D01*
X100699278Y-70003860D01*
X100700408Y-70006589D01*
X100700410Y-70006594D01*
X100724074Y-70063723D01*
X100797191Y-70240243D01*
X100930877Y-70458399D01*
X101097044Y-70652956D01*
X101291601Y-70819123D01*
X101509757Y-70952809D01*
X101512479Y-70953936D01*
X101512480Y-70953937D01*
X101743406Y-71049590D01*
X101743411Y-71049592D01*
X101746140Y-71050722D01*
X101749017Y-71051413D01*
X101749021Y-71051414D01*
X101906052Y-71089114D01*
X101994930Y-71110452D01*
X101997874Y-71110684D01*
X101997876Y-71110684D01*
X102184659Y-71125384D01*
X102184667Y-71125384D01*
X102186137Y-71125500D01*
X102313863Y-71125500D01*
X102315333Y-71125384D01*
X102315341Y-71125384D01*
X102502124Y-71110684D01*
X102502126Y-71110684D01*
X102505070Y-71110452D01*
X102593948Y-71089114D01*
X102750979Y-71051414D01*
X102750983Y-71051413D01*
X102753860Y-71050722D01*
X102756589Y-71049592D01*
X102756594Y-71049590D01*
X102987520Y-70953937D01*
X102987521Y-70953936D01*
X102990243Y-70952809D01*
X103148404Y-70855888D01*
X109002895Y-70855888D01*
X109003983Y-70859950D01*
X109004406Y-70860257D01*
X109217472Y-70990823D01*
X109222707Y-70993491D01*
X109453561Y-71089114D01*
X109459176Y-71090938D01*
X109702134Y-71149267D01*
X109707954Y-71150189D01*
X109957052Y-71169793D01*
X109962948Y-71169793D01*
X110212046Y-71150189D01*
X110217866Y-71149267D01*
X110460824Y-71090938D01*
X110466439Y-71089114D01*
X110697293Y-70993491D01*
X110702528Y-70990823D01*
X110913141Y-70861760D01*
X110916463Y-70855888D01*
X114082895Y-70855888D01*
X114083983Y-70859950D01*
X114084406Y-70860257D01*
X114297472Y-70990823D01*
X114302707Y-70993491D01*
X114533561Y-71089114D01*
X114539176Y-71090938D01*
X114782134Y-71149267D01*
X114787954Y-71150189D01*
X115037052Y-71169793D01*
X115042948Y-71169793D01*
X115292046Y-71150189D01*
X115297866Y-71149267D01*
X115540824Y-71090938D01*
X115546439Y-71089114D01*
X115777293Y-70993491D01*
X115782528Y-70990823D01*
X115993141Y-70861760D01*
X115997153Y-70854669D01*
X115996252Y-70849805D01*
X115649395Y-70502948D01*
X118790207Y-70502948D01*
X118809811Y-70752046D01*
X118810733Y-70757866D01*
X118869062Y-71000824D01*
X118870886Y-71006439D01*
X118966509Y-71237293D01*
X118969177Y-71242528D01*
X119098240Y-71453141D01*
X119105331Y-71457153D01*
X119110195Y-71456252D01*
X120057070Y-70509377D01*
X120061245Y-70500422D01*
X120778361Y-70500422D01*
X120779966Y-70506413D01*
X121726089Y-71452536D01*
X121735888Y-71457105D01*
X121739950Y-71456017D01*
X121740257Y-71455594D01*
X121870823Y-71242528D01*
X121873491Y-71237293D01*
X121969114Y-71006439D01*
X121970938Y-71000824D01*
X122029267Y-70757866D01*
X122030189Y-70752046D01*
X122049793Y-70502948D01*
X123870207Y-70502948D01*
X123889811Y-70752046D01*
X123890733Y-70757866D01*
X123949062Y-71000824D01*
X123950886Y-71006439D01*
X124046509Y-71237293D01*
X124049177Y-71242528D01*
X124178240Y-71453141D01*
X124185331Y-71457153D01*
X124190195Y-71456252D01*
X125137070Y-70509377D01*
X125141245Y-70500422D01*
X125858361Y-70500422D01*
X125859966Y-70506413D01*
X126806089Y-71452536D01*
X126815888Y-71457105D01*
X126819950Y-71456017D01*
X126820257Y-71455594D01*
X126950823Y-71242528D01*
X126953491Y-71237293D01*
X127049114Y-71006439D01*
X127050938Y-71000824D01*
X127109267Y-70757866D01*
X127110189Y-70752046D01*
X127118220Y-70650000D01*
X132591091Y-70650000D01*
X132591734Y-70654884D01*
X132604526Y-70752046D01*
X132611839Y-70807597D01*
X132672669Y-70954454D01*
X132769436Y-71080564D01*
X132773343Y-71083562D01*
X132808387Y-71110452D01*
X132895545Y-71177331D01*
X132968974Y-71207746D01*
X133037854Y-71236277D01*
X133037856Y-71236277D01*
X133042403Y-71238161D01*
X133047281Y-71238803D01*
X133047284Y-71238804D01*
X133195116Y-71258266D01*
X133200000Y-71258909D01*
X133204884Y-71258266D01*
X133352716Y-71238804D01*
X133352719Y-71238803D01*
X133357597Y-71238161D01*
X133362144Y-71236277D01*
X133362146Y-71236277D01*
X133431026Y-71207746D01*
X133504455Y-71177331D01*
X133591613Y-71110452D01*
X133626657Y-71083562D01*
X133630564Y-71080564D01*
X133727331Y-70954454D01*
X133788161Y-70807597D01*
X133795475Y-70752046D01*
X133808266Y-70654884D01*
X133808909Y-70650000D01*
X140641091Y-70650000D01*
X140641734Y-70654884D01*
X140654526Y-70752046D01*
X140661839Y-70807597D01*
X140722669Y-70954454D01*
X140819436Y-71080564D01*
X140823343Y-71083562D01*
X140858387Y-71110452D01*
X140945545Y-71177331D01*
X141018974Y-71207746D01*
X141087854Y-71236277D01*
X141087856Y-71236277D01*
X141092403Y-71238161D01*
X141097281Y-71238803D01*
X141097284Y-71238804D01*
X141245116Y-71258266D01*
X141250000Y-71258909D01*
X141254884Y-71258266D01*
X141402716Y-71238804D01*
X141402719Y-71238803D01*
X141407597Y-71238161D01*
X141412144Y-71236277D01*
X141412146Y-71236277D01*
X141481026Y-71207746D01*
X141554455Y-71177331D01*
X141641613Y-71110452D01*
X141676657Y-71083562D01*
X141680564Y-71080564D01*
X141683562Y-71076657D01*
X141774331Y-70958364D01*
X141774333Y-70958361D01*
X141777331Y-70954454D01*
X141779216Y-70949903D01*
X141779876Y-70948760D01*
X141819282Y-70915696D01*
X141870722Y-70915698D01*
X141910124Y-70948760D01*
X141910784Y-70949903D01*
X141912669Y-70954454D01*
X141915667Y-70958361D01*
X141915669Y-70958364D01*
X142006438Y-71076657D01*
X142009436Y-71080564D01*
X142013343Y-71083562D01*
X142048387Y-71110452D01*
X142135545Y-71177331D01*
X142208974Y-71207746D01*
X142277854Y-71236277D01*
X142277856Y-71236277D01*
X142282403Y-71238161D01*
X142287281Y-71238803D01*
X142287284Y-71238804D01*
X142435116Y-71258266D01*
X142440000Y-71258909D01*
X142444884Y-71258266D01*
X142592716Y-71238804D01*
X142592719Y-71238803D01*
X142597597Y-71238161D01*
X142602144Y-71236277D01*
X142602146Y-71236277D01*
X142671026Y-71207746D01*
X142744455Y-71177331D01*
X142831613Y-71110452D01*
X142866657Y-71083562D01*
X142870564Y-71080564D01*
X142967331Y-70954454D01*
X143028161Y-70807597D01*
X143035475Y-70752046D01*
X143048266Y-70654884D01*
X143048909Y-70650000D01*
X143030396Y-70509377D01*
X143028804Y-70497284D01*
X143028803Y-70497281D01*
X143028161Y-70492403D01*
X142967331Y-70345546D01*
X142914959Y-70277293D01*
X142873562Y-70223343D01*
X142870564Y-70219436D01*
X142744455Y-70122669D01*
X142671026Y-70092254D01*
X142602146Y-70063723D01*
X142602144Y-70063723D01*
X142597597Y-70061839D01*
X142592719Y-70061197D01*
X142592716Y-70061196D01*
X142444884Y-70041734D01*
X142440000Y-70041091D01*
X142435116Y-70041734D01*
X142287284Y-70061196D01*
X142287281Y-70061197D01*
X142282403Y-70061839D01*
X142277856Y-70063723D01*
X142277854Y-70063723D01*
X142208975Y-70092254D01*
X142135546Y-70122669D01*
X142009436Y-70219436D01*
X142006438Y-70223343D01*
X141920503Y-70335337D01*
X141912669Y-70345546D01*
X141910785Y-70350095D01*
X141910124Y-70351240D01*
X141870718Y-70384304D01*
X141819278Y-70384302D01*
X141779876Y-70351240D01*
X141779215Y-70350095D01*
X141777331Y-70345546D01*
X141769498Y-70335337D01*
X141683562Y-70223343D01*
X141680564Y-70219436D01*
X141554455Y-70122669D01*
X141481026Y-70092254D01*
X141412146Y-70063723D01*
X141412144Y-70063723D01*
X141407597Y-70061839D01*
X141402719Y-70061197D01*
X141402716Y-70061196D01*
X141254884Y-70041734D01*
X141250000Y-70041091D01*
X141245116Y-70041734D01*
X141097284Y-70061196D01*
X141097281Y-70061197D01*
X141092403Y-70061839D01*
X141087856Y-70063723D01*
X141087854Y-70063723D01*
X141018975Y-70092254D01*
X140945546Y-70122669D01*
X140819436Y-70219436D01*
X140816438Y-70223343D01*
X140775041Y-70277293D01*
X140722669Y-70345546D01*
X140661839Y-70492403D01*
X140661197Y-70497281D01*
X140661196Y-70497284D01*
X140659604Y-70509377D01*
X140641091Y-70650000D01*
X133808909Y-70650000D01*
X133790396Y-70509377D01*
X133788804Y-70497284D01*
X133788803Y-70497281D01*
X133788161Y-70492403D01*
X133727331Y-70345546D01*
X133674959Y-70277293D01*
X133633562Y-70223343D01*
X133630564Y-70219436D01*
X133504455Y-70122669D01*
X133431026Y-70092254D01*
X133362146Y-70063723D01*
X133362144Y-70063723D01*
X133357597Y-70061839D01*
X133352719Y-70061197D01*
X133352716Y-70061196D01*
X133204884Y-70041734D01*
X133200000Y-70041091D01*
X133195116Y-70041734D01*
X133047284Y-70061196D01*
X133047281Y-70061197D01*
X133042403Y-70061839D01*
X133037856Y-70063723D01*
X133037854Y-70063723D01*
X132968975Y-70092254D01*
X132895546Y-70122669D01*
X132769436Y-70219436D01*
X132766438Y-70223343D01*
X132725041Y-70277293D01*
X132672669Y-70345546D01*
X132611839Y-70492403D01*
X132611197Y-70497281D01*
X132611196Y-70497284D01*
X132609604Y-70509377D01*
X132591091Y-70650000D01*
X127118220Y-70650000D01*
X127129793Y-70502948D01*
X127129793Y-70497052D01*
X127110189Y-70247954D01*
X127109267Y-70242134D01*
X127050938Y-69999176D01*
X127049114Y-69993561D01*
X126953491Y-69762707D01*
X126950823Y-69757472D01*
X126821760Y-69546859D01*
X126814669Y-69542847D01*
X126809805Y-69543748D01*
X125862930Y-70490623D01*
X125858361Y-70500422D01*
X125141245Y-70500422D01*
X125141639Y-70499578D01*
X125140034Y-70493587D01*
X124193911Y-69547464D01*
X124184112Y-69542895D01*
X124180050Y-69543983D01*
X124179743Y-69544406D01*
X124049177Y-69757472D01*
X124046509Y-69762707D01*
X123950886Y-69993561D01*
X123949062Y-69999176D01*
X123890733Y-70242134D01*
X123889811Y-70247954D01*
X123870207Y-70497052D01*
X123870207Y-70502948D01*
X122049793Y-70502948D01*
X122049793Y-70497052D01*
X122030189Y-70247954D01*
X122029267Y-70242134D01*
X121970938Y-69999176D01*
X121969114Y-69993561D01*
X121873491Y-69762707D01*
X121870823Y-69757472D01*
X121741760Y-69546859D01*
X121734669Y-69542847D01*
X121729805Y-69543748D01*
X120782930Y-70490623D01*
X120778361Y-70500422D01*
X120061245Y-70500422D01*
X120061639Y-70499578D01*
X120060034Y-70493587D01*
X119113911Y-69547464D01*
X119104112Y-69542895D01*
X119100050Y-69543983D01*
X119099743Y-69544406D01*
X118969177Y-69757472D01*
X118966509Y-69762707D01*
X118870886Y-69993561D01*
X118869062Y-69999176D01*
X118810733Y-70242134D01*
X118809811Y-70247954D01*
X118790207Y-70497052D01*
X118790207Y-70502948D01*
X115649395Y-70502948D01*
X115049377Y-69902930D01*
X115039578Y-69898361D01*
X115033587Y-69899966D01*
X114087464Y-70846089D01*
X114082895Y-70855888D01*
X110916463Y-70855888D01*
X110917153Y-70854669D01*
X110916252Y-70849805D01*
X109969377Y-69902930D01*
X109959578Y-69898361D01*
X109953587Y-69899966D01*
X109007464Y-70846089D01*
X109002895Y-70855888D01*
X103148404Y-70855888D01*
X103208399Y-70819123D01*
X103402956Y-70652956D01*
X103569123Y-70458399D01*
X103702809Y-70240243D01*
X103775926Y-70063723D01*
X103799590Y-70006594D01*
X103799592Y-70006589D01*
X103800722Y-70003860D01*
X103801565Y-70000351D01*
X103859762Y-69757944D01*
X103860452Y-69755070D01*
X103877146Y-69542948D01*
X108330207Y-69542948D01*
X108349811Y-69792046D01*
X108350733Y-69797866D01*
X108409062Y-70040824D01*
X108410886Y-70046439D01*
X108506509Y-70277293D01*
X108509177Y-70282528D01*
X108638240Y-70493141D01*
X108645331Y-70497153D01*
X108650195Y-70496252D01*
X109597070Y-69549377D01*
X109601245Y-69540422D01*
X110318361Y-69540422D01*
X110319966Y-69546413D01*
X111266089Y-70492536D01*
X111275888Y-70497105D01*
X111279950Y-70496017D01*
X111280257Y-70495594D01*
X111410823Y-70282528D01*
X111413491Y-70277293D01*
X111509114Y-70046439D01*
X111510938Y-70040824D01*
X111569267Y-69797866D01*
X111570189Y-69792046D01*
X111589793Y-69542948D01*
X113410207Y-69542948D01*
X113429811Y-69792046D01*
X113430733Y-69797866D01*
X113489062Y-70040824D01*
X113490886Y-70046439D01*
X113586509Y-70277293D01*
X113589177Y-70282528D01*
X113718240Y-70493141D01*
X113725331Y-70497153D01*
X113730195Y-70496252D01*
X114677070Y-69549377D01*
X114681245Y-69540422D01*
X115398361Y-69540422D01*
X115399966Y-69546413D01*
X116346089Y-70492536D01*
X116355888Y-70497105D01*
X116359950Y-70496017D01*
X116360257Y-70495594D01*
X116490823Y-70282528D01*
X116493491Y-70277293D01*
X116589114Y-70046439D01*
X116590938Y-70040824D01*
X116649267Y-69797866D01*
X116650189Y-69792046D01*
X116669793Y-69542948D01*
X116669793Y-69537052D01*
X116650189Y-69287954D01*
X116649267Y-69282134D01*
X116626027Y-69185331D01*
X119462847Y-69185331D01*
X119463748Y-69190195D01*
X120410623Y-70137070D01*
X120420422Y-70141639D01*
X120426413Y-70140034D01*
X121372536Y-69193911D01*
X121377105Y-69184112D01*
X121376017Y-69180050D01*
X121375594Y-69179743D01*
X121162528Y-69049177D01*
X121157293Y-69046509D01*
X120926439Y-68950886D01*
X120920824Y-68949062D01*
X120677866Y-68890733D01*
X120672046Y-68889811D01*
X120422948Y-68870207D01*
X120417052Y-68870207D01*
X120167954Y-68889811D01*
X120162134Y-68890733D01*
X119919176Y-68949062D01*
X119913561Y-68950886D01*
X119682707Y-69046509D01*
X119677472Y-69049177D01*
X119466859Y-69178240D01*
X119462847Y-69185331D01*
X116626027Y-69185331D01*
X116590938Y-69039176D01*
X116589114Y-69033561D01*
X116493491Y-68802707D01*
X116490823Y-68797472D01*
X116361760Y-68586859D01*
X116354669Y-68582847D01*
X116349805Y-68583748D01*
X115402930Y-69530623D01*
X115398361Y-69540422D01*
X114681245Y-69540422D01*
X114681639Y-69539578D01*
X114680034Y-69533587D01*
X113733911Y-68587464D01*
X113724112Y-68582895D01*
X113720050Y-68583983D01*
X113719743Y-68584406D01*
X113589177Y-68797472D01*
X113586509Y-68802707D01*
X113490886Y-69033561D01*
X113489062Y-69039176D01*
X113430733Y-69282134D01*
X113429811Y-69287954D01*
X113410207Y-69537052D01*
X113410207Y-69542948D01*
X111589793Y-69542948D01*
X111589793Y-69537052D01*
X111570189Y-69287954D01*
X111569267Y-69282134D01*
X111510938Y-69039176D01*
X111509114Y-69033561D01*
X111413491Y-68802707D01*
X111410823Y-68797472D01*
X111281760Y-68586859D01*
X111274669Y-68582847D01*
X111269805Y-68583748D01*
X110322930Y-69530623D01*
X110318361Y-69540422D01*
X109601245Y-69540422D01*
X109601639Y-69539578D01*
X109600034Y-69533587D01*
X108653911Y-68587464D01*
X108644112Y-68582895D01*
X108640050Y-68583983D01*
X108639743Y-68584406D01*
X108509177Y-68797472D01*
X108506509Y-68802707D01*
X108410886Y-69033561D01*
X108409062Y-69039176D01*
X108350733Y-69282134D01*
X108349811Y-69287954D01*
X108330207Y-69537052D01*
X108330207Y-69542948D01*
X103877146Y-69542948D01*
X103880526Y-69500000D01*
X103860452Y-69244930D01*
X103845257Y-69181639D01*
X103801414Y-68999021D01*
X103801413Y-68999017D01*
X103800722Y-68996140D01*
X103798589Y-68990989D01*
X103703937Y-68762480D01*
X103703936Y-68762479D01*
X103702809Y-68759757D01*
X103569123Y-68541601D01*
X103402956Y-68347044D01*
X103260448Y-68225331D01*
X109002847Y-68225331D01*
X109003748Y-68230195D01*
X109950623Y-69177070D01*
X109960422Y-69181639D01*
X109966413Y-69180034D01*
X110912536Y-68233911D01*
X110917105Y-68224112D01*
X110916017Y-68220050D01*
X110915594Y-68219743D01*
X110702528Y-68089177D01*
X110697293Y-68086509D01*
X110466439Y-67990886D01*
X110460824Y-67989062D01*
X110217866Y-67930733D01*
X110212046Y-67929811D01*
X109962948Y-67910207D01*
X109957052Y-67910207D01*
X109707954Y-67929811D01*
X109702134Y-67930733D01*
X109459176Y-67989062D01*
X109453561Y-67990886D01*
X109222707Y-68086509D01*
X109217472Y-68089177D01*
X109006859Y-68218240D01*
X109002847Y-68225331D01*
X103260448Y-68225331D01*
X103208399Y-68180877D01*
X102990243Y-68047191D01*
X102987520Y-68046063D01*
X102756594Y-67950410D01*
X102756589Y-67950408D01*
X102753860Y-67949278D01*
X102750983Y-67948587D01*
X102750979Y-67948586D01*
X102507944Y-67890238D01*
X102505070Y-67889548D01*
X102502126Y-67889316D01*
X102502124Y-67889316D01*
X102315341Y-67874616D01*
X102315333Y-67874616D01*
X102313863Y-67874500D01*
X102186137Y-67874500D01*
X102184667Y-67874616D01*
X102184659Y-67874616D01*
X101997876Y-67889316D01*
X101997874Y-67889316D01*
X101994930Y-67889548D01*
X101992056Y-67890238D01*
X101749021Y-67948586D01*
X101749017Y-67948587D01*
X101746140Y-67949278D01*
X101743411Y-67950408D01*
X101743406Y-67950410D01*
X101512480Y-68046063D01*
X101509757Y-68047191D01*
X101291601Y-68180877D01*
X101097044Y-68347044D01*
X100930877Y-68541601D01*
X100797191Y-68759757D01*
X100796064Y-68762479D01*
X100796063Y-68762480D01*
X100701412Y-68990989D01*
X100699278Y-68996140D01*
X100698587Y-68999017D01*
X100698586Y-68999021D01*
X100654743Y-69181639D01*
X100639548Y-69244930D01*
X100619474Y-69500000D01*
X98953700Y-69500000D01*
X98953700Y-68781929D01*
X98955642Y-68764949D01*
X98956845Y-68759757D01*
X98958938Y-68750729D01*
X98958939Y-68750000D01*
X98957829Y-68745135D01*
X98956928Y-68741183D01*
X98955136Y-68720771D01*
X98966984Y-68479608D01*
X98967707Y-68472264D01*
X99003063Y-68233911D01*
X99006889Y-68208115D01*
X99008328Y-68200883D01*
X99013340Y-68180877D01*
X99059199Y-67997797D01*
X99073210Y-67941863D01*
X99075352Y-67934801D01*
X99165311Y-67683381D01*
X99168135Y-67676563D01*
X99221096Y-67564588D01*
X99261668Y-67478804D01*
X99282304Y-67435174D01*
X99285783Y-67428665D01*
X99369833Y-67288436D01*
X99423065Y-67199625D01*
X99427163Y-67193491D01*
X99444671Y-67169885D01*
X99570666Y-67000000D01*
X111266607Y-67000000D01*
X111285345Y-67214176D01*
X111340990Y-67421845D01*
X111342377Y-67424819D01*
X111342379Y-67424825D01*
X111361587Y-67466016D01*
X111431850Y-67616696D01*
X111555166Y-67792810D01*
X111707190Y-67944834D01*
X111883303Y-68068150D01*
X111928396Y-68089177D01*
X112075175Y-68157621D01*
X112075181Y-68157623D01*
X112078155Y-68159010D01*
X112285824Y-68214655D01*
X112500000Y-68233393D01*
X112592149Y-68225331D01*
X114082847Y-68225331D01*
X114083748Y-68230195D01*
X115030623Y-69177070D01*
X115040422Y-69181639D01*
X115046413Y-69180034D01*
X115992536Y-68233911D01*
X115997105Y-68224112D01*
X115996017Y-68220050D01*
X115995594Y-68219743D01*
X115782528Y-68089177D01*
X115777293Y-68086509D01*
X115546439Y-67990886D01*
X115540824Y-67989062D01*
X115419772Y-67960000D01*
X121726607Y-67960000D01*
X121745345Y-68174176D01*
X121761136Y-68233107D01*
X121795128Y-68359966D01*
X121800990Y-68381845D01*
X121802377Y-68384819D01*
X121802379Y-68384825D01*
X121838620Y-68462544D01*
X121891850Y-68576696D01*
X122015166Y-68752810D01*
X122167190Y-68904834D01*
X122343303Y-69028150D01*
X122388396Y-69049177D01*
X122535175Y-69117621D01*
X122535181Y-69117623D01*
X122538155Y-69119010D01*
X122745824Y-69174655D01*
X122960000Y-69193393D01*
X123052149Y-69185331D01*
X124542847Y-69185331D01*
X124543748Y-69190195D01*
X125490623Y-70137070D01*
X125500422Y-70141639D01*
X125506413Y-70140034D01*
X126146447Y-69500000D01*
X158619474Y-69500000D01*
X158639548Y-69755070D01*
X158640238Y-69757944D01*
X158698436Y-70000351D01*
X158699278Y-70003860D01*
X158700408Y-70006589D01*
X158700410Y-70006594D01*
X158724074Y-70063723D01*
X158797191Y-70240243D01*
X158930877Y-70458399D01*
X159097044Y-70652956D01*
X159291601Y-70819123D01*
X159509757Y-70952809D01*
X159512479Y-70953936D01*
X159512480Y-70953937D01*
X159743406Y-71049590D01*
X159743411Y-71049592D01*
X159746140Y-71050722D01*
X159749017Y-71051413D01*
X159749021Y-71051414D01*
X159906052Y-71089114D01*
X159994930Y-71110452D01*
X159997874Y-71110684D01*
X159997876Y-71110684D01*
X160184659Y-71125384D01*
X160184667Y-71125384D01*
X160186137Y-71125500D01*
X160313863Y-71125500D01*
X160315333Y-71125384D01*
X160315341Y-71125384D01*
X160502124Y-71110684D01*
X160502126Y-71110684D01*
X160505070Y-71110452D01*
X160593948Y-71089114D01*
X160750979Y-71051414D01*
X160750983Y-71051413D01*
X160753860Y-71050722D01*
X160756589Y-71049592D01*
X160756594Y-71049590D01*
X160987520Y-70953937D01*
X160987521Y-70953936D01*
X160990243Y-70952809D01*
X161208399Y-70819123D01*
X161402956Y-70652956D01*
X161569123Y-70458399D01*
X161702809Y-70240243D01*
X161775926Y-70063723D01*
X161799590Y-70006594D01*
X161799592Y-70006589D01*
X161800722Y-70003860D01*
X161801565Y-70000351D01*
X161859762Y-69757944D01*
X161860452Y-69755070D01*
X161880526Y-69500000D01*
X161860452Y-69244930D01*
X161845257Y-69181639D01*
X161801414Y-68999021D01*
X161801413Y-68999017D01*
X161800722Y-68996140D01*
X161798589Y-68990989D01*
X161703937Y-68762480D01*
X161703936Y-68762479D01*
X161702809Y-68759757D01*
X161569123Y-68541601D01*
X161402956Y-68347044D01*
X161208399Y-68180877D01*
X160990243Y-68047191D01*
X160987520Y-68046063D01*
X160756594Y-67950410D01*
X160756589Y-67950408D01*
X160753860Y-67949278D01*
X160750983Y-67948587D01*
X160750979Y-67948586D01*
X160507944Y-67890238D01*
X160505070Y-67889548D01*
X160502126Y-67889316D01*
X160502124Y-67889316D01*
X160315341Y-67874616D01*
X160315333Y-67874616D01*
X160313863Y-67874500D01*
X160186137Y-67874500D01*
X160184667Y-67874616D01*
X160184659Y-67874616D01*
X159997876Y-67889316D01*
X159997874Y-67889316D01*
X159994930Y-67889548D01*
X159992056Y-67890238D01*
X159749021Y-67948586D01*
X159749017Y-67948587D01*
X159746140Y-67949278D01*
X159743411Y-67950408D01*
X159743406Y-67950410D01*
X159512480Y-68046063D01*
X159509757Y-68047191D01*
X159291601Y-68180877D01*
X159097044Y-68347044D01*
X158930877Y-68541601D01*
X158797191Y-68759757D01*
X158796064Y-68762479D01*
X158796063Y-68762480D01*
X158701412Y-68990989D01*
X158699278Y-68996140D01*
X158698587Y-68999017D01*
X158698586Y-68999021D01*
X158654743Y-69181639D01*
X158639548Y-69244930D01*
X158619474Y-69500000D01*
X126146447Y-69500000D01*
X126452536Y-69193911D01*
X126457105Y-69184112D01*
X126456017Y-69180050D01*
X126455594Y-69179743D01*
X126242528Y-69049177D01*
X126237293Y-69046509D01*
X126011960Y-68953173D01*
X149905610Y-68953173D01*
X149906510Y-68956531D01*
X149906619Y-68956638D01*
X149958028Y-68990989D01*
X149964063Y-68994266D01*
X150147700Y-69073163D01*
X150154226Y-69075283D01*
X150349165Y-69119393D01*
X150355976Y-69120289D01*
X150555686Y-69128137D01*
X150562540Y-69127778D01*
X150760336Y-69099098D01*
X150767021Y-69097493D01*
X150956276Y-69033250D01*
X150962544Y-69030459D01*
X151088383Y-68959986D01*
X151095439Y-68951796D01*
X151095464Y-68949914D01*
X151093950Y-68947503D01*
X150509377Y-68362930D01*
X150499578Y-68358361D01*
X150493587Y-68359966D01*
X149910179Y-68943374D01*
X149905610Y-68953173D01*
X126011960Y-68953173D01*
X126006439Y-68950886D01*
X126000824Y-68949062D01*
X125757866Y-68890733D01*
X125752046Y-68889811D01*
X125502948Y-68870207D01*
X125497052Y-68870207D01*
X125247954Y-68889811D01*
X125242134Y-68890733D01*
X124999176Y-68949062D01*
X124993561Y-68950886D01*
X124762707Y-69046509D01*
X124757472Y-69049177D01*
X124546859Y-69178240D01*
X124542847Y-69185331D01*
X123052149Y-69185331D01*
X123174176Y-69174655D01*
X123381845Y-69119010D01*
X123384819Y-69117623D01*
X123384825Y-69117621D01*
X123531604Y-69049177D01*
X123576697Y-69028150D01*
X123752810Y-68904834D01*
X123904834Y-68752810D01*
X124028150Y-68576696D01*
X124081380Y-68462544D01*
X124117621Y-68384825D01*
X124117623Y-68384819D01*
X124119010Y-68381845D01*
X124124873Y-68359966D01*
X124158864Y-68233107D01*
X124174655Y-68174176D01*
X124192180Y-67973861D01*
X149370792Y-67973861D01*
X149383865Y-68173304D01*
X149384939Y-68180084D01*
X149434136Y-68373799D01*
X149436430Y-68380276D01*
X149520100Y-68561771D01*
X149523543Y-68567734D01*
X149538735Y-68589231D01*
X149547616Y-68595392D01*
X149551404Y-68595043D01*
X150137070Y-68009377D01*
X150141639Y-67999578D01*
X150140034Y-67993587D01*
X149554470Y-67408023D01*
X149544671Y-67403454D01*
X149543372Y-67403802D01*
X149540910Y-67406597D01*
X149457786Y-67564588D01*
X149455160Y-67570929D01*
X149395893Y-67761800D01*
X149394464Y-67768521D01*
X149370972Y-67967006D01*
X149370792Y-67973861D01*
X124192180Y-67973861D01*
X124193393Y-67960000D01*
X124174655Y-67745824D01*
X124119010Y-67538155D01*
X124117623Y-67535181D01*
X124117621Y-67535175D01*
X124029538Y-67346281D01*
X124028150Y-67343304D01*
X123904834Y-67167190D01*
X123752810Y-67015166D01*
X123576697Y-66891850D01*
X123528537Y-66869393D01*
X123384825Y-66802379D01*
X123384819Y-66802377D01*
X123381845Y-66800990D01*
X123363163Y-66795984D01*
X123325245Y-66785824D01*
X123174176Y-66745345D01*
X123066082Y-66735888D01*
X124542895Y-66735888D01*
X124543983Y-66739950D01*
X124544406Y-66740257D01*
X124757472Y-66870823D01*
X124762707Y-66873491D01*
X124993561Y-66969114D01*
X124999176Y-66970938D01*
X125242134Y-67029267D01*
X125247954Y-67030189D01*
X125497052Y-67049793D01*
X125502948Y-67049793D01*
X125752046Y-67030189D01*
X125757866Y-67029267D01*
X126000824Y-66970938D01*
X126006439Y-66969114D01*
X126197437Y-66890000D01*
X136371091Y-66890000D01*
X136371734Y-66894884D01*
X136391120Y-67042134D01*
X136391839Y-67047597D01*
X136452669Y-67194454D01*
X136549436Y-67320564D01*
X136675545Y-67417331D01*
X136718622Y-67435174D01*
X136817854Y-67476277D01*
X136817856Y-67476277D01*
X136822403Y-67478161D01*
X136827281Y-67478803D01*
X136827284Y-67478804D01*
X136975116Y-67498266D01*
X136980000Y-67498909D01*
X136984884Y-67498266D01*
X137132716Y-67478804D01*
X137132719Y-67478803D01*
X137137597Y-67478161D01*
X137142144Y-67476277D01*
X137142146Y-67476277D01*
X137241378Y-67435174D01*
X137284455Y-67417331D01*
X137410564Y-67320564D01*
X137507331Y-67194454D01*
X137568161Y-67047597D01*
X137568881Y-67042134D01*
X137588266Y-66894884D01*
X137588909Y-66890000D01*
X137580077Y-66822914D01*
X137578875Y-66813783D01*
X139731158Y-66813783D01*
X139731852Y-66819090D01*
X139731852Y-66819093D01*
X139738617Y-66870823D01*
X139749866Y-66956848D01*
X139752022Y-66961748D01*
X139794095Y-67057366D01*
X139807975Y-67088912D01*
X139900815Y-67199358D01*
X139905274Y-67202326D01*
X139905275Y-67202327D01*
X140016460Y-67276338D01*
X140020922Y-67279308D01*
X140026034Y-67280905D01*
X140026036Y-67280906D01*
X140097863Y-67303346D01*
X140158640Y-67322334D01*
X140217487Y-67323413D01*
X140297536Y-67324880D01*
X140297538Y-67324880D01*
X140302898Y-67324978D01*
X140308069Y-67323568D01*
X140308071Y-67323568D01*
X140383186Y-67303089D01*
X140442101Y-67287027D01*
X140522006Y-67237965D01*
X140560487Y-67214338D01*
X140560490Y-67214336D01*
X140565056Y-67211532D01*
X140575832Y-67199627D01*
X140658287Y-67108533D01*
X140658288Y-67108531D01*
X140661881Y-67104562D01*
X140724790Y-66974716D01*
X140748728Y-66832433D01*
X140748880Y-66820000D01*
X140747990Y-66813783D01*
X140729185Y-66682471D01*
X140729184Y-66682468D01*
X140728426Y-66677174D01*
X140668707Y-66545830D01*
X140612792Y-66480938D01*
X140578019Y-66440581D01*
X140578016Y-66440578D01*
X140574525Y-66436527D01*
X140509782Y-66394562D01*
X140457947Y-66360964D01*
X140457946Y-66360964D01*
X140453451Y-66358050D01*
X140315217Y-66316710D01*
X140309861Y-66316677D01*
X140309859Y-66316677D01*
X140245476Y-66316284D01*
X140170937Y-66315828D01*
X140032209Y-66355477D01*
X139910185Y-66432468D01*
X139814674Y-66540613D01*
X139812399Y-66545460D01*
X139812397Y-66545462D01*
X139793578Y-66585546D01*
X139753356Y-66671218D01*
X139731158Y-66813783D01*
X137578875Y-66813783D01*
X137568804Y-66737284D01*
X137568803Y-66737281D01*
X137568161Y-66732403D01*
X137545285Y-66677174D01*
X137519522Y-66614978D01*
X137507331Y-66585546D01*
X137410564Y-66459436D01*
X137284455Y-66362669D01*
X137203568Y-66329165D01*
X137142146Y-66303723D01*
X137142144Y-66303723D01*
X137137597Y-66301839D01*
X137132719Y-66301197D01*
X137132716Y-66301196D01*
X136984884Y-66281734D01*
X136980000Y-66281091D01*
X136975116Y-66281734D01*
X136827284Y-66301196D01*
X136827281Y-66301197D01*
X136822403Y-66301839D01*
X136817856Y-66303723D01*
X136817854Y-66303723D01*
X136782793Y-66318246D01*
X136675546Y-66362669D01*
X136549436Y-66459436D01*
X136452669Y-66585546D01*
X136440478Y-66614978D01*
X136414716Y-66677174D01*
X136391839Y-66732403D01*
X136391197Y-66737281D01*
X136391196Y-66737284D01*
X136379923Y-66822914D01*
X136371091Y-66890000D01*
X126197437Y-66890000D01*
X126237293Y-66873491D01*
X126242528Y-66870823D01*
X126453141Y-66741760D01*
X126457153Y-66734669D01*
X126456252Y-66729805D01*
X125509377Y-65782930D01*
X125499578Y-65778361D01*
X125493587Y-65779966D01*
X124547464Y-66726089D01*
X124542895Y-66735888D01*
X123066082Y-66735888D01*
X122960000Y-66726607D01*
X122745824Y-66745345D01*
X122594755Y-66785824D01*
X122556838Y-66795984D01*
X122538155Y-66800990D01*
X122535181Y-66802377D01*
X122535175Y-66802379D01*
X122464572Y-66835302D01*
X122343304Y-66891850D01*
X122167190Y-67015166D01*
X122015166Y-67167190D01*
X121891850Y-67343304D01*
X121890462Y-67346281D01*
X121802379Y-67535175D01*
X121802377Y-67535181D01*
X121800990Y-67538155D01*
X121745345Y-67745824D01*
X121726607Y-67960000D01*
X115419772Y-67960000D01*
X115297866Y-67930733D01*
X115292046Y-67929811D01*
X115042948Y-67910207D01*
X115037052Y-67910207D01*
X114787954Y-67929811D01*
X114782134Y-67930733D01*
X114539176Y-67989062D01*
X114533561Y-67990886D01*
X114302707Y-68086509D01*
X114297472Y-68089177D01*
X114086859Y-68218240D01*
X114082847Y-68225331D01*
X112592149Y-68225331D01*
X112714176Y-68214655D01*
X112921845Y-68159010D01*
X112924819Y-68157623D01*
X112924825Y-68157621D01*
X113071604Y-68089177D01*
X113116697Y-68068150D01*
X113292810Y-67944834D01*
X113444834Y-67792810D01*
X113568150Y-67616696D01*
X113638413Y-67466016D01*
X113657621Y-67424825D01*
X113657623Y-67424819D01*
X113659010Y-67421845D01*
X113714655Y-67214176D01*
X113733393Y-67000000D01*
X113714655Y-66785824D01*
X113701275Y-66735888D01*
X119462895Y-66735888D01*
X119463983Y-66739950D01*
X119464406Y-66740257D01*
X119677472Y-66870823D01*
X119682707Y-66873491D01*
X119913561Y-66969114D01*
X119919176Y-66970938D01*
X120162134Y-67029267D01*
X120167954Y-67030189D01*
X120417052Y-67049793D01*
X120422948Y-67049793D01*
X120672046Y-67030189D01*
X120677866Y-67029267D01*
X120920824Y-66970938D01*
X120926439Y-66969114D01*
X121157293Y-66873491D01*
X121162528Y-66870823D01*
X121373141Y-66741760D01*
X121377153Y-66734669D01*
X121376252Y-66729805D01*
X120429377Y-65782930D01*
X120419578Y-65778361D01*
X120413587Y-65779966D01*
X119467464Y-66726089D01*
X119462895Y-66735888D01*
X113701275Y-66735888D01*
X113659010Y-66578155D01*
X113657623Y-66575181D01*
X113657621Y-66575175D01*
X113569538Y-66386281D01*
X113568150Y-66383304D01*
X113444834Y-66207190D01*
X113292810Y-66055166D01*
X113116697Y-65931850D01*
X113049322Y-65900433D01*
X112924825Y-65842379D01*
X112924819Y-65842377D01*
X112921845Y-65840990D01*
X112714176Y-65785345D01*
X112606082Y-65775888D01*
X114082895Y-65775888D01*
X114083983Y-65779950D01*
X114084406Y-65780257D01*
X114297472Y-65910823D01*
X114302707Y-65913491D01*
X114533561Y-66009114D01*
X114539176Y-66010938D01*
X114782134Y-66069267D01*
X114787954Y-66070189D01*
X115037052Y-66089793D01*
X115042948Y-66089793D01*
X115292046Y-66070189D01*
X115297866Y-66069267D01*
X115540824Y-66010938D01*
X115546439Y-66009114D01*
X115777293Y-65913491D01*
X115782528Y-65910823D01*
X115993141Y-65781760D01*
X115997153Y-65774669D01*
X115996252Y-65769805D01*
X115649395Y-65422948D01*
X118790207Y-65422948D01*
X118809811Y-65672046D01*
X118810733Y-65677866D01*
X118869062Y-65920824D01*
X118870886Y-65926439D01*
X118966509Y-66157293D01*
X118969177Y-66162528D01*
X119098240Y-66373141D01*
X119105331Y-66377153D01*
X119110195Y-66376252D01*
X120057070Y-65429377D01*
X120061245Y-65420422D01*
X120778361Y-65420422D01*
X120779966Y-65426413D01*
X121726089Y-66372536D01*
X121735888Y-66377105D01*
X121739950Y-66376017D01*
X121740257Y-66375594D01*
X121870823Y-66162528D01*
X121873491Y-66157293D01*
X121969114Y-65926439D01*
X121970938Y-65920824D01*
X122029267Y-65677866D01*
X122030189Y-65672046D01*
X122049793Y-65422948D01*
X123870207Y-65422948D01*
X123889811Y-65672046D01*
X123890733Y-65677866D01*
X123949062Y-65920824D01*
X123950886Y-65926439D01*
X124046509Y-66157293D01*
X124049177Y-66162528D01*
X124178240Y-66373141D01*
X124185331Y-66377153D01*
X124190195Y-66376252D01*
X125137070Y-65429377D01*
X125141245Y-65420422D01*
X125858361Y-65420422D01*
X125859966Y-65426413D01*
X126806089Y-66372536D01*
X126815888Y-66377105D01*
X126819950Y-66376017D01*
X126820257Y-66375594D01*
X126950823Y-66162528D01*
X126953491Y-66157293D01*
X127049114Y-65926439D01*
X127050938Y-65920824D01*
X127109267Y-65677866D01*
X127110189Y-65672046D01*
X127123729Y-65500000D01*
X129391091Y-65500000D01*
X129391734Y-65504884D01*
X129403210Y-65592050D01*
X129411839Y-65657597D01*
X129413723Y-65662144D01*
X129413723Y-65662146D01*
X129438418Y-65721764D01*
X129472669Y-65804454D01*
X129475667Y-65808361D01*
X129556336Y-65913491D01*
X129569436Y-65930564D01*
X129695545Y-66027331D01*
X129756268Y-66052483D01*
X129837854Y-66086277D01*
X129837856Y-66086277D01*
X129842403Y-66088161D01*
X129847281Y-66088803D01*
X129847284Y-66088804D01*
X129995116Y-66108266D01*
X130000000Y-66108909D01*
X130004884Y-66108266D01*
X130038937Y-66103783D01*
X142741158Y-66103783D01*
X142741852Y-66109090D01*
X142741852Y-66109093D01*
X142743972Y-66125302D01*
X142759866Y-66246848D01*
X142762022Y-66251748D01*
X142815170Y-66372536D01*
X142817975Y-66378912D01*
X142910815Y-66489358D01*
X142915274Y-66492326D01*
X142915275Y-66492327D01*
X143026460Y-66566338D01*
X143030922Y-66569308D01*
X143036034Y-66570905D01*
X143036036Y-66570906D01*
X143093821Y-66588959D01*
X143168640Y-66612334D01*
X143227487Y-66613413D01*
X143307536Y-66614880D01*
X143307538Y-66614880D01*
X143312898Y-66614978D01*
X143318069Y-66613568D01*
X143318071Y-66613568D01*
X143408335Y-66588959D01*
X143452101Y-66577027D01*
X143517946Y-66536598D01*
X143570487Y-66504338D01*
X143570490Y-66504336D01*
X143575056Y-66501532D01*
X143583388Y-66492327D01*
X143668287Y-66398533D01*
X143668288Y-66398531D01*
X143671881Y-66394562D01*
X143726545Y-66281734D01*
X143732454Y-66269538D01*
X143732454Y-66269537D01*
X143734790Y-66264716D01*
X143758728Y-66122433D01*
X143758880Y-66110000D01*
X143757336Y-66099219D01*
X143739185Y-65972471D01*
X143739184Y-65972468D01*
X143738426Y-65967174D01*
X143678707Y-65835830D01*
X143596931Y-65740925D01*
X143578700Y-65691837D01*
X143578700Y-62117300D01*
X143596293Y-62068962D01*
X143600726Y-62064126D01*
X143690991Y-61973861D01*
X149370792Y-61973861D01*
X149383865Y-62173304D01*
X149384939Y-62180084D01*
X149434136Y-62373799D01*
X149436430Y-62380276D01*
X149520100Y-62561771D01*
X149523543Y-62567734D01*
X149538735Y-62589231D01*
X149547616Y-62595392D01*
X149551404Y-62595043D01*
X150137070Y-62009377D01*
X150141639Y-61999578D01*
X150140034Y-61993587D01*
X149554470Y-61408023D01*
X149544671Y-61403454D01*
X149543372Y-61403802D01*
X149540910Y-61406597D01*
X149457786Y-61564588D01*
X149455160Y-61570929D01*
X149395893Y-61761800D01*
X149394464Y-61768521D01*
X149370972Y-61967006D01*
X149370792Y-61973861D01*
X143690991Y-61973861D01*
X144549129Y-61115723D01*
X144595749Y-61093983D01*
X144603680Y-61093710D01*
X144667535Y-61094880D01*
X144667537Y-61094880D01*
X144672898Y-61094978D01*
X144678069Y-61093568D01*
X144678071Y-61093568D01*
X144794733Y-61061762D01*
X144812101Y-61057027D01*
X144871459Y-61020581D01*
X144930487Y-60984338D01*
X144930490Y-60984336D01*
X144935056Y-60981532D01*
X144964212Y-60949321D01*
X145028287Y-60878533D01*
X145028288Y-60878531D01*
X145031881Y-60874562D01*
X145071614Y-60792551D01*
X145092454Y-60749538D01*
X145092454Y-60749537D01*
X145094790Y-60744716D01*
X145118728Y-60602433D01*
X145118880Y-60590000D01*
X145117990Y-60583783D01*
X145099185Y-60452471D01*
X145099184Y-60452468D01*
X145098426Y-60447174D01*
X145038707Y-60315830D01*
X144994054Y-60264008D01*
X144948019Y-60210581D01*
X144948016Y-60210578D01*
X144944525Y-60206527D01*
X144933855Y-60199611D01*
X144827947Y-60130964D01*
X144827946Y-60130964D01*
X144823451Y-60128050D01*
X144685217Y-60086710D01*
X144679861Y-60086677D01*
X144679859Y-60086677D01*
X144615476Y-60086284D01*
X144540937Y-60085828D01*
X144402209Y-60125477D01*
X144280185Y-60202468D01*
X144184674Y-60310613D01*
X144182399Y-60315460D01*
X144182397Y-60315462D01*
X144179933Y-60320711D01*
X144123356Y-60441218D01*
X144101158Y-60583783D01*
X144101852Y-60589091D01*
X144101852Y-60589093D01*
X144102161Y-60591454D01*
X144101804Y-60593058D01*
X144101787Y-60594450D01*
X144101495Y-60594446D01*
X144090983Y-60641665D01*
X144080770Y-60654378D01*
X143030053Y-61705095D01*
X143025216Y-61709528D01*
X143001528Y-61729405D01*
X142994317Y-61735456D01*
X142975227Y-61768521D01*
X142974156Y-61770376D01*
X142970632Y-61775907D01*
X142947501Y-61808942D01*
X142945798Y-61815297D01*
X142943536Y-61820148D01*
X142941483Y-61825104D01*
X142939648Y-61830145D01*
X142936358Y-61835844D01*
X142935216Y-61842322D01*
X142929356Y-61875554D01*
X142927936Y-61881959D01*
X142917499Y-61920910D01*
X142918072Y-61927462D01*
X142918072Y-61927464D01*
X142921014Y-61961086D01*
X142921300Y-61967640D01*
X142921300Y-65692752D01*
X142902465Y-65742532D01*
X142824674Y-65830613D01*
X142822399Y-65835460D01*
X142822397Y-65835462D01*
X142795882Y-65891939D01*
X142763356Y-65961218D01*
X142741158Y-66103783D01*
X130038937Y-66103783D01*
X130152716Y-66088804D01*
X130152719Y-66088803D01*
X130157597Y-66088161D01*
X130162144Y-66086277D01*
X130162146Y-66086277D01*
X130243732Y-66052483D01*
X130304455Y-66027331D01*
X130430564Y-65930564D01*
X130443665Y-65913491D01*
X130524333Y-65808361D01*
X130527331Y-65804454D01*
X130561582Y-65721764D01*
X130586277Y-65662146D01*
X130586277Y-65662144D01*
X130588161Y-65657597D01*
X130596791Y-65592050D01*
X130608266Y-65504884D01*
X130608909Y-65500000D01*
X130598765Y-65422948D01*
X130588804Y-65347284D01*
X130588803Y-65347281D01*
X130588161Y-65342403D01*
X130527331Y-65195546D01*
X130430564Y-65069436D01*
X130304455Y-64972669D01*
X130216316Y-64936161D01*
X130162146Y-64913723D01*
X130162144Y-64913723D01*
X130157597Y-64911839D01*
X130152719Y-64911197D01*
X130152716Y-64911196D01*
X130004884Y-64891734D01*
X130000000Y-64891091D01*
X129995116Y-64891734D01*
X129847284Y-64911196D01*
X129847281Y-64911197D01*
X129842403Y-64911839D01*
X129837856Y-64913723D01*
X129837854Y-64913723D01*
X129784201Y-64935947D01*
X129695546Y-64972669D01*
X129672148Y-64990623D01*
X129580020Y-65061315D01*
X129569436Y-65069436D01*
X129472669Y-65195546D01*
X129411839Y-65342403D01*
X129411197Y-65347281D01*
X129411196Y-65347284D01*
X129401235Y-65422948D01*
X129391091Y-65500000D01*
X127123729Y-65500000D01*
X127129793Y-65422948D01*
X127129793Y-65417052D01*
X127110189Y-65167954D01*
X127109267Y-65162134D01*
X127050938Y-64919176D01*
X127049114Y-64913561D01*
X126953491Y-64682707D01*
X126950823Y-64677472D01*
X126821760Y-64466859D01*
X126814669Y-64462847D01*
X126809805Y-64463748D01*
X125862930Y-65410623D01*
X125858361Y-65420422D01*
X125141245Y-65420422D01*
X125141639Y-65419578D01*
X125140034Y-65413587D01*
X124193911Y-64467464D01*
X124184112Y-64462895D01*
X124180050Y-64463983D01*
X124179743Y-64464406D01*
X124049177Y-64677472D01*
X124046509Y-64682707D01*
X123950886Y-64913561D01*
X123949062Y-64919176D01*
X123890733Y-65162134D01*
X123889811Y-65167954D01*
X123870207Y-65417052D01*
X123870207Y-65422948D01*
X122049793Y-65422948D01*
X122049793Y-65417052D01*
X122030189Y-65167954D01*
X122029267Y-65162134D01*
X121970938Y-64919176D01*
X121969114Y-64913561D01*
X121873491Y-64682707D01*
X121870823Y-64677472D01*
X121741760Y-64466859D01*
X121734669Y-64462847D01*
X121729805Y-64463748D01*
X120782930Y-65410623D01*
X120778361Y-65420422D01*
X120061245Y-65420422D01*
X120061639Y-65419578D01*
X120060034Y-65413587D01*
X119113911Y-64467464D01*
X119104112Y-64462895D01*
X119100050Y-64463983D01*
X119099743Y-64464406D01*
X118969177Y-64677472D01*
X118966509Y-64682707D01*
X118870886Y-64913561D01*
X118869062Y-64919176D01*
X118810733Y-65162134D01*
X118809811Y-65167954D01*
X118790207Y-65417052D01*
X118790207Y-65422948D01*
X115649395Y-65422948D01*
X115049377Y-64822930D01*
X115039578Y-64818361D01*
X115033587Y-64819966D01*
X114087464Y-65766089D01*
X114082895Y-65775888D01*
X112606082Y-65775888D01*
X112500000Y-65766607D01*
X112285824Y-65785345D01*
X112078155Y-65840990D01*
X112075181Y-65842377D01*
X112075175Y-65842379D01*
X112003860Y-65875634D01*
X111883304Y-65931850D01*
X111707190Y-66055166D01*
X111555166Y-66207190D01*
X111431850Y-66383304D01*
X111430462Y-66386281D01*
X111342379Y-66575175D01*
X111342377Y-66575181D01*
X111340990Y-66578155D01*
X111285345Y-66785824D01*
X111266607Y-67000000D01*
X99570666Y-67000000D01*
X99586230Y-66979014D01*
X99590911Y-66973310D01*
X99752900Y-66794582D01*
X99768713Y-66781346D01*
X99768983Y-66781177D01*
X99768986Y-66781174D01*
X99776164Y-66776680D01*
X99780683Y-66769518D01*
X99780684Y-66769517D01*
X99784348Y-66763710D01*
X99794773Y-66750663D01*
X100769548Y-65775888D01*
X109002895Y-65775888D01*
X109003983Y-65779950D01*
X109004406Y-65780257D01*
X109217472Y-65910823D01*
X109222707Y-65913491D01*
X109453561Y-66009114D01*
X109459176Y-66010938D01*
X109702134Y-66069267D01*
X109707954Y-66070189D01*
X109957052Y-66089793D01*
X109962948Y-66089793D01*
X110212046Y-66070189D01*
X110217866Y-66069267D01*
X110460824Y-66010938D01*
X110466439Y-66009114D01*
X110697293Y-65913491D01*
X110702528Y-65910823D01*
X110913141Y-65781760D01*
X110917153Y-65774669D01*
X110916252Y-65769805D01*
X109969377Y-64822930D01*
X109959578Y-64818361D01*
X109953587Y-64819966D01*
X109007464Y-65766089D01*
X109002895Y-65775888D01*
X100769548Y-65775888D01*
X102082488Y-64462948D01*
X108330207Y-64462948D01*
X108349811Y-64712046D01*
X108350733Y-64717866D01*
X108409062Y-64960824D01*
X108410886Y-64966439D01*
X108506509Y-65197293D01*
X108509177Y-65202528D01*
X108638240Y-65413141D01*
X108645331Y-65417153D01*
X108650195Y-65416252D01*
X109597070Y-64469377D01*
X109601245Y-64460422D01*
X110318361Y-64460422D01*
X110319966Y-64466413D01*
X111266089Y-65412536D01*
X111275888Y-65417105D01*
X111279950Y-65416017D01*
X111280257Y-65415594D01*
X111410823Y-65202528D01*
X111413491Y-65197293D01*
X111509114Y-64966439D01*
X111510938Y-64960824D01*
X111569267Y-64717866D01*
X111570189Y-64712046D01*
X111589793Y-64462948D01*
X113410207Y-64462948D01*
X113429811Y-64712046D01*
X113430733Y-64717866D01*
X113489062Y-64960824D01*
X113490886Y-64966439D01*
X113586509Y-65197293D01*
X113589177Y-65202528D01*
X113718240Y-65413141D01*
X113725331Y-65417153D01*
X113730195Y-65416252D01*
X114677070Y-64469377D01*
X114681245Y-64460422D01*
X115398361Y-64460422D01*
X115399966Y-64466413D01*
X116346089Y-65412536D01*
X116355888Y-65417105D01*
X116359950Y-65416017D01*
X116360257Y-65415594D01*
X116490823Y-65202528D01*
X116493491Y-65197293D01*
X116589114Y-64966439D01*
X116590938Y-64960824D01*
X116649267Y-64717866D01*
X116650189Y-64712046D01*
X116669793Y-64462948D01*
X116669793Y-64457052D01*
X116650189Y-64207954D01*
X116649267Y-64202134D01*
X116626027Y-64105331D01*
X119462847Y-64105331D01*
X119463748Y-64110195D01*
X120410623Y-65057070D01*
X120420422Y-65061639D01*
X120426413Y-65060034D01*
X121372536Y-64113911D01*
X121376537Y-64105331D01*
X124542847Y-64105331D01*
X124543748Y-64110195D01*
X125490623Y-65057070D01*
X125500422Y-65061639D01*
X125506413Y-65060034D01*
X126452536Y-64113911D01*
X126457105Y-64104112D01*
X126456017Y-64100050D01*
X126455594Y-64099743D01*
X126242528Y-63969177D01*
X126237293Y-63966509D01*
X126006439Y-63870886D01*
X126000824Y-63869062D01*
X125757866Y-63810733D01*
X125752046Y-63809811D01*
X125502948Y-63790207D01*
X125497052Y-63790207D01*
X125247954Y-63809811D01*
X125242134Y-63810733D01*
X124999176Y-63869062D01*
X124993561Y-63870886D01*
X124762707Y-63966509D01*
X124757472Y-63969177D01*
X124546859Y-64098240D01*
X124542847Y-64105331D01*
X121376537Y-64105331D01*
X121377105Y-64104112D01*
X121376017Y-64100050D01*
X121375594Y-64099743D01*
X121162528Y-63969177D01*
X121157293Y-63966509D01*
X120926439Y-63870886D01*
X120920824Y-63869062D01*
X120677866Y-63810733D01*
X120672046Y-63809811D01*
X120422948Y-63790207D01*
X120417052Y-63790207D01*
X120167954Y-63809811D01*
X120162134Y-63810733D01*
X119919176Y-63869062D01*
X119913561Y-63870886D01*
X119682707Y-63966509D01*
X119677472Y-63969177D01*
X119466859Y-64098240D01*
X119462847Y-64105331D01*
X116626027Y-64105331D01*
X116590938Y-63959176D01*
X116589114Y-63953561D01*
X116493491Y-63722707D01*
X116490823Y-63717472D01*
X116464051Y-63673783D01*
X132981158Y-63673783D01*
X132981852Y-63679090D01*
X132981852Y-63679093D01*
X132989726Y-63739303D01*
X132999866Y-63816848D01*
X133002022Y-63821748D01*
X133054667Y-63941393D01*
X133057975Y-63948912D01*
X133150815Y-64059358D01*
X133155274Y-64062326D01*
X133155275Y-64062327D01*
X133254861Y-64128617D01*
X133270922Y-64139308D01*
X133276034Y-64140905D01*
X133276036Y-64140906D01*
X133322602Y-64155454D01*
X133408640Y-64182334D01*
X133467487Y-64183413D01*
X133547536Y-64184880D01*
X133547538Y-64184880D01*
X133552898Y-64184978D01*
X133558069Y-64183568D01*
X133558071Y-64183568D01*
X133633186Y-64163089D01*
X133692101Y-64147027D01*
X133746563Y-64113587D01*
X133810487Y-64074338D01*
X133810490Y-64074336D01*
X133815056Y-64071532D01*
X133825877Y-64059577D01*
X133908287Y-63968533D01*
X133908288Y-63968531D01*
X133911881Y-63964562D01*
X133962464Y-63860157D01*
X133972454Y-63839538D01*
X133972454Y-63839537D01*
X133974790Y-63834716D01*
X133998728Y-63692433D01*
X133998880Y-63680000D01*
X133997990Y-63673783D01*
X133979185Y-63542471D01*
X133979184Y-63542468D01*
X133978426Y-63537174D01*
X133964643Y-63506859D01*
X133920926Y-63410711D01*
X133918707Y-63405830D01*
X133876578Y-63356937D01*
X133828019Y-63300581D01*
X133828016Y-63300578D01*
X133824525Y-63296527D01*
X133777033Y-63265744D01*
X133707947Y-63220964D01*
X133707946Y-63220964D01*
X133703451Y-63218050D01*
X133687254Y-63213206D01*
X133570353Y-63178246D01*
X133565217Y-63176710D01*
X133559861Y-63176677D01*
X133559859Y-63176677D01*
X133495476Y-63176284D01*
X133420937Y-63175828D01*
X133282209Y-63215477D01*
X133277681Y-63218334D01*
X133197358Y-63269014D01*
X133160185Y-63292468D01*
X133064674Y-63400613D01*
X133062399Y-63405460D01*
X133062397Y-63405462D01*
X133059933Y-63410711D01*
X133003356Y-63531218D01*
X132981158Y-63673783D01*
X116464051Y-63673783D01*
X116361760Y-63506859D01*
X116354669Y-63502847D01*
X116349805Y-63503748D01*
X115402930Y-64450623D01*
X115398361Y-64460422D01*
X114681245Y-64460422D01*
X114681639Y-64459578D01*
X114680034Y-64453587D01*
X113733911Y-63507464D01*
X113724112Y-63502895D01*
X113720050Y-63503983D01*
X113719743Y-63504406D01*
X113589177Y-63717472D01*
X113586509Y-63722707D01*
X113490886Y-63953561D01*
X113489062Y-63959176D01*
X113430733Y-64202134D01*
X113429811Y-64207954D01*
X113410207Y-64457052D01*
X113410207Y-64462948D01*
X111589793Y-64462948D01*
X111589793Y-64457052D01*
X111570189Y-64207954D01*
X111569267Y-64202134D01*
X111510938Y-63959176D01*
X111509114Y-63953561D01*
X111413491Y-63722707D01*
X111410823Y-63717472D01*
X111281760Y-63506859D01*
X111274669Y-63502847D01*
X111269805Y-63503748D01*
X110322930Y-64450623D01*
X110318361Y-64460422D01*
X109601245Y-64460422D01*
X109601639Y-64459578D01*
X109600034Y-64453587D01*
X108653911Y-63507464D01*
X108644112Y-63502895D01*
X108640050Y-63503983D01*
X108639743Y-63504406D01*
X108509177Y-63717472D01*
X108506509Y-63722707D01*
X108410886Y-63953561D01*
X108409062Y-63959176D01*
X108350733Y-64202134D01*
X108349811Y-64207954D01*
X108330207Y-64457052D01*
X108330207Y-64462948D01*
X102082488Y-64462948D01*
X103400105Y-63145331D01*
X109002847Y-63145331D01*
X109003748Y-63150195D01*
X109950623Y-64097070D01*
X109960422Y-64101639D01*
X109966413Y-64100034D01*
X110912536Y-63153911D01*
X110916537Y-63145331D01*
X114082847Y-63145331D01*
X114083748Y-63150195D01*
X115030623Y-64097070D01*
X115040422Y-64101639D01*
X115046413Y-64100034D01*
X115992536Y-63153911D01*
X115997105Y-63144112D01*
X115996017Y-63140050D01*
X115995594Y-63139743D01*
X115782528Y-63009177D01*
X115777293Y-63006509D01*
X115546439Y-62910886D01*
X115540824Y-62909062D01*
X115297866Y-62850733D01*
X115292046Y-62849811D01*
X115042948Y-62830207D01*
X115037052Y-62830207D01*
X114787954Y-62849811D01*
X114782134Y-62850733D01*
X114539176Y-62909062D01*
X114533561Y-62910886D01*
X114302707Y-63006509D01*
X114297472Y-63009177D01*
X114086859Y-63138240D01*
X114082847Y-63145331D01*
X110916537Y-63145331D01*
X110917105Y-63144112D01*
X110916017Y-63140050D01*
X110915594Y-63139743D01*
X110702528Y-63009177D01*
X110697293Y-63006509D01*
X110466439Y-62910886D01*
X110460824Y-62909062D01*
X110217866Y-62850733D01*
X110212046Y-62849811D01*
X109962948Y-62830207D01*
X109957052Y-62830207D01*
X109707954Y-62849811D01*
X109702134Y-62850733D01*
X109459176Y-62909062D01*
X109453561Y-62910886D01*
X109222707Y-63006509D01*
X109217472Y-63009177D01*
X109006859Y-63138240D01*
X109002847Y-63145331D01*
X103400105Y-63145331D01*
X104250316Y-62295120D01*
X104263582Y-62284557D01*
X104276164Y-62276680D01*
X104281121Y-62268823D01*
X104294220Y-62253229D01*
X104473311Y-62090912D01*
X104479015Y-62086231D01*
X104627332Y-61976231D01*
X104693495Y-61927161D01*
X104699628Y-61923063D01*
X104732154Y-61903568D01*
X104871331Y-61820148D01*
X104928666Y-61785783D01*
X104935175Y-61782304D01*
X105093492Y-61707426D01*
X105176568Y-61668134D01*
X105183379Y-61665313D01*
X105288717Y-61627622D01*
X105434801Y-61575353D01*
X105441863Y-61573211D01*
X105608229Y-61531538D01*
X105700888Y-61508328D01*
X105708115Y-61506890D01*
X105812520Y-61491403D01*
X105972264Y-61467708D01*
X105979608Y-61466985D01*
X106220530Y-61455149D01*
X106241072Y-61456971D01*
X106241379Y-61457042D01*
X106241385Y-61457042D01*
X106249635Y-61458939D01*
X106264594Y-61455554D01*
X106281191Y-61453700D01*
X122968071Y-61453700D01*
X122985052Y-61455642D01*
X122999271Y-61458938D01*
X123000000Y-61458939D01*
X123004141Y-61457994D01*
X123008361Y-61457522D01*
X123008378Y-61457673D01*
X123014287Y-61456861D01*
X123312549Y-61442209D01*
X123312554Y-61442208D01*
X123314396Y-61442118D01*
X123625764Y-61395931D01*
X123634339Y-61393783D01*
X130711158Y-61393783D01*
X130711852Y-61399090D01*
X130711852Y-61399093D01*
X130719247Y-61455642D01*
X130729866Y-61536848D01*
X130787975Y-61668912D01*
X130880815Y-61779358D01*
X130885274Y-61782326D01*
X130885275Y-61782327D01*
X130996460Y-61856338D01*
X131000922Y-61859308D01*
X131006034Y-61860905D01*
X131006036Y-61860906D01*
X131074381Y-61882258D01*
X131138640Y-61902334D01*
X131197487Y-61903413D01*
X131277536Y-61904880D01*
X131277538Y-61904880D01*
X131282898Y-61904978D01*
X131288069Y-61903568D01*
X131288071Y-61903568D01*
X131367331Y-61881959D01*
X131422101Y-61867027D01*
X131498451Y-61820148D01*
X131540487Y-61794338D01*
X131540490Y-61794336D01*
X131545056Y-61791532D01*
X131553409Y-61782304D01*
X131579540Y-61753435D01*
X131625021Y-61729405D01*
X131635292Y-61728700D01*
X134532496Y-61728700D01*
X134580834Y-61746293D01*
X134606554Y-61790842D01*
X134600567Y-61835859D01*
X134593356Y-61851218D01*
X134571158Y-61993783D01*
X134571852Y-61999090D01*
X134571852Y-61999093D01*
X134572024Y-62000407D01*
X134589866Y-62136848D01*
X134592022Y-62141748D01*
X134634502Y-62238291D01*
X134647975Y-62268912D01*
X134664932Y-62289084D01*
X134697407Y-62327718D01*
X134715043Y-62376040D01*
X134696207Y-62425886D01*
X134654674Y-62472913D01*
X134593356Y-62603518D01*
X134571158Y-62746083D01*
X134571852Y-62751390D01*
X134571852Y-62751393D01*
X134573412Y-62763322D01*
X134589866Y-62889148D01*
X134592022Y-62894048D01*
X134642680Y-63009177D01*
X134647975Y-63021212D01*
X134740815Y-63131658D01*
X134745274Y-63134626D01*
X134745275Y-63134627D01*
X134810803Y-63178246D01*
X134860922Y-63211608D01*
X134866034Y-63213205D01*
X134866036Y-63213206D01*
X134937863Y-63235646D01*
X134998640Y-63254634D01*
X135057487Y-63255713D01*
X135137536Y-63257180D01*
X135137538Y-63257180D01*
X135142898Y-63257278D01*
X135148069Y-63255868D01*
X135148071Y-63255868D01*
X135223186Y-63235389D01*
X135282101Y-63219327D01*
X135349281Y-63178078D01*
X135400487Y-63146638D01*
X135400490Y-63146636D01*
X135405056Y-63143832D01*
X135415138Y-63132694D01*
X135498287Y-63040833D01*
X135498288Y-63040831D01*
X135501881Y-63036862D01*
X135564790Y-62907016D01*
X135574259Y-62850733D01*
X135583157Y-62797850D01*
X135604141Y-62757153D01*
X140543257Y-57818037D01*
X140589877Y-57796297D01*
X140596431Y-57796011D01*
X149015049Y-57796011D01*
X149021603Y-57796297D01*
X149055225Y-57799239D01*
X149055227Y-57799239D01*
X149061779Y-57799812D01*
X149100729Y-57789375D01*
X149107135Y-57787955D01*
X149116651Y-57786277D01*
X149146845Y-57780953D01*
X149152544Y-57777663D01*
X149157585Y-57775828D01*
X149162541Y-57773775D01*
X149167392Y-57771513D01*
X149173747Y-57769810D01*
X149206782Y-57746679D01*
X149212313Y-57743155D01*
X149222941Y-57737019D01*
X149247233Y-57722994D01*
X149273158Y-57692098D01*
X149277590Y-57687262D01*
X150157431Y-56807421D01*
X150204051Y-56785681D01*
X150234778Y-56790829D01*
X150235157Y-56789661D01*
X150238909Y-56790880D01*
X150242507Y-56792482D01*
X150412900Y-56828700D01*
X150587100Y-56828700D01*
X150672297Y-56810591D01*
X150753642Y-56793301D01*
X150753646Y-56793300D01*
X150757493Y-56792482D01*
X150857757Y-56747842D01*
X150913031Y-56723233D01*
X150913033Y-56723232D01*
X150916633Y-56721629D01*
X151051898Y-56623353D01*
X151101346Y-56609174D01*
X151148338Y-56630097D01*
X151170888Y-56676330D01*
X151171300Y-56684191D01*
X151171300Y-56832698D01*
X151153707Y-56881036D01*
X151149274Y-56885872D01*
X150842569Y-57192577D01*
X150795949Y-57214317D01*
X150765222Y-57209169D01*
X150764843Y-57210337D01*
X150761091Y-57209118D01*
X150757493Y-57207516D01*
X150587100Y-57171298D01*
X150585922Y-57171298D01*
X150581779Y-57170188D01*
X150575227Y-57170761D01*
X150575224Y-57170761D01*
X150572361Y-57171012D01*
X150565807Y-57171298D01*
X150412900Y-57171298D01*
X150242507Y-57207516D01*
X150083368Y-57278369D01*
X150080184Y-57280682D01*
X150080181Y-57280684D01*
X149968058Y-57362146D01*
X149942437Y-57380761D01*
X149939803Y-57383687D01*
X149939799Y-57383690D01*
X149847350Y-57486365D01*
X149825874Y-57510217D01*
X149738775Y-57661079D01*
X149730804Y-57685610D01*
X149690742Y-57808909D01*
X149684944Y-57826752D01*
X149666735Y-57999998D01*
X149667147Y-58003918D01*
X149672720Y-58056937D01*
X149684944Y-58173244D01*
X149738775Y-58338917D01*
X149825874Y-58489779D01*
X149828514Y-58492711D01*
X149939801Y-58616308D01*
X149939804Y-58616310D01*
X149942437Y-58619235D01*
X150083367Y-58721627D01*
X150086967Y-58723230D01*
X150086969Y-58723231D01*
X150189302Y-58768792D01*
X150226305Y-58804525D01*
X150231682Y-58855683D01*
X150202918Y-58898329D01*
X150184744Y-58908043D01*
X150009925Y-58972537D01*
X149830891Y-59079051D01*
X149674266Y-59216407D01*
X149545294Y-59380007D01*
X149543691Y-59383054D01*
X149543689Y-59383057D01*
X149484340Y-59495861D01*
X149448296Y-59564370D01*
X149386520Y-59763322D01*
X149362034Y-59970201D01*
X149362259Y-59973635D01*
X149362259Y-59973638D01*
X149367427Y-60052483D01*
X149375659Y-60178078D01*
X149426938Y-60379991D01*
X149514155Y-60569178D01*
X149634387Y-60739303D01*
X149783609Y-60884669D01*
X149786478Y-60886586D01*
X149880367Y-60949321D01*
X149910784Y-60990804D01*
X149907419Y-61042134D01*
X149905376Y-61045468D01*
X149905453Y-61051320D01*
X149906512Y-61052959D01*
X150800379Y-61946826D01*
X150822119Y-61993446D01*
X150808805Y-62043133D01*
X150800379Y-62053174D01*
X149910179Y-62943374D01*
X149905610Y-62953172D01*
X149909695Y-62968418D01*
X149905211Y-63019662D01*
X149875506Y-63052508D01*
X149830891Y-63079051D01*
X149828298Y-63081325D01*
X149719570Y-63176677D01*
X149674266Y-63216407D01*
X149672132Y-63219114D01*
X149672130Y-63219116D01*
X149611141Y-63296481D01*
X149545294Y-63380007D01*
X149543691Y-63383054D01*
X149543689Y-63383057D01*
X149449899Y-63561323D01*
X149448296Y-63564370D01*
X149447276Y-63567655D01*
X149408532Y-63692433D01*
X149386520Y-63763322D01*
X149362034Y-63970201D01*
X149362259Y-63973635D01*
X149362259Y-63973638D01*
X149362865Y-63982876D01*
X149375659Y-64178078D01*
X149426938Y-64379991D01*
X149514155Y-64569178D01*
X149634387Y-64739303D01*
X149783609Y-64884669D01*
X149786478Y-64886586D01*
X149860672Y-64936161D01*
X149891089Y-64977644D01*
X149887724Y-65028974D01*
X149857344Y-65063313D01*
X149830891Y-65079051D01*
X149828298Y-65081325D01*
X149702509Y-65191639D01*
X149674266Y-65216407D01*
X149672132Y-65219114D01*
X149672130Y-65219116D01*
X149571091Y-65347284D01*
X149545294Y-65380007D01*
X149543691Y-65383054D01*
X149543689Y-65383057D01*
X149479593Y-65504884D01*
X149448296Y-65564370D01*
X149447276Y-65567655D01*
X149399118Y-65722751D01*
X149386520Y-65763322D01*
X149362034Y-65970201D01*
X149362259Y-65973635D01*
X149362259Y-65973638D01*
X149365902Y-66029215D01*
X149375659Y-66178078D01*
X149426938Y-66379991D01*
X149514155Y-66569178D01*
X149634387Y-66739303D01*
X149783609Y-66884669D01*
X149786478Y-66886586D01*
X149880367Y-66949321D01*
X149910784Y-66990804D01*
X149907419Y-67042134D01*
X149905376Y-67045468D01*
X149905453Y-67051320D01*
X149906512Y-67052959D01*
X151444129Y-68590576D01*
X151453928Y-68595145D01*
X151455745Y-68594658D01*
X151457652Y-68592550D01*
X151530459Y-68462544D01*
X151533250Y-68456276D01*
X151597493Y-68267021D01*
X151599098Y-68260336D01*
X151627955Y-68061315D01*
X151628330Y-68056919D01*
X151629762Y-68002217D01*
X151629618Y-67997797D01*
X151621713Y-67911771D01*
X151634810Y-67862026D01*
X151676818Y-67832338D01*
X151728081Y-67836598D01*
X151749072Y-67851025D01*
X151781133Y-67882258D01*
X151781139Y-67882263D01*
X151783609Y-67884669D01*
X151786478Y-67886586D01*
X151953955Y-67998491D01*
X151953958Y-67998492D01*
X151956823Y-68000407D01*
X151959987Y-68001766D01*
X151959990Y-68001768D01*
X152145063Y-68081281D01*
X152148229Y-68082641D01*
X152351415Y-68128617D01*
X152471151Y-68133322D01*
X152556133Y-68136661D01*
X152556136Y-68136661D01*
X152559577Y-68136796D01*
X152562982Y-68136302D01*
X152562987Y-68136302D01*
X152709535Y-68115053D01*
X152765744Y-68106903D01*
X152769014Y-68105793D01*
X152959748Y-68041048D01*
X152959751Y-68041046D01*
X152963011Y-68039940D01*
X153144772Y-67938149D01*
X153304939Y-67804939D01*
X153438149Y-67644772D01*
X153539940Y-67463011D01*
X153549390Y-67435174D01*
X153605793Y-67269014D01*
X153606903Y-67265744D01*
X153636796Y-67059577D01*
X153637166Y-67045468D01*
X153638298Y-67002217D01*
X153638298Y-67002216D01*
X153638356Y-67000000D01*
X153636389Y-66978585D01*
X153627800Y-66885116D01*
X153619294Y-66792551D01*
X153616503Y-66782653D01*
X153585075Y-66671218D01*
X153562747Y-66592050D01*
X153556034Y-66578436D01*
X153510082Y-66485256D01*
X153470608Y-66405211D01*
X153345963Y-66238291D01*
X153192987Y-66096881D01*
X153181754Y-66089793D01*
X153150683Y-66070189D01*
X153122619Y-66052482D01*
X153091128Y-66011810D01*
X153093147Y-65960410D01*
X153095374Y-65956776D01*
X153095464Y-65949914D01*
X153093950Y-65947503D01*
X152199621Y-65053174D01*
X152177881Y-65006554D01*
X152179524Y-65000422D01*
X152858361Y-65000422D01*
X152859966Y-65006413D01*
X153444129Y-65590576D01*
X153453928Y-65595145D01*
X153455745Y-65594658D01*
X153457652Y-65592550D01*
X153530459Y-65462544D01*
X153533250Y-65456276D01*
X153597493Y-65267021D01*
X153599098Y-65260336D01*
X153627955Y-65061315D01*
X153628330Y-65056919D01*
X153629762Y-65002217D01*
X153629618Y-64997797D01*
X153611216Y-64797540D01*
X153609965Y-64790788D01*
X153555713Y-64598425D01*
X153553254Y-64592018D01*
X153464857Y-64412767D01*
X153462445Y-64408831D01*
X153453910Y-64403235D01*
X153449836Y-64403717D01*
X152862930Y-64990623D01*
X152858361Y-65000422D01*
X152179524Y-65000422D01*
X152191195Y-64956867D01*
X152199621Y-64946826D01*
X153089510Y-64056937D01*
X153094079Y-64047138D01*
X153090439Y-64033553D01*
X153094921Y-63982309D01*
X153126330Y-63948478D01*
X153141763Y-63939835D01*
X153141770Y-63939830D01*
X153144772Y-63938149D01*
X153304939Y-63804939D01*
X153438149Y-63644772D01*
X153539940Y-63463011D01*
X153557694Y-63410711D01*
X153605793Y-63269014D01*
X153606903Y-63265744D01*
X153636796Y-63059577D01*
X153638356Y-63000000D01*
X153635833Y-62972537D01*
X153624555Y-62849811D01*
X153619294Y-62792551D01*
X153562747Y-62592050D01*
X153470608Y-62405211D01*
X153345963Y-62238291D01*
X153192987Y-62096881D01*
X153143692Y-62065778D01*
X153112199Y-62025105D01*
X153114218Y-61973705D01*
X153141222Y-61940207D01*
X153141771Y-61939830D01*
X153144772Y-61938149D01*
X153304939Y-61804939D01*
X153438149Y-61644772D01*
X153539940Y-61463011D01*
X153541323Y-61458939D01*
X153605793Y-61269014D01*
X153606903Y-61265744D01*
X153636796Y-61059577D01*
X153637166Y-61045468D01*
X153638298Y-61002217D01*
X153638298Y-61002216D01*
X153638356Y-61000000D01*
X153637674Y-60992569D01*
X153627935Y-60886586D01*
X153619294Y-60792551D01*
X153562747Y-60592050D01*
X153560317Y-60587121D01*
X153501092Y-60467027D01*
X153470608Y-60405211D01*
X153345963Y-60238291D01*
X153192987Y-60096881D01*
X153179302Y-60088246D01*
X153137330Y-60061764D01*
X153122619Y-60052482D01*
X153091128Y-60011810D01*
X153093147Y-59960410D01*
X153095374Y-59956776D01*
X153095464Y-59949914D01*
X153093950Y-59947503D01*
X152146869Y-59000422D01*
X152858361Y-59000422D01*
X152859966Y-59006413D01*
X153444129Y-59590576D01*
X153453928Y-59595145D01*
X153455745Y-59594658D01*
X153457652Y-59592550D01*
X153530459Y-59462544D01*
X153533250Y-59456276D01*
X153597493Y-59267021D01*
X153599098Y-59260336D01*
X153627955Y-59061315D01*
X153628330Y-59056919D01*
X153629762Y-59002217D01*
X153629618Y-58997797D01*
X153611216Y-58797540D01*
X153609965Y-58790788D01*
X153555713Y-58598425D01*
X153553254Y-58592018D01*
X153464857Y-58412767D01*
X153462445Y-58408831D01*
X153453910Y-58403235D01*
X153449836Y-58403717D01*
X152862930Y-58990623D01*
X152858361Y-59000422D01*
X152146869Y-59000422D01*
X151554470Y-58408023D01*
X151544671Y-58403454D01*
X151543372Y-58403802D01*
X151540910Y-58406597D01*
X151457786Y-58564588D01*
X151455160Y-58570929D01*
X151395893Y-58761800D01*
X151394464Y-58768521D01*
X151370972Y-58967006D01*
X151370792Y-58973862D01*
X151378515Y-59091691D01*
X151364121Y-59141076D01*
X151321350Y-59169654D01*
X151270216Y-59164054D01*
X151252430Y-59151830D01*
X151195516Y-59099218D01*
X151195511Y-59099214D01*
X151192987Y-59096881D01*
X151190076Y-59095044D01*
X151019714Y-58987553D01*
X151019708Y-58987550D01*
X151016803Y-58985717D01*
X150969903Y-58967006D01*
X150826508Y-58909797D01*
X150826503Y-58909796D01*
X150823311Y-58908522D01*
X150821858Y-58908233D01*
X150780930Y-58877947D01*
X150768923Y-58827928D01*
X150791876Y-58781893D01*
X150813051Y-58767744D01*
X150865723Y-58744293D01*
X150913031Y-58723231D01*
X150913033Y-58723230D01*
X150916633Y-58721627D01*
X151057563Y-58619235D01*
X151060196Y-58616310D01*
X151060199Y-58616308D01*
X151171486Y-58492711D01*
X151174126Y-58489779D01*
X151261225Y-58338917D01*
X151315056Y-58173244D01*
X151327281Y-58056937D01*
X151332853Y-58003918D01*
X151333265Y-57999998D01*
X151315056Y-57826752D01*
X151285899Y-57737017D01*
X151287694Y-57685610D01*
X151304244Y-57660606D01*
X151628173Y-57336677D01*
X151674793Y-57314937D01*
X151724480Y-57328251D01*
X151746472Y-57352251D01*
X151752185Y-57362146D01*
X151825874Y-57489781D01*
X151828514Y-57492713D01*
X151939801Y-57616310D01*
X151939804Y-57616312D01*
X151942437Y-57619237D01*
X152083367Y-57721629D01*
X152086967Y-57723232D01*
X152086969Y-57723233D01*
X152117934Y-57737019D01*
X152200429Y-57773748D01*
X152237431Y-57809480D01*
X152242808Y-57860638D01*
X152214044Y-57903284D01*
X152195870Y-57912998D01*
X152016837Y-57979047D01*
X152010637Y-57982004D01*
X151912260Y-58040531D01*
X151905421Y-58048902D01*
X151905453Y-58051320D01*
X151906512Y-58052959D01*
X152490623Y-58637070D01*
X152500422Y-58641639D01*
X152506413Y-58640034D01*
X152921447Y-58225000D01*
X157366091Y-58225000D01*
X157366734Y-58229884D01*
X157381538Y-58342329D01*
X157386839Y-58382597D01*
X157388723Y-58387144D01*
X157388723Y-58387146D01*
X157395478Y-58403454D01*
X157447669Y-58529454D01*
X157544436Y-58655564D01*
X157670545Y-58752331D01*
X157710286Y-58768792D01*
X157812854Y-58811277D01*
X157812856Y-58811277D01*
X157817403Y-58813161D01*
X157822281Y-58813803D01*
X157822284Y-58813804D01*
X157970116Y-58833266D01*
X157975000Y-58833909D01*
X157979884Y-58833266D01*
X158127716Y-58813804D01*
X158127719Y-58813803D01*
X158132597Y-58813161D01*
X158137144Y-58811277D01*
X158137146Y-58811277D01*
X158239714Y-58768792D01*
X158279455Y-58752331D01*
X158405564Y-58655564D01*
X158502331Y-58529454D01*
X158554522Y-58403454D01*
X158561277Y-58387146D01*
X158561277Y-58387144D01*
X158563161Y-58382597D01*
X158568463Y-58342329D01*
X158583266Y-58229884D01*
X158583909Y-58225000D01*
X158579733Y-58193281D01*
X158590867Y-58143062D01*
X158631676Y-58111747D01*
X158650002Y-58108926D01*
X158650000Y-58108909D01*
X158654884Y-58108266D01*
X158802716Y-58088804D01*
X158802719Y-58088803D01*
X158807597Y-58088161D01*
X158812144Y-58086277D01*
X158812146Y-58086277D01*
X158896540Y-58051320D01*
X158954455Y-58027331D01*
X159080564Y-57930564D01*
X159084761Y-57925095D01*
X159157215Y-57830670D01*
X159177331Y-57804454D01*
X159193359Y-57765759D01*
X159228112Y-57727834D01*
X159279111Y-57721120D01*
X159295481Y-57727485D01*
X159295545Y-57727331D01*
X159437854Y-57786277D01*
X159437856Y-57786277D01*
X159442403Y-57788161D01*
X159447281Y-57788803D01*
X159447284Y-57788804D01*
X159595116Y-57808266D01*
X159600000Y-57808909D01*
X159604884Y-57808266D01*
X159752716Y-57788804D01*
X159752719Y-57788803D01*
X159757597Y-57788161D01*
X159762144Y-57786277D01*
X159762146Y-57786277D01*
X159866252Y-57743155D01*
X159904455Y-57727331D01*
X160030564Y-57630564D01*
X160039256Y-57619237D01*
X160124333Y-57508361D01*
X160127331Y-57504454D01*
X160178566Y-57380761D01*
X160186277Y-57362146D01*
X160186277Y-57362144D01*
X160188161Y-57357597D01*
X160190162Y-57342403D01*
X160207779Y-57208582D01*
X160208909Y-57200000D01*
X160192646Y-57076469D01*
X160188804Y-57047284D01*
X160188803Y-57047281D01*
X160188161Y-57042403D01*
X160181289Y-57025811D01*
X160129215Y-56900095D01*
X160127331Y-56895546D01*
X160048248Y-56792482D01*
X160033562Y-56773343D01*
X160030564Y-56769436D01*
X159904455Y-56672669D01*
X159775458Y-56619237D01*
X159762146Y-56613723D01*
X159762144Y-56613723D01*
X159757597Y-56611839D01*
X159752719Y-56611197D01*
X159752716Y-56611196D01*
X159604884Y-56591734D01*
X159600000Y-56591091D01*
X159595116Y-56591734D01*
X159447284Y-56611196D01*
X159447281Y-56611197D01*
X159442403Y-56611839D01*
X159437856Y-56613723D01*
X159437854Y-56613723D01*
X159398324Y-56630097D01*
X159295546Y-56672669D01*
X159169436Y-56769436D01*
X159166438Y-56773343D01*
X159151752Y-56792482D01*
X159072669Y-56895546D01*
X159070785Y-56900095D01*
X159056641Y-56934241D01*
X159021888Y-56972166D01*
X158970889Y-56978880D01*
X158954519Y-56972515D01*
X158954455Y-56972669D01*
X158812146Y-56913723D01*
X158812144Y-56913723D01*
X158807597Y-56911839D01*
X158802719Y-56911197D01*
X158802716Y-56911196D01*
X158654884Y-56891734D01*
X158650000Y-56891091D01*
X158645116Y-56891734D01*
X158497284Y-56911196D01*
X158497281Y-56911197D01*
X158492403Y-56911839D01*
X158487856Y-56913723D01*
X158487854Y-56913723D01*
X158418974Y-56942254D01*
X158345546Y-56972669D01*
X158219436Y-57069436D01*
X158122669Y-57195546D01*
X158061839Y-57342403D01*
X158061197Y-57347281D01*
X158061196Y-57347284D01*
X158057094Y-57378443D01*
X158041091Y-57500000D01*
X158041734Y-57504884D01*
X158045267Y-57531718D01*
X158034133Y-57581938D01*
X157993324Y-57613253D01*
X157974998Y-57616074D01*
X157975000Y-57616091D01*
X157970116Y-57616734D01*
X157822284Y-57636196D01*
X157822281Y-57636197D01*
X157817403Y-57636839D01*
X157812856Y-57638723D01*
X157812854Y-57638723D01*
X157760024Y-57660606D01*
X157670546Y-57697669D01*
X157631689Y-57727485D01*
X157581447Y-57766037D01*
X157544436Y-57794436D01*
X157541438Y-57798343D01*
X157532892Y-57809480D01*
X157447669Y-57920546D01*
X157442278Y-57933562D01*
X157396715Y-58043561D01*
X157386839Y-58067403D01*
X157386197Y-58072281D01*
X157386196Y-58072284D01*
X157372905Y-58173244D01*
X157366091Y-58225000D01*
X152921447Y-58225000D01*
X153089510Y-58056937D01*
X153094079Y-58047138D01*
X153093317Y-58044293D01*
X153092549Y-58043561D01*
X153015847Y-57995164D01*
X153009723Y-57992044D01*
X152824095Y-57917986D01*
X152817496Y-57916031D01*
X152816373Y-57915808D01*
X152816021Y-57915594D01*
X152814197Y-57915054D01*
X152814339Y-57914574D01*
X152772396Y-57889124D01*
X152755860Y-57840414D01*
X152774503Y-57792471D01*
X152800456Y-57773354D01*
X152913031Y-57723233D01*
X152913033Y-57723232D01*
X152916633Y-57721629D01*
X153057563Y-57619237D01*
X153060196Y-57616312D01*
X153060199Y-57616310D01*
X153171486Y-57492713D01*
X153174126Y-57489781D01*
X153261225Y-57338919D01*
X153315056Y-57173246D01*
X153318727Y-57138325D01*
X153332853Y-57003920D01*
X153333265Y-57000000D01*
X153331045Y-56978880D01*
X153315468Y-56830672D01*
X153315468Y-56830670D01*
X153315056Y-56826754D01*
X153301711Y-56785681D01*
X153262443Y-56664830D01*
X153261225Y-56661081D01*
X153174126Y-56510219D01*
X153171487Y-56507288D01*
X153138293Y-56470422D01*
X153119024Y-56422728D01*
X153134920Y-56373806D01*
X153151044Y-56358505D01*
X153164096Y-56349366D01*
X153169624Y-56345844D01*
X153180799Y-56339392D01*
X153204544Y-56325683D01*
X153230469Y-56294787D01*
X153234901Y-56289951D01*
X153669947Y-55854905D01*
X153674784Y-55850472D01*
X153700642Y-55828774D01*
X153705683Y-55824544D01*
X153725846Y-55789621D01*
X153729368Y-55784093D01*
X153738344Y-55771274D01*
X153752499Y-55751058D01*
X153754202Y-55744703D01*
X153756464Y-55739852D01*
X153758517Y-55734896D01*
X153760352Y-55729855D01*
X153763642Y-55724156D01*
X153770644Y-55684446D01*
X153772064Y-55678041D01*
X153773016Y-55674488D01*
X153782501Y-55639090D01*
X153780508Y-55616304D01*
X153778986Y-55598914D01*
X153778700Y-55592360D01*
X153778700Y-54507637D01*
X153778986Y-54501082D01*
X153781928Y-54467463D01*
X153781928Y-54467461D01*
X153782501Y-54460910D01*
X153780799Y-54454559D01*
X153780799Y-54454556D01*
X153772064Y-54421959D01*
X153770644Y-54415554D01*
X153764784Y-54382322D01*
X153763642Y-54375844D01*
X153760352Y-54370145D01*
X153758517Y-54365104D01*
X153756464Y-54360148D01*
X153754202Y-54355297D01*
X153752499Y-54348942D01*
X153729368Y-54315907D01*
X153725844Y-54310376D01*
X153708973Y-54281155D01*
X153705683Y-54275456D01*
X153688215Y-54260798D01*
X153674787Y-54249531D01*
X153669951Y-54245099D01*
X152302594Y-52877742D01*
X152298161Y-52872905D01*
X152276463Y-52847047D01*
X152272233Y-52842006D01*
X152237310Y-52821843D01*
X152231782Y-52818321D01*
X152204135Y-52798963D01*
X152198747Y-52795190D01*
X152192392Y-52793487D01*
X152187541Y-52791225D01*
X152182585Y-52789172D01*
X152177544Y-52787337D01*
X152171845Y-52784047D01*
X152132136Y-52777045D01*
X152125730Y-52775625D01*
X152122177Y-52774673D01*
X152086779Y-52765188D01*
X152080227Y-52765761D01*
X152080225Y-52765761D01*
X152046603Y-52768703D01*
X152040049Y-52768989D01*
X149579952Y-52768989D01*
X149573398Y-52768703D01*
X149539776Y-52765761D01*
X149539774Y-52765761D01*
X149533222Y-52765188D01*
X149494269Y-52775625D01*
X149494265Y-52775626D01*
X149487862Y-52777045D01*
X149448155Y-52784047D01*
X149442453Y-52787339D01*
X149437409Y-52789175D01*
X149432459Y-52791225D01*
X149427608Y-52793487D01*
X149421253Y-52795190D01*
X149415865Y-52798963D01*
X149388218Y-52818321D01*
X149382690Y-52821843D01*
X149347767Y-52842006D01*
X149343537Y-52847047D01*
X149343535Y-52847049D01*
X149321842Y-52872902D01*
X149317410Y-52877738D01*
X148615874Y-53579274D01*
X148569254Y-53601014D01*
X148562700Y-53601300D01*
X140717629Y-53601300D01*
X140711075Y-53601014D01*
X140677464Y-53598073D01*
X140677462Y-53598073D01*
X140670910Y-53597500D01*
X140635925Y-53606874D01*
X140631966Y-53607935D01*
X140625560Y-53609355D01*
X140585844Y-53616358D01*
X140580145Y-53619648D01*
X140575104Y-53621483D01*
X140570157Y-53623532D01*
X140565298Y-53625798D01*
X140558942Y-53627501D01*
X140553552Y-53631275D01*
X140525911Y-53650629D01*
X140520380Y-53654153D01*
X140485456Y-53674317D01*
X140481230Y-53679353D01*
X140481228Y-53679355D01*
X140459531Y-53705213D01*
X140455099Y-53710049D01*
X134690878Y-59474270D01*
X134644258Y-59496010D01*
X134637248Y-59496295D01*
X134560937Y-59495828D01*
X134422209Y-59535477D01*
X134300185Y-59612468D01*
X134204674Y-59720613D01*
X134202399Y-59725460D01*
X134202397Y-59725462D01*
X134184622Y-59763322D01*
X134143356Y-59851218D01*
X134121158Y-59993783D01*
X134121852Y-59999090D01*
X134121852Y-59999093D01*
X134123972Y-60015302D01*
X134139866Y-60136848D01*
X134142022Y-60141748D01*
X134184502Y-60238291D01*
X134197975Y-60268912D01*
X134290815Y-60379358D01*
X134295274Y-60382326D01*
X134295275Y-60382327D01*
X134329653Y-60405211D01*
X134410922Y-60459308D01*
X134416034Y-60460905D01*
X134416036Y-60460906D01*
X134487863Y-60483346D01*
X134548640Y-60502334D01*
X134607487Y-60503413D01*
X134687536Y-60504880D01*
X134687538Y-60504880D01*
X134692898Y-60504978D01*
X134698069Y-60503568D01*
X134698071Y-60503568D01*
X134773186Y-60483089D01*
X134832101Y-60467027D01*
X134885120Y-60434473D01*
X134950487Y-60394338D01*
X134950490Y-60394336D01*
X134955056Y-60391532D01*
X134963388Y-60382327D01*
X135048287Y-60288533D01*
X135048288Y-60288531D01*
X135051881Y-60284562D01*
X135089710Y-60206481D01*
X135112454Y-60159538D01*
X135112454Y-60159537D01*
X135114790Y-60154716D01*
X135138728Y-60012433D01*
X135138880Y-60000000D01*
X135138470Y-59997135D01*
X135138280Y-59994220D01*
X135139660Y-59994130D01*
X135149261Y-59948378D01*
X135159964Y-59934888D01*
X140814126Y-54280726D01*
X140860746Y-54258986D01*
X140867300Y-54258700D01*
X148712360Y-54258700D01*
X148718914Y-54258986D01*
X148752536Y-54261928D01*
X148752538Y-54261928D01*
X148759090Y-54262501D01*
X148798040Y-54252064D01*
X148804446Y-54250644D01*
X148822707Y-54247424D01*
X148844156Y-54243642D01*
X148849855Y-54240352D01*
X148854896Y-54238517D01*
X148859852Y-54236464D01*
X148864703Y-54234202D01*
X148871058Y-54232499D01*
X148904093Y-54209368D01*
X148909624Y-54205844D01*
X148932359Y-54192718D01*
X148944544Y-54185683D01*
X148970469Y-54154787D01*
X148974901Y-54149951D01*
X149676437Y-53448415D01*
X149723057Y-53426675D01*
X149729611Y-53426389D01*
X149744023Y-53426389D01*
X149792361Y-53443982D01*
X149818081Y-53488531D01*
X149809148Y-53539188D01*
X149740747Y-53657664D01*
X149740744Y-53657670D01*
X149738775Y-53661081D01*
X149684944Y-53826754D01*
X149666735Y-54000000D01*
X149667147Y-54003920D01*
X149682496Y-54149951D01*
X149684944Y-54173246D01*
X149738775Y-54338919D01*
X149825874Y-54489781D01*
X149836050Y-54501082D01*
X149876297Y-54545781D01*
X149895567Y-54593475D01*
X149879672Y-54642398D01*
X149836048Y-54669657D01*
X149820413Y-54671300D01*
X142097640Y-54671300D01*
X142091086Y-54671014D01*
X142057464Y-54668072D01*
X142057462Y-54668072D01*
X142050910Y-54667499D01*
X142015512Y-54676984D01*
X142011959Y-54677936D01*
X142005553Y-54679356D01*
X141965844Y-54686358D01*
X141960145Y-54689648D01*
X141955104Y-54691483D01*
X141950148Y-54693536D01*
X141945297Y-54695798D01*
X141938942Y-54697501D01*
X141933554Y-54701274D01*
X141905907Y-54720632D01*
X141900379Y-54724154D01*
X141865456Y-54744317D01*
X141861225Y-54749359D01*
X141861224Y-54749360D01*
X141839531Y-54775213D01*
X141835099Y-54780049D01*
X141723802Y-54891346D01*
X141677182Y-54913086D01*
X141627495Y-54899772D01*
X141602172Y-54869298D01*
X141587712Y-54837496D01*
X141585494Y-54832617D01*
X141513755Y-54749360D01*
X141494806Y-54727368D01*
X141494803Y-54727365D01*
X141491312Y-54723314D01*
X141442203Y-54691483D01*
X141374734Y-54647751D01*
X141374733Y-54647751D01*
X141370238Y-54644837D01*
X141362083Y-54642398D01*
X141237140Y-54605033D01*
X141232004Y-54603497D01*
X141226648Y-54603464D01*
X141226646Y-54603464D01*
X141162263Y-54603071D01*
X141087724Y-54602615D01*
X140948996Y-54642264D01*
X140826972Y-54719255D01*
X140731461Y-54827400D01*
X140729186Y-54832247D01*
X140729184Y-54832249D01*
X140726721Y-54837496D01*
X140670143Y-54958005D01*
X140647945Y-55100570D01*
X140648639Y-55105878D01*
X140648639Y-55105880D01*
X140650665Y-55121371D01*
X140651300Y-55131121D01*
X140651300Y-55363734D01*
X140633707Y-55412072D01*
X140629274Y-55416908D01*
X134996908Y-61049274D01*
X134950288Y-61071014D01*
X134943734Y-61071300D01*
X131636190Y-61071300D01*
X131587852Y-61053707D01*
X131579221Y-61045188D01*
X131558019Y-61020581D01*
X131558016Y-61020578D01*
X131554525Y-61016527D01*
X131529027Y-61000000D01*
X131437947Y-60940964D01*
X131437946Y-60940964D01*
X131433451Y-60938050D01*
X131295217Y-60896710D01*
X131289861Y-60896677D01*
X131289859Y-60896677D01*
X131225476Y-60896284D01*
X131150937Y-60895828D01*
X131012209Y-60935477D01*
X130951727Y-60973638D01*
X130924521Y-60990804D01*
X130890185Y-61012468D01*
X130794674Y-61120613D01*
X130733356Y-61251218D01*
X130711158Y-61393783D01*
X123634339Y-61393783D01*
X123931106Y-61319446D01*
X124227481Y-61213402D01*
X124229144Y-61212616D01*
X124229150Y-61212613D01*
X124406744Y-61128617D01*
X124512035Y-61078818D01*
X124782027Y-60916991D01*
X124783494Y-60915903D01*
X124783503Y-60915897D01*
X125007811Y-60749538D01*
X125034856Y-60729480D01*
X125256835Y-60528291D01*
X125261688Y-60524626D01*
X125261580Y-60524490D01*
X125264920Y-60521838D01*
X125268546Y-60519577D01*
X125269062Y-60519062D01*
X125276513Y-60507208D01*
X125287416Y-60493646D01*
X133061092Y-52838718D01*
X134083960Y-51831475D01*
X149145830Y-51831475D01*
X149185591Y-51997092D01*
X149263709Y-52148443D01*
X149266687Y-52151857D01*
X149266690Y-52151861D01*
X149360198Y-52259050D01*
X149375675Y-52276792D01*
X149445349Y-52325760D01*
X149511314Y-52372121D01*
X149511317Y-52372122D01*
X149515024Y-52374728D01*
X149519247Y-52376375D01*
X149519248Y-52376375D01*
X149528046Y-52379805D01*
X149673712Y-52436598D01*
X149803618Y-52453700D01*
X150792706Y-52453700D01*
X150881033Y-52443011D01*
X150914587Y-52438951D01*
X150914589Y-52438951D01*
X150919089Y-52438406D01*
X150923330Y-52436804D01*
X150923332Y-52436803D01*
X151074172Y-52379805D01*
X151074174Y-52379804D01*
X151078416Y-52378201D01*
X151218783Y-52281730D01*
X151332086Y-52154561D01*
X151411785Y-52004036D01*
X151453278Y-51838845D01*
X151453341Y-51826937D01*
X151453733Y-51751918D01*
X151454170Y-51668525D01*
X151414409Y-51502908D01*
X151336291Y-51351557D01*
X151333313Y-51348143D01*
X151333310Y-51348139D01*
X151227304Y-51226623D01*
X151224325Y-51223208D01*
X151154651Y-51174240D01*
X151088686Y-51127879D01*
X151088683Y-51127878D01*
X151084976Y-51125272D01*
X151076069Y-51121799D01*
X150959731Y-51076441D01*
X150926288Y-51063402D01*
X150796382Y-51046300D01*
X149807294Y-51046300D01*
X149718967Y-51056989D01*
X149685413Y-51061049D01*
X149685411Y-51061049D01*
X149680911Y-51061594D01*
X149676670Y-51063196D01*
X149676668Y-51063197D01*
X149525828Y-51120195D01*
X149525826Y-51120196D01*
X149521584Y-51121799D01*
X149381217Y-51218270D01*
X149267914Y-51345439D01*
X149188215Y-51495964D01*
X149146722Y-51661155D01*
X149146698Y-51665689D01*
X149146698Y-51665691D01*
X149146609Y-51682752D01*
X149145830Y-51831475D01*
X134083960Y-51831475D01*
X135897854Y-50045290D01*
X135910711Y-50035135D01*
X135917040Y-50031172D01*
X135924216Y-50026679D01*
X135929173Y-50018822D01*
X135942271Y-50003229D01*
X136121357Y-49840912D01*
X136127061Y-49836231D01*
X136341547Y-49677151D01*
X136347676Y-49673055D01*
X136576721Y-49535768D01*
X136583229Y-49532290D01*
X136824607Y-49418122D01*
X136831425Y-49415297D01*
X136979718Y-49362234D01*
X137082860Y-49325328D01*
X137089906Y-49323191D01*
X137348936Y-49258303D01*
X137356171Y-49256863D01*
X137620327Y-49217676D01*
X137627652Y-49216955D01*
X137868460Y-49205120D01*
X137889004Y-49206942D01*
X137889433Y-49207041D01*
X137889434Y-49207041D01*
X137897688Y-49208939D01*
X137912642Y-49205555D01*
X137929240Y-49203700D01*
X160718318Y-49203700D01*
X160735170Y-49205613D01*
G37*
%TD.AperFunction*%
%TA.AperFunction,Conductor*%
G36*
X149868751Y-55346293D02*
G01*
X149894471Y-55390842D01*
X149885538Y-55441500D01*
X149876298Y-55454218D01*
X149825874Y-55510219D01*
X149738775Y-55661081D01*
X149714791Y-55734896D01*
X149698806Y-55784093D01*
X149684944Y-55826754D01*
X149684532Y-55830670D01*
X149684532Y-55830672D01*
X149682451Y-55850472D01*
X149666735Y-56000000D01*
X149684944Y-56173246D01*
X149714101Y-56262981D01*
X149712306Y-56314388D01*
X149695756Y-56339392D01*
X148918563Y-57116585D01*
X148871943Y-57138325D01*
X148865389Y-57138611D01*
X140587789Y-57138611D01*
X140539451Y-57121018D01*
X140513731Y-57076469D01*
X140522664Y-57025811D01*
X140534615Y-57010237D01*
X142194126Y-55350726D01*
X142240746Y-55328986D01*
X142247300Y-55328700D01*
X149820413Y-55328700D01*
X149868751Y-55346293D01*
G37*
%TD.AperFunction*%
%TD*%
M02*
