%TF.GenerationSoftware,KiCad,Pcbnew,(6.0.5-0)*%
%TF.CreationDate,2025-05-14T10:57:03-04:00*%
%TF.ProjectId,SDTV2CSI,53445456-3243-4534-992e-6b696361645f,rev?*%
%TF.SameCoordinates,Original*%
%TF.FileFunction,Legend,Top*%
%TF.FilePolarity,Positive*%
%FSLAX46Y46*%
G04 Gerber Fmt 4.6, Leading zero omitted, Abs format (unit mm)*
G04 Created by KiCad (PCBNEW (6.0.5-0)) date 2025-05-14 10:57:03*
%MOMM*%
%LPD*%
G01*
G04 APERTURE LIST*
%ADD10C,0.120000*%
%ADD11C,0.152400*%
%ADD12C,0.508000*%
G04 APERTURE END LIST*
D10*
%TO.C,C15*%
X56238748Y-70015000D02*
X56761252Y-70015000D01*
X56238748Y-71485000D02*
X56761252Y-71485000D01*
%TO.C,U2*%
X54940000Y-67250000D02*
X54940000Y-68050000D01*
X58060000Y-67250000D02*
X58060000Y-68050000D01*
X54940000Y-67250000D02*
X54940000Y-66450000D01*
X58060000Y-67250000D02*
X58060000Y-65450000D01*
%TO.C,C14*%
X56238748Y-64485000D02*
X56761252Y-64485000D01*
X56238748Y-63015000D02*
X56761252Y-63015000D01*
D11*
%TO.C,J2*%
X74279950Y-67396500D02*
X73318690Y-67396500D01*
X74279950Y-70491261D02*
X74279950Y-67396500D01*
X69336191Y-72603500D02*
X72975309Y-72603500D01*
X68031550Y-67396500D02*
X68031550Y-70491261D01*
X68992810Y-67396500D02*
X68031550Y-67396500D01*
D12*
X67777550Y-67901500D02*
G75*
G03*
X67777550Y-67901500I-381000J0D01*
G01*
D11*
%TO.C,U1*%
X75429700Y-56540261D02*
X75429700Y-56070300D01*
X70540261Y-56070300D02*
X70070300Y-56070300D01*
X75429700Y-61429700D02*
X75429700Y-60959739D01*
X75429700Y-56070300D02*
X74959739Y-56070300D01*
X74959739Y-61429700D02*
X75429700Y-61429700D01*
X70070300Y-60959739D02*
X70070300Y-61429700D01*
X70070300Y-61429700D02*
X70540261Y-61429700D01*
X70070300Y-56070300D02*
X70070300Y-56540261D01*
G36*
X76115500Y-58190499D02*
G01*
X75861500Y-58190499D01*
X75861500Y-57809499D01*
X76115500Y-57809499D01*
X76115500Y-58190499D01*
G37*
G36*
X69638500Y-57690500D02*
G01*
X69384500Y-57690500D01*
X69384500Y-57309500D01*
X69638500Y-57309500D01*
X69638500Y-57690500D01*
G37*
G36*
X72690501Y-62115500D02*
G01*
X72309500Y-62115500D01*
X72309500Y-61861500D01*
X72690501Y-61861500D01*
X72690501Y-62115500D01*
G37*
D10*
%TO.C,D5*%
X54310000Y-69250000D02*
X54310000Y-67575000D01*
X54310000Y-69250000D02*
X54310000Y-69900000D01*
X51190000Y-69250000D02*
X51190000Y-69900000D01*
X51190000Y-69250000D02*
X51190000Y-68600000D01*
%TO.C,Y1*%
X64650000Y-66250000D02*
X67850000Y-66250000D01*
X67850000Y-66250000D02*
X67850000Y-62250000D01*
%TD*%
M02*
