%TF.GenerationSoftware,KiCad,Pcbnew,(6.0.5-0)*%
%TF.CreationDate,2025-05-14T10:57:02-04:00*%
%TF.ProjectId,SDTV2CSI,53445456-3243-4534-992e-6b696361645f,rev?*%
%TF.SameCoordinates,Original*%
%TF.FileFunction,Copper,L2,Inr*%
%TF.FilePolarity,Positive*%
%FSLAX46Y46*%
G04 Gerber Fmt 4.6, Leading zero omitted, Abs format (unit mm)*
G04 Created by KiCad (PCBNEW (6.0.5-0)) date 2025-05-14 10:57:02*
%MOMM*%
%LPD*%
G01*
G04 APERTURE LIST*
%TA.AperFunction,ComponentPad*%
%ADD10C,1.250000*%
%TD*%
%TA.AperFunction,ViaPad*%
%ADD11C,0.600000*%
%TD*%
%TA.AperFunction,ViaPad*%
%ADD12C,0.800000*%
%TD*%
G04 APERTURE END LIST*
D10*
%TO.N,+3V3*%
%TO.C,J1*%
X60000000Y-68500000D03*
%TO.N,CSDA*%
X62000000Y-67500000D03*
%TO.N,CSCL*%
X60000000Y-66500000D03*
%TO.N,LED_EN*%
X62000000Y-65500000D03*
%TO.N,PWR_EN*%
X60000000Y-64500000D03*
%TO.N,GND*%
X62000000Y-63500000D03*
%TO.N,CLK+*%
X60000000Y-62500000D03*
%TO.N,CLK-*%
X62000000Y-61500000D03*
%TO.N,GND*%
X60000000Y-60500000D03*
%TO.N,CD1+*%
X62000000Y-59500000D03*
%TO.N,CD1-*%
X60000000Y-58499998D03*
%TO.N,GND*%
X62000000Y-57500000D03*
%TO.N,CD0+*%
X60000000Y-56500000D03*
%TO.N,CD0-*%
X62000000Y-55500000D03*
%TO.N,GND*%
X60000000Y-54500000D03*
%TD*%
D11*
%TO.N,GND*%
X75800000Y-65450000D03*
X72200000Y-55150000D03*
X66950000Y-53650000D03*
X67400000Y-57110000D03*
X77970000Y-56220000D03*
X72830000Y-70400000D03*
X67840000Y-60120000D03*
X72870000Y-66000000D03*
X50230000Y-71180000D03*
X61680000Y-50700000D03*
X76440000Y-50700000D03*
X69100000Y-54000000D03*
X69350000Y-63650000D03*
X72250000Y-53900000D03*
X52640000Y-65350000D03*
X61120000Y-52930000D03*
X51820000Y-70260000D03*
X64200000Y-70350000D03*
X72250000Y-52100000D03*
X77420000Y-64430000D03*
X54480000Y-64050000D03*
X76830000Y-57370000D03*
X71650000Y-66710000D03*
X70900000Y-54000000D03*
X69350000Y-64750000D03*
D12*
X64550000Y-66350000D03*
D11*
X75250000Y-52100000D03*
X78120000Y-51980000D03*
X66000000Y-56050000D03*
X58330000Y-69530000D03*
X75250000Y-53900000D03*
X75130000Y-61130000D03*
X51500000Y-66950000D03*
X74600000Y-63250000D03*
X71150000Y-64750000D03*
X73840000Y-69900000D03*
X77330000Y-59650000D03*
X73660000Y-68180000D03*
X60520000Y-71510000D03*
X78710000Y-64890000D03*
X70650000Y-69090000D03*
X65650000Y-59390000D03*
X69390000Y-55800000D03*
X65620000Y-60700000D03*
X56630000Y-56850000D03*
X58290000Y-55880000D03*
X76400000Y-63250000D03*
X56500000Y-65020000D03*
X64500000Y-69000000D03*
%TO.N,+3V3*%
X76580000Y-53000000D03*
D12*
X57450000Y-64970000D03*
%TO.N,+1V8*%
X57450000Y-69540000D03*
D11*
X69660000Y-66150000D03*
X58400000Y-70750000D03*
X75500000Y-61830000D03*
D12*
X70820000Y-53000000D03*
D11*
%TO.N,PWR_EN*%
X51830000Y-65830000D03*
X76920000Y-60420000D03*
%TO.N,LED_EN*%
X53630000Y-65790000D03*
%TO.N,DVDDIO*%
X77510000Y-58870000D03*
X76000000Y-54410000D03*
X74150000Y-53920000D03*
%TO.N,MVDD*%
X67690000Y-59250000D03*
X70000000Y-55320000D03*
%TO.N,CSCL*%
X55510000Y-57100000D03*
%TD*%
%TA.AperFunction,Conductor*%
%TO.N,GND*%
G36*
X77480612Y-50205750D02*
G01*
X77485806Y-50205759D01*
X77499635Y-50208939D01*
X77513474Y-50205807D01*
X77527665Y-50205832D01*
X77527664Y-50206402D01*
X77535899Y-50205716D01*
X77664933Y-50212963D01*
X77806025Y-50220886D01*
X77820057Y-50222467D01*
X77967660Y-50247546D01*
X78115259Y-50272624D01*
X78129034Y-50275768D01*
X78219034Y-50301696D01*
X78416770Y-50358663D01*
X78430089Y-50363324D01*
X78706736Y-50477915D01*
X78719459Y-50484042D01*
X78785461Y-50520520D01*
X78981525Y-50628881D01*
X78993489Y-50636398D01*
X79237696Y-50809672D01*
X79248742Y-50818482D01*
X79472006Y-51018002D01*
X79481998Y-51027994D01*
X79681518Y-51251258D01*
X79690328Y-51262304D01*
X79863602Y-51506511D01*
X79871119Y-51518475D01*
X80015956Y-51780537D01*
X80022085Y-51793264D01*
X80136676Y-52069911D01*
X80141337Y-52083230D01*
X80198304Y-52280966D01*
X80224232Y-52370966D01*
X80227376Y-52384741D01*
X80252454Y-52532340D01*
X80274937Y-52664663D01*
X80277532Y-52679938D01*
X80279114Y-52693975D01*
X80287021Y-52834773D01*
X80294252Y-52963534D01*
X80293563Y-52971618D01*
X80294266Y-52971619D01*
X80294241Y-52985805D01*
X80291061Y-52999635D01*
X80294193Y-53013476D01*
X80294185Y-53017936D01*
X80296300Y-53036865D01*
X80296300Y-69962553D01*
X80294250Y-69980612D01*
X80294241Y-69985806D01*
X80291061Y-69999635D01*
X80294193Y-70013474D01*
X80294168Y-70027665D01*
X80293598Y-70027664D01*
X80294284Y-70035899D01*
X80280268Y-70285479D01*
X80279114Y-70306021D01*
X80277533Y-70320057D01*
X80254744Y-70454182D01*
X80227376Y-70615259D01*
X80224232Y-70629034D01*
X80141337Y-70916770D01*
X80136676Y-70930089D01*
X80022087Y-71206732D01*
X80015958Y-71219459D01*
X79996327Y-71254978D01*
X79871119Y-71481525D01*
X79863602Y-71493489D01*
X79690328Y-71737696D01*
X79681518Y-71748742D01*
X79481998Y-71972006D01*
X79472006Y-71981998D01*
X79248742Y-72181518D01*
X79237696Y-72190328D01*
X78993489Y-72363602D01*
X78981525Y-72371119D01*
X78830752Y-72454449D01*
X78719459Y-72515958D01*
X78706736Y-72522085D01*
X78430089Y-72636676D01*
X78416770Y-72641337D01*
X78219034Y-72698304D01*
X78129034Y-72724232D01*
X78115259Y-72727376D01*
X77967661Y-72752454D01*
X77820057Y-72777533D01*
X77806025Y-72779114D01*
X77536465Y-72794252D01*
X77528382Y-72793563D01*
X77528381Y-72794266D01*
X77514195Y-72794241D01*
X77500365Y-72791061D01*
X77486524Y-72794193D01*
X77482064Y-72794185D01*
X77463135Y-72796300D01*
X18537447Y-72796300D01*
X18519388Y-72794250D01*
X18514194Y-72794241D01*
X18500365Y-72791061D01*
X18486526Y-72794193D01*
X18472335Y-72794168D01*
X18472336Y-72793598D01*
X18464101Y-72794284D01*
X18335067Y-72787037D01*
X18193975Y-72779114D01*
X18179943Y-72777533D01*
X18032339Y-72752454D01*
X17884741Y-72727376D01*
X17870966Y-72724232D01*
X17780966Y-72698304D01*
X17583230Y-72641337D01*
X17569911Y-72636676D01*
X17293264Y-72522085D01*
X17280541Y-72515958D01*
X17169248Y-72454449D01*
X17018475Y-72371119D01*
X17006511Y-72363602D01*
X16762304Y-72190328D01*
X16751258Y-72181518D01*
X16527994Y-71981998D01*
X16518002Y-71972006D01*
X16318482Y-71748742D01*
X16309672Y-71737696D01*
X16136398Y-71493489D01*
X16128881Y-71481525D01*
X16003673Y-71254978D01*
X15984042Y-71219459D01*
X15977913Y-71206732D01*
X15863324Y-70930089D01*
X15858663Y-70916770D01*
X15775768Y-70629034D01*
X15772624Y-70615259D01*
X15745256Y-70454182D01*
X15722467Y-70320057D01*
X15720886Y-70306021D01*
X15719877Y-70288050D01*
X15705764Y-70036750D01*
X15707655Y-70014908D01*
X15706511Y-70014776D01*
X15707327Y-70007678D01*
X15708938Y-70000729D01*
X15708939Y-70000000D01*
X15706854Y-69990861D01*
X15703700Y-69962846D01*
X15703700Y-69500000D01*
X17369474Y-69500000D01*
X17389548Y-69755070D01*
X17390702Y-69759877D01*
X17390703Y-69759883D01*
X17411007Y-69844454D01*
X17449278Y-70003860D01*
X17451171Y-70008431D01*
X17451172Y-70008433D01*
X17508913Y-70147831D01*
X17547191Y-70240243D01*
X17680877Y-70458399D01*
X17847044Y-70652956D01*
X18041601Y-70819123D01*
X18259757Y-70952809D01*
X18264327Y-70954702D01*
X18264331Y-70954704D01*
X18437624Y-71026484D01*
X18496140Y-71050722D01*
X18584157Y-71071853D01*
X18740117Y-71109297D01*
X18740123Y-71109298D01*
X18744930Y-71110452D01*
X18833569Y-71117428D01*
X18933680Y-71125307D01*
X18933689Y-71125307D01*
X18936137Y-71125500D01*
X19063863Y-71125500D01*
X19066311Y-71125307D01*
X19066320Y-71125307D01*
X19166431Y-71117428D01*
X19255070Y-71110452D01*
X19259877Y-71109298D01*
X19259883Y-71109297D01*
X19415843Y-71071853D01*
X19503860Y-71050722D01*
X19562376Y-71026484D01*
X19735669Y-70954704D01*
X19735673Y-70954702D01*
X19740243Y-70952809D01*
X19958399Y-70819123D01*
X20046611Y-70743783D01*
X57891158Y-70743783D01*
X57892322Y-70752685D01*
X57892322Y-70752688D01*
X57908701Y-70877943D01*
X57908702Y-70877947D01*
X57909866Y-70886848D01*
X57967975Y-71018912D01*
X58060815Y-71129358D01*
X58068286Y-71134331D01*
X58068287Y-71134332D01*
X58086158Y-71146228D01*
X58180922Y-71209308D01*
X58318640Y-71252334D01*
X58462898Y-71254978D01*
X58521299Y-71239056D01*
X58593442Y-71219388D01*
X58593444Y-71219387D01*
X58602101Y-71217027D01*
X58725056Y-71141532D01*
X58821881Y-71034562D01*
X58826135Y-71025783D01*
X58880878Y-70912790D01*
X58884790Y-70904716D01*
X58908728Y-70762433D01*
X58908880Y-70750000D01*
X58888426Y-70607174D01*
X58828707Y-70475830D01*
X58818416Y-70463886D01*
X58740386Y-70373329D01*
X58734525Y-70366527D01*
X58613451Y-70288050D01*
X58475217Y-70246710D01*
X58466241Y-70246655D01*
X58466240Y-70246655D01*
X58406076Y-70246287D01*
X58330937Y-70245828D01*
X58192209Y-70285477D01*
X58070185Y-70362468D01*
X57974674Y-70470613D01*
X57913356Y-70601218D01*
X57911975Y-70610087D01*
X57910084Y-70622235D01*
X57891158Y-70743783D01*
X20046611Y-70743783D01*
X20152956Y-70652956D01*
X20319123Y-70458399D01*
X20452809Y-70240243D01*
X20491088Y-70147831D01*
X20548828Y-70008433D01*
X20548829Y-70008431D01*
X20550722Y-70003860D01*
X20588993Y-69844454D01*
X20609297Y-69759883D01*
X20609298Y-69759877D01*
X20610452Y-69755070D01*
X20627378Y-69540000D01*
X56841091Y-69540000D01*
X56861839Y-69697597D01*
X56922669Y-69844454D01*
X57019436Y-69970564D01*
X57145545Y-70067331D01*
X57218974Y-70097746D01*
X57284773Y-70125001D01*
X57284776Y-70125002D01*
X57292403Y-70128161D01*
X57450000Y-70148909D01*
X57458188Y-70147831D01*
X57599409Y-70129239D01*
X57607597Y-70128161D01*
X57615224Y-70125002D01*
X57615227Y-70125001D01*
X57681026Y-70097746D01*
X57754455Y-70067331D01*
X57880564Y-69970564D01*
X57977331Y-69844454D01*
X58038161Y-69697597D01*
X58058909Y-69540000D01*
X58053643Y-69500000D01*
X75369474Y-69500000D01*
X75389548Y-69755070D01*
X75390702Y-69759877D01*
X75390703Y-69759883D01*
X75411007Y-69844454D01*
X75449278Y-70003860D01*
X75451171Y-70008431D01*
X75451172Y-70008433D01*
X75508913Y-70147831D01*
X75547191Y-70240243D01*
X75680877Y-70458399D01*
X75847044Y-70652956D01*
X76041601Y-70819123D01*
X76259757Y-70952809D01*
X76264327Y-70954702D01*
X76264331Y-70954704D01*
X76437624Y-71026484D01*
X76496140Y-71050722D01*
X76584157Y-71071853D01*
X76740117Y-71109297D01*
X76740123Y-71109298D01*
X76744930Y-71110452D01*
X76833569Y-71117428D01*
X76933680Y-71125307D01*
X76933689Y-71125307D01*
X76936137Y-71125500D01*
X77063863Y-71125500D01*
X77066311Y-71125307D01*
X77066320Y-71125307D01*
X77166431Y-71117428D01*
X77255070Y-71110452D01*
X77259877Y-71109298D01*
X77259883Y-71109297D01*
X77415843Y-71071853D01*
X77503860Y-71050722D01*
X77562376Y-71026484D01*
X77735669Y-70954704D01*
X77735673Y-70954702D01*
X77740243Y-70952809D01*
X77958399Y-70819123D01*
X78152956Y-70652956D01*
X78319123Y-70458399D01*
X78452809Y-70240243D01*
X78491088Y-70147831D01*
X78548828Y-70008433D01*
X78548829Y-70008431D01*
X78550722Y-70003860D01*
X78588993Y-69844454D01*
X78609297Y-69759883D01*
X78609298Y-69759877D01*
X78610452Y-69755070D01*
X78630526Y-69500000D01*
X78610452Y-69244930D01*
X78609298Y-69240123D01*
X78609297Y-69240117D01*
X78557120Y-69022788D01*
X78550722Y-68996140D01*
X78546519Y-68985993D01*
X78454704Y-68764331D01*
X78454702Y-68764327D01*
X78452809Y-68759757D01*
X78319123Y-68541601D01*
X78152956Y-68347044D01*
X77958399Y-68180877D01*
X77740243Y-68047191D01*
X77735673Y-68045298D01*
X77735669Y-68045296D01*
X77508433Y-67951172D01*
X77508431Y-67951171D01*
X77503860Y-67949278D01*
X77415843Y-67928147D01*
X77259883Y-67890703D01*
X77259877Y-67890702D01*
X77255070Y-67889548D01*
X77166431Y-67882572D01*
X77066320Y-67874693D01*
X77066311Y-67874693D01*
X77063863Y-67874500D01*
X76936137Y-67874500D01*
X76933689Y-67874693D01*
X76933680Y-67874693D01*
X76833569Y-67882572D01*
X76744930Y-67889548D01*
X76740123Y-67890702D01*
X76740117Y-67890703D01*
X76584157Y-67928147D01*
X76496140Y-67949278D01*
X76491569Y-67951171D01*
X76491567Y-67951172D01*
X76264331Y-68045296D01*
X76264327Y-68045298D01*
X76259757Y-68047191D01*
X76041601Y-68180877D01*
X75847044Y-68347044D01*
X75680877Y-68541601D01*
X75547191Y-68759757D01*
X75545298Y-68764327D01*
X75545296Y-68764331D01*
X75453481Y-68985993D01*
X75449278Y-68996140D01*
X75442880Y-69022788D01*
X75390703Y-69240117D01*
X75390702Y-69240123D01*
X75389548Y-69244930D01*
X75369474Y-69500000D01*
X58053643Y-69500000D01*
X58038161Y-69382403D01*
X57977331Y-69235546D01*
X57880564Y-69109436D01*
X57754455Y-69012669D01*
X57679377Y-68981571D01*
X57615227Y-68954999D01*
X57615224Y-68954998D01*
X57607597Y-68951839D01*
X57450000Y-68931091D01*
X57292403Y-68951839D01*
X57284776Y-68954998D01*
X57284773Y-68954999D01*
X57263478Y-68963820D01*
X57145546Y-69012669D01*
X57019436Y-69109436D01*
X56922669Y-69235546D01*
X56861839Y-69382403D01*
X56841091Y-69540000D01*
X20627378Y-69540000D01*
X20630526Y-69500000D01*
X20610452Y-69244930D01*
X20609298Y-69240123D01*
X20609297Y-69240117D01*
X20557120Y-69022788D01*
X20550722Y-68996140D01*
X20546519Y-68985993D01*
X20454704Y-68764331D01*
X20454702Y-68764327D01*
X20452809Y-68759757D01*
X20319123Y-68541601D01*
X20283592Y-68500000D01*
X59166735Y-68500000D01*
X59167425Y-68506565D01*
X59184042Y-68664663D01*
X59184944Y-68673246D01*
X59186983Y-68679520D01*
X59186983Y-68679522D01*
X59214540Y-68764331D01*
X59238775Y-68838919D01*
X59242075Y-68844634D01*
X59242075Y-68844635D01*
X59310886Y-68963820D01*
X59325874Y-68989781D01*
X59330289Y-68994685D01*
X59330291Y-68994687D01*
X59429085Y-69104408D01*
X59442437Y-69119237D01*
X59583367Y-69221629D01*
X59589396Y-69224313D01*
X59589399Y-69224315D01*
X59736471Y-69289795D01*
X59736474Y-69289796D01*
X59742507Y-69292482D01*
X59778662Y-69300167D01*
X59906443Y-69327328D01*
X59906447Y-69327328D01*
X59912900Y-69328700D01*
X60087100Y-69328700D01*
X60093553Y-69327328D01*
X60093557Y-69327328D01*
X60221338Y-69300167D01*
X60257493Y-69292482D01*
X60263526Y-69289796D01*
X60263529Y-69289795D01*
X60410601Y-69224315D01*
X60410604Y-69224313D01*
X60416633Y-69221629D01*
X60557563Y-69119237D01*
X60570915Y-69104408D01*
X60669709Y-68994687D01*
X60669711Y-68994685D01*
X60674126Y-68989781D01*
X60689115Y-68963820D01*
X60757925Y-68844635D01*
X60757925Y-68844634D01*
X60761225Y-68838919D01*
X60785461Y-68764331D01*
X60813017Y-68679522D01*
X60813017Y-68679520D01*
X60815056Y-68673246D01*
X60815959Y-68664663D01*
X60832575Y-68506565D01*
X60833265Y-68500000D01*
X60815056Y-68326754D01*
X60813017Y-68320478D01*
X60763265Y-68167358D01*
X60763263Y-68167354D01*
X60761225Y-68161081D01*
X60696965Y-68049777D01*
X60677427Y-68015936D01*
X60677425Y-68015934D01*
X60674126Y-68010219D01*
X60655724Y-67989781D01*
X60561978Y-67885666D01*
X60561976Y-67885665D01*
X60557563Y-67880763D01*
X60416633Y-67778371D01*
X60410604Y-67775687D01*
X60410601Y-67775685D01*
X60263529Y-67710205D01*
X60263526Y-67710204D01*
X60257493Y-67707518D01*
X60221338Y-67699833D01*
X60093557Y-67672672D01*
X60093553Y-67672672D01*
X60087100Y-67671300D01*
X59912900Y-67671300D01*
X59906447Y-67672672D01*
X59906443Y-67672672D01*
X59827704Y-67689409D01*
X59742507Y-67707518D01*
X59736477Y-67710203D01*
X59736476Y-67710203D01*
X59589398Y-67775686D01*
X59589396Y-67775687D01*
X59583368Y-67778371D01*
X59578027Y-67782251D01*
X59578026Y-67782252D01*
X59492163Y-67844635D01*
X59442437Y-67880763D01*
X59438024Y-67885665D01*
X59438022Y-67885666D01*
X59344277Y-67989781D01*
X59325874Y-68010219D01*
X59322575Y-68015934D01*
X59322573Y-68015936D01*
X59303035Y-68049777D01*
X59238775Y-68161081D01*
X59236737Y-68167354D01*
X59236735Y-68167358D01*
X59186983Y-68320478D01*
X59184944Y-68326754D01*
X59166735Y-68500000D01*
X20283592Y-68500000D01*
X20152956Y-68347044D01*
X19958399Y-68180877D01*
X19740243Y-68047191D01*
X19735673Y-68045298D01*
X19735669Y-68045296D01*
X19508433Y-67951172D01*
X19508431Y-67951171D01*
X19503860Y-67949278D01*
X19415843Y-67928147D01*
X19259883Y-67890703D01*
X19259877Y-67890702D01*
X19255070Y-67889548D01*
X19166431Y-67882572D01*
X19066320Y-67874693D01*
X19066311Y-67874693D01*
X19063863Y-67874500D01*
X18936137Y-67874500D01*
X18933689Y-67874693D01*
X18933680Y-67874693D01*
X18833569Y-67882572D01*
X18744930Y-67889548D01*
X18740123Y-67890702D01*
X18740117Y-67890703D01*
X18584157Y-67928147D01*
X18496140Y-67949278D01*
X18491569Y-67951171D01*
X18491567Y-67951172D01*
X18264331Y-68045296D01*
X18264327Y-68045298D01*
X18259757Y-68047191D01*
X18041601Y-68180877D01*
X17847044Y-68347044D01*
X17680877Y-68541601D01*
X17547191Y-68759757D01*
X17545298Y-68764327D01*
X17545296Y-68764331D01*
X17453481Y-68985993D01*
X17449278Y-68996140D01*
X17442880Y-69022788D01*
X17390703Y-69240117D01*
X17390702Y-69240123D01*
X17389548Y-69244930D01*
X17369474Y-69500000D01*
X15703700Y-69500000D01*
X15703700Y-69037739D01*
X15706955Y-69009286D01*
X15707326Y-69007686D01*
X15707327Y-69007681D01*
X15708938Y-69000729D01*
X15708939Y-69000000D01*
X15707356Y-68993061D01*
X15706565Y-68985993D01*
X15707590Y-68985878D01*
X15705732Y-68963820D01*
X15720886Y-68693979D01*
X15722468Y-68679938D01*
X15725064Y-68664663D01*
X15772624Y-68384741D01*
X15775768Y-68370966D01*
X15834426Y-68167358D01*
X15858663Y-68083230D01*
X15863324Y-68069911D01*
X15977915Y-67793264D01*
X15984044Y-67780537D01*
X16128881Y-67518475D01*
X16136398Y-67506511D01*
X16141018Y-67500000D01*
X61166735Y-67500000D01*
X61184944Y-67673246D01*
X61186983Y-67679520D01*
X61186983Y-67679522D01*
X61220363Y-67782252D01*
X61238775Y-67838919D01*
X61325874Y-67989781D01*
X61330289Y-67994685D01*
X61330291Y-67994687D01*
X61398015Y-68069902D01*
X61442437Y-68119237D01*
X61583367Y-68221629D01*
X61589396Y-68224313D01*
X61589399Y-68224315D01*
X61736471Y-68289795D01*
X61736474Y-68289796D01*
X61742507Y-68292482D01*
X61778662Y-68300167D01*
X61906443Y-68327328D01*
X61906447Y-68327328D01*
X61912900Y-68328700D01*
X62087100Y-68328700D01*
X62093553Y-68327328D01*
X62093557Y-68327328D01*
X62221338Y-68300167D01*
X62257493Y-68292482D01*
X62263526Y-68289796D01*
X62263529Y-68289795D01*
X62410601Y-68224315D01*
X62410604Y-68224313D01*
X62416633Y-68221629D01*
X62557563Y-68119237D01*
X62601985Y-68069902D01*
X62669709Y-67994687D01*
X62669711Y-67994685D01*
X62674126Y-67989781D01*
X62761225Y-67838919D01*
X62779638Y-67782252D01*
X62813017Y-67679522D01*
X62813017Y-67679520D01*
X62815056Y-67673246D01*
X62833265Y-67500000D01*
X62815056Y-67326754D01*
X62813017Y-67320478D01*
X62763265Y-67167358D01*
X62763263Y-67167354D01*
X62761225Y-67161081D01*
X62734233Y-67114328D01*
X62677427Y-67015936D01*
X62677425Y-67015934D01*
X62674126Y-67010219D01*
X62655724Y-66989781D01*
X62561978Y-66885666D01*
X62561976Y-66885665D01*
X62557563Y-66880763D01*
X62471841Y-66818482D01*
X62421975Y-66782252D01*
X62421974Y-66782251D01*
X62416633Y-66778371D01*
X62410604Y-66775687D01*
X62410601Y-66775685D01*
X62263529Y-66710205D01*
X62263526Y-66710204D01*
X62257493Y-66707518D01*
X62221338Y-66699833D01*
X62093557Y-66672672D01*
X62093553Y-66672672D01*
X62087100Y-66671300D01*
X61912900Y-66671300D01*
X61906447Y-66672672D01*
X61906443Y-66672672D01*
X61827703Y-66689409D01*
X61742507Y-66707518D01*
X61736477Y-66710203D01*
X61736476Y-66710203D01*
X61589398Y-66775686D01*
X61589396Y-66775687D01*
X61583368Y-66778371D01*
X61578027Y-66782251D01*
X61578026Y-66782252D01*
X61492163Y-66844635D01*
X61442437Y-66880763D01*
X61438024Y-66885665D01*
X61438022Y-66885666D01*
X61344277Y-66989781D01*
X61325874Y-67010219D01*
X61322575Y-67015934D01*
X61322573Y-67015936D01*
X61265767Y-67114328D01*
X61238775Y-67161081D01*
X61236737Y-67167354D01*
X61236735Y-67167358D01*
X61186983Y-67320478D01*
X61184944Y-67326754D01*
X61166735Y-67500000D01*
X16141018Y-67500000D01*
X16309672Y-67262304D01*
X16318482Y-67251258D01*
X16518002Y-67027994D01*
X16527994Y-67018002D01*
X16751258Y-66818482D01*
X16762304Y-66809672D01*
X17006511Y-66636398D01*
X17018475Y-66628881D01*
X17210978Y-66522488D01*
X17251667Y-66500000D01*
X59166735Y-66500000D01*
X59167425Y-66506565D01*
X59183007Y-66654813D01*
X59184944Y-66673246D01*
X59186983Y-66679520D01*
X59186983Y-66679522D01*
X59232135Y-66818482D01*
X59238775Y-66838919D01*
X59325874Y-66989781D01*
X59330289Y-66994685D01*
X59330291Y-66994687D01*
X59360281Y-67027994D01*
X59442437Y-67119237D01*
X59583367Y-67221629D01*
X59589396Y-67224313D01*
X59589399Y-67224315D01*
X59736471Y-67289795D01*
X59736474Y-67289796D01*
X59742507Y-67292482D01*
X59778662Y-67300167D01*
X59906443Y-67327328D01*
X59906447Y-67327328D01*
X59912900Y-67328700D01*
X60087100Y-67328700D01*
X60093553Y-67327328D01*
X60093557Y-67327328D01*
X60221338Y-67300167D01*
X60257493Y-67292482D01*
X60263526Y-67289796D01*
X60263529Y-67289795D01*
X60410601Y-67224315D01*
X60410604Y-67224313D01*
X60416633Y-67221629D01*
X60557563Y-67119237D01*
X60639719Y-67027994D01*
X60669709Y-66994687D01*
X60669711Y-66994685D01*
X60674126Y-66989781D01*
X60761225Y-66838919D01*
X60767866Y-66818482D01*
X60813017Y-66679522D01*
X60813017Y-66679520D01*
X60815056Y-66673246D01*
X60816994Y-66654813D01*
X60832575Y-66506565D01*
X60833265Y-66500000D01*
X60825538Y-66426484D01*
X60815746Y-66333315D01*
X60815745Y-66333311D01*
X60815056Y-66326754D01*
X60810519Y-66312790D01*
X60763265Y-66167358D01*
X60763263Y-66167354D01*
X60761225Y-66161081D01*
X60756379Y-66152688D01*
X60677427Y-66015936D01*
X60677425Y-66015934D01*
X60674126Y-66010219D01*
X60666022Y-66001218D01*
X60561978Y-65885666D01*
X60561976Y-65885665D01*
X60557563Y-65880763D01*
X60507837Y-65844635D01*
X60421975Y-65782252D01*
X60421974Y-65782251D01*
X60416633Y-65778371D01*
X60410604Y-65775687D01*
X60410601Y-65775685D01*
X60263529Y-65710205D01*
X60263526Y-65710204D01*
X60257493Y-65707518D01*
X60203606Y-65696064D01*
X60093557Y-65672672D01*
X60093553Y-65672672D01*
X60087100Y-65671300D01*
X59912900Y-65671300D01*
X59906447Y-65672672D01*
X59906443Y-65672672D01*
X59838218Y-65687174D01*
X59742507Y-65707518D01*
X59736477Y-65710203D01*
X59736476Y-65710203D01*
X59589398Y-65775686D01*
X59589396Y-65775687D01*
X59583368Y-65778371D01*
X59578027Y-65782251D01*
X59578026Y-65782252D01*
X59495194Y-65842433D01*
X59442437Y-65880763D01*
X59438024Y-65885665D01*
X59438022Y-65885666D01*
X59333979Y-66001218D01*
X59325874Y-66010219D01*
X59322575Y-66015934D01*
X59322573Y-66015936D01*
X59243621Y-66152688D01*
X59238775Y-66161081D01*
X59236737Y-66167354D01*
X59236735Y-66167358D01*
X59189481Y-66312790D01*
X59184944Y-66326754D01*
X59184255Y-66333311D01*
X59184254Y-66333315D01*
X59174462Y-66426484D01*
X59166735Y-66500000D01*
X17251667Y-66500000D01*
X17280541Y-66484042D01*
X17293264Y-66477915D01*
X17569911Y-66363324D01*
X17583230Y-66358663D01*
X17801193Y-66295869D01*
X17870966Y-66275768D01*
X17884741Y-66272624D01*
X18051250Y-66244333D01*
X18179943Y-66222467D01*
X18193975Y-66220886D01*
X18463535Y-66205748D01*
X18471618Y-66206437D01*
X18471619Y-66205734D01*
X18485805Y-66205759D01*
X18499635Y-66208939D01*
X18513476Y-66205807D01*
X18517936Y-66205815D01*
X18536865Y-66203700D01*
X43962261Y-66203700D01*
X43990714Y-66206955D01*
X43992314Y-66207326D01*
X43992319Y-66207327D01*
X43999271Y-66208938D01*
X44000000Y-66208939D01*
X44006564Y-66207441D01*
X44013001Y-66206924D01*
X44311307Y-66192270D01*
X44311312Y-66192269D01*
X44314396Y-66192118D01*
X44514146Y-66162488D01*
X44622698Y-66146386D01*
X44622702Y-66146385D01*
X44625764Y-66145931D01*
X44628763Y-66145180D01*
X44628767Y-66145179D01*
X44846280Y-66090694D01*
X44931106Y-66069446D01*
X44934003Y-66068409D01*
X44934011Y-66068407D01*
X45097004Y-66010087D01*
X45227481Y-65963402D01*
X45230264Y-65962086D01*
X45230273Y-65962082D01*
X45509253Y-65830134D01*
X45509256Y-65830132D01*
X45512035Y-65828818D01*
X45520435Y-65823783D01*
X51321158Y-65823783D01*
X51322322Y-65832685D01*
X51322322Y-65832688D01*
X51338701Y-65957943D01*
X51338702Y-65957947D01*
X51339866Y-65966848D01*
X51397975Y-66098912D01*
X51455401Y-66167228D01*
X51475942Y-66191664D01*
X51490815Y-66209358D01*
X51498286Y-66214331D01*
X51498287Y-66214332D01*
X51603448Y-66284333D01*
X51610922Y-66289308D01*
X51710691Y-66320478D01*
X51732617Y-66327328D01*
X51748640Y-66332334D01*
X51892898Y-66334978D01*
X51974283Y-66312790D01*
X52023442Y-66299388D01*
X52023444Y-66299387D01*
X52032101Y-66297027D01*
X52155056Y-66221532D01*
X52251881Y-66114562D01*
X52256135Y-66105783D01*
X52306795Y-66001218D01*
X52314790Y-65984716D01*
X52338728Y-65842433D01*
X52338880Y-65830000D01*
X52332261Y-65783783D01*
X53121158Y-65783783D01*
X53122322Y-65792685D01*
X53122322Y-65792688D01*
X53138701Y-65917943D01*
X53138702Y-65917947D01*
X53139866Y-65926848D01*
X53197975Y-66058912D01*
X53216724Y-66081216D01*
X53279053Y-66155365D01*
X53290815Y-66169358D01*
X53298286Y-66174331D01*
X53298287Y-66174332D01*
X53376249Y-66226228D01*
X53410922Y-66249308D01*
X53548640Y-66292334D01*
X53692898Y-66294978D01*
X53774892Y-66272624D01*
X53823442Y-66259388D01*
X53823444Y-66259387D01*
X53832101Y-66257027D01*
X53955056Y-66181532D01*
X54051881Y-66074562D01*
X54056135Y-66065783D01*
X54106376Y-65962082D01*
X54114790Y-65944716D01*
X54138728Y-65802433D01*
X54138804Y-65796176D01*
X54138821Y-65794859D01*
X54138821Y-65794854D01*
X54138880Y-65790000D01*
X54118426Y-65647174D01*
X54073802Y-65549030D01*
X54062422Y-65524000D01*
X54062421Y-65523998D01*
X54058707Y-65515830D01*
X54048416Y-65503886D01*
X53970386Y-65413329D01*
X53964525Y-65406527D01*
X53843451Y-65328050D01*
X53705217Y-65286710D01*
X53696241Y-65286655D01*
X53696240Y-65286655D01*
X53636076Y-65286287D01*
X53560937Y-65285828D01*
X53422209Y-65325477D01*
X53300185Y-65402468D01*
X53204674Y-65510613D01*
X53200860Y-65518736D01*
X53200859Y-65518738D01*
X53170481Y-65583443D01*
X53143356Y-65641218D01*
X53141975Y-65650087D01*
X53122786Y-65773329D01*
X53121158Y-65783783D01*
X52332261Y-65783783D01*
X52318426Y-65687174D01*
X52271262Y-65583443D01*
X52262422Y-65564000D01*
X52262421Y-65563998D01*
X52258707Y-65555830D01*
X52248416Y-65543886D01*
X52170386Y-65453329D01*
X52164525Y-65446527D01*
X52043451Y-65368050D01*
X51905217Y-65326710D01*
X51896241Y-65326655D01*
X51896240Y-65326655D01*
X51836076Y-65326287D01*
X51760937Y-65325828D01*
X51622209Y-65365477D01*
X51500185Y-65442468D01*
X51404674Y-65550613D01*
X51400860Y-65558736D01*
X51400859Y-65558738D01*
X51350901Y-65665148D01*
X51343356Y-65681218D01*
X51341975Y-65690087D01*
X51323386Y-65809477D01*
X51321158Y-65823783D01*
X45520435Y-65823783D01*
X45584834Y-65785184D01*
X45779377Y-65668580D01*
X45779386Y-65668574D01*
X45782027Y-65666991D01*
X45819766Y-65639002D01*
X46032366Y-65481327D01*
X46032370Y-65481324D01*
X46034856Y-65479480D01*
X46201312Y-65328614D01*
X46219054Y-65315186D01*
X46248990Y-65296445D01*
X46575435Y-64970000D01*
X56841091Y-64970000D01*
X56861839Y-65127597D01*
X56864998Y-65135224D01*
X56864999Y-65135227D01*
X56892254Y-65201026D01*
X56922669Y-65274454D01*
X56957984Y-65320478D01*
X56998233Y-65372931D01*
X57019436Y-65400564D01*
X57145545Y-65497331D01*
X57190206Y-65515830D01*
X57284773Y-65555001D01*
X57284776Y-65555002D01*
X57292403Y-65558161D01*
X57450000Y-65578909D01*
X57458188Y-65577831D01*
X57599409Y-65559239D01*
X57607597Y-65558161D01*
X57615224Y-65555002D01*
X57615227Y-65555001D01*
X57709794Y-65515830D01*
X57748011Y-65500000D01*
X61166735Y-65500000D01*
X61167425Y-65506565D01*
X61184093Y-65665148D01*
X61184944Y-65673246D01*
X61186983Y-65679520D01*
X61186983Y-65679522D01*
X61235921Y-65830134D01*
X61238775Y-65838919D01*
X61242075Y-65844634D01*
X61242075Y-65844635D01*
X61317380Y-65975068D01*
X61325874Y-65989781D01*
X61330289Y-65994685D01*
X61330291Y-65994687D01*
X61424136Y-66098912D01*
X61442437Y-66119237D01*
X61447776Y-66123116D01*
X61573324Y-66214332D01*
X61583367Y-66221629D01*
X61589396Y-66224313D01*
X61589399Y-66224315D01*
X61736471Y-66289795D01*
X61736474Y-66289796D01*
X61742507Y-66292482D01*
X61758442Y-66295869D01*
X61906443Y-66327328D01*
X61906447Y-66327328D01*
X61912900Y-66328700D01*
X62087100Y-66328700D01*
X62093553Y-66327328D01*
X62093557Y-66327328D01*
X62241558Y-66295869D01*
X62257493Y-66292482D01*
X62263526Y-66289796D01*
X62263529Y-66289795D01*
X62410601Y-66224315D01*
X62410604Y-66224313D01*
X62416633Y-66221629D01*
X62426677Y-66214332D01*
X62523779Y-66143783D01*
X69151158Y-66143783D01*
X69152322Y-66152685D01*
X69152322Y-66152688D01*
X69168701Y-66277943D01*
X69168702Y-66277947D01*
X69169866Y-66286848D01*
X69227975Y-66418912D01*
X69320815Y-66529358D01*
X69328286Y-66534331D01*
X69328287Y-66534332D01*
X69346158Y-66546228D01*
X69440922Y-66609308D01*
X69578640Y-66652334D01*
X69722898Y-66654978D01*
X69818621Y-66628881D01*
X69853442Y-66619388D01*
X69853444Y-66619387D01*
X69862101Y-66617027D01*
X69985056Y-66541532D01*
X70028592Y-66493435D01*
X70075858Y-66441216D01*
X70081881Y-66434562D01*
X70086135Y-66425783D01*
X70140878Y-66312790D01*
X70144790Y-66304716D01*
X70168728Y-66162433D01*
X70168804Y-66156176D01*
X70168821Y-66154859D01*
X70168821Y-66154854D01*
X70168880Y-66150000D01*
X70148426Y-66007174D01*
X70088707Y-65875830D01*
X70078416Y-65863886D01*
X70000386Y-65773329D01*
X69994525Y-65766527D01*
X69873451Y-65688050D01*
X69735217Y-65646710D01*
X69726241Y-65646655D01*
X69726240Y-65646655D01*
X69666076Y-65646287D01*
X69590937Y-65645828D01*
X69452209Y-65685477D01*
X69330185Y-65762468D01*
X69234674Y-65870613D01*
X69230860Y-65878736D01*
X69230859Y-65878738D01*
X69177313Y-65992790D01*
X69173356Y-66001218D01*
X69171975Y-66010087D01*
X69154672Y-66121216D01*
X69151158Y-66143783D01*
X62523779Y-66143783D01*
X62552224Y-66123116D01*
X62557563Y-66119237D01*
X62575864Y-66098912D01*
X62669709Y-65994687D01*
X62669711Y-65994685D01*
X62674126Y-65989781D01*
X62682621Y-65975068D01*
X62757925Y-65844635D01*
X62757925Y-65844634D01*
X62761225Y-65838919D01*
X62764080Y-65830134D01*
X62813017Y-65679522D01*
X62813017Y-65679520D01*
X62815056Y-65673246D01*
X62815908Y-65665148D01*
X62832575Y-65506565D01*
X62833265Y-65500000D01*
X62827218Y-65442468D01*
X62815746Y-65333315D01*
X62815745Y-65333311D01*
X62815056Y-65326754D01*
X62805208Y-65296445D01*
X62763265Y-65167358D01*
X62763263Y-65167354D01*
X62761225Y-65161081D01*
X62757925Y-65155365D01*
X62677427Y-65015936D01*
X62677425Y-65015934D01*
X62674126Y-65010219D01*
X62655724Y-64989781D01*
X62561978Y-64885666D01*
X62561976Y-64885665D01*
X62557563Y-64880763D01*
X62416633Y-64778371D01*
X62410604Y-64775687D01*
X62410601Y-64775685D01*
X62263529Y-64710205D01*
X62263526Y-64710204D01*
X62257493Y-64707518D01*
X62221338Y-64699833D01*
X62093557Y-64672672D01*
X62093553Y-64672672D01*
X62087100Y-64671300D01*
X61912900Y-64671300D01*
X61906447Y-64672672D01*
X61906443Y-64672672D01*
X61827704Y-64689409D01*
X61742507Y-64707518D01*
X61736477Y-64710203D01*
X61736476Y-64710203D01*
X61589398Y-64775686D01*
X61589396Y-64775687D01*
X61583368Y-64778371D01*
X61578027Y-64782251D01*
X61578026Y-64782252D01*
X61492163Y-64844635D01*
X61442437Y-64880763D01*
X61438024Y-64885665D01*
X61438022Y-64885666D01*
X61344277Y-64989781D01*
X61325874Y-65010219D01*
X61322575Y-65015934D01*
X61322573Y-65015936D01*
X61242075Y-65155365D01*
X61238775Y-65161081D01*
X61236737Y-65167354D01*
X61236735Y-65167358D01*
X61194792Y-65296445D01*
X61184944Y-65326754D01*
X61184255Y-65333311D01*
X61184254Y-65333315D01*
X61172782Y-65442468D01*
X61166735Y-65500000D01*
X57748011Y-65500000D01*
X57754455Y-65497331D01*
X57880564Y-65400564D01*
X57901768Y-65372931D01*
X57942016Y-65320478D01*
X57977331Y-65274454D01*
X58007746Y-65201026D01*
X58035001Y-65135227D01*
X58035002Y-65135224D01*
X58038161Y-65127597D01*
X58058909Y-64970000D01*
X58038161Y-64812403D01*
X58022953Y-64775686D01*
X57994148Y-64706146D01*
X57977331Y-64665546D01*
X57880564Y-64539436D01*
X57754455Y-64442669D01*
X57681026Y-64412254D01*
X57615227Y-64384999D01*
X57615224Y-64384998D01*
X57607597Y-64381839D01*
X57450000Y-64361091D01*
X57292403Y-64381839D01*
X57284776Y-64384998D01*
X57284773Y-64384999D01*
X57218975Y-64412254D01*
X57145546Y-64442669D01*
X57019436Y-64539436D01*
X56922669Y-64665546D01*
X56905852Y-64706146D01*
X56877048Y-64775686D01*
X56861839Y-64812403D01*
X56841091Y-64970000D01*
X46575435Y-64970000D01*
X49075234Y-62470201D01*
X58862034Y-62470201D01*
X58875659Y-62678078D01*
X58926938Y-62879991D01*
X59014155Y-63069178D01*
X59134387Y-63239303D01*
X59283609Y-63384669D01*
X59288405Y-63387874D01*
X59288408Y-63387876D01*
X59358123Y-63434458D01*
X59456823Y-63500407D01*
X59575275Y-63551298D01*
X59629967Y-63596565D01*
X59651504Y-63664216D01*
X59633047Y-63732772D01*
X59588753Y-63775974D01*
X59583368Y-63778371D01*
X59442437Y-63880763D01*
X59438024Y-63885665D01*
X59438022Y-63885666D01*
X59346970Y-63986790D01*
X59325874Y-64010219D01*
X59238775Y-64161081D01*
X59236737Y-64167354D01*
X59236735Y-64167358D01*
X59197107Y-64289319D01*
X59184944Y-64326754D01*
X59184255Y-64333311D01*
X59184254Y-64333315D01*
X59179154Y-64381839D01*
X59166735Y-64500000D01*
X59167425Y-64506565D01*
X59184135Y-64665546D01*
X59184944Y-64673246D01*
X59186983Y-64679520D01*
X59186983Y-64679522D01*
X59232820Y-64820591D01*
X59238775Y-64838919D01*
X59242075Y-64844634D01*
X59242075Y-64844635D01*
X59314454Y-64970000D01*
X59325874Y-64989781D01*
X59330289Y-64994685D01*
X59330291Y-64994687D01*
X59349424Y-65015936D01*
X59442437Y-65119237D01*
X59583367Y-65221629D01*
X59589396Y-65224313D01*
X59589399Y-65224315D01*
X59736471Y-65289795D01*
X59736474Y-65289796D01*
X59742507Y-65292482D01*
X59761152Y-65296445D01*
X59906443Y-65327328D01*
X59906447Y-65327328D01*
X59912900Y-65328700D01*
X60087100Y-65328700D01*
X60093553Y-65327328D01*
X60093557Y-65327328D01*
X60238848Y-65296445D01*
X60257493Y-65292482D01*
X60263526Y-65289796D01*
X60263529Y-65289795D01*
X60410601Y-65224315D01*
X60410604Y-65224313D01*
X60416633Y-65221629D01*
X60557563Y-65119237D01*
X60650576Y-65015936D01*
X60669709Y-64994687D01*
X60669711Y-64994685D01*
X60674126Y-64989781D01*
X60685547Y-64970000D01*
X60757925Y-64844635D01*
X60757925Y-64844634D01*
X60761225Y-64838919D01*
X60767181Y-64820591D01*
X60813017Y-64679522D01*
X60813017Y-64679520D01*
X60815056Y-64673246D01*
X60815866Y-64665546D01*
X60832575Y-64506565D01*
X60833265Y-64500000D01*
X60820846Y-64381839D01*
X60815746Y-64333315D01*
X60815745Y-64333311D01*
X60815056Y-64326754D01*
X60802893Y-64289319D01*
X60763410Y-64167804D01*
X61517299Y-64167804D01*
X61526126Y-64179422D01*
X61578277Y-64217312D01*
X61589649Y-64223878D01*
X61736631Y-64289319D01*
X61749119Y-64293376D01*
X61906496Y-64326828D01*
X61919556Y-64328200D01*
X62080444Y-64328200D01*
X62093504Y-64326828D01*
X62250881Y-64293376D01*
X62263369Y-64289319D01*
X62410351Y-64223878D01*
X62421723Y-64217312D01*
X62474245Y-64179153D01*
X62482668Y-64168230D01*
X62475764Y-64155369D01*
X62012812Y-63692417D01*
X61998868Y-63684803D01*
X61997035Y-63684934D01*
X61990420Y-63689185D01*
X61523912Y-64155693D01*
X61517299Y-64167804D01*
X60763410Y-64167804D01*
X60763265Y-64167358D01*
X60763263Y-64167354D01*
X60761225Y-64161081D01*
X60674126Y-64010219D01*
X60653031Y-63986790D01*
X60561978Y-63885666D01*
X60561976Y-63885665D01*
X60557563Y-63880763D01*
X60491039Y-63832430D01*
X60421975Y-63782252D01*
X60421974Y-63782251D01*
X60416633Y-63778371D01*
X60413021Y-63776763D01*
X60364706Y-63726092D01*
X60351270Y-63656378D01*
X60377656Y-63590467D01*
X60436197Y-63549042D01*
X60457546Y-63541795D01*
X60457545Y-63541795D01*
X60463011Y-63539940D01*
X60522606Y-63506565D01*
X61167928Y-63506565D01*
X61184746Y-63666577D01*
X61187476Y-63679420D01*
X61237192Y-63832430D01*
X61242538Y-63844438D01*
X61321880Y-63981862D01*
X61329877Y-63986790D01*
X61329948Y-63986789D01*
X61339239Y-63981156D01*
X61807583Y-63512812D01*
X61813961Y-63501132D01*
X62184803Y-63501132D01*
X62184934Y-63502965D01*
X62189185Y-63509580D01*
X62658714Y-63979109D01*
X62672658Y-63986723D01*
X62672730Y-63986718D01*
X62676975Y-63983831D01*
X62677018Y-63983771D01*
X62757462Y-63844438D01*
X62762808Y-63832430D01*
X62812524Y-63679420D01*
X62815254Y-63666577D01*
X62832072Y-63506565D01*
X62832072Y-63493435D01*
X62815254Y-63333423D01*
X62812524Y-63320580D01*
X62762808Y-63167570D01*
X62757462Y-63155562D01*
X62678120Y-63018138D01*
X62670123Y-63013210D01*
X62670052Y-63013211D01*
X62660761Y-63018844D01*
X62192417Y-63487188D01*
X62184803Y-63501132D01*
X61813961Y-63501132D01*
X61815197Y-63498868D01*
X61815066Y-63497035D01*
X61810815Y-63490420D01*
X61341286Y-63020891D01*
X61327342Y-63013277D01*
X61327270Y-63013282D01*
X61323025Y-63016169D01*
X61322982Y-63016229D01*
X61242538Y-63155562D01*
X61237192Y-63167570D01*
X61187476Y-63320580D01*
X61184746Y-63333423D01*
X61167928Y-63493435D01*
X61167928Y-63506565D01*
X60522606Y-63506565D01*
X60644772Y-63438149D01*
X60804939Y-63304939D01*
X60938149Y-63144772D01*
X61039940Y-62963011D01*
X61066341Y-62885237D01*
X61105047Y-62771213D01*
X61105048Y-62771208D01*
X61106903Y-62765744D01*
X61107731Y-62760035D01*
X61107732Y-62760030D01*
X61136263Y-62563251D01*
X61136796Y-62559577D01*
X61137841Y-62519672D01*
X61159620Y-62452099D01*
X61214474Y-62407026D01*
X61284988Y-62398766D01*
X61333800Y-62418206D01*
X61420246Y-62475967D01*
X61456823Y-62500407D01*
X61575851Y-62551545D01*
X61630544Y-62596813D01*
X61652081Y-62664464D01*
X61633624Y-62733020D01*
X61589113Y-62776432D01*
X61578277Y-62782688D01*
X61525755Y-62820847D01*
X61517332Y-62831770D01*
X61524236Y-62844631D01*
X61987188Y-63307583D01*
X62001132Y-63315197D01*
X62002965Y-63315066D01*
X62009580Y-63310815D01*
X62476088Y-62844307D01*
X62482701Y-62832196D01*
X62473874Y-62820578D01*
X62421723Y-62782688D01*
X62413063Y-62777688D01*
X62364070Y-62726304D01*
X62350636Y-62656590D01*
X62377024Y-62590680D01*
X62435564Y-62549257D01*
X62457543Y-62541796D01*
X62463011Y-62539940D01*
X62644772Y-62438149D01*
X62804939Y-62304939D01*
X62938149Y-62144772D01*
X63039940Y-61963011D01*
X63085091Y-61830000D01*
X63087201Y-61823783D01*
X74991158Y-61823783D01*
X74992322Y-61832685D01*
X74992322Y-61832688D01*
X75008701Y-61957943D01*
X75008702Y-61957947D01*
X75009866Y-61966848D01*
X75067975Y-62098912D01*
X75160815Y-62209358D01*
X75168286Y-62214331D01*
X75168287Y-62214332D01*
X75233596Y-62257805D01*
X75280922Y-62289308D01*
X75418640Y-62332334D01*
X75562898Y-62334978D01*
X75659542Y-62308630D01*
X75693442Y-62299388D01*
X75693444Y-62299387D01*
X75702101Y-62297027D01*
X75825056Y-62221532D01*
X75921881Y-62114562D01*
X75926135Y-62105783D01*
X75980878Y-61992790D01*
X75984790Y-61984716D01*
X76008728Y-61842433D01*
X76008880Y-61830000D01*
X75988426Y-61687174D01*
X75944799Y-61591222D01*
X75932422Y-61564000D01*
X75932421Y-61563998D01*
X75928707Y-61555830D01*
X75918416Y-61543886D01*
X75840386Y-61453329D01*
X75834525Y-61446527D01*
X75713451Y-61368050D01*
X75575217Y-61326710D01*
X75566241Y-61326655D01*
X75566240Y-61326655D01*
X75506076Y-61326287D01*
X75430937Y-61325828D01*
X75292209Y-61365477D01*
X75170185Y-61442468D01*
X75074674Y-61550613D01*
X75070860Y-61558736D01*
X75070859Y-61558738D01*
X75051729Y-61599485D01*
X75013356Y-61681218D01*
X75011975Y-61690087D01*
X75001085Y-61760030D01*
X74991158Y-61823783D01*
X63087201Y-61823783D01*
X63105047Y-61771213D01*
X63105048Y-61771208D01*
X63106903Y-61765744D01*
X63107731Y-61760035D01*
X63107732Y-61760030D01*
X63125800Y-61635411D01*
X63136796Y-61559577D01*
X63138356Y-61500000D01*
X63119294Y-61292551D01*
X63098075Y-61217312D01*
X63064316Y-61097614D01*
X63062747Y-61092050D01*
X62970608Y-60905211D01*
X62958793Y-60889388D01*
X62849416Y-60742915D01*
X62849415Y-60742914D01*
X62845963Y-60738291D01*
X62692987Y-60596881D01*
X62692368Y-60596491D01*
X62651466Y-60540476D01*
X62647244Y-60469605D01*
X62678592Y-60413783D01*
X76411158Y-60413783D01*
X76412322Y-60422685D01*
X76412322Y-60422688D01*
X76428701Y-60547943D01*
X76428702Y-60547947D01*
X76429866Y-60556848D01*
X76487975Y-60688912D01*
X76580815Y-60799358D01*
X76588286Y-60804331D01*
X76588287Y-60804332D01*
X76693448Y-60874333D01*
X76700922Y-60879308D01*
X76838640Y-60922334D01*
X76982898Y-60924978D01*
X77055403Y-60905211D01*
X77113442Y-60889388D01*
X77113444Y-60889387D01*
X77122101Y-60887027D01*
X77245056Y-60811532D01*
X77341881Y-60704562D01*
X77346135Y-60695783D01*
X77394998Y-60594927D01*
X77404790Y-60574716D01*
X77428728Y-60432433D01*
X77428880Y-60420000D01*
X77408426Y-60277174D01*
X77348707Y-60145830D01*
X77338416Y-60133886D01*
X77260386Y-60043329D01*
X77254525Y-60036527D01*
X77133451Y-59958050D01*
X76995217Y-59916710D01*
X76986241Y-59916655D01*
X76986240Y-59916655D01*
X76926076Y-59916287D01*
X76850937Y-59915828D01*
X76712209Y-59955477D01*
X76590185Y-60032468D01*
X76494674Y-60140613D01*
X76490860Y-60148736D01*
X76490859Y-60148738D01*
X76482018Y-60167570D01*
X76433356Y-60271218D01*
X76431975Y-60280087D01*
X76415192Y-60387877D01*
X76411158Y-60413783D01*
X62678592Y-60413783D01*
X62682007Y-60407702D01*
X62689461Y-60400981D01*
X62804939Y-60304939D01*
X62938149Y-60144772D01*
X63039940Y-59963011D01*
X63066341Y-59885237D01*
X63105047Y-59771213D01*
X63105048Y-59771208D01*
X63106903Y-59765744D01*
X63107731Y-59760035D01*
X63107732Y-59760030D01*
X63136263Y-59563251D01*
X63136796Y-59559577D01*
X63138356Y-59500000D01*
X63119294Y-59292551D01*
X63108052Y-59252688D01*
X63105541Y-59243783D01*
X67181158Y-59243783D01*
X67182322Y-59252685D01*
X67182322Y-59252688D01*
X67198701Y-59377943D01*
X67198702Y-59377947D01*
X67199866Y-59386848D01*
X67257975Y-59518912D01*
X67350815Y-59629358D01*
X67358286Y-59634331D01*
X67358287Y-59634332D01*
X67463448Y-59704333D01*
X67470922Y-59709308D01*
X67608640Y-59752334D01*
X67752898Y-59754978D01*
X67833443Y-59733019D01*
X67883442Y-59719388D01*
X67883444Y-59719387D01*
X67892101Y-59717027D01*
X68015056Y-59641532D01*
X68111881Y-59534562D01*
X68116135Y-59525783D01*
X68160381Y-59434456D01*
X68174790Y-59404716D01*
X68198728Y-59262433D01*
X68198804Y-59256176D01*
X68198821Y-59254859D01*
X68198821Y-59254854D01*
X68198880Y-59250000D01*
X68178426Y-59107174D01*
X68118707Y-58975830D01*
X68108416Y-58963886D01*
X68030386Y-58873329D01*
X68024525Y-58866527D01*
X68020292Y-58863783D01*
X77001158Y-58863783D01*
X77002322Y-58872685D01*
X77002322Y-58872688D01*
X77018701Y-58997943D01*
X77018702Y-58997947D01*
X77019866Y-59006848D01*
X77077975Y-59138912D01*
X77170815Y-59249358D01*
X77178286Y-59254331D01*
X77178287Y-59254332D01*
X77227344Y-59286987D01*
X77290922Y-59329308D01*
X77428640Y-59372334D01*
X77572898Y-59374978D01*
X77631299Y-59359056D01*
X77703442Y-59339388D01*
X77703444Y-59339387D01*
X77712101Y-59337027D01*
X77835056Y-59261532D01*
X77931881Y-59154562D01*
X77936135Y-59145783D01*
X77990878Y-59032790D01*
X77994790Y-59024716D01*
X78018728Y-58882433D01*
X78018880Y-58870000D01*
X77998426Y-58727174D01*
X77938707Y-58595830D01*
X77928416Y-58583886D01*
X77850386Y-58493329D01*
X77844525Y-58486527D01*
X77723451Y-58408050D01*
X77585217Y-58366710D01*
X77576241Y-58366655D01*
X77576240Y-58366655D01*
X77516076Y-58366287D01*
X77440937Y-58365828D01*
X77302209Y-58405477D01*
X77180185Y-58482468D01*
X77084674Y-58590613D01*
X77080860Y-58598736D01*
X77080859Y-58598738D01*
X77078389Y-58604000D01*
X77023356Y-58721218D01*
X77021975Y-58730087D01*
X77013351Y-58785477D01*
X77001158Y-58863783D01*
X68020292Y-58863783D01*
X67903451Y-58788050D01*
X67765217Y-58746710D01*
X67756241Y-58746655D01*
X67756240Y-58746655D01*
X67696076Y-58746287D01*
X67620937Y-58745828D01*
X67482209Y-58785477D01*
X67360185Y-58862468D01*
X67354242Y-58869197D01*
X67344722Y-58879976D01*
X67264674Y-58970613D01*
X67260860Y-58978736D01*
X67260859Y-58978738D01*
X67239273Y-59024716D01*
X67203356Y-59101218D01*
X67181158Y-59243783D01*
X63105541Y-59243783D01*
X63073646Y-59130694D01*
X63062747Y-59092050D01*
X62970608Y-58905211D01*
X62957180Y-58887228D01*
X62849416Y-58742915D01*
X62849415Y-58742914D01*
X62845963Y-58738291D01*
X62692987Y-58596881D01*
X62528867Y-58493329D01*
X62521683Y-58488796D01*
X62516803Y-58485717D01*
X62508660Y-58482468D01*
X62426941Y-58449866D01*
X62371081Y-58406046D01*
X62347780Y-58338982D01*
X62364435Y-58269967D01*
X62410627Y-58223718D01*
X62421726Y-58217309D01*
X62474245Y-58179153D01*
X62482668Y-58168230D01*
X62475764Y-58155369D01*
X62012812Y-57692417D01*
X61998868Y-57684803D01*
X61997035Y-57684934D01*
X61990420Y-57689185D01*
X61523912Y-58155693D01*
X61517299Y-58167804D01*
X61526126Y-58179422D01*
X61578277Y-58217312D01*
X61588666Y-58223310D01*
X61637659Y-58274693D01*
X61651095Y-58344406D01*
X61624709Y-58410317D01*
X61569277Y-58450641D01*
X61509925Y-58472537D01*
X61330891Y-58579051D01*
X61330189Y-58577871D01*
X61269662Y-58599467D01*
X61200511Y-58583388D01*
X61151029Y-58532475D01*
X61136996Y-58485202D01*
X61136148Y-58475965D01*
X61119294Y-58292549D01*
X61062747Y-58092048D01*
X60970608Y-57905209D01*
X60845963Y-57738289D01*
X60740153Y-57640479D01*
X60697229Y-57600800D01*
X60697227Y-57600799D01*
X60692987Y-57596879D01*
X60692370Y-57596490D01*
X60651468Y-57540477D01*
X60649447Y-57506565D01*
X61167928Y-57506565D01*
X61184746Y-57666577D01*
X61187476Y-57679420D01*
X61237192Y-57832430D01*
X61242538Y-57844438D01*
X61321880Y-57981862D01*
X61329877Y-57986790D01*
X61329948Y-57986789D01*
X61339239Y-57981156D01*
X61807583Y-57512812D01*
X61813961Y-57501132D01*
X62184803Y-57501132D01*
X62184934Y-57502965D01*
X62189185Y-57509580D01*
X62658714Y-57979109D01*
X62672658Y-57986723D01*
X62672730Y-57986718D01*
X62676975Y-57983831D01*
X62677018Y-57983771D01*
X62757462Y-57844438D01*
X62762808Y-57832430D01*
X62812524Y-57679420D01*
X62815254Y-57666577D01*
X62832072Y-57506565D01*
X62832072Y-57493435D01*
X62815254Y-57333423D01*
X62812524Y-57320580D01*
X62762808Y-57167570D01*
X62757462Y-57155562D01*
X62678120Y-57018138D01*
X62670123Y-57013210D01*
X62670052Y-57013211D01*
X62660761Y-57018844D01*
X62192417Y-57487188D01*
X62184803Y-57501132D01*
X61813961Y-57501132D01*
X61815197Y-57498868D01*
X61815066Y-57497035D01*
X61810815Y-57490420D01*
X61341286Y-57020891D01*
X61327342Y-57013277D01*
X61327270Y-57013282D01*
X61323025Y-57016169D01*
X61322982Y-57016229D01*
X61242538Y-57155562D01*
X61237192Y-57167570D01*
X61187476Y-57320580D01*
X61184746Y-57333423D01*
X61167928Y-57493435D01*
X61167928Y-57506565D01*
X60649447Y-57506565D01*
X60647244Y-57469606D01*
X60682006Y-57407702D01*
X60689460Y-57400983D01*
X60804939Y-57304939D01*
X60938149Y-57144772D01*
X61039940Y-56963011D01*
X61066341Y-56885237D01*
X61105047Y-56771213D01*
X61105048Y-56771208D01*
X61106903Y-56765744D01*
X61107731Y-56760035D01*
X61107732Y-56760030D01*
X61125800Y-56635411D01*
X61136796Y-56559577D01*
X61137841Y-56519672D01*
X61159620Y-56452099D01*
X61214474Y-56407026D01*
X61284988Y-56398766D01*
X61333800Y-56418206D01*
X61420246Y-56475967D01*
X61456823Y-56500407D01*
X61575851Y-56551545D01*
X61630544Y-56596813D01*
X61652081Y-56664464D01*
X61633624Y-56733020D01*
X61589113Y-56776432D01*
X61578277Y-56782688D01*
X61525755Y-56820847D01*
X61517332Y-56831770D01*
X61524236Y-56844631D01*
X61987188Y-57307583D01*
X62001132Y-57315197D01*
X62002965Y-57315066D01*
X62009580Y-57310815D01*
X62476088Y-56844307D01*
X62482701Y-56832196D01*
X62473874Y-56820578D01*
X62421723Y-56782688D01*
X62413063Y-56777688D01*
X62364070Y-56726304D01*
X62350636Y-56656590D01*
X62377024Y-56590680D01*
X62435564Y-56549257D01*
X62457543Y-56541796D01*
X62463011Y-56539940D01*
X62644772Y-56438149D01*
X62804939Y-56304939D01*
X62938149Y-56144772D01*
X63039940Y-55963011D01*
X63069657Y-55875468D01*
X63105047Y-55771213D01*
X63105048Y-55771208D01*
X63106903Y-55765744D01*
X63107731Y-55760035D01*
X63107732Y-55760030D01*
X63130273Y-55604562D01*
X63136796Y-55559577D01*
X63138356Y-55500000D01*
X63121245Y-55313783D01*
X69491158Y-55313783D01*
X69492322Y-55322685D01*
X69492322Y-55322688D01*
X69508701Y-55447943D01*
X69508702Y-55447947D01*
X69509866Y-55456848D01*
X69567975Y-55588912D01*
X69660815Y-55699358D01*
X69668286Y-55704331D01*
X69668287Y-55704332D01*
X69719303Y-55738291D01*
X69780922Y-55779308D01*
X69918640Y-55822334D01*
X70062898Y-55824978D01*
X70121299Y-55809056D01*
X70193442Y-55789388D01*
X70193444Y-55789387D01*
X70202101Y-55787027D01*
X70325056Y-55711532D01*
X70421881Y-55604562D01*
X70426135Y-55595783D01*
X70456570Y-55532964D01*
X70484790Y-55474716D01*
X70508728Y-55332433D01*
X70508880Y-55320000D01*
X70488426Y-55177174D01*
X70428707Y-55045830D01*
X70418416Y-55033886D01*
X70340386Y-54943329D01*
X70334525Y-54936527D01*
X70213451Y-54858050D01*
X70075217Y-54816710D01*
X70066241Y-54816655D01*
X70066240Y-54816655D01*
X70006076Y-54816287D01*
X69930937Y-54815828D01*
X69792209Y-54855477D01*
X69670185Y-54932468D01*
X69574674Y-55040613D01*
X69570860Y-55048736D01*
X69570859Y-55048738D01*
X69547912Y-55097614D01*
X69513356Y-55171218D01*
X69511975Y-55180087D01*
X69493568Y-55298308D01*
X69491158Y-55313783D01*
X63121245Y-55313783D01*
X63119294Y-55292551D01*
X63098075Y-55217312D01*
X63064316Y-55097614D01*
X63062747Y-55092050D01*
X62970608Y-54905211D01*
X62933472Y-54855479D01*
X62849416Y-54742915D01*
X62849415Y-54742914D01*
X62845963Y-54738291D01*
X62692987Y-54596881D01*
X62516803Y-54485717D01*
X62323311Y-54408522D01*
X62118991Y-54367880D01*
X62113216Y-54367804D01*
X62113212Y-54367804D01*
X62008901Y-54366439D01*
X61910686Y-54365153D01*
X61904989Y-54366132D01*
X61904988Y-54366132D01*
X61711069Y-54399454D01*
X61705372Y-54400433D01*
X61509925Y-54472537D01*
X61504964Y-54475489D01*
X61504963Y-54475489D01*
X61465667Y-54498868D01*
X61330891Y-54579051D01*
X61174266Y-54716407D01*
X61170699Y-54720932D01*
X61170694Y-54720937D01*
X61057650Y-54864333D01*
X61045294Y-54880007D01*
X61042603Y-54885123D01*
X61042601Y-54885125D01*
X60989148Y-54986723D01*
X60948296Y-55064370D01*
X60886520Y-55263322D01*
X60862034Y-55470201D01*
X60862412Y-55475969D01*
X60862344Y-55478572D01*
X60840568Y-55546147D01*
X60785716Y-55591222D01*
X60715202Y-55599485D01*
X60669152Y-55581841D01*
X60521688Y-55488799D01*
X60521686Y-55488798D01*
X60516803Y-55485717D01*
X60509467Y-55482790D01*
X60426941Y-55449866D01*
X60371081Y-55406046D01*
X60347780Y-55338982D01*
X60364435Y-55269967D01*
X60410627Y-55223718D01*
X60421726Y-55217309D01*
X60474245Y-55179153D01*
X60482668Y-55168230D01*
X60475764Y-55155369D01*
X60012812Y-54692417D01*
X59998868Y-54684803D01*
X59997035Y-54684934D01*
X59990420Y-54689185D01*
X59523912Y-55155693D01*
X59517299Y-55167804D01*
X59526126Y-55179422D01*
X59578277Y-55217312D01*
X59588666Y-55223310D01*
X59637659Y-55274693D01*
X59651095Y-55344406D01*
X59624709Y-55410317D01*
X59569277Y-55450641D01*
X59509925Y-55472537D01*
X59504964Y-55475489D01*
X59504963Y-55475489D01*
X59386198Y-55546147D01*
X59330891Y-55579051D01*
X59174266Y-55716407D01*
X59170699Y-55720932D01*
X59170694Y-55720937D01*
X59090630Y-55822498D01*
X59045294Y-55880007D01*
X59042603Y-55885123D01*
X59042601Y-55885125D01*
X58998974Y-55968046D01*
X58948296Y-56064370D01*
X58886520Y-56263322D01*
X58862034Y-56470201D01*
X58875659Y-56678078D01*
X58926938Y-56879991D01*
X59014155Y-57069178D01*
X59134387Y-57239303D01*
X59283609Y-57384669D01*
X59288408Y-57387876D01*
X59288411Y-57387878D01*
X59299713Y-57395430D01*
X59345240Y-57449907D01*
X59354087Y-57520351D01*
X59323445Y-57584394D01*
X59312789Y-57594924D01*
X59174266Y-57716405D01*
X59170699Y-57720930D01*
X59170694Y-57720935D01*
X59048872Y-57875466D01*
X59045294Y-57880005D01*
X59042603Y-57885121D01*
X59042601Y-57885123D01*
X58989147Y-57986723D01*
X58948296Y-58064368D01*
X58886520Y-58263320D01*
X58862034Y-58470199D01*
X58875659Y-58678076D01*
X58926938Y-58879989D01*
X59014155Y-59069176D01*
X59134387Y-59239301D01*
X59138521Y-59243328D01*
X59276707Y-59377943D01*
X59283609Y-59384667D01*
X59288405Y-59387872D01*
X59288408Y-59387874D01*
X59428961Y-59481788D01*
X59456823Y-59500405D01*
X59575853Y-59551544D01*
X59630546Y-59596812D01*
X59652083Y-59664463D01*
X59633626Y-59733019D01*
X59589114Y-59776432D01*
X59578274Y-59782690D01*
X59525755Y-59820847D01*
X59517332Y-59831770D01*
X59524236Y-59844631D01*
X59987188Y-60307583D01*
X60001132Y-60315197D01*
X60002965Y-60315066D01*
X60009580Y-60310815D01*
X60476088Y-59844307D01*
X60482701Y-59832196D01*
X60473874Y-59820578D01*
X60421723Y-59782688D01*
X60413061Y-59777687D01*
X60364069Y-59726304D01*
X60350634Y-59656590D01*
X60377021Y-59590680D01*
X60435559Y-59549257D01*
X60463011Y-59539938D01*
X60644772Y-59438147D01*
X60658686Y-59426575D01*
X60723851Y-59398395D01*
X60793906Y-59409919D01*
X60846609Y-59457489D01*
X60864984Y-59515209D01*
X60875659Y-59678078D01*
X60926938Y-59879991D01*
X61014155Y-60069178D01*
X61134387Y-60239303D01*
X61283609Y-60384669D01*
X61288409Y-60387877D01*
X61288410Y-60387877D01*
X61299716Y-60395432D01*
X61345242Y-60449910D01*
X61354088Y-60520353D01*
X61323445Y-60584397D01*
X61312789Y-60594926D01*
X61174266Y-60716407D01*
X61170699Y-60720932D01*
X61170694Y-60720937D01*
X61073334Y-60844438D01*
X61045294Y-60880007D01*
X61042603Y-60885123D01*
X61042601Y-60885125D01*
X60989148Y-60986723D01*
X60948296Y-61064370D01*
X60886520Y-61263322D01*
X60862034Y-61470201D01*
X60862412Y-61475969D01*
X60862344Y-61478572D01*
X60840568Y-61546147D01*
X60785716Y-61591222D01*
X60715202Y-61599485D01*
X60669152Y-61581841D01*
X60521688Y-61488799D01*
X60521686Y-61488798D01*
X60516803Y-61485717D01*
X60426941Y-61449866D01*
X60371081Y-61406046D01*
X60347780Y-61338982D01*
X60364435Y-61269967D01*
X60410627Y-61223718D01*
X60421726Y-61217309D01*
X60474245Y-61179153D01*
X60482668Y-61168230D01*
X60475764Y-61155369D01*
X60012812Y-60692417D01*
X59998868Y-60684803D01*
X59997035Y-60684934D01*
X59990420Y-60689185D01*
X59523912Y-61155693D01*
X59517299Y-61167804D01*
X59526126Y-61179422D01*
X59578277Y-61217312D01*
X59588666Y-61223310D01*
X59637659Y-61274693D01*
X59651095Y-61344406D01*
X59624709Y-61410317D01*
X59569277Y-61450641D01*
X59509925Y-61472537D01*
X59504964Y-61475489D01*
X59504963Y-61475489D01*
X59386198Y-61546147D01*
X59330891Y-61579051D01*
X59174266Y-61716407D01*
X59170699Y-61720932D01*
X59170694Y-61720937D01*
X59078747Y-61837572D01*
X59045294Y-61880007D01*
X59042603Y-61885123D01*
X59042601Y-61885125D01*
X58990204Y-61984716D01*
X58948296Y-62064370D01*
X58886520Y-62263322D01*
X58862034Y-62470201D01*
X49075234Y-62470201D01*
X51038870Y-60506565D01*
X59167928Y-60506565D01*
X59184746Y-60666577D01*
X59187476Y-60679420D01*
X59237192Y-60832430D01*
X59242538Y-60844438D01*
X59321880Y-60981862D01*
X59329877Y-60986790D01*
X59329948Y-60986789D01*
X59339239Y-60981156D01*
X59807583Y-60512812D01*
X59813961Y-60501132D01*
X60184803Y-60501132D01*
X60184934Y-60502965D01*
X60189185Y-60509580D01*
X60658714Y-60979109D01*
X60672658Y-60986723D01*
X60672730Y-60986718D01*
X60676975Y-60983831D01*
X60677018Y-60983771D01*
X60757462Y-60844438D01*
X60762808Y-60832430D01*
X60812524Y-60679420D01*
X60815254Y-60666577D01*
X60832072Y-60506565D01*
X60832072Y-60493435D01*
X60815254Y-60333423D01*
X60812524Y-60320580D01*
X60762808Y-60167570D01*
X60757462Y-60155562D01*
X60678120Y-60018138D01*
X60670123Y-60013210D01*
X60670052Y-60013211D01*
X60660761Y-60018844D01*
X60192417Y-60487188D01*
X60184803Y-60501132D01*
X59813961Y-60501132D01*
X59815197Y-60498868D01*
X59815066Y-60497035D01*
X59810815Y-60490420D01*
X59341286Y-60020891D01*
X59327342Y-60013277D01*
X59327270Y-60013282D01*
X59323025Y-60016169D01*
X59322982Y-60016229D01*
X59242538Y-60155562D01*
X59237192Y-60167570D01*
X59187476Y-60320580D01*
X59184746Y-60333423D01*
X59167928Y-60493435D01*
X59167928Y-60506565D01*
X51038870Y-60506565D01*
X54451652Y-57093783D01*
X55001158Y-57093783D01*
X55002322Y-57102685D01*
X55002322Y-57102688D01*
X55018701Y-57227943D01*
X55018702Y-57227947D01*
X55019866Y-57236848D01*
X55077975Y-57368912D01*
X55091220Y-57384669D01*
X55162618Y-57469606D01*
X55170815Y-57479358D01*
X55178286Y-57484331D01*
X55178287Y-57484332D01*
X55283448Y-57554333D01*
X55290922Y-57559308D01*
X55392029Y-57590896D01*
X55411180Y-57596879D01*
X55428640Y-57602334D01*
X55572898Y-57604978D01*
X55631299Y-57589056D01*
X55703442Y-57569388D01*
X55703444Y-57569387D01*
X55712101Y-57567027D01*
X55835056Y-57491532D01*
X55931881Y-57384562D01*
X55936135Y-57375783D01*
X55968672Y-57308625D01*
X55994790Y-57254716D01*
X56018728Y-57112433D01*
X56018880Y-57100000D01*
X55998426Y-56957174D01*
X55960787Y-56874391D01*
X55942422Y-56834000D01*
X55942421Y-56833998D01*
X55938707Y-56825830D01*
X55928416Y-56813886D01*
X55850386Y-56723329D01*
X55844525Y-56716527D01*
X55723451Y-56638050D01*
X55585217Y-56596710D01*
X55576241Y-56596655D01*
X55576240Y-56596655D01*
X55516076Y-56596287D01*
X55440937Y-56595828D01*
X55302209Y-56635477D01*
X55193104Y-56704317D01*
X55139523Y-56719566D01*
X55129651Y-56764946D01*
X55113505Y-56787968D01*
X55084674Y-56820613D01*
X55080860Y-56828736D01*
X55080859Y-56828738D01*
X55027171Y-56943092D01*
X55023356Y-56951218D01*
X55021975Y-56960087D01*
X55004255Y-57073894D01*
X55001158Y-57093783D01*
X54451652Y-57093783D01*
X54929969Y-56615466D01*
X54992280Y-56581440D01*
X55001758Y-56582118D01*
X55001307Y-56578784D01*
X55031337Y-56514451D01*
X55036776Y-56508659D01*
X57038870Y-54506565D01*
X59167928Y-54506565D01*
X59184746Y-54666577D01*
X59187476Y-54679420D01*
X59237192Y-54832430D01*
X59242538Y-54844438D01*
X59321880Y-54981862D01*
X59329877Y-54986790D01*
X59329948Y-54986789D01*
X59339239Y-54981156D01*
X59807583Y-54512812D01*
X59813961Y-54501132D01*
X60184803Y-54501132D01*
X60184934Y-54502965D01*
X60189185Y-54509580D01*
X60658714Y-54979109D01*
X60672658Y-54986723D01*
X60672730Y-54986718D01*
X60676975Y-54983831D01*
X60677018Y-54983771D01*
X60757462Y-54844438D01*
X60762808Y-54832430D01*
X60812524Y-54679420D01*
X60815254Y-54666577D01*
X60832072Y-54506565D01*
X60832072Y-54493435D01*
X60815254Y-54333423D01*
X60812524Y-54320580D01*
X60762808Y-54167570D01*
X60757462Y-54155562D01*
X60678120Y-54018138D01*
X60670123Y-54013210D01*
X60670052Y-54013211D01*
X60660761Y-54018844D01*
X60192417Y-54487188D01*
X60184803Y-54501132D01*
X59813961Y-54501132D01*
X59815197Y-54498868D01*
X59815066Y-54497035D01*
X59810815Y-54490420D01*
X59341286Y-54020891D01*
X59327342Y-54013277D01*
X59327270Y-54013282D01*
X59323025Y-54016169D01*
X59322982Y-54016229D01*
X59242538Y-54155562D01*
X59237192Y-54167570D01*
X59187476Y-54320580D01*
X59184746Y-54333423D01*
X59167928Y-54493435D01*
X59167928Y-54506565D01*
X57038870Y-54506565D01*
X57713665Y-53831770D01*
X59517332Y-53831770D01*
X59524236Y-53844631D01*
X59987188Y-54307583D01*
X60001132Y-54315197D01*
X60002965Y-54315066D01*
X60009580Y-54310815D01*
X60406612Y-53913783D01*
X73641158Y-53913783D01*
X73642322Y-53922685D01*
X73642322Y-53922688D01*
X73658701Y-54047943D01*
X73658702Y-54047947D01*
X73659866Y-54056848D01*
X73717975Y-54188912D01*
X73810815Y-54299358D01*
X73818286Y-54304331D01*
X73818287Y-54304332D01*
X73836158Y-54316228D01*
X73930922Y-54379308D01*
X74029161Y-54410000D01*
X74053398Y-54417572D01*
X74068640Y-54422334D01*
X74212898Y-54424978D01*
X74290641Y-54403783D01*
X75491158Y-54403783D01*
X75492322Y-54412685D01*
X75492322Y-54412688D01*
X75508701Y-54537943D01*
X75508702Y-54537947D01*
X75509866Y-54546848D01*
X75567975Y-54678912D01*
X75660815Y-54789358D01*
X75668286Y-54794331D01*
X75668287Y-54794332D01*
X75725521Y-54832430D01*
X75780922Y-54869308D01*
X75882029Y-54900896D01*
X75895841Y-54905211D01*
X75918640Y-54912334D01*
X76062898Y-54914978D01*
X76121299Y-54899056D01*
X76193442Y-54879388D01*
X76193444Y-54879387D01*
X76202101Y-54877027D01*
X76325056Y-54801532D01*
X76421881Y-54694562D01*
X76426135Y-54685783D01*
X76480878Y-54572790D01*
X76484790Y-54564716D01*
X76508728Y-54422433D01*
X76508880Y-54410000D01*
X76488426Y-54267174D01*
X76449106Y-54180694D01*
X76432422Y-54144000D01*
X76432421Y-54143998D01*
X76428707Y-54135830D01*
X76418416Y-54123886D01*
X76340386Y-54033329D01*
X76334525Y-54026527D01*
X76213451Y-53948050D01*
X76075217Y-53906710D01*
X76066241Y-53906655D01*
X76066240Y-53906655D01*
X76006076Y-53906287D01*
X75930937Y-53905828D01*
X75792209Y-53945477D01*
X75670185Y-54022468D01*
X75574674Y-54130613D01*
X75570860Y-54138736D01*
X75570859Y-54138738D01*
X75517171Y-54253092D01*
X75513356Y-54261218D01*
X75511975Y-54270087D01*
X75496573Y-54369007D01*
X75491158Y-54403783D01*
X74290641Y-54403783D01*
X74295589Y-54402434D01*
X74343442Y-54389388D01*
X74343444Y-54389387D01*
X74352101Y-54387027D01*
X74475056Y-54311532D01*
X74571881Y-54204562D01*
X74576135Y-54195783D01*
X74606570Y-54132964D01*
X74634790Y-54074716D01*
X74658728Y-53932433D01*
X74658880Y-53920000D01*
X74638426Y-53777174D01*
X74578707Y-53645830D01*
X74568416Y-53633886D01*
X74490386Y-53543329D01*
X74484525Y-53536527D01*
X74363451Y-53458050D01*
X74225217Y-53416710D01*
X74216241Y-53416655D01*
X74216240Y-53416655D01*
X74156076Y-53416287D01*
X74080937Y-53415828D01*
X73942209Y-53455477D01*
X73820185Y-53532468D01*
X73724674Y-53640613D01*
X73720860Y-53648736D01*
X73720859Y-53648738D01*
X73667171Y-53763092D01*
X73663356Y-53771218D01*
X73661975Y-53780087D01*
X73651976Y-53844307D01*
X73641158Y-53913783D01*
X60406612Y-53913783D01*
X60476088Y-53844307D01*
X60482701Y-53832196D01*
X60473874Y-53820578D01*
X60421723Y-53782688D01*
X60410351Y-53776122D01*
X60263369Y-53710681D01*
X60250881Y-53706624D01*
X60093504Y-53673172D01*
X60080444Y-53671800D01*
X59919556Y-53671800D01*
X59906496Y-53673172D01*
X59749119Y-53706624D01*
X59736631Y-53710681D01*
X59589649Y-53776122D01*
X59578277Y-53782688D01*
X59525755Y-53820847D01*
X59517332Y-53831770D01*
X57713665Y-53831770D01*
X58545435Y-53000000D01*
X70211091Y-53000000D01*
X70212169Y-53008188D01*
X70230190Y-53145068D01*
X70231839Y-53157597D01*
X70292669Y-53304454D01*
X70297696Y-53311005D01*
X70380022Y-53418295D01*
X70389436Y-53430564D01*
X70515545Y-53527331D01*
X70554168Y-53543329D01*
X70654773Y-53585001D01*
X70654776Y-53585002D01*
X70662403Y-53588161D01*
X70820000Y-53608909D01*
X70828188Y-53607831D01*
X70969409Y-53589239D01*
X70977597Y-53588161D01*
X70985224Y-53585002D01*
X70985227Y-53585001D01*
X71085832Y-53543329D01*
X71124455Y-53527331D01*
X71250564Y-53430564D01*
X71259979Y-53418295D01*
X71342304Y-53311005D01*
X71347331Y-53304454D01*
X71408161Y-53157597D01*
X71409811Y-53145068D01*
X71427831Y-53008188D01*
X71428909Y-53000000D01*
X71428091Y-52993783D01*
X76071158Y-52993783D01*
X76072322Y-53002685D01*
X76072322Y-53002688D01*
X76088701Y-53127943D01*
X76088702Y-53127947D01*
X76089866Y-53136848D01*
X76147975Y-53268912D01*
X76240815Y-53379358D01*
X76248286Y-53384331D01*
X76248287Y-53384332D01*
X76325294Y-53435592D01*
X76360922Y-53459308D01*
X76498640Y-53502334D01*
X76642898Y-53504978D01*
X76701299Y-53489056D01*
X76773442Y-53469388D01*
X76773444Y-53469387D01*
X76782101Y-53467027D01*
X76905056Y-53391532D01*
X77001881Y-53284562D01*
X77006135Y-53275783D01*
X77036569Y-53212964D01*
X77064790Y-53154716D01*
X77088728Y-53012433D01*
X77088880Y-53000000D01*
X77068426Y-52857174D01*
X77008707Y-52725830D01*
X76998416Y-52713886D01*
X76920386Y-52623329D01*
X76914525Y-52616527D01*
X76793451Y-52538050D01*
X76655217Y-52496710D01*
X76646241Y-52496655D01*
X76646240Y-52496655D01*
X76586076Y-52496287D01*
X76510937Y-52495828D01*
X76372209Y-52535477D01*
X76250185Y-52612468D01*
X76154674Y-52720613D01*
X76150860Y-52728736D01*
X76150859Y-52728738D01*
X76097171Y-52843092D01*
X76093356Y-52851218D01*
X76091975Y-52860087D01*
X76073087Y-52981396D01*
X76071158Y-52993783D01*
X71428091Y-52993783D01*
X71408161Y-52842403D01*
X71347331Y-52695546D01*
X71286698Y-52616527D01*
X71255591Y-52575987D01*
X71255590Y-52575986D01*
X71250564Y-52569436D01*
X71124455Y-52472669D01*
X71051026Y-52442254D01*
X70985227Y-52414999D01*
X70985224Y-52414998D01*
X70977597Y-52411839D01*
X70820000Y-52391091D01*
X70662403Y-52411839D01*
X70654776Y-52414998D01*
X70654773Y-52414999D01*
X70588974Y-52442254D01*
X70515546Y-52472669D01*
X70389436Y-52569436D01*
X70292669Y-52695546D01*
X70231839Y-52842403D01*
X70211091Y-53000000D01*
X58545435Y-53000000D01*
X60496236Y-51049198D01*
X60510455Y-51037877D01*
X60514134Y-51034211D01*
X60526163Y-51026680D01*
X60533735Y-51014679D01*
X60543786Y-51004664D01*
X60544033Y-51004912D01*
X60549361Y-50998570D01*
X60721465Y-50842583D01*
X60731024Y-50834739D01*
X60941484Y-50678652D01*
X60951765Y-50671782D01*
X61176523Y-50537067D01*
X61187428Y-50531238D01*
X61424306Y-50419203D01*
X61435730Y-50414471D01*
X61682451Y-50326193D01*
X61694283Y-50322604D01*
X61893811Y-50272624D01*
X61948472Y-50258932D01*
X61960593Y-50256522D01*
X62219797Y-50218072D01*
X62232093Y-50216861D01*
X62373682Y-50209906D01*
X62463506Y-50205493D01*
X62471617Y-50206212D01*
X62471618Y-50205734D01*
X62485805Y-50205759D01*
X62499635Y-50208939D01*
X62513476Y-50205807D01*
X62517936Y-50205815D01*
X62536865Y-50203700D01*
X77462553Y-50203700D01*
X77480612Y-50205750D01*
G37*
%TD.AperFunction*%
%TD*%
M02*
