M48
; DRILL file {KiCad (6.0.5-0)} date 
; FORMAT={-:-/ absolute / metric / decimal}
; #@! TF.CreationDate,2025-05-14T10:56:53-04:00
; #@! TF.GenerationSoftware,Kicad,Pcbnew,(6.0.5-0)
; #@! TF.FileFunction,Plated,1,4,PTH
FMAT,2
METRIC
; #@! TA.AperFunction,Plated,PTH,ViaDrill
T1C0.300
; #@! TA.AperFunction,Plated,PTH,ViaDrill
T2C0.400
; #@! TA.AperFunction,Plated,PTH,ComponentDrill
T3C0.700
%
G90
G05
T1
X50.23Y-71.18
X51.5Y-66.95
X51.82Y-70.26
X51.83Y-65.83
X52.64Y-65.35
X53.63Y-65.79
X54.48Y-64.05
X55.51Y-57.1
X56.5Y-65.02
X56.63Y-56.85
X58.29Y-55.88
X58.33Y-69.53
X58.4Y-70.75
X60.52Y-71.51
X61.12Y-52.93
X61.68Y-50.7
X64.2Y-70.35
X64.5Y-69.0
X65.62Y-60.7
X65.65Y-59.39
X66.0Y-56.05
X66.95Y-53.65
X67.4Y-57.11
X67.69Y-59.25
X67.84Y-60.12
X69.1Y-54.0
X69.35Y-63.65
X69.35Y-64.75
X69.39Y-55.8
X69.66Y-66.15
X70.0Y-55.32
X70.65Y-69.09
X70.9Y-54.0
X71.15Y-64.75
X71.65Y-66.71
X72.2Y-55.15
X72.25Y-52.1
X72.25Y-53.9
X72.83Y-70.4
X72.87Y-66.0
X73.66Y-68.18
X73.84Y-69.9
X74.15Y-53.92
X74.6Y-63.25
X75.13Y-61.13
X75.25Y-52.1
X75.25Y-53.9
X75.5Y-61.83
X75.8Y-65.45
X76.0Y-54.41
X76.4Y-63.25
X76.44Y-50.7
X76.58Y-53.0
X76.83Y-57.37
X76.92Y-60.42
X77.33Y-59.65
X77.42Y-64.43
X77.51Y-58.87
X77.97Y-56.22
X78.12Y-51.98
X78.71Y-64.89
T2
X57.45Y-64.97
X57.45Y-69.54
X64.55Y-66.35
X70.82Y-53.0
T3
X60.0Y-54.5
X60.0Y-56.5
X60.0Y-58.5
X60.0Y-60.5
X60.0Y-62.5
X60.0Y-64.5
X60.0Y-66.5
X60.0Y-68.5
X62.0Y-55.5
X62.0Y-57.5
X62.0Y-59.5
X62.0Y-61.5
X62.0Y-63.5
X62.0Y-65.5
X62.0Y-67.5
T0
M30
