M48
; DRILL file {KiCad (6.0.5-0)} date Thursday, August 15, 2024 at 03:02:24 PM
; FORMAT={-:-/ absolute / metric / decimal}
; #@! TF.CreationDate,2024-08-15T15:02:24-04:00
; #@! TF.GenerationSoftware,Kicad,Pcbnew,(6.0.5-0)
; #@! TF.FileFunction,Plated,1,4,PTH
FMAT,2
METRIC
; #@! TA.AperFunction,Plated,PTH,ViaDrill
T1C0.300
; #@! TA.AperFunction,Plated,PTH,ViaDrill
T2C0.400
; #@! TA.AperFunction,Plated,PTH,ComponentDrill
T3C0.700
; #@! TA.AperFunction,Plated,PTH,ComponentDrill
T4C1.500
; #@! TA.AperFunction,Plated,PTH,ComponentDrill
T5C1.700
%
G90
G05
T1
X122.85Y-64.09
X128.595Y-62.56
X128.595Y-63.44
X130.82Y-68.06
X130.82Y-68.94
X131.22Y-61.4
X131.445Y-62.57
X131.445Y-63.43
X132.75Y-64.17
X133.49Y-63.68
X133.67Y-68.07
X133.67Y-68.93
X134.63Y-60.0
X135.08Y-62.0
X135.08Y-62.752
X138.17Y-55.56
X138.31Y-68.32
X138.32Y-71.17
X139.18Y-71.17
X139.19Y-68.32
X139.41Y-56.08
X140.24Y-66.82
X141.157Y-55.107
X141.6Y-58.53
X141.71Y-54.55
X141.845Y-68.06
X141.845Y-68.94
X142.39Y-55.63
X143.25Y-66.11
X143.75Y-52.702
X144.0Y-50.72
X144.5Y-62.89
X144.61Y-60.59
X144.67Y-56.12
X144.695Y-68.07
X144.695Y-68.93
X144.79Y-59.76
X145.42Y-60.44
X145.86Y-66.48
X147.66Y-67.33
X147.89Y-52.702
X147.93Y-56.8
X148.75Y-58.175
X148.94Y-50.74
X149.15Y-54.34
X149.28Y-55.61
X153.06Y-50.32
X153.07Y-53.17
X153.53Y-62.0
X153.93Y-53.17
X153.94Y-50.32
X157.25Y-50.5
T2
X99.8Y-67.93
X100.46Y-71.77
X105.36Y-62.46
X124.23Y-61.81
X128.99Y-66.15
X130.0Y-65.5
X131.28Y-65.18
X131.62Y-72.35
X132.41Y-56.34
X133.2Y-70.65
X134.6Y-58.99
X134.75Y-55.75
X135.19Y-66.75
X135.8Y-64.1
X136.0Y-51.25
X136.45Y-67.82
X136.98Y-66.89
X137.2Y-50.65
X141.25Y-70.65
X142.05Y-53.17
X142.23Y-63.99
X142.44Y-70.65
X145.12Y-58.66
X145.86Y-64.11
X147.6Y-58.65
X148.88Y-64.11
X149.85Y-51.75
X150.75Y-51.75
X152.975Y-69.1
X156.5Y-55.6
X156.59Y-65.49
X157.975Y-58.225
X158.32Y-70.24
X158.65Y-57.5
X159.6Y-57.2
X159.65Y-54.75
X160.86Y-67.48
X161.2Y-50.48
X161.2Y-53.67
X161.45Y-57.24
X161.45Y-59.76
X162.23Y-51.75
X162.38Y-71.69
X162.5Y-58.5
T3
X150.5Y-54.0
X150.5Y-56.0
X150.5Y-58.0
X150.5Y-60.0
X150.5Y-62.0
X150.5Y-64.0
X150.5Y-66.0
X150.5Y-68.0
X152.5Y-55.0
X152.5Y-57.0
X152.5Y-59.0
X152.5Y-61.0
X152.5Y-63.0
X152.5Y-65.0
X152.5Y-67.0
T4
X112.5Y-67.0
X122.96Y-67.96
T5
X109.96Y-64.46
X109.96Y-69.54
X115.04Y-64.46
X115.04Y-69.54
X120.42Y-65.42
X120.42Y-70.5
X125.5Y-65.42
X125.5Y-70.5
T0
M30
